<svg width="15" height="15" viewBox="0 0 15 15" fill="none" xmlns="http://www.w3.org/2000/svg">
<path d="M7.5 15C11.6421 15 15 11.6421 15 7.5C15 3.35786 11.6421 0 7.5 0C3.35786 0 0 3.35786 0 7.5C0 11.6421 3.35786 15 7.5 15Z" fill="#06B400" fill-opacity="0.1"/>
<path d="M5.90069 9.39301L4.55575 7.95939C4.48328 7.88215 4.385 7.83876 4.28252 7.83876C4.18004 7.83876 4.08176 7.88215 4.00929 7.95939C3.93683 8.03663 3.89612 8.1414 3.89612 8.25063C3.89612 8.35987 3.93683 8.46463 4.00929 8.54187L5.62944 10.2688C5.6653 10.3071 5.70789 10.3375 5.75477 10.3582C5.80165 10.379 5.85191 10.3896 5.90267 10.3896C5.95342 10.3896 6.00368 10.379 6.05057 10.3582C6.09745 10.3375 6.14004 10.3071 6.1759 10.2688L10.2764 5.89794C10.3489 5.8207 10.3896 5.71594 10.3896 5.6067C10.3896 5.49746 10.3489 5.3927 10.2764 5.31546C10.204 5.23822 10.1057 5.19482 10.0032 5.19482C9.90074 5.19482 9.80246 5.23822 9.73 5.31546L5.90069 9.39301Z" fill="#06B400"/>
<path d="M7.49994 14.3507C11.2835 14.3507 14.3506 11.2836 14.3506 7.50006C14.3506 3.71655 11.2835 0.649414 7.49994 0.649414C3.71643 0.649414 0.649292 3.71655 0.649292 7.50006C0.649292 11.2836 3.71643 14.3507 7.49994 14.3507Z" stroke="#06B400"/>
</svg>
