<svg width="15" height="8" viewBox="0 0 15 8" fill="none" xmlns="http://www.w3.org/2000/svg">
<path d="M14.3866 0.803706C14.3872 0.90887 14.367 1.01312 14.3273 1.11048C14.2875 1.20783 14.2289 1.29638 14.1549 1.37105L7.76227 7.76364C7.68799 7.83853 7.59961 7.89798 7.50223 7.93855C7.40486 7.97911 7.30042 8 7.19493 8C7.08944 8 6.985 7.97911 6.88762 7.93855C6.79025 7.89798 6.70187 7.83853 6.62759 7.76364L0.235001 1.37105C0.0845321 1.22058 -3.05258e-07 1.0165 -3.1456e-07 0.803707C-3.23862e-07 0.590912 0.084532 0.386834 0.235001 0.236365C0.385469 0.085897 0.589548 0.00136421 0.802343 0.0013642C1.01514 0.00136419 1.21922 0.0858969 1.36968 0.236365L7.19493 6.0696L13.0202 0.236365C13.0945 0.161469 13.1828 0.102021 13.2802 0.0614532C13.3776 0.0208854 13.482 -5.89318e-07 13.5875 -5.93929e-07C13.693 -5.9854e-07 13.7974 0.0208853 13.8948 0.0614532C13.9922 0.102021 14.0806 0.161469 14.1549 0.236365C14.2289 0.31103 14.2875 0.399579 14.3273 0.496936C14.367 0.594293 14.3872 0.698542 14.3866 0.803706Z" fill="black"/>
</svg>
