<svg width="15" height="8" viewBox="0 0 15 8" fill="none" xmlns="http://www.w3.org/2000/svg">
<path d="M6.36116e-06 7.19629C-0.000602078 7.09113 0.0195538 6.98688 0.0593201 6.88952C0.0990855 6.79217 0.157679 6.70362 0.231738 6.62895L6.62433 0.236364C6.69861 0.161468 6.78699 0.102022 6.88436 0.0614541C6.98174 0.0208862 7.08618 -3.19111e-07 7.19167 -3.145e-07C7.29715 -3.09889e-07 7.4016 0.0208863 7.49897 0.0614542C7.59635 0.102022 7.68472 0.161468 7.75901 0.236364L14.1516 6.62895C14.3021 6.77942 14.3866 6.9835 14.3866 7.19629C14.3866 7.40909 14.3021 7.61317 14.1516 7.76363C14.0011 7.9141 13.797 7.99864 13.5843 7.99864C13.3715 7.99864 13.1674 7.9141 13.0169 7.76363L7.19167 1.9304L1.36642 7.76363C1.29214 7.83853 1.20376 7.89798 1.10638 7.93855C1.00901 7.97911 0.904566 8 0.79908 8C0.693592 8 0.589149 7.97911 0.491774 7.93855C0.394399 7.89798 0.306022 7.83853 0.231738 7.76363C0.157679 7.68897 0.0990855 7.60042 0.0593201 7.50306C0.0195538 7.40571 -0.000602088 7.30146 6.36116e-06 7.19629Z" fill="black"/>
</svg>
