<svg width="10" height="11" viewBox="0 0 10 11" fill="white" xmlns="http://www.w3.org/2000/svg">
<path d="M8.00692 5.58165C7.86993 5.63651 7.74536 5.71729 7.64037 5.81937L6.19047 7.24831L6.19047 1.0996C6.19047 0.955196 6.16139 0.812209 6.1049 0.6788C6.04841 0.545391 5.96561 0.424171 5.86123 0.322064C5.75685 0.219957 5.63293 0.138962 5.49655 0.0837011C5.36017 0.0284414 5.214 0 5.06639 0C4.91877 0 4.7726 0.0284414 4.63622 0.0837011C4.49984 0.138962 4.37592 0.219957 4.27154 0.322064C4.16716 0.424171 4.08436 0.545391 4.02787 0.6788C3.97138 0.812209 3.94231 0.955196 3.94231 1.0996V7.24831L2.49104 5.82999C2.27609 5.64968 1.9995 5.55537 1.71654 5.56591C1.43359 5.57646 1.16513 5.69107 0.964818 5.88685C0.764508 6.08263 0.647111 6.34514 0.636092 6.62193C0.625074 6.89871 0.721246 7.16936 0.905384 7.37978L4.27491 10.6799C4.48555 10.8849 4.77061 11 5.06774 11C5.36488 11 5.64993 10.8849 5.86057 10.6799L9.23689 7.37978C9.39549 7.22598 9.50366 7.02945 9.5476 6.81527C9.59155 6.60108 9.56928 6.37894 9.48363 6.17719C9.39799 5.97544 9.25285 5.80321 9.06673 5.68248C8.88061 5.56174 8.66195 5.49798 8.43863 5.49931C8.29059 5.49868 8.14388 5.52666 8.00692 5.58165Z" fill="#000000"/>
</svg>
