<svg width="75" height="75" viewBox="0 0 80 80" fill="none" xmlns="http://www.w3.org/2000/svg">
<path d="M40 80C62.0914 80 80 62.0914 80 40C80 17.9086 62.0914 0 40 0C17.9086 0 0 17.9086 0 40C0 62.0914 17.9086 80 40 80Z" fill="#000000" fill-opacity="0.1"/>
<path d="M40 77.5C60.7107 77.5 77.5 60.7107 77.5 40C77.5 19.2893 60.7107 2.5 40 2.5C19.2893 2.5 2.5 19.2893 2.5 40C2.5 60.7107 19.2893 77.5 40 77.5Z" stroke="#stroke" stroke-width="5"/>
<path d="M39.896 56.104C41.5529 56.104 42.896 54.537 42.896 52.604C42.896 50.671 41.5529 49.104 39.896 49.104C38.2391 49.104 36.896 50.671 36.896 52.604C36.896 54.537 38.2391 56.104 39.896 56.104Z" fill="#000000" fill-opacity="1"/>
<path d="M39.9999 24.172C39.068 24.1749 38.1752 24.5464 37.5162 25.2053C36.8573 25.8642 36.4858 26.7571 36.4829 27.689V41.759C36.4829 42.6919 36.8535 43.5866 37.5132 44.2462C38.1728 44.9059 39.0675 45.2765 40.0004 45.2765C40.9333 45.2765 41.828 44.9059 42.4877 44.2462C43.1473 43.5866 43.5179 42.6919 43.5179 41.759V27.689C43.515 26.757 43.1434 25.8639 42.4842 25.205C41.8251 24.546 40.932 24.1746 39.9999 24.172Z" fill="#000000" fill-opacity="1"/>
</svg>
