<svg width="12" height="12" viewBox="0 0 12 12" fill="none" xmlns="http://www.w3.org/2000/svg">
<path d="M6.00003 2.75586C6.28053 2.75586 6.55953 2.93286 6.77203 3.28686L9.72802 8.21386C10.1535 8.92136 9.82502 9.50036 9.00002 9.50036H3.00003C2.17503 9.50036 1.84653 8.92086 2.27203 8.21386L5.22803 3.28686C5.44053 2.93286 5.71953 2.75586 6.00003 2.75586ZM6.00003 1.75586C5.35203 1.75586 4.75903 2.12586 4.37053 2.77136L1.41453 7.69936C1.02153 8.35386 0.978526 9.05186 1.29703 9.61436C1.61553 10.1769 2.23653 10.5004 3.00003 10.5004H9.00002C9.76353 10.5004 10.385 10.1774 10.703 9.61486C11.021 9.05236 10.9785 8.35436 10.5855 7.69986L7.62952 2.77286C7.24102 2.12586 6.64803 1.75586 6.00003 1.75586Z" fill="#FF0101"/>
<path d="M5.99998 8.64961C6.35896 8.64961 6.64998 8.35859 6.64998 7.99961C6.64998 7.64062 6.35896 7.34961 5.99998 7.34961C5.64099 7.34961 5.34998 7.64062 5.34998 7.99961C5.34998 8.35859 5.64099 8.64961 5.99998 8.64961Z" fill="#FF0101"/>
<path d="M6.75 5C6.75 4.585 6.4145 4.25 6 4.25C5.5855 4.25 5.25 4.585 5.25 5C5.25 5.0995 5.2705 5.1945 5.3055 5.281C5.5825 5.969 6 7 6 7C6 7 6.4175 5.969 6.6955 5.281C6.7295 5.1945 6.75 5.0995 6.75 5Z" fill="#FF0101"/>
</svg>
