<svg width="10" height="11" viewBox="0 0 10 11" fill="white" xmlns="http://www.w3.org/2000/svg">
<path d="M2.40888 5.41835C2.54587 5.36349 2.67044 5.28271 2.77543 5.18064L4.22533 3.75169L4.22533 9.9004C4.22533 10.0448 4.25441 10.1878 4.3109 10.3212C4.36739 10.4546 4.45019 10.5758 4.55457 10.6779C4.65895 10.78 4.78287 10.861 4.91925 10.9163C5.05563 10.9716 5.2018 11 5.34941 11C5.49703 11 5.6432 10.9716 5.77958 10.9163C5.91596 10.861 6.03988 10.78 6.14426 10.6779C6.24864 10.5758 6.33144 10.4546 6.38793 10.3212C6.44442 10.1878 6.4735 10.0448 6.4735 9.9004L6.4735 3.75169L7.92476 5.17001C8.13971 5.35032 8.4163 5.44463 8.69926 5.43409C8.98221 5.42354 9.25067 5.30893 9.45098 5.11315C9.65129 4.91737 9.76869 4.65486 9.77971 4.37808C9.79073 4.10129 9.69456 3.83064 9.51042 3.62022L6.14089 0.320099C5.93025 0.115088 5.6452 8.45246e-07 5.34806 7.92911e-07C5.05092 7.40575e-07 4.76587 0.115088 4.55523 0.320099L1.17891 3.62022C1.02031 3.77402 0.912145 3.97055 0.8682 4.18473C0.824255 4.39892 0.846525 4.62106 0.93217 4.82281C1.01781 5.02456 1.16295 5.19679 1.34907 5.31752C1.53519 5.43826 1.75385 5.50202 1.97717 5.50069C2.12521 5.50132 2.27192 5.47334 2.40888 5.41835Z" fill="#000000"/>
</svg>
