<svg width="24" height="24" viewBox="0 0 24 24" fill="none" xmlns="http://www.w3.org/2000/svg">
<path d="M17.5937 10.821H16.3153V8.09374C16.3153 5.4517 14.142 3.27841 11.5 3.27841C8.85795 3.27841 6.68466 5.4517 6.68466 8.09374V10.821H5.40625V8.09374C5.40625 4.72727 8.13352 2 11.5 2C14.8665 2 17.5937 4.72727 17.5937 8.09374V10.821Z" fill="#000000"/>
<path d="M16.9545 22.4124H6.04546C4.93751 22.4124 4 21.4749 4 20.3669V12.1851C4 11.0771 4.93751 10.1396 6.04546 10.1396H16.9545C18.0625 10.1396 19 11.0771 19 12.1851V20.3669C19 21.5175 18.0625 22.4124 16.9545 22.4124ZM6.04546 11.5033C5.66194 11.5033 5.36364 11.8016 5.36364 12.1851V20.3669C5.36364 20.7504 5.66194 21.0487 6.04546 21.0487H16.9545C17.3381 21.0487 17.6364 20.7504 17.6364 20.3669V12.1851C17.6364 11.8016 17.3381 11.5033 16.9545 11.5033H6.04546Z" fill="#000000"/>
<path d="M12.8636 14.2303C12.8636 14.9974 12.267 15.594 11.5 15.594C10.7329 15.594 10.1364 14.9974 10.1364 14.2303C10.1364 13.4633 10.7329 12.8667 11.5 12.8667C12.267 12.8667 12.8636 13.5059 12.8636 14.2303Z" fill="#000000"/>
<path d="M11.8409 14.2305H11.1591L10.4773 18.3214H12.5227L11.8409 14.2305Z" fill="#000000"/>
</svg>
