<svg width="22" height="22" viewBox="0 0 22 22" fill="none" xmlns="http://www.w3.org/2000/svg">
<path d="M0.955155 4.20121L1.13193 4.02444L0.955155 4.20121C1.06651 4.31256 1.21753 4.37512 1.375 4.37512H2.55418C2.68583 5.10638 3.05804 5.77534 3.61493 6.27364C4.2278 6.82204 5.02134 7.12523 5.84375 7.12523C6.66616 7.12523 7.4597 6.82204 8.07258 6.27364C8.62947 5.77534 9.00166 5.10638 9.13332 4.37512H20.625C20.7825 4.37512 20.9335 4.31256 21.0448 4.20121L20.8681 4.02444L21.0448 4.20121C21.1562 4.08986 21.2188 3.93884 21.2188 3.78137C21.2188 3.62389 21.1562 3.47287 21.0448 3.36152L20.8681 3.5383L21.0448 3.36152C20.9335 3.25017 20.7825 3.18762 20.625 3.18762H9.13332C9.00166 2.45636 8.62947 1.7874 8.07258 1.28909C7.4597 0.740698 6.66616 0.4375 5.84375 0.4375C5.02134 0.4375 4.2278 0.740698 3.61493 1.28909C3.05804 1.7874 2.68583 2.45636 2.55418 3.18762H1.375C1.21753 3.18762 1.0665 3.25017 0.955155 3.36152C0.843806 3.47287 0.78125 3.62389 0.78125 3.78137C0.78125 3.93884 0.843806 4.08986 0.955155 4.20121ZM5.8439 1.62512C6.27032 1.62515 6.68715 1.75161 7.0417 1.98851C7.39629 2.22544 7.67266 2.5622 7.83587 2.95621C7.99907 3.35021 8.04177 3.78376 7.95857 4.20203C7.87537 4.6203 7.67001 5.00451 7.36845 5.30607C7.06689 5.60762 6.68268 5.81299 6.26441 5.89619C5.84614 5.97938 5.41259 5.93668 5.01859 5.77348C4.62459 5.61028 4.28783 5.33391 4.05089 4.97932C3.81398 4.62475 3.68752 4.20791 3.6875 3.78148C3.68824 3.20981 3.91567 2.66176 4.31991 2.25752C4.72415 1.85328 5.27222 1.62585 5.8439 1.62512Z" fill="black" stroke="black" stroke-width="0.5"/>
<path d="M14.9583 12.793C15.3128 13.0298 15.7296 13.1563 16.1559 13.1564C16.7277 13.1557 17.2758 12.9282 17.6801 12.524C18.0844 12.1197 18.3118 11.5716 18.3125 10.9998L14.9583 12.793ZM14.9583 12.793C14.6037 12.556 14.3273 12.2193 14.1641 11.8253M14.9583 12.793L14.1641 11.8253M14.1641 11.8253C14.0009 11.4313 13.9582 10.9977 14.0414 10.5795M14.1641 11.8253L14.0414 10.5795M14.0414 10.5795C14.1246 10.1612 14.33 9.77698 14.6316 9.47542M14.0414 10.5795L14.6316 9.47542M14.6316 9.47542C14.9331 9.17386 15.3173 8.9685 15.7356 8.8853M14.6316 9.47542L15.7356 8.8853M15.7356 8.8853C16.1539 8.8021 16.5874 8.8448 16.9814 9.008M15.7356 8.8853L16.9814 9.008M16.9814 9.008C17.3754 9.1712 17.7122 9.44758 17.9491 9.80217M16.9814 9.008L17.9491 9.80217M17.9491 9.80217C18.186 10.1567 18.3124 10.5735 18.3125 10.9998L17.9491 9.80217ZM0.955155 10.5803L1.13193 10.757L0.955155 10.5803C0.843806 10.6916 0.78125 10.8426 0.78125 11.0001C0.78125 11.1576 0.843805 11.3086 0.955155 11.42C1.06651 11.5313 1.21753 11.5939 1.375 11.5939H12.8667C12.9983 12.3251 13.3705 12.9941 13.9274 13.4924C14.5403 14.0408 15.3338 14.344 16.1562 14.344C16.9787 14.344 17.7722 14.0408 18.3851 13.4924C18.942 12.9941 19.3142 12.3251 19.4458 11.5939H20.625C20.7825 11.5939 20.9335 11.5313 21.0448 11.42L20.8681 11.2432L21.0448 11.42C21.1562 11.3086 21.2188 11.1576 21.2188 11.0001C21.2188 10.8426 21.1562 10.6916 21.0448 10.5803L20.8681 10.757L21.0448 10.5803C20.9335 10.4689 20.7825 10.4064 20.625 10.4064H19.4458C19.3142 9.67511 18.942 9.00615 18.3851 8.50784C17.7722 7.95945 16.9787 7.65625 16.1562 7.65625C15.3338 7.65625 14.5403 7.95945 13.9274 8.50784C13.3705 9.00615 12.9983 9.67511 12.8667 10.4064H1.375C1.21753 10.4064 1.06651 10.4689 0.955155 10.5803Z" fill="black" stroke="black" stroke-width="0.5"/>
<path d="M7.3958 20.0112C7.75031 20.2481 8.16709 20.3746 8.59345 20.3746C9.16519 20.3739 9.71331 20.1465 10.1176 19.7422C10.5219 19.3379 10.7493 18.7898 10.75 18.2181L7.3958 20.0112ZM7.3958 20.0112C7.04121 19.7743 6.76484 19.4375 6.60163 19.0435M7.3958 20.0112L6.60163 19.0435M6.60163 19.0435C6.43843 18.6495 6.39573 18.216 6.47893 17.7977M6.60163 19.0435L6.47893 17.7977M6.47893 17.7977C6.56213 17.3794 6.76749 16.9952 7.06905 16.6937M6.47893 17.7977L7.06905 16.6937M7.06905 16.6937C7.37061 16.3921 7.75481 16.1868 8.17309 16.1036M7.06905 16.6937L8.17309 16.1036M8.17309 16.1036C8.59136 16.0204 9.02491 16.0631 9.41891 16.2263M8.17309 16.1036L9.41891 16.2263M9.41891 16.2263C9.81291 16.3895 10.1497 16.6658 10.3866 17.0204M9.41891 16.2263L10.3866 17.0204M10.3866 17.0204C10.6235 17.3749 10.7499 17.7917 10.75 18.2181L10.3866 17.0204ZM0.955155 17.7985L1.13193 17.9753L0.955155 17.7985C0.843806 17.9099 0.78125 18.0609 0.78125 18.2184C0.78125 18.3759 0.843805 18.5269 0.955155 18.6382L1.13193 18.4614L0.955155 18.6382C1.06651 18.7496 1.21753 18.8121 1.375 18.8121H5.30418C5.43583 19.5434 5.80803 20.2124 6.36492 20.7107C6.9778 21.2591 7.77134 21.5622 8.59375 21.5622C9.41616 21.5622 10.2097 21.2591 10.8226 20.7107C11.3795 20.2124 11.7517 19.5434 11.8833 18.8121H20.625C20.7825 18.8121 20.9335 18.7496 21.0448 18.6382L20.8681 18.4614L21.0448 18.6382C21.1562 18.5269 21.2188 18.3759 21.2188 18.2184C21.2188 18.0609 21.1562 17.9099 21.0448 17.7985L20.8681 17.9753L21.0448 17.7985C20.9335 17.6872 20.7825 17.6246 20.625 17.6246H11.8833C11.7517 16.8934 11.3795 16.2244 10.8226 15.7261C10.2097 15.1777 9.41616 14.8745 8.59375 14.8745C7.77134 14.8745 6.9778 15.1777 6.36492 15.7261C5.80803 16.2244 5.43583 16.8934 5.30418 17.6246H1.375C1.21753 17.6246 1.06651 17.6872 0.955155 17.7985Z" fill="black" stroke="black" stroke-width="0.5"/>
</svg>
