<svg width="24" height="24" viewBox="0 0 24 24" fill="none" xmlns="http://www.w3.org/2000/svg">
<path d="M19.875 22.5H13.875C13.668 22.5 13.5 22.332 13.5 22.125V16.125C13.5 15.918 13.668 15.75 13.875 15.75H19.875C20.082 15.75 20.25 15.918 20.25 16.125V22.125C20.25 22.332 20.082 22.5 19.875 22.5ZM14.25 21.75H19.5V16.5H14.25V21.75Z" fill="black"/>
<path d="M7.875 22.5H1.875C1.668 22.5 1.5 22.332 1.5 22.125V16.125C1.5 15.918 1.668 15.75 1.875 15.75H7.875C8.082 15.75 8.25 15.918 8.25 16.125V22.125C8.25 22.332 8.082 22.5 7.875 22.5ZM2.25 21.75H7.5V16.5H2.25V21.75Z" fill="black"/>
<path d="M19.875 10.5H13.875C13.668 10.5 13.5 10.332 13.5 10.125V4.125C13.5 4.02525 13.5397 3.93 13.6095 3.8595L15.8595 1.6095C15.93 1.53975 16.0252 1.5 16.125 1.5H22.125C22.332 1.5 22.5 1.668 22.5 1.875V7.875C22.5 7.97475 22.4602 8.07 22.3905 8.1405L20.1405 10.3905C20.07 10.4602 19.9748 10.5 19.875 10.5ZM14.25 9.75H19.7197L21.75 7.71975V2.25H16.2803L14.25 4.28025V9.75Z" fill="black"/>
<path d="M19.875 10.5H13.875C13.668 10.5 13.5 10.332 13.5 10.125V4.125C13.5 3.918 13.668 3.75 13.875 3.75H19.875C20.082 3.75 20.25 3.918 20.25 4.125V10.125C20.25 10.332 20.082 10.5 19.875 10.5ZM14.25 9.75H19.5V4.5H14.25V9.75Z" fill="black"/>
<path d="M7.875 10.5H1.875C1.668 10.5 1.5 10.332 1.5 10.125V4.125C1.5 3.918 1.668 3.75 1.875 3.75H7.875C8.082 3.75 8.25 3.918 8.25 4.125V10.125C8.25 10.332 8.082 10.5 7.875 10.5ZM2.25 9.75H7.5V4.5H2.25V9.75Z" fill="black"/>
<path d="M19.8747 16.5004C19.7787 16.5004 19.6827 16.4637 19.6092 16.3909C19.4629 16.2447 19.4629 16.0069 19.6092 15.8607L21.4842 13.9857C21.6304 13.8394 21.8682 13.8394 22.0145 13.9857C22.1607 14.1319 22.1607 14.3697 22.0145 14.5159L20.1394 16.3909C20.0667 16.4637 19.9707 16.5004 19.8747 16.5004Z" fill="black"/>
<path d="M7.8747 16.5004C7.7787 16.5004 7.6827 16.4637 7.6092 16.3909C7.46295 16.2447 7.46295 16.0069 7.6092 15.8607L9.4842 13.9857C9.63045 13.8394 9.8682 13.8394 10.0144 13.9857C10.1607 14.1319 10.1607 14.3697 10.0144 14.5159L8.13945 16.3909C8.0667 16.4637 7.9707 16.5004 7.8747 16.5004Z" fill="black"/>
<path d="M19.8747 4.50041C19.7787 4.50041 19.6827 4.46366 19.6092 4.39091C19.4629 4.24466 19.4629 4.00691 19.6092 3.86066L21.4842 1.98566C21.6304 1.83941 21.8682 1.83941 22.0145 1.98566C22.1607 2.13191 22.1607 2.36966 22.0145 2.51591L20.1394 4.39091C20.0667 4.46366 19.9707 4.50041 19.8747 4.50041Z" fill="black"/>
<path d="M7.8747 4.50041C7.7787 4.50041 7.6827 4.46366 7.6092 4.39091C7.46295 4.24466 7.46295 4.00691 7.6092 3.86066L9.4842 1.98566C9.63045 1.83941 9.8682 1.83941 10.0144 1.98566C10.1607 2.13191 10.1607 2.36966 10.0144 2.51591L8.13945 4.39091C8.0667 4.46366 7.9707 4.50041 7.8747 4.50041Z" fill="black"/>
<path d="M13.5 18.75H9.375C9.168 18.75 9 18.582 9 18.375C9 18.168 9.168 18 9.375 18H13.5C13.707 18 13.875 18.168 13.875 18.375C13.875 18.582 13.707 18.75 13.5 18.75Z" fill="black"/>
<path d="M13.5 6.75H9.375C9.168 6.75 9 6.582 9 6.375C9 6.168 9.168 6 9.375 6H13.5C13.707 6 13.875 6.168 13.875 6.375C13.875 6.582 13.707 6.75 13.5 6.75Z" fill="black"/>
<path d="M13.875 22.5002C13.668 22.5002 13.5 22.3322 13.5 22.1252V16.1252C13.5 16.0254 13.5397 15.9302 13.6095 15.8597L15.8595 13.6097C16.0057 13.4634 16.2435 13.4634 16.3898 13.6097C16.536 13.7559 16.536 13.9937 16.3898 14.1399L14.25 16.2804V21.7502H19.7197L21.75 19.7199V14.2502H19.125C18.918 14.2502 18.75 14.0822 18.75 13.8752C18.75 13.6682 18.918 13.5002 19.125 13.5002H22.125C22.332 13.5002 22.5 13.6682 22.5 13.8752V19.8752C22.5 19.9749 22.4602 20.0702 22.3905 20.1407L20.1405 22.3907C20.07 22.4604 19.9748 22.5002 19.875 22.5002H13.875Z" fill="black"/>
<path d="M17.625 15C17.418 15 17.25 14.832 17.25 14.625V10.5C17.25 10.293 17.418 10.125 17.625 10.125C17.832 10.125 18 10.293 18 10.5V14.625C18 14.832 17.832 15 17.625 15Z" fill="black"/>
<path d="M5.625 15C5.418 15 5.25 14.832 5.25 14.625V10.5C5.25 10.293 5.418 10.125 5.625 10.125C5.832 10.125 6 10.293 6 10.5V14.625C6 14.832 5.832 15 5.625 15Z" fill="black"/>
<path d="M1.875 10.5C1.668 10.5 1.5 10.332 1.5 10.125V4.125C1.5 4.02525 1.53975 3.93 1.6095 3.8595L3.8595 1.6095C3.93 1.53975 4.02525 1.5 4.125 1.5H10.125C10.332 1.5 10.5 1.668 10.5 1.875V4.875C10.5 5.082 10.332 5.25 10.125 5.25C9.918 5.25 9.75 5.082 9.75 4.875V2.25H4.28025L2.25 4.28025V9.75H7.71975L9.86025 7.6095C10.0065 7.46325 10.2442 7.46325 10.3905 7.6095C10.5367 7.75575 10.5367 7.9935 10.3905 8.13975L8.1405 10.3897C8.07 10.4602 7.97475 10.5 7.875 10.5H1.875Z" fill="black"/>
<path d="M7.875 22.5002H1.875C1.668 22.5002 1.5 22.3322 1.5 22.1252V16.1252C1.5 16.0254 1.53975 15.9302 1.6095 15.8597L3.8595 13.6097C4.00575 13.4634 4.2435 13.4634 4.38975 13.6097C4.536 13.7559 4.536 13.9937 4.38975 14.1399L2.25 16.2804V21.7502H7.71975L9.86025 19.6097C10.0065 19.4634 10.2442 19.4634 10.3905 19.6097C10.5367 19.7559 10.5367 19.9937 10.3905 20.1399L8.1405 22.3899C8.07 22.4604 7.97475 22.5002 7.875 22.5002Z" fill="black"/>
<path d="M9.75 16.875V14.25H7.125C6.918 14.25 6.75 14.082 6.75 13.875C6.75 13.668 6.918 13.5 7.125 13.5H10.125C10.332 13.5 10.5 13.668 10.5 13.875V16.875C10.5 17.082 10.332 17.25 10.125 17.25C9.918 17.25 9.75 17.082 9.75 16.875Z" fill="black"/>
</svg>
