<svg width="24" height="24" viewBox="0 0 24 24" fill="none" xmlns="http://www.w3.org/2000/svg">
<path d="M1.99951 16.9998H21.9998V19H1.99951V16.9998ZM3.14926 12.9497L3.99976 11.47L4.84951 12.9497L6.14926 12.1997L5.29951 10.72H6.99976V9.22H5.29951L6.15001 7.75L4.84951 7L3.99976 8.47L3.15001 7L1.84951 7.75L2.70001 9.22H0.999756V10.72H2.70001L1.84951 12.1997L3.14926 12.9497ZM9.84901 12.1997L11.1488 12.9497L11.9985 11.47L12.8498 12.9497L14.1495 12.1997L13.2998 10.72H15V9.22H13.2998L14.1495 7.75L12.8498 7L12 8.47L11.1495 7L9.84976 7.75L10.6995 9.22H9.00001V10.72H10.7003L9.84901 12.1997ZM22.9995 9.22H21.3L22.1498 7.75L20.85 7L19.9995 8.47L19.1498 7L17.85 7.75L18.6998 9.22H16.9995V10.72H18.6998L17.85 12.1997L19.1498 12.9497L19.9995 11.47L20.8493 12.9497L22.149 12.1997L21.3 10.72H23.0003L22.9995 9.22Z" fill="#000000"/>
</svg>
