<svg width="24" height="24" viewBox="0 0 24 24" fill="none" xmlns="http://www.w3.org/2000/svg">
<path d="M11.5 2C6.26455 2 2 6.26455 2 11.5C2 16.7354 6.26455 21 11.5 21C16.7354 21 21 16.7354 21 11.5C21 6.26455 16.7354 2 11.5 2ZM11.5 3.9C15.7086 3.9 19.1 7.29139 19.1 11.5C19.1 15.7086 15.7086 19.1 11.5 19.1C7.29139 19.1 3.9 15.7086 3.9 11.5C3.9 7.29139 7.29139 3.9 11.5 3.9Z" fill="#000000"/>
<path d="M12.2149 6.08295C10.6949 5.70295 9.00072 6.66878 8.54155 8.15712C8.39905 8.58462 8.63655 9.02795 9.04822 9.15462C9.45988 9.28128 9.90322 9.05962 10.0457 8.63212C10.2674 7.93545 11.1224 7.44462 11.8507 7.61878C12.5632 7.79295 13.1016 8.63212 12.959 9.36045C12.8324 10.0888 12.0566 10.6746 11.3124 10.5796C11.0907 10.548 10.8532 10.6271 10.6949 10.7696C10.5207 10.928 10.4257 11.1338 10.4257 11.3713L10.4099 13.8413C10.4099 14.2846 10.7582 14.633 11.2016 14.633C11.6449 14.633 11.9932 14.2846 11.9932 13.8413L12.0091 12.1155C13.2282 11.878 14.3049 10.8805 14.5266 9.62962C14.8116 8.09378 13.7507 6.46295 12.2149 6.08295Z" fill="#000000"/>
<path d="M11.2333 15.3296H11.2174C10.7899 15.3296 10.4416 15.6938 10.4258 16.1213C10.4258 16.1371 10.4258 16.2796 10.4258 16.2954C10.4258 16.7229 10.7741 17.0079 11.2016 17.0238H11.2174C11.6449 17.0238 11.9933 16.6279 12.0091 16.2004C12.0091 16.1846 12.0091 16.0896 12.0091 16.0738C11.9933 15.6463 11.6608 15.3296 11.2333 15.3296Z" fill="#000000"/>
</svg>
