<svg width="28" height="28" viewBox="0 0 28 28" fill="none" xmlns="http://www.w3.org/2000/svg">
<path d="M28 14C28 12.031 26.569 10.389 24.693 10.06L24.346 9.225C25.441 7.665 25.291 5.494 23.899 4.101C22.553 2.755 20.3 2.58 18.774 3.653L17.939 3.307C17.61 1.431 15.969 0 14 0C12.031 0 10.389 1.431 10.06 3.307L9.225 3.653C7.667 2.56 5.494 2.708 4.101 4.101C3.345 4.856 2.929 5.861 2.929 6.93C2.929 7.763 3.182 8.558 3.653 9.226L3.307 10.06C1.43 10.389 0 12.031 0 14C0 15.97 1.431 17.611 3.307 17.94L3.653 18.774C2.559 20.335 2.708 22.506 4.101 23.899C5.445 25.244 7.702 25.42 9.226 24.347L10.061 24.693C10.39 26.569 12.032 28 14.001 28C15.971 28 17.612 26.569 17.94 24.693L18.775 24.346C20.334 25.441 22.505 25.293 23.9 23.899C24.656 23.143 25.072 22.139 25.072 21.07C25.072 20.237 24.818 19.442 24.348 18.774L24.694 17.94C26.569 17.612 28 15.971 28 14C28 14.001 28 14.001 28 14ZM24 16.002C23.596 16.002 23.231 16.245 23.076 16.619L22.268 18.567C22.113 18.941 22.199 19.371 22.485 19.657C22.863 20.035 23.071 20.537 23.071 21.071C23.071 21.606 22.863 22.108 22.485 22.486C21.705 23.266 20.434 23.264 19.656 22.486C19.37 22.2 18.94 22.114 18.566 22.269L16.617 23.077C16.243 23.232 16 23.597 16 24.001C16 25.104 15.103 26.001 14 26.001C12.897 26.001 12 25.104 12 24.001C12 23.597 11.756 23.231 11.383 23.077L9.433 22.269C9.058 22.114 8.63 22.2 8.343 22.486C7.587 23.242 6.271 23.242 5.515 22.486C4.735 21.706 4.735 20.437 5.515 19.657C5.801 19.371 5.887 18.941 5.732 18.567L4.924 16.619C4.769 16.245 4.404 16.002 4 16.002C2.897 16.002 2 15.105 2 14.001C2 12.898 2.897 12.001 4 12.001C4.404 12.001 4.769 11.757 4.924 11.384L5.732 9.434C5.887 9.06 5.801 8.63 5.515 8.344C5.137 7.966 4.929 7.464 4.929 6.93C4.929 6.396 5.137 5.893 5.515 5.515C6.295 4.735 7.564 4.735 8.344 5.515C8.63 5.801 9.06 5.885 9.434 5.732L11.383 4.924C11.756 4.769 12 4.404 12 4C12 2.897 12.897 2 14 2C15.103 2 16 2.897 16 4C16 4.404 16.244 4.769 16.617 4.924L18.567 5.732C18.941 5.886 19.371 5.802 19.657 5.515C20.413 4.759 21.729 4.759 22.485 5.515C23.264 6.295 23.264 7.564 22.485 8.344C22.199 8.63 22.113 9.06 22.268 9.434L23.076 11.384C23.23 11.756 23.596 12 24 12C25.103 12 26 12.897 26 14C26 15.104 25.103 16.002 24 16.002Z" fill="black"/>
<path d="M14 9C11.243 9 9 11.243 9 14C9 16.757 11.243 19 14 19C14.552 19 15 18.553 15 18C15 17.447 14.552 17 14 17C12.346 17 11 15.654 11 14C11 12.346 12.346 11 14 11C15.654 11 17 12.346 17 14C17 14.582 16.834 15.146 16.519 15.632C16.218 16.095 16.35 16.714 16.814 17.015C17.277 17.316 17.896 17.185 18.197 16.72C18.722 15.91 19 14.969 19 14C19 11.243 16.757 9 14 9Z" fill="black"/>
</svg>
