<svg width="24" height="24" viewBox="0 0 24 24" fill="none" xmlns="http://www.w3.org/2000/svg">
<path d="M18 16.5C17.8248 16.5003 17.6549 16.4393 17.52 16.3275L14.13 13.5H12.75C11.1587 13.5 9.63258 12.8679 8.50736 11.7426C7.38214 10.6174 6.75 9.0913 6.75 7.5C6.75 5.9087 7.38214 4.38258 8.50736 3.25736C9.63258 2.13214 11.1587 1.5 12.75 1.5H17.25C18.7074 1.50416 20.1134 2.03861 21.2055 3.00354C22.2977 3.96848 23.0013 5.29793 23.185 6.74367C23.3687 8.1894 23.0199 9.65258 22.2038 10.86C21.3877 12.0674 20.16 12.9365 18.75 13.305V15.75C18.7504 15.8934 18.7096 16.034 18.6325 16.155C18.5554 16.2759 18.4452 16.3723 18.315 16.4325C18.2161 16.4776 18.1087 16.5006 18 16.5ZM12.75 3C11.5565 3 10.4119 3.47411 9.56802 4.31802C8.72411 5.16193 8.25 6.30653 8.25 7.5C8.25 8.69347 8.72411 9.83807 9.56802 10.682C10.4119 11.5259 11.5565 12 12.75 12H14.4C14.5752 11.9997 14.7451 12.0607 14.88 12.1725L17.25 14.145V12.69C17.2482 12.508 17.3127 12.3316 17.4313 12.1936C17.55 12.0556 17.7148 11.9655 17.895 11.94C19.0034 11.7584 20.0037 11.1688 20.6995 10.2872C21.3954 9.40559 21.7364 8.29564 21.6556 7.17542C21.5747 6.05519 21.0779 5.00569 20.2628 4.23309C19.4476 3.46049 18.3729 3.02066 17.25 3H12.75Z" fill="#000000"/>
<path fill-rule="evenodd" clip-rule="evenodd" d="M18.5303 4.71967C18.8232 5.01256 18.8232 5.48744 18.5303 5.78033L14.0303 10.2803C13.7374 10.5732 13.2626 10.5732 12.9697 10.2803L11.4697 8.78032C11.1768 8.48745 11.1768 8.01255 11.4697 7.71968C11.7626 7.4268 12.2374 7.4268 12.5303 7.71968L13.5 8.68935L17.4697 4.71967C17.7625 4.42678 18.2374 4.42678 18.5303 4.71967Z" fill="#000000"/>
<path d="M5.99999 22.4998C5.89134 22.5003 5.78386 22.4773 5.68499 22.4323C5.55481 22.372 5.44463 22.2757 5.36753 22.1547C5.29043 22.0337 5.24964 21.8932 5.24999 21.7498V19.3048C4.05665 18.9868 2.99047 18.3084 2.19699 17.3621C1.4035 16.4158 0.921351 15.2476 0.816348 14.0171C0.711345 12.7866 0.988603 11.5537 1.61028 10.4866C2.23196 9.41954 3.16777 8.57028 4.28999 8.05475C4.38057 8.00702 4.47996 7.97834 4.58205 7.97048C4.68413 7.96261 4.78674 7.97574 4.88356 8.00903C4.98038 8.04233 5.06936 8.0951 5.14501 8.16409C5.22066 8.23308 5.28139 8.31683 5.32344 8.41018C5.3655 8.50352 5.388 8.6045 5.38956 8.70687C5.39111 8.80924 5.37169 8.91085 5.33249 9.00543C5.29328 9.10002 5.23513 9.18557 5.16161 9.25683C5.08809 9.32808 5.00075 9.38353 4.90499 9.41975C4.01994 9.82104 3.28857 10.4981 2.82025 11.3496C2.35194 12.201 2.17185 13.1813 2.30692 14.1436C2.44198 15.106 2.88495 15.9987 3.56956 16.6884C4.25418 17.3781 5.14366 17.8276 6.10499 17.9698C6.2852 17.9952 6.45 18.0854 6.56867 18.2233C6.68734 18.3613 6.75178 18.5378 6.74999 18.7198V20.1748L9.11999 18.2023C9.25065 18.0796 9.42093 18.0077 9.59999 17.9998H11.25C11.8506 18.0009 12.4453 17.8805 12.9982 17.646C13.5511 17.4114 14.0509 17.0674 14.4675 16.6348C14.6067 16.4915 14.7972 16.4095 14.9969 16.4067C15.0958 16.4053 15.194 16.4234 15.2859 16.4599C15.3778 16.4965 15.4616 16.5508 15.5325 16.6198C15.6034 16.6887 15.66 16.7709 15.6992 16.8618C15.7383 16.9526 15.7592 17.0503 15.7606 17.1491C15.762 17.248 15.7439 17.3462 15.7073 17.4381C15.6707 17.53 15.6164 17.6138 15.5475 17.6848C14.9886 18.2589 14.3205 18.7153 13.5824 19.027C12.8443 19.3387 12.0512 19.4995 11.25 19.4998H9.86999L6.47999 22.3273C6.34506 22.4391 6.17523 22.5001 5.99999 22.4998Z" fill="#000000"/>
</svg>
