<svg width="20" height="20" viewBox="0 0 20 20" fill="none" xmlns="http://www.w3.org/2000/svg">
<path d="M14.3582 10.0355C13.9739 9.85282 13.5817 9.69544 13.1827 9.5636C14.475 8.5936 15.3125 7.04903 15.3125 5.31251C15.3125 2.38321 12.9293 0 9.99999 0C7.07066 0 4.68749 2.38321 4.68749 5.31251C4.68749 7.05094 5.52686 8.59704 6.82159 9.56684C5.63534 9.95739 4.52225 10.5651 3.54804 11.3664C1.76163 12.8358 0.519556 14.8854 0.0506881 17.1376C-0.0962651 17.8433 0.0797897 18.5682 0.533618 19.1262C0.98522 19.6815 1.65487 20 2.37081 20H11.9922C12.4237 20 12.7734 19.6503 12.7734 19.2188C12.7734 18.7873 12.4237 18.4375 11.9922 18.4375H2.37081C2.03729 18.4375 1.83608 18.2513 1.74585 18.1404C1.59003 17.9488 1.52971 17.6994 1.58038 17.4561C2.39112 13.5617 5.82612 10.717 9.79288 10.621C9.8616 10.6237 9.93062 10.625 9.99999 10.625C10.07 10.625 10.1398 10.6236 10.2091 10.6209C11.4248 10.6495 12.5939 10.9269 13.6874 11.4467C14.0771 11.6319 14.5432 11.4662 14.7284 11.0765C14.9136 10.6868 14.7479 10.2208 14.3582 10.0355ZM10.1905 9.0577C10.1271 9.05657 10.0636 9.05598 9.99999 9.05598C9.93695 9.05598 9.8739 9.05661 9.81093 9.05778C7.83066 8.95899 6.24999 7.31688 6.24999 5.31251C6.24999 3.24473 7.93222 1.5625 9.99999 1.5625C12.0678 1.5625 13.75 3.24473 13.75 5.31251C13.75 7.31637 12.1701 8.95817 10.1905 9.0577Z" fill="#000000"/>
<path d="M19.2188 15.5078H17.0703V13.3594C17.0703 12.9279 16.7206 12.5781 16.2891 12.5781C15.8576 12.5781 15.5078 12.9279 15.5078 13.3594V15.5078H13.3594C12.9279 15.5078 12.5781 15.8576 12.5781 16.2891C12.5781 16.7206 12.9279 17.0703 13.3594 17.0703H15.5078V19.2188C15.5078 19.6502 15.8576 20 16.2891 20C16.7206 20 17.0703 19.6502 17.0703 19.2188V17.0703H19.2188C19.6502 17.0703 20 16.7206 20 16.2891C20 15.8576 19.6502 15.5078 19.2188 15.5078Z" fill="#000000"/>
</svg>
