<svg width="84" height="94" viewBox="0 0 84 94" fill="none" xmlns="http://www.w3.org/2000/svg">
<path d="M42 1C35.7314 6.9627 19.6975 12.9866 1 25.7638C1 25.7638 2.16713 68.938 42 92.5394V1Z" fill="url(#paint0_linear_74_7107)" stroke="black" stroke-linecap="round" stroke-linejoin="round"/>
<path d="M42 1C48.2639 6.9627 64.3025 12.9866 83 25.7638C83 25.7638 81.8329 68.938 42 92.5394V1Z" fill="black" stroke="black" stroke-linecap="round" stroke-linejoin="round"/>
<path d="M42.0006 4.67529C34.4378 10.0356 21.3312 15.1465 4.00781 26.9825C4.00781 26.9825 5.09023 66.9847 42.0006 88.8636C78.9109 66.9942 79.9933 26.9825 79.9933 26.9825C62.6653 15.1512 49.6198 10.0356 42.0006 4.67529Z" fill="black" stroke="black" stroke-linecap="round" stroke-linejoin="round"/>
<path d="M73.5173 22.7329C47.0875 30.7334 26.9264 53.9582 17.7588 66.2083C24.0649 75.4595 32.3441 83.1971 42.0002 88.8638C78.9105 66.9943 79.9929 26.9826 79.9929 26.9826C77.7622 25.464 75.6037 24.0475 73.5173 22.7329Z" fill="url(#paint1_linear_74_7107)" stroke="black" stroke-linecap="round" stroke-linejoin="round"/>
<path d="M56.3919 45.0119H28.0562C27.4321 45.0119 26.8336 44.7639 26.3923 44.3227C25.951 43.8814 25.7031 43.2829 25.7031 42.6588V29.3215C25.7762 24.9907 27.548 20.8619 30.6366 17.8251C33.7251 14.7882 37.8832 13.0864 42.2147 13.0864C46.5461 13.0864 50.7042 14.7882 53.7928 17.8251C56.8813 20.8619 58.6531 24.9907 58.7262 29.3215V42.6588C58.7262 43.2796 58.4809 43.8753 58.0437 44.316C57.6064 44.7568 57.0127 45.0069 56.3919 45.0119ZM30.4281 40.3057H54.0389V29.3215C53.9772 26.2314 52.7063 23.2886 50.4991 21.125C48.2918 18.9614 45.3243 17.7495 42.2335 17.7495C39.1427 17.7495 36.1751 18.9614 33.9679 21.125C31.7607 23.2886 30.4898 26.2314 30.4281 29.3215V40.3057Z" fill="white" stroke="black" stroke-linecap="round" stroke-linejoin="round"/>
<path d="M60.0247 38.5835H23.9756V69.0464H60.0247V38.5835Z" fill="white" stroke="black" stroke-linecap="round" stroke-linejoin="round"/>
<path d="M45.7463 51.2335C45.7463 50.5397 45.5624 49.8583 45.2134 49.2588C44.8643 48.6592 44.3626 48.1629 43.7593 47.8204C43.156 47.4778 42.4727 47.3013 41.7789 47.3088C41.0852 47.3163 40.4059 47.5076 39.8101 47.8631C39.2144 48.2186 38.7235 48.7257 38.3875 49.3327C38.0515 49.9396 37.8824 50.6248 37.8974 51.3184C37.9124 52.012 38.111 52.6893 38.4729 53.2811C38.8349 53.873 39.3472 54.3584 39.9578 54.6878L39.2989 61.6058H44.3439L43.6851 54.6878C44.309 54.3523 44.8302 53.8539 45.1932 53.2456C45.5562 52.6373 45.7474 51.9419 45.7463 51.2335Z" fill="black" stroke="black" stroke-linecap="round" stroke-linejoin="round"/>
<path d="M42 1C48.2639 6.9627 64.3025 12.9866 83 25.7638C83 25.7638 81.8329 68.938 42 92.5394V1Z" fill="#2A2D3C" stroke="black" stroke-linecap="round" stroke-linejoin="round"/>
<path d="M42.0006 4.67529C34.4378 10.0356 21.3312 15.1465 4.00781 26.9825C4.00781 26.9825 5.09023 66.9847 42.0006 88.8636C78.9109 66.9942 79.9933 26.9825 79.9933 26.9825C62.6653 15.1512 49.6198 10.0356 42.0006 4.67529Z" fill="#2A2D3C" stroke="black" stroke-linecap="round" stroke-linejoin="round"/>
<path d="M42 42.3125C39.9233 42.3125 37.8932 41.6967 36.1665 40.5429C34.4398 39.3892 33.094 37.7493 32.2993 35.8307C31.5045 33.9121 31.2966 31.8009 31.7018 29.7641C32.1069 27.7273 33.1069 25.8563 34.5754 24.3879C36.0438 22.9194 37.9148 21.9194 39.9516 21.5143C41.9884 21.1091 44.0996 21.317 46.0182 22.1118C47.9368 22.9065 49.5767 24.2523 50.7304 25.979C51.8842 27.7057 52.5 29.7358 52.5 31.8125C52.5 34.5973 51.3938 37.268 49.4246 39.2371C47.4555 41.2063 44.7848 42.3125 42 42.3125ZM42 23.9375C40.4425 23.9375 38.9199 24.3994 37.6249 25.2647C36.3299 26.13 35.3205 27.3599 34.7245 28.7989C34.1284 30.2378 33.9725 31.8212 34.2763 33.3488C34.5802 34.8764 35.3302 36.2796 36.4315 37.381C37.5329 38.4823 38.9361 39.2323 40.4637 39.5362C41.9913 39.84 43.5747 39.6841 45.0136 39.0881C46.4526 38.492 47.6825 37.4827 48.5478 36.1876C49.4131 34.8926 49.875 33.37 49.875 31.8125C49.875 29.7239 49.0453 27.7209 47.5685 26.244C46.0916 24.7672 44.0886 23.9375 42 23.9375V23.9375Z" fill="url(#paint2_linear_74_7107)"/>
<path d="M51.1875 60.6876H32.8125C31.072 60.6876 29.4028 59.9962 28.1721 58.7655C26.9414 57.5348 26.25 55.8656 26.25 54.1251V48.8751C26.25 48.6474 26.3094 48.4235 26.4221 48.2256C26.5349 48.0277 26.6972 47.8626 26.8931 47.7464L33.4556 43.8089C33.7517 43.6751 34.0869 43.6558 34.3964 43.7549C34.7058 43.854 34.9675 44.0643 35.1308 44.3452C35.2941 44.6261 35.3475 44.9576 35.2805 45.2756C35.2135 45.5935 35.0309 45.8753 34.7681 46.0664L28.875 49.6233V54.1251C28.875 55.1694 29.2898 56.1709 30.0283 56.9094C30.7667 57.6478 31.7682 58.0626 32.8125 58.0626H51.1875C52.2318 58.0626 53.2333 57.6478 53.9717 56.9094C54.7102 56.1709 55.125 55.1694 55.125 54.1251V49.6233L49.2056 46.0664C49.0383 45.9908 48.8887 45.8808 48.7664 45.7438C48.6442 45.6067 48.5522 45.4455 48.4962 45.2706C48.4402 45.0957 48.4215 44.911 48.4414 44.7284C48.4612 44.5458 48.5192 44.3694 48.6115 44.2107C48.7038 44.0519 48.8284 43.9143 48.9772 43.8067C49.1261 43.6991 49.2958 43.6239 49.4755 43.5861C49.6552 43.5482 49.8409 43.5485 50.0205 43.5868C50.2001 43.6252 50.3696 43.7009 50.5181 43.8089L57.0806 47.7464C57.2814 47.8592 57.449 48.023 57.5665 48.2211C57.684 48.4192 57.7473 48.6448 57.75 48.8751V54.1251C57.75 55.8656 57.0586 57.5348 55.8279 58.7655C54.5972 59.9962 52.928 60.6876 51.1875 60.6876V60.6876Z" fill="url(#paint3_linear_74_7107)"/>
<defs>
<linearGradient id="paint0_linear_74_7107" x1="21.5" y1="1" x2="21.5" y2="92.5394" gradientUnits="userSpaceOnUse">
<stop stop-color="#8CDCFF"/>
<stop offset="0.270833" stop-color="#5EEF77"/>
<stop offset="0.786458" stop-color="#FEBF32"/>
<stop offset="1" stop-color="#FFB76A"/>
</linearGradient>
<linearGradient id="paint1_linear_74_7107" x1="48.8759" y1="22.7329" x2="48.8759" y2="88.8638" gradientUnits="userSpaceOnUse">
<stop stop-color="#8CDCFF"/>
<stop offset="0.270833" stop-color="#5EEF77"/>
<stop offset="0.786458" stop-color="#FEBF32"/>
<stop offset="1" stop-color="#FFB76A"/>
</linearGradient>
<linearGradient id="paint2_linear_74_7107" x1="34.9903" y1="33.3373" x2="49.0097" y2="33.3373" gradientUnits="userSpaceOnUse">
<stop stop-color="#8CDCFF"/>
<stop offset="0.270833" stop-color="#5EEF77"/>
<stop offset="0.786458" stop-color="#FEBF32"/>
<stop offset="1" stop-color="#FFB76A"/>
</linearGradient>
<linearGradient id="paint3_linear_74_7107" x1="31.4855" y1="53.3665" x2="52.5145" y2="53.3665" gradientUnits="userSpaceOnUse">
<stop stop-color="#8CDCFF"/>
<stop offset="0.270833" stop-color="#5EEF77"/>
<stop offset="0.786458" stop-color="#FEBF32"/>
<stop offset="1" stop-color="#FFB76A"/>
</linearGradient>
</defs>
</svg>
