<svg width="84" height="94" viewBox="0 0 84 94" fill="none" xmlns="http://www.w3.org/2000/svg">
<path d="M42 1C35.7314 6.9627 19.6975 12.9866 1 25.7638C1 25.7638 2.16713 68.938 42 92.5394V1Z" fill="#5546FF" stroke="black" stroke-linecap="round" stroke-linejoin="round"/>
<path d="M42 1C48.2639 6.9627 64.3025 12.9866 83 25.7638C83 25.7638 81.8329 68.938 42 92.5394V1Z" fill="black" stroke="black" stroke-linecap="round" stroke-linejoin="round"/>
<path d="M42.0001 4.67529C34.4373 10.0356 21.3307 15.1465 4.00732 26.9825C4.00732 26.9825 5.08974 66.9847 42.0001 88.8636C78.9104 66.9942 79.9929 26.9825 79.9929 26.9825C62.6648 15.1512 49.6194 10.0356 42.0001 4.67529Z" fill="black" stroke="black" stroke-linecap="round" stroke-linejoin="round"/>
<path d="M73.5173 22.7329C47.0875 30.7334 26.9264 53.9582 17.7588 66.2083C24.0649 75.4595 32.3441 83.1971 42.0002 88.8638C78.9105 66.9943 79.9929 26.9826 79.9929 26.9826C77.7622 25.464 75.6037 24.0475 73.5173 22.7329Z" fill="#5546FF" stroke="black" stroke-linecap="round" stroke-linejoin="round"/>
<path d="M56.3915 45.0119H28.0557C27.4316 45.0119 26.8331 44.7639 26.3918 44.3227C25.9505 43.8814 25.7026 43.2829 25.7026 42.6588V29.3215C25.7758 24.9907 27.5475 20.8619 30.6361 17.8251C33.7246 14.7882 37.8827 13.0864 42.2142 13.0864C46.5456 13.0864 50.7037 14.7882 53.7923 17.8251C56.8808 20.8619 58.6526 24.9907 58.7257 29.3215V42.6588C58.7257 43.2796 58.4804 43.8753 58.0432 44.316C57.6059 44.7568 57.0123 45.0069 56.3915 45.0119ZM30.4276 40.3057H54.0384V29.3215C53.9767 26.2314 52.7058 23.2886 50.4986 21.125C48.2913 18.9614 45.3238 17.7495 42.233 17.7495C39.1422 17.7495 36.1746 18.9614 33.9674 21.125C31.7602 23.2886 30.4893 26.2314 30.4276 29.3215V40.3057Z" fill="white" stroke="black" stroke-linecap="round" stroke-linejoin="round"/>
<path d="M60.0245 38.5835H23.9753V69.0464H60.0245V38.5835Z" fill="white" stroke="black" stroke-linecap="round" stroke-linejoin="round"/>
<path d="M45.7461 51.2335C45.7461 50.5397 45.5622 49.8583 45.2131 49.2588C44.8641 48.6592 44.3624 48.1629 43.759 47.8204C43.1557 47.4778 42.4724 47.3013 41.7787 47.3088C41.085 47.3163 40.4056 47.5076 39.8099 47.8631C39.2141 48.2186 38.7232 48.7257 38.3872 49.3327C38.0513 49.9396 37.8822 50.6248 37.8972 51.3184C37.9122 52.012 38.1107 52.6893 38.4727 53.2811C38.8346 53.873 39.347 54.3584 39.9575 54.6878L39.2987 61.6058H44.3437L43.6848 54.6878C44.3087 54.3523 44.83 53.8539 45.193 53.2456C45.556 52.6373 45.7471 51.9419 45.7461 51.2335Z" fill="black" stroke="black" stroke-linecap="round" stroke-linejoin="round"/>
<path d="M42 1C35.7314 6.9627 19.6975 12.9866 1 25.7638C1 25.7638 2.16713 68.938 42 92.5394V1Z" fill="#5546FF" stroke="black" stroke-linecap="round" stroke-linejoin="round"/>
<path d="M42 1C48.2639 6.9627 64.3025 12.9866 83 25.7638C83 25.7638 81.8329 68.938 42 92.5394V1Z" fill="black" stroke="black" stroke-linecap="round" stroke-linejoin="round"/>
<path d="M42.0001 4.67529C34.4373 10.0356 21.3307 15.1465 4.00732 26.9825C4.00732 26.9825 5.08974 66.9847 42.0001 88.8636C78.9104 66.9942 79.9929 26.9825 79.9929 26.9825C62.6648 15.1512 49.6194 10.0356 42.0001 4.67529Z" fill="black" stroke="black" stroke-linecap="round" stroke-linejoin="round"/>
<path d="M73.5173 22.7329C47.0875 30.7334 26.9264 53.9582 17.7588 66.2083C24.0649 75.4595 32.3441 83.1971 42.0002 88.8638C78.9105 66.9943 79.9929 26.9826 79.9929 26.9826C77.7622 25.464 75.6037 24.0475 73.5173 22.7329Z" fill="#5546FF" stroke="black" stroke-linecap="round" stroke-linejoin="round"/>
<path d="M42 45.5C39.6266 45.5 37.3066 44.7962 35.3332 43.4776C33.3598 42.1591 31.8217 40.2849 30.9135 38.0922C30.0052 35.8995 29.7676 33.4867 30.2306 31.1589C30.6936 28.8312 31.8365 26.693 33.5147 25.0147C35.193 23.3365 37.3312 22.1936 39.6589 21.7306C41.9867 21.2676 44.3995 21.5052 46.5922 22.4135C48.7849 23.3217 50.6591 24.8598 51.9776 26.8332C53.2962 28.8066 54 31.1266 54 33.5C54 36.6826 52.7357 39.7349 50.4853 41.9853C48.2349 44.2357 45.1826 45.5 42 45.5ZM42 24.5C40.22 24.5 38.4799 25.0278 36.9999 26.0168C35.5198 27.0057 34.3663 28.4113 33.6851 30.0559C33.0039 31.7004 32.8257 33.51 33.1729 35.2558C33.5202 37.0016 34.3774 38.6053 35.636 39.864C36.8947 41.1226 38.4984 41.9798 40.2442 42.3271C41.99 42.6743 43.7996 42.4961 45.4442 41.8149C47.0887 41.1337 48.4943 39.9802 49.4832 38.5001C50.4722 37.0201 51 35.28 51 33.5C51 31.1131 50.0518 28.8239 48.364 27.136C46.6761 25.4482 44.387 24.5 42 24.5Z" fill="white"/>
<path d="M52.5 66.5002H31.5C29.5109 66.5002 27.6032 65.7101 26.1967 64.3035C24.7902 62.897 24 60.9894 24 59.0002V53.0002C24 52.7399 24.0678 52.4841 24.1967 52.2579C24.3256 52.0317 24.5111 51.843 24.735 51.7102L32.235 47.2102C32.5734 47.0573 32.9565 47.0353 33.3101 47.1485C33.6638 47.2618 33.9629 47.5022 34.1495 47.8232C34.3362 48.1442 34.3971 48.5231 34.3205 48.8864C34.2439 49.2498 34.0353 49.5718 33.735 49.7902L27 53.8552V59.0002C27 60.1937 27.4741 61.3383 28.318 62.1822C29.1619 63.0261 30.3065 63.5002 31.5 63.5002H52.5C53.6935 63.5002 54.8381 63.0261 55.682 62.1822C56.5259 61.3383 57 60.1937 57 59.0002V53.8552L50.235 49.7902C50.0437 49.7038 49.8728 49.5782 49.7331 49.4215C49.5934 49.2648 49.4882 49.0806 49.4242 48.8807C49.3602 48.6808 49.3389 48.4697 49.3616 48.2611C49.3843 48.0524 49.4505 47.8509 49.556 47.6694C49.6615 47.488 49.8039 47.3307 49.974 47.2077C50.1441 47.0848 50.3381 46.9989 50.5435 46.9556C50.7488 46.9123 50.961 46.9126 51.1662 46.9565C51.3715 47.0003 51.5653 47.0868 51.735 47.2102L59.235 51.7102C59.4645 51.8392 59.656 52.0263 59.7903 52.2528C59.9246 52.4792 59.9969 52.737 60 53.0002V59.0002C60 60.9894 59.2098 62.897 57.8033 64.3035C56.3968 65.7101 54.4891 66.5002 52.5 66.5002Z" fill="white"/>
</svg>
