<svg width="244" height="246" viewBox="0 0 244 246" fill="none" xmlns="http://www.w3.org/2000/svg">
<path d="M124.151 43.4756V47.0003" stroke="#989898" stroke-width="1.10721" stroke-linecap="round" stroke-linejoin="round"/>
<path d="M124.151 50.8066V56.5131" stroke="#989898" stroke-width="1.10721" stroke-linecap="round" stroke-linejoin="round" stroke-dasharray="7.17 7.17"/>
<path d="M124.151 58.4141V61.9388" stroke="#989898" stroke-width="1.10721" stroke-linecap="round" stroke-linejoin="round"/>
<path d="M180.403 103.147H176.879" stroke="#989898" stroke-width="1.10721" stroke-linecap="round" stroke-linejoin="round"/>
<path d="M173.073 103.147H167.366" stroke="#989898" stroke-width="1.10721" stroke-linecap="round" stroke-linejoin="round" stroke-dasharray="7.17 7.17"/>
<path d="M165.466 103.147H161.941" stroke="#989898" stroke-width="1.10721" stroke-linecap="round" stroke-linejoin="round"/>
<path d="M86.366 103.147H82.8359" stroke="#989898" stroke-width="1.10721" stroke-linecap="round" stroke-linejoin="round"/>
<path d="M79.0351 103.147H73.3286" stroke="#989898" stroke-width="1.10721" stroke-linecap="round" stroke-linejoin="round" stroke-dasharray="7.17 7.17"/>
<path d="M71.4282 103.147H67.8982" stroke="#989898" stroke-width="1.10721" stroke-linecap="round" stroke-linejoin="round"/>
<path d="M221.326 115.102C221.326 114.855 221.424 114.619 221.598 114.445C221.772 114.271 222.008 114.173 222.255 114.173C222.501 114.173 222.737 114.271 222.912 114.445C223.086 114.619 223.184 114.855 223.184 115.102V117.13C223.184 117.376 223.086 117.612 222.912 117.786C222.737 117.961 222.501 118.059 222.255 118.059C222.008 118.059 221.772 117.961 221.598 117.786C221.424 117.612 221.326 117.376 221.326 117.13V115.102ZM221.936 117.167C221.936 117.443 222.058 117.549 222.255 117.549C222.451 117.549 222.568 117.443 222.568 117.167V115.043C222.568 114.767 222.446 114.661 222.255 114.661C222.064 114.661 221.936 114.767 221.936 115.043V117.167Z" fill="#989898"/>
<path d="M221.761 120.219C221.913 120.238 222.068 120.198 222.192 120.107C222.316 120.016 222.401 119.882 222.43 119.73H222.844V123.648H222.233V120.681H221.761V120.219Z" fill="#989898"/>
<path d="M221.326 126.223C221.326 125.977 221.424 125.74 221.598 125.566C221.772 125.392 222.008 125.294 222.255 125.294C222.501 125.294 222.737 125.392 222.912 125.566C223.086 125.74 223.184 125.977 223.184 126.223V128.245C223.184 128.492 223.086 128.728 222.912 128.902C222.737 129.076 222.501 129.174 222.255 129.174C222.008 129.174 221.772 129.076 221.598 128.902C221.424 128.728 221.326 128.492 221.326 128.245V126.223ZM221.936 128.288C221.936 128.564 222.058 128.67 222.255 128.67C222.451 128.67 222.568 128.564 222.568 128.288V126.165C222.568 125.883 222.446 125.782 222.255 125.782C222.064 125.782 221.936 125.883 221.936 126.165V128.288Z" fill="#989898"/>
<path d="M221.761 131.34C221.913 131.359 222.068 131.319 222.192 131.228C222.316 131.137 222.401 131.003 222.43 130.852H222.844V134.737H222.233V131.77H221.761V131.34Z" fill="#989898"/>
<path d="M221.326 137.344C221.326 137.098 221.424 136.861 221.598 136.687C221.772 136.513 222.008 136.415 222.255 136.415C222.501 136.415 222.737 136.513 222.912 136.687C223.086 136.861 223.184 137.098 223.184 137.344V139.366C223.184 139.613 223.086 139.849 222.912 140.023C222.737 140.198 222.501 140.295 222.255 140.295C222.008 140.295 221.772 140.198 221.598 140.023C221.424 139.849 221.326 139.613 221.326 139.366V137.344ZM221.936 139.404C221.936 139.685 222.058 139.786 222.255 139.786C222.451 139.786 222.568 139.685 222.568 139.404V137.28C222.568 137.004 222.446 136.898 222.255 136.898C222.064 136.898 221.936 137.004 221.936 137.28V139.404Z" fill="#989898"/>
<path d="M221.761 142.456C221.913 142.475 222.068 142.435 222.192 142.344C222.316 142.254 222.401 142.119 222.43 141.968H222.844V145.859H222.233V142.891H221.761V142.456Z" fill="#989898"/>
<path d="M221.326 148.459C221.326 148.213 221.424 147.977 221.598 147.802C221.772 147.628 222.008 147.53 222.255 147.53C222.501 147.53 222.737 147.628 222.912 147.802C223.086 147.977 223.184 148.213 223.184 148.459V150.487C223.184 150.733 223.086 150.97 222.912 151.144C222.737 151.318 222.501 151.416 222.255 151.416C222.008 151.416 221.772 151.318 221.598 151.144C221.424 150.97 221.326 150.733 221.326 150.487V148.459ZM221.936 150.524C221.936 150.8 222.058 150.906 222.255 150.906C222.451 150.906 222.568 150.8 222.568 150.524V148.401C222.568 148.125 222.446 148.019 222.255 148.019C222.064 148.019 221.936 148.125 221.936 148.401V150.524Z" fill="#989898"/>
<path d="M221.326 154.023C221.326 153.776 221.424 153.54 221.598 153.366C221.772 153.192 222.008 153.094 222.255 153.094C222.501 153.094 222.737 153.192 222.912 153.366C223.086 153.54 223.184 153.776 223.184 154.023V156.029C223.184 156.276 223.086 156.512 222.912 156.686C222.737 156.86 222.501 156.958 222.255 156.958C222.008 156.958 221.772 156.86 221.598 156.686C221.424 156.512 221.326 156.276 221.326 156.029V154.023ZM221.936 156.082C221.936 156.364 222.058 156.465 222.255 156.465C222.451 156.465 222.568 156.364 222.568 156.082V153.959C222.568 153.678 222.446 153.571 222.255 153.571C222.064 153.571 221.936 153.678 221.936 153.959V156.082Z" fill="#989898"/>
<path d="M221.326 159.58C221.326 159.334 221.424 159.098 221.598 158.923C221.772 158.749 222.008 158.651 222.255 158.651C222.501 158.651 222.737 158.749 222.912 158.923C223.086 159.098 223.184 159.334 223.184 159.58V161.603C223.184 161.849 223.086 162.085 222.912 162.26C222.737 162.434 222.501 162.532 222.255 162.532C222.008 162.532 221.772 162.434 221.598 162.26C221.424 162.085 221.326 161.849 221.326 161.603V159.58ZM221.936 161.645C221.936 161.921 222.058 162.027 222.255 162.027C222.451 162.027 222.568 161.921 222.568 161.645V159.522C222.568 159.246 222.446 159.14 222.255 159.14C222.064 159.14 221.936 159.246 221.936 159.522V161.645Z" fill="#989898"/>
<path d="M221.761 170.255C221.913 170.274 222.068 170.234 222.192 170.143C222.316 170.052 222.401 169.918 222.43 169.767H222.844V173.658H222.233V170.69H221.761V170.255Z" fill="#989898"/>
<path d="M221.761 175.819C221.914 175.839 222.07 175.799 222.195 175.707C222.319 175.615 222.403 175.478 222.43 175.325H222.844V179.216H222.233V176.249H221.761V175.819Z" fill="#989898"/>
<path d="M221.761 181.377C221.913 181.396 222.068 181.356 222.192 181.265C222.316 181.174 222.401 181.04 222.43 180.889H222.844V184.774H222.233V181.812H221.761V181.377Z" fill="#989898"/>
<path d="M221.326 187.38C221.326 187.134 221.424 186.897 221.598 186.723C221.772 186.549 222.008 186.451 222.255 186.451C222.501 186.451 222.737 186.549 222.912 186.723C223.086 186.897 223.184 187.134 223.184 187.38V189.403C223.184 189.649 223.086 189.885 222.912 190.059C222.737 190.234 222.501 190.332 222.255 190.332C222.008 190.332 221.772 190.234 221.598 190.059C221.424 189.885 221.326 189.649 221.326 189.403V187.38ZM221.936 189.44C221.936 189.721 222.058 189.822 222.255 189.822C222.451 189.822 222.568 189.721 222.568 189.44V187.348C222.568 187.067 222.446 186.961 222.255 186.961C222.064 186.961 221.936 187.067 221.936 187.348V189.44Z" fill="#989898"/>
<path d="M221.326 192.938C221.326 192.691 221.424 192.455 221.598 192.281C221.772 192.107 222.008 192.009 222.255 192.009C222.501 192.009 222.737 192.107 222.912 192.281C223.086 192.455 223.184 192.691 223.184 192.938V194.96C223.184 195.207 223.086 195.443 222.912 195.617C222.737 195.791 222.501 195.889 222.255 195.889C222.008 195.889 221.772 195.791 221.598 195.617C221.424 195.443 221.326 195.207 221.326 194.96V192.938ZM221.936 195.003C221.936 195.279 222.058 195.385 222.255 195.385C222.451 195.385 222.568 195.279 222.568 195.003V192.879C222.568 192.603 222.446 192.497 222.255 192.497C222.064 192.497 221.936 192.603 221.936 192.879V195.003Z" fill="#989898"/>
<path d="M221.761 198.056C221.913 198.075 222.068 198.035 222.192 197.944C222.316 197.853 222.401 197.719 222.43 197.567H222.844V201.453H222.233V198.496H221.761V198.056Z" fill="#989898"/>
<path d="M225.041 109.098C225.195 109.117 225.349 109.077 225.474 108.986C225.6 108.896 225.686 108.761 225.715 108.609H226.124V112.5H225.514V109.533H225.041V109.098Z" fill="#989898"/>
<path d="M225.041 114.661C225.195 114.68 225.349 114.64 225.474 114.55C225.6 114.459 225.686 114.324 225.715 114.173H226.124V118.059H225.514V115.091H225.041V114.661Z" fill="#989898"/>
<path d="M224.638 126.223C224.628 126.095 224.645 125.967 224.687 125.846C224.73 125.726 224.796 125.615 224.883 125.521C224.97 125.427 225.076 125.352 225.193 125.301C225.31 125.25 225.437 125.224 225.564 125.224C225.692 125.224 225.819 125.25 225.936 125.301C226.053 125.352 226.159 125.427 226.246 125.521C226.333 125.615 226.399 125.726 226.441 125.846C226.484 125.967 226.5 126.095 226.491 126.223V128.245C226.5 128.373 226.484 128.501 226.441 128.622C226.399 128.742 226.333 128.853 226.246 128.947C226.159 129.041 226.053 129.116 225.936 129.167C225.819 129.218 225.692 129.244 225.564 129.244C225.437 129.244 225.31 129.218 225.193 129.167C225.076 129.116 224.97 129.041 224.883 128.947C224.796 128.853 224.73 128.742 224.687 128.622C224.645 128.501 224.628 128.373 224.638 128.245V126.223ZM225.249 128.288C225.249 128.564 225.371 128.67 225.562 128.67C225.753 128.67 225.88 128.564 225.88 128.288V126.164C225.88 125.883 225.758 125.782 225.562 125.782C225.365 125.782 225.249 125.883 225.249 126.164V128.288Z" fill="#989898"/>
<path d="M225.041 142.456C225.195 142.475 225.349 142.435 225.474 142.345C225.6 142.254 225.686 142.119 225.715 141.968H226.124V145.859H225.514V142.891H225.041V142.456Z" fill="#989898"/>
<path d="M224.638 148.459C224.628 148.332 224.645 148.203 224.687 148.083C224.73 147.962 224.796 147.851 224.883 147.757C224.97 147.664 225.076 147.589 225.193 147.538C225.31 147.486 225.437 147.46 225.564 147.46C225.692 147.46 225.819 147.486 225.936 147.538C226.053 147.589 226.159 147.664 226.246 147.757C226.333 147.851 226.399 147.962 226.441 148.083C226.484 148.203 226.5 148.332 226.491 148.459V150.487C226.5 150.614 226.484 150.743 226.441 150.863C226.399 150.984 226.333 151.095 226.246 151.189C226.159 151.282 226.053 151.357 225.936 151.408C225.819 151.46 225.692 151.486 225.564 151.486C225.437 151.486 225.31 151.46 225.193 151.408C225.076 151.357 224.97 151.282 224.883 151.189C224.796 151.095 224.73 150.984 224.687 150.863C224.645 150.743 224.628 150.614 224.638 150.487V148.459ZM225.249 150.524C225.249 150.8 225.371 150.906 225.562 150.906C225.753 150.906 225.88 150.8 225.88 150.524V148.401C225.88 148.125 225.758 148.018 225.562 148.018C225.365 148.018 225.249 148.125 225.249 148.401V150.524Z" fill="#989898"/>
<path d="M225.041 153.576C225.195 153.595 225.349 153.555 225.474 153.465C225.6 153.374 225.686 153.239 225.715 153.088H226.124V156.979H225.514V154.012H225.041V153.576Z" fill="#989898"/>
<path d="M225.041 159.135C225.195 159.155 225.35 159.116 225.476 159.025C225.601 158.934 225.687 158.799 225.715 158.646H226.124V162.538H225.514V159.57H225.041V159.135Z" fill="#989898"/>
<path d="M225.041 164.698C225.195 164.717 225.349 164.678 225.474 164.587C225.6 164.496 225.686 164.362 225.715 164.21H226.124V168.096H225.514V165.128H225.041V164.698Z" fill="#989898"/>
<path d="M224.638 170.701C224.628 170.574 224.645 170.446 224.687 170.325C224.73 170.204 224.796 170.093 224.883 170C224.97 169.906 225.076 169.831 225.193 169.78C225.31 169.729 225.437 169.702 225.564 169.702C225.692 169.702 225.819 169.729 225.936 169.78C226.053 169.831 226.159 169.906 226.246 170C226.333 170.093 226.399 170.204 226.441 170.325C226.484 170.446 226.5 170.574 226.491 170.701V172.724C226.5 172.851 226.484 172.979 226.441 173.1C226.399 173.221 226.333 173.332 226.246 173.426C226.159 173.519 226.053 173.594 225.936 173.645C225.819 173.696 225.692 173.723 225.564 173.723C225.437 173.723 225.31 173.696 225.193 173.645C225.076 173.594 224.97 173.519 224.883 173.426C224.796 173.332 224.73 173.221 224.687 173.1C224.645 172.979 224.628 172.851 224.638 172.724V170.701ZM225.249 172.761C225.249 173.042 225.371 173.143 225.562 173.143C225.753 173.143 225.88 173.042 225.88 172.761V170.664C225.88 170.383 225.758 170.277 225.562 170.277C225.365 170.277 225.249 170.383 225.249 170.664V172.761Z" fill="#989898"/>
<path d="M224.638 176.259C224.628 176.131 224.645 176.003 224.687 175.882C224.73 175.762 224.796 175.651 224.883 175.557C224.97 175.463 225.076 175.389 225.193 175.337C225.31 175.286 225.437 175.26 225.564 175.26C225.692 175.26 225.819 175.286 225.936 175.337C226.053 175.389 226.159 175.463 226.246 175.557C226.333 175.651 226.399 175.762 226.441 175.882C226.484 176.003 226.5 176.131 226.491 176.259V178.281C226.5 178.409 226.484 178.537 226.441 178.658C226.399 178.779 226.333 178.889 226.246 178.983C226.159 179.077 226.053 179.152 225.936 179.203C225.819 179.254 225.692 179.281 225.564 179.281C225.437 179.281 225.31 179.254 225.193 179.203C225.076 179.152 224.97 179.077 224.883 178.983C224.796 178.889 224.73 178.779 224.687 178.658C224.645 178.537 224.628 178.409 224.638 178.281V176.259ZM225.249 178.324C225.249 178.6 225.371 178.706 225.562 178.706C225.753 178.706 225.88 178.6 225.88 178.324V176.201C225.88 175.924 225.758 175.818 225.562 175.818C225.365 175.818 225.249 175.924 225.249 176.201V178.324Z" fill="#989898"/>
<path d="M218.454 142.456C218.607 142.475 218.762 142.435 218.887 142.345C219.012 142.254 219.098 142.119 219.128 141.968H219.537V145.859H218.926V142.891H218.454V142.456Z" fill="#989898"/>
<path d="M218.024 148.459C218.024 148.213 218.122 147.977 218.296 147.802C218.47 147.628 218.706 147.53 218.953 147.53C219.199 147.53 219.435 147.628 219.61 147.802C219.784 147.977 219.882 148.213 219.882 148.459V150.487C219.882 150.733 219.784 150.97 219.61 151.144C219.435 151.318 219.199 151.416 218.953 151.416C218.706 151.416 218.47 151.318 218.296 151.144C218.122 150.97 218.024 150.733 218.024 150.487V148.459ZM218.634 150.524C218.634 150.8 218.756 150.906 218.953 150.906C219.149 150.906 219.271 150.8 219.271 150.524V148.401C219.271 148.125 219.149 148.019 218.953 148.019C218.756 148.019 218.634 148.125 218.634 148.401V150.524Z" fill="#989898"/>
<path d="M218.024 154.023C218.024 153.776 218.122 153.54 218.296 153.366C218.47 153.192 218.706 153.094 218.953 153.094C219.199 153.094 219.435 153.192 219.61 153.366C219.784 153.54 219.882 153.776 219.882 154.023V156.029C219.882 156.276 219.784 156.512 219.61 156.686C219.435 156.86 219.199 156.958 218.953 156.958C218.706 156.958 218.47 156.86 218.296 156.686C218.122 156.512 218.024 156.276 218.024 156.029V154.023ZM218.634 156.082C218.634 156.364 218.756 156.465 218.953 156.465C219.149 156.465 219.271 156.364 219.271 156.082V153.959C219.271 153.678 219.149 153.571 218.953 153.571C218.756 153.571 218.634 153.678 218.634 153.959V156.082Z" fill="#989898"/>
<path d="M218.454 159.135C218.607 159.155 218.763 159.116 218.888 159.025C219.014 158.934 219.099 158.799 219.128 158.646H219.537V162.538H218.926V159.57H218.454V159.135Z" fill="#989898"/>
<path d="M218.454 170.255C218.607 170.274 218.762 170.234 218.887 170.144C219.012 170.053 219.098 169.918 219.128 169.767H219.537V173.658H218.926V170.69H218.454V170.255Z" fill="#989898"/>
<path d="M218.454 175.819C218.608 175.838 218.763 175.797 218.889 175.705C219.014 175.614 219.099 175.478 219.128 175.325H219.537V179.216H218.926V176.249H218.454V175.819Z" fill="#989898"/>
<path d="M218.454 181.377C218.607 181.396 218.762 181.356 218.887 181.266C219.012 181.175 219.098 181.04 219.128 180.889H219.537V184.774H218.926V181.812H218.454V181.377Z" fill="#989898"/>
<path d="M214.722 126.223C214.712 126.095 214.729 125.967 214.771 125.846C214.813 125.726 214.88 125.615 214.967 125.521C215.054 125.427 215.159 125.352 215.277 125.301C215.394 125.25 215.52 125.224 215.648 125.224C215.776 125.224 215.903 125.25 216.02 125.301C216.137 125.352 216.242 125.427 216.329 125.521C216.416 125.615 216.483 125.726 216.525 125.846C216.567 125.967 216.584 126.095 216.575 126.223V128.245C216.584 128.373 216.567 128.501 216.525 128.622C216.483 128.742 216.416 128.853 216.329 128.947C216.242 129.041 216.137 129.116 216.02 129.167C215.903 129.218 215.776 129.244 215.648 129.244C215.52 129.244 215.394 129.218 215.277 129.167C215.159 129.116 215.054 129.041 214.967 128.947C214.88 128.853 214.813 128.742 214.771 128.622C214.729 128.501 214.712 128.373 214.722 128.245V126.223ZM215.332 128.288C215.332 128.564 215.454 128.67 215.646 128.67C215.837 128.67 215.964 128.564 215.964 128.288V126.164C215.964 125.883 215.842 125.782 215.646 125.782C215.449 125.782 215.332 125.883 215.332 126.164V128.288Z" fill="#989898"/>
<path d="M214.722 137.344C214.712 137.216 214.729 137.088 214.771 136.967C214.813 136.847 214.88 136.736 214.967 136.642C215.054 136.548 215.159 136.473 215.277 136.422C215.394 136.371 215.52 136.345 215.648 136.345C215.776 136.345 215.903 136.371 216.02 136.422C216.137 136.473 216.242 136.548 216.329 136.642C216.416 136.736 216.483 136.847 216.525 136.967C216.567 137.088 216.584 137.216 216.575 137.344V139.366C216.584 139.494 216.567 139.622 216.525 139.743C216.483 139.864 216.416 139.974 216.329 140.068C216.242 140.162 216.137 140.237 216.02 140.288C215.903 140.339 215.776 140.365 215.648 140.365C215.52 140.365 215.394 140.339 215.277 140.288C215.159 140.237 215.054 140.162 214.967 140.068C214.88 139.974 214.813 139.864 214.771 139.743C214.729 139.622 214.712 139.494 214.722 139.366V137.344ZM215.332 139.403C215.332 139.685 215.454 139.786 215.646 139.786C215.837 139.786 215.964 139.685 215.964 139.403V137.28C215.964 137.004 215.842 136.898 215.646 136.898C215.449 136.898 215.332 137.004 215.332 137.28V139.403Z" fill="#989898"/>
<path d="M215.147 153.576C215.3 153.595 215.455 153.555 215.58 153.465C215.705 153.374 215.791 153.239 215.821 153.088H216.23V156.979H215.619V154.012H215.147V153.576Z" fill="#989898"/>
<path d="M215.147 159.135C215.3 159.155 215.456 159.116 215.581 159.025C215.707 158.934 215.792 158.799 215.821 158.646H216.23V162.538H215.619V159.57H215.147V159.135Z" fill="#989898"/>
<path d="M215.147 175.819C215.301 175.838 215.456 175.797 215.582 175.705C215.707 175.614 215.792 175.478 215.821 175.325H216.23V179.216H215.619V176.249H215.147V175.819Z" fill="#989898"/>
<path d="M214.722 181.822C214.712 181.695 214.729 181.567 214.771 181.446C214.813 181.325 214.88 181.214 214.967 181.121C215.054 181.027 215.159 180.952 215.277 180.901C215.394 180.85 215.52 180.823 215.648 180.823C215.776 180.823 215.903 180.85 216.02 180.901C216.137 180.952 216.242 181.027 216.329 181.121C216.416 181.214 216.483 181.325 216.525 181.446C216.567 181.567 216.584 181.695 216.575 181.822V183.845C216.584 183.972 216.567 184.101 216.525 184.221C216.483 184.342 216.416 184.453 216.329 184.547C216.242 184.64 216.137 184.715 216.02 184.766C215.903 184.818 215.776 184.844 215.648 184.844C215.52 184.844 215.394 184.818 215.277 184.766C215.159 184.715 215.054 184.64 214.967 184.547C214.88 184.453 214.813 184.342 214.771 184.221C214.729 184.101 214.712 183.972 214.722 183.845V181.822ZM215.332 183.882C215.332 184.158 215.454 184.264 215.646 184.264C215.837 184.264 215.964 184.158 215.964 183.882V181.759C215.964 181.483 215.842 181.376 215.646 181.376C215.449 181.376 215.332 181.483 215.332 181.759V183.882Z" fill="#989898"/>
<path d="M215.147 186.935C215.3 186.954 215.455 186.914 215.58 186.823C215.705 186.733 215.791 186.598 215.821 186.446H216.23V190.337H215.619V187.349H215.147V186.935Z" fill="#989898"/>
<path d="M77.8567 132.142C77.8567 131.895 77.9546 131.659 78.1288 131.485C78.303 131.311 78.5393 131.213 78.7857 131.213C79.032 131.213 79.2683 131.311 79.4425 131.485C79.6167 131.659 79.7146 131.895 79.7146 132.142V134.164C79.7146 134.411 79.6167 134.647 79.4425 134.821C79.2683 134.995 79.032 135.093 78.7857 135.093C78.5393 135.093 78.303 134.995 78.1288 134.821C77.9546 134.647 77.8567 134.411 77.8567 134.164V132.142ZM78.4672 134.201C78.4672 134.483 78.5892 134.589 78.7857 134.589C78.9821 134.589 79.0989 134.483 79.0989 134.201V132.078C79.0989 131.797 78.9768 131.691 78.7857 131.691C78.5946 131.691 78.4672 131.797 78.4672 132.078V134.201Z" fill="#989898"/>
<path d="M77.8567 137.715C77.8567 137.469 77.9546 137.232 78.1288 137.058C78.303 136.884 78.5393 136.786 78.7857 136.786C79.032 136.786 79.2683 136.884 79.4425 137.058C79.6167 137.232 79.7146 137.469 79.7146 137.715V139.738C79.7146 139.984 79.6167 140.22 79.4425 140.394C79.2683 140.569 79.032 140.667 78.7857 140.667C78.5393 140.667 78.303 140.569 78.1288 140.394C77.9546 140.22 77.8567 139.984 77.8567 139.738V137.715ZM78.4672 139.78C78.4672 140.056 78.5892 140.162 78.7857 140.162C78.9821 140.162 79.0989 140.056 79.0989 139.78V137.657C79.0989 137.381 78.9768 137.275 78.7857 137.275C78.5946 137.275 78.4672 137.381 78.4672 137.657V139.78Z" fill="#989898"/>
<path d="M78.2864 142.832C78.4391 142.851 78.5932 142.811 78.7174 142.72C78.8417 142.63 78.9267 142.495 78.9552 142.344H79.3693V146.235H78.7588V143.289H78.2864V142.832Z" fill="#989898"/>
<path d="M77.8567 148.836C77.8567 148.59 77.9546 148.354 78.1288 148.179C78.303 148.005 78.5393 147.907 78.7857 147.907C79.032 147.907 79.2683 148.005 79.4425 148.179C79.6167 148.354 79.7146 148.59 79.7146 148.836V150.859C79.7146 151.105 79.6167 151.341 79.4425 151.516C79.2683 151.69 79.032 151.788 78.7857 151.788C78.5393 151.788 78.303 151.69 78.1288 151.516C77.9546 151.341 77.8567 151.105 77.8567 150.859V148.836ZM78.4672 150.896C78.4672 151.177 78.5892 151.283 78.7857 151.283C78.9821 151.283 79.0989 151.177 79.0989 150.896V148.799C79.0989 148.518 78.9768 148.412 78.7857 148.412C78.5946 148.412 78.4672 148.518 78.4672 148.799V150.896Z" fill="#989898"/>
<path d="M78.2864 153.953C78.4391 153.972 78.5932 153.932 78.7174 153.841C78.8417 153.751 78.9267 153.616 78.9552 153.465H79.3693V157.351H78.7588V154.383H78.2864V153.953Z" fill="#989898"/>
<path d="M77.8567 159.957C77.8567 159.711 77.9546 159.475 78.1288 159.3C78.303 159.126 78.5393 159.028 78.7857 159.028C79.032 159.028 79.2683 159.126 79.4425 159.3C79.6167 159.475 79.7146 159.711 79.7146 159.957V161.98C79.7146 162.226 79.6167 162.462 79.4425 162.637C79.2683 162.811 79.032 162.909 78.7857 162.909C78.5393 162.909 78.303 162.811 78.1288 162.637C77.9546 162.462 77.8567 162.226 77.8567 161.98V159.957ZM78.4672 162.017C78.4672 162.293 78.5892 162.399 78.7857 162.399C78.9821 162.399 79.0989 162.293 79.0989 162.017V159.894C79.0989 159.618 78.9768 159.511 78.7857 159.511C78.5946 159.511 78.4672 159.618 78.4672 159.894V162.017Z" fill="#989898"/>
<path d="M78.2864 165.053C78.4391 165.072 78.5932 165.032 78.7174 164.941C78.8417 164.85 78.9267 164.716 78.9552 164.564H79.3693V168.455H78.7588V165.488H78.2864V165.053Z" fill="#989898"/>
<path d="M77.8567 171.073C77.8567 170.826 77.9546 170.59 78.1288 170.416C78.303 170.241 78.5393 170.144 78.7857 170.144C79.032 170.144 79.2683 170.241 79.4425 170.416C79.6167 170.59 79.7146 170.826 79.7146 171.073V173.095C79.7146 173.341 79.6167 173.578 79.4425 173.752C79.2683 173.926 79.032 174.024 78.7857 174.024C78.5393 174.024 78.303 173.926 78.1288 173.752C77.9546 173.578 77.8567 173.341 77.8567 173.095V171.073ZM78.4672 173.137C78.4672 173.414 78.5892 173.52 78.7857 173.52C78.9821 173.52 79.0989 173.414 79.0989 173.137V171.014C79.0989 170.738 78.9768 170.632 78.7857 170.632C78.5946 170.632 78.4672 170.738 78.4672 171.014V173.137Z" fill="#989898"/>
<path d="M77.8567 176.636C77.8567 176.39 77.9546 176.153 78.1288 175.979C78.303 175.805 78.5393 175.707 78.7857 175.707C79.032 175.707 79.2683 175.805 79.4425 175.979C79.6167 176.153 79.7146 176.39 79.7146 176.636V178.658C79.7146 178.905 79.6167 179.141 79.4425 179.315C79.2683 179.49 79.032 179.587 78.7857 179.587C78.5393 179.587 78.303 179.49 78.1288 179.315C77.9546 179.141 77.8567 178.905 77.8567 178.658V176.636ZM78.4672 178.696C78.4672 178.972 78.5892 179.078 78.7857 179.078C78.9821 179.078 79.0989 178.972 79.0989 178.696V176.572C79.0989 176.296 78.9768 176.19 78.7857 176.19C78.5946 176.19 78.4672 176.296 78.4672 176.572V178.696Z" fill="#989898"/>
<path d="M77.8567 182.195C77.8567 181.948 77.9546 181.712 78.1288 181.538C78.303 181.363 78.5393 181.266 78.7857 181.266C79.032 181.266 79.2683 181.363 79.4425 181.538C79.6167 181.712 79.7146 181.948 79.7146 182.195V184.217C79.7146 184.463 79.6167 184.7 79.4425 184.874C79.2683 185.048 79.032 185.146 78.7857 185.146C78.5393 185.146 78.303 185.048 78.1288 184.874C77.9546 184.7 77.8567 184.463 77.8567 184.217V182.195ZM78.4672 184.254C78.4672 184.536 78.5892 184.642 78.7857 184.642C78.9821 184.642 79.0989 184.536 79.0989 184.254V182.157C79.0989 181.876 78.9768 181.775 78.7857 181.775C78.5946 181.775 78.4672 181.876 78.4672 182.157V184.254Z" fill="#989898"/>
<path d="M78.2864 187.311C78.4391 187.329 78.5932 187.289 78.7174 187.199C78.8417 187.108 78.9267 186.973 78.9552 186.822H79.3693V190.708H78.7588V187.741H78.2864V187.311Z" fill="#989898"/>
<path d="M78.2864 192.869C78.4391 192.888 78.5932 192.848 78.7174 192.757C78.8417 192.667 78.9267 192.532 78.9552 192.381H79.3693V196.272H78.7588V193.305H78.2864V192.869Z" fill="#989898"/>
<path d="M78.2864 198.427C78.4391 198.446 78.5932 198.406 78.7174 198.315C78.8417 198.224 78.9267 198.09 78.9552 197.938H79.3693V201.829H78.7588V198.862H78.2864V198.427Z" fill="#989898"/>
<path d="M78.2864 203.99C78.4391 204.009 78.5932 203.969 78.7174 203.878C78.8417 203.788 78.9267 203.653 78.9552 203.502H79.3693V207.388H78.7588V204.42H78.2864V203.99Z" fill="#989898"/>
<path d="M78.4673 212.053C78.4673 212.335 78.5894 212.436 78.7858 212.436C78.9822 212.436 79.099 212.335 79.099 212.053V209.93C79.099 209.654 78.9769 209.548 78.7858 209.548C78.5947 209.548 78.4673 209.654 78.4673 209.93V212.053Z" fill="#989898"/>
<path d="M81.5884 153.953C81.7417 153.972 81.8965 153.932 82.0216 153.842C82.1467 153.751 82.2328 153.616 82.2625 153.465H82.6713V157.351H82.0608V154.383H81.5884V153.953Z" fill="#989898"/>
<path d="M81.5884 159.512C81.7417 159.531 81.8965 159.491 82.0216 159.4C82.1467 159.31 82.2328 159.175 82.2625 159.023H82.6713V162.93H82.0608V159.963H81.5884V159.512Z" fill="#989898"/>
<path d="M81.185 171.073C81.1754 170.946 81.1921 170.818 81.2343 170.697C81.2765 170.576 81.3431 170.465 81.4301 170.372C81.5171 170.278 81.6225 170.203 81.7397 170.152C81.8569 170.101 81.9834 170.074 82.1113 170.074C82.2392 170.074 82.3658 170.101 82.483 170.152C82.6002 170.203 82.7056 170.278 82.7926 170.372C82.8795 170.465 82.9462 170.576 82.9884 170.697C83.0305 170.818 83.0473 170.946 83.0376 171.073V173.096C83.0473 173.223 83.0305 173.352 82.9884 173.472C82.9462 173.593 82.8795 173.704 82.7926 173.798C82.7056 173.891 82.6002 173.966 82.483 174.017C82.3658 174.069 82.2392 174.095 82.1113 174.095C81.9834 174.095 81.8569 174.069 81.7397 174.017C81.6225 173.966 81.5171 173.891 81.4301 173.798C81.3431 173.704 81.2765 173.593 81.2343 173.472C81.1921 173.352 81.1754 173.223 81.185 173.096V171.073ZM81.7955 173.138C81.7955 173.414 81.9176 173.521 82.1087 173.521C82.2998 173.521 82.4272 173.414 82.4272 173.138V171.015C82.4272 170.739 82.3051 170.633 82.1087 170.633C81.9123 170.633 81.7955 170.739 81.7955 171.015V173.138Z" fill="#989898"/>
<path d="M81.5884 176.2C81.7417 176.219 81.8965 176.179 82.0216 176.089C82.1467 175.998 82.2328 175.864 82.2625 175.712H82.6713V179.603H82.0608V176.625H81.5884V176.2Z" fill="#989898"/>
<path d="M81.185 182.193C81.1754 182.066 81.1921 181.938 81.2343 181.817C81.2765 181.696 81.3431 181.586 81.4301 181.492C81.5171 181.398 81.6225 181.323 81.7397 181.272C81.8569 181.221 81.9834 181.194 82.1113 181.194C82.2392 181.194 82.3658 181.221 82.483 181.272C82.6002 181.323 82.7056 181.398 82.7926 181.492C82.8795 181.586 82.9462 181.696 82.9884 181.817C83.0305 181.938 83.0473 182.066 83.0376 182.193V184.216C83.0473 184.343 83.0305 184.472 82.9884 184.592C82.9462 184.713 82.8795 184.824 82.7926 184.918C82.7056 185.011 82.6002 185.086 82.483 185.137C82.3658 185.189 82.2392 185.215 82.1113 185.215C81.9834 185.215 81.8569 185.189 81.7397 185.137C81.6225 185.086 81.5171 185.011 81.4301 184.918C81.3431 184.824 81.2765 184.713 81.2343 184.592C81.1921 184.472 81.1754 184.343 81.185 184.216V182.193ZM81.7955 184.253C81.7955 184.534 81.9176 184.641 82.1087 184.641C82.2998 184.641 82.4272 184.534 82.4272 184.253V182.156C82.4272 181.875 82.3051 181.774 82.1087 181.774C81.9123 181.774 81.7955 181.875 81.7955 182.156V184.253Z" fill="#989898"/>
<path d="M81.7742 195.375C81.7742 195.651 81.8963 195.757 82.0874 195.757C82.2785 195.757 82.4059 195.651 82.4059 195.375V193.251C82.4059 192.975 82.2838 192.869 82.0874 192.869C81.891 192.869 81.7742 192.975 81.7742 193.251V195.375Z" fill="#989898"/>
<path d="M81.5884 198.427C81.7355 198.442 81.8833 198.404 82.0043 198.319C82.1254 198.234 82.2115 198.108 82.2467 197.965H82.6554V201.856H82.045V198.888H81.5725L81.5884 198.427Z" fill="#989898"/>
<path d="M81.5884 203.99C81.7417 204.009 81.8965 203.97 82.0216 203.879C82.1467 203.788 82.2328 203.654 82.2625 203.502H82.6713V207.388H82.0608V204.42H81.5884V203.99Z" fill="#989898"/>
<path d="M81.185 221.109C81.1754 220.982 81.1921 220.854 81.2343 220.733C81.2765 220.612 81.3431 220.502 81.4301 220.408C81.5171 220.314 81.6225 220.239 81.7397 220.188C81.8569 220.137 81.9834 220.11 82.1113 220.11C82.2392 220.11 82.3658 220.137 82.483 220.188C82.6002 220.239 82.7056 220.314 82.7926 220.408C82.8795 220.502 82.9462 220.612 82.9884 220.733C83.0305 220.854 83.0473 220.982 83.0376 221.109V223.137C83.0473 223.265 83.0305 223.393 82.9884 223.514C82.9462 223.634 82.8795 223.745 82.7926 223.839C82.7056 223.933 82.6002 224.008 82.483 224.059C82.3658 224.11 82.2392 224.136 82.1113 224.136C81.9834 224.136 81.8569 224.11 81.7397 224.059C81.6225 224.008 81.5171 223.933 81.4301 223.839C81.3431 223.745 81.2765 223.634 81.2343 223.514C81.1921 223.393 81.1754 223.265 81.185 223.137V221.109ZM81.7955 223.174C81.7955 223.45 81.9176 223.557 82.1087 223.557C82.2998 223.557 82.4272 223.45 82.4272 223.174V221.051C82.4272 220.775 82.3051 220.669 82.1087 220.669C81.9123 220.669 81.7955 220.775 81.7955 221.051V223.174Z" fill="#989898"/>
<path d="M74.5496 148.836C74.5496 148.59 74.6474 148.354 74.8216 148.179C74.9959 148.005 75.2321 147.907 75.4785 147.907C75.7249 147.907 75.9612 148.005 76.1354 148.179C76.3096 148.354 76.4075 148.59 76.4075 148.836V150.859C76.4075 151.105 76.3096 151.341 76.1354 151.516C75.9612 151.69 75.7249 151.788 75.4785 151.788C75.2321 151.788 74.9959 151.69 74.8216 151.516C74.6474 151.341 74.5496 151.105 74.5496 150.859V148.836ZM75.16 150.896C75.16 151.177 75.2821 151.283 75.4785 151.283C75.6749 151.283 75.797 151.177 75.797 150.896V148.799C75.797 148.518 75.6749 148.412 75.4785 148.412C75.2821 148.412 75.16 148.518 75.16 148.799V150.896Z" fill="#989898"/>
<path d="M74.9795 153.953C75.1328 153.972 75.2876 153.932 75.4127 153.842C75.5378 153.751 75.6239 153.616 75.6537 153.465H76.0624V157.351H75.4519V154.383H74.9795V153.953Z" fill="#989898"/>
<path d="M74.9795 159.512C75.1328 159.531 75.2876 159.491 75.4127 159.4C75.5378 159.31 75.6239 159.175 75.6537 159.023H76.0624V162.93H75.4519V159.963H74.9795V159.512Z" fill="#989898"/>
<path d="M74.5496 165.516C74.5496 165.27 74.6474 165.033 74.8216 164.859C74.9959 164.685 75.2321 164.587 75.4785 164.587C75.7249 164.587 75.9612 164.685 76.1354 164.859C76.3096 165.033 76.4075 165.27 76.4075 165.516V167.538C76.4075 167.785 76.3096 168.021 76.1354 168.195C75.9612 168.369 75.7249 168.467 75.4785 168.467C75.2321 168.467 74.9959 168.369 74.8216 168.195C74.6474 168.021 74.5496 167.785 74.5496 167.538V165.516ZM75.16 167.576C75.16 167.857 75.2821 167.963 75.4785 167.963C75.6749 167.963 75.797 167.857 75.797 167.576V165.479C75.797 165.197 75.6749 165.091 75.4785 165.091C75.2821 165.091 75.16 165.197 75.16 165.479V167.576Z" fill="#989898"/>
<path d="M74.5496 176.636C74.5496 176.39 74.6474 176.153 74.8216 175.979C74.9959 175.805 75.2321 175.707 75.4785 175.707C75.7249 175.707 75.9612 175.805 76.1354 175.979C76.3096 176.153 76.4075 176.39 76.4075 176.636V178.658C76.4075 178.905 76.3096 179.141 76.1354 179.315C75.9612 179.49 75.7249 179.587 75.4785 179.587C75.2321 179.587 74.9959 179.49 74.8216 179.315C74.6474 179.141 74.5496 178.905 74.5496 178.658V176.636ZM75.16 178.696C75.16 178.972 75.2821 179.078 75.4785 179.078C75.6749 179.078 75.797 178.972 75.797 178.696V176.572C75.797 176.296 75.6749 176.19 75.4785 176.19C75.2821 176.19 75.16 176.296 75.16 176.572V178.696Z" fill="#989898"/>
<path d="M74.5496 182.195C74.5496 181.948 74.6474 181.712 74.8216 181.538C74.9959 181.363 75.2321 181.266 75.4785 181.266C75.7249 181.266 75.9612 181.363 76.1354 181.538C76.3096 181.712 76.4075 181.948 76.4075 182.195V184.217C76.4075 184.463 76.3096 184.7 76.1354 184.874C75.9612 185.048 75.7249 185.146 75.4785 185.146C75.2321 185.146 74.9959 185.048 74.8216 184.874C74.6474 184.7 74.5496 184.463 74.5496 184.217V182.195ZM75.16 184.254C75.16 184.536 75.2821 184.642 75.4785 184.642C75.6749 184.642 75.797 184.536 75.797 184.254V182.157C75.797 181.876 75.6749 181.775 75.4785 181.775C75.2821 181.775 75.16 181.876 75.16 182.157V184.254Z" fill="#989898"/>
<path d="M74.9795 187.311C75.1328 187.33 75.2876 187.29 75.4127 187.199C75.5378 187.109 75.6239 186.974 75.6537 186.822H76.0624V190.708H75.4519V187.741H74.9795V187.311Z" fill="#989898"/>
<path d="M74.5496 193.315C74.5496 193.068 74.6474 192.832 74.8216 192.658C74.9959 192.484 75.2321 192.386 75.4785 192.386C75.7249 192.386 75.9612 192.484 76.1354 192.658C76.3096 192.832 76.4075 193.068 76.4075 193.315V195.337C76.4075 195.584 76.3096 195.82 76.1354 195.994C75.9612 196.168 75.7249 196.266 75.4785 196.266C75.2321 196.266 74.9959 196.168 74.8216 195.994C74.6474 195.82 74.5496 195.584 74.5496 195.337V193.315ZM75.16 195.374C75.16 195.65 75.2821 195.757 75.4785 195.757C75.6749 195.757 75.797 195.65 75.797 195.374V193.251C75.797 192.975 75.6749 192.869 75.4785 192.869C75.2821 192.869 75.16 192.975 75.16 193.251V195.374Z" fill="#989898"/>
<path d="M74.9795 198.427C75.1328 198.446 75.2876 198.406 75.4127 198.315C75.5378 198.225 75.6239 198.09 75.6537 197.938H76.0624V201.829H75.4519V198.862H74.9795V198.427Z" fill="#989898"/>
<path d="M71.2478 137.716C71.2381 137.588 71.2549 137.46 71.2971 137.339C71.3392 137.219 71.4059 137.108 71.4929 137.014C71.5798 136.92 71.6852 136.846 71.8024 136.794C71.9196 136.743 72.0462 136.717 72.1741 136.717C72.302 136.717 72.4285 136.743 72.5457 136.794C72.663 136.846 72.7684 136.92 72.8553 137.014C72.9423 137.108 73.0089 137.219 73.0511 137.339C73.0933 137.46 73.1101 137.588 73.1004 137.716V139.738C73.1101 139.866 73.0933 139.994 73.0511 140.115C73.0089 140.236 72.9423 140.346 72.8553 140.44C72.7684 140.534 72.663 140.609 72.5457 140.66C72.4285 140.711 72.302 140.738 72.1741 140.738C72.0462 140.738 71.9196 140.711 71.8024 140.66C71.6852 140.609 71.5798 140.534 71.4929 140.44C71.4059 140.346 71.3392 140.236 71.2971 140.115C71.2549 139.994 71.2381 139.866 71.2478 139.738V137.716ZM71.8582 139.781C71.8582 140.057 71.9803 140.163 72.1714 140.163C72.3625 140.163 72.4899 140.057 72.4899 139.781V137.658C72.4899 137.382 72.3678 137.275 72.1714 137.275C71.975 137.275 71.8582 137.382 71.8582 137.658V139.781Z" fill="#989898"/>
<path d="M71.6724 148.39C71.8257 148.409 71.9805 148.369 72.1056 148.278C72.2307 148.188 72.3168 148.053 72.3465 147.901H72.7553V151.782H72.1607V148.814H71.6883L71.6724 148.39Z" fill="#989898"/>
<path d="M71.6724 159.512C71.8257 159.531 71.9805 159.491 72.1056 159.4C72.2307 159.31 72.3168 159.175 72.3465 159.023H72.7553V162.93H72.1607V159.963H71.6883L71.6724 159.512Z" fill="#989898"/>
<path d="M71.2478 165.515C71.2381 165.387 71.2549 165.259 71.2971 165.138C71.3392 165.018 71.4059 164.907 71.4929 164.813C71.5798 164.719 71.6852 164.644 71.8024 164.593C71.9196 164.542 72.0462 164.516 72.1741 164.516C72.302 164.516 72.4285 164.542 72.5457 164.593C72.663 164.644 72.7684 164.719 72.8553 164.813C72.9423 164.907 73.0089 165.018 73.0511 165.138C73.0933 165.259 73.1101 165.387 73.1004 165.515V167.537C73.1101 167.665 73.0933 167.793 73.0511 167.914C73.0089 168.034 72.9423 168.145 72.8553 168.239C72.7684 168.333 72.663 168.408 72.5457 168.459C72.4285 168.51 72.302 168.536 72.1741 168.536C72.0462 168.536 71.9196 168.51 71.8024 168.459C71.6852 168.408 71.5798 168.333 71.4929 168.239C71.4059 168.145 71.3392 168.034 71.2971 167.914C71.2549 167.793 71.2381 167.665 71.2478 167.537V165.515ZM71.8582 167.58C71.8582 167.856 71.9803 167.962 72.1714 167.962C72.3625 167.962 72.4899 167.856 72.4899 167.58V165.456C72.4899 165.175 72.3678 165.074 72.1714 165.074C71.975 165.074 71.8582 165.175 71.8582 165.456V167.58Z" fill="#989898"/>
<path d="M71.6724 181.748C71.8257 181.767 71.9805 181.727 72.1056 181.637C72.2307 181.546 72.3168 181.411 72.3465 181.26H72.7553V185.151H72.1607V182.183H71.6883L71.6724 181.748Z" fill="#989898"/>
<path d="M71.6724 187.311C71.8257 187.33 71.9805 187.29 72.1056 187.199C72.2307 187.109 72.3168 186.974 72.3465 186.822H72.7553V190.708H72.1607V187.741H71.6883L71.6724 187.311Z" fill="#989898"/>
<path d="M71.6724 192.869C71.8257 192.888 71.9805 192.848 72.1056 192.758C72.2307 192.667 72.3168 192.532 72.3465 192.381H72.7553V196.272H72.1607V193.305H71.6883L71.6724 192.869Z" fill="#989898"/>
<path d="M175.201 4.00318C175.201 3.7568 175.299 3.52052 175.474 3.3463C175.648 3.17209 175.884 3.07422 176.13 3.07422C176.377 3.07422 176.613 3.17209 176.787 3.3463C176.961 3.52052 177.059 3.7568 177.059 4.00318V6.02566C177.059 6.27204 176.961 6.50832 176.787 6.68254C176.613 6.85675 176.377 6.95462 176.13 6.95462C175.884 6.95462 175.648 6.85675 175.474 6.68254C175.299 6.50832 175.201 6.27204 175.201 6.02566V4.00318ZM175.812 6.06282C175.812 6.33886 175.934 6.44502 176.13 6.44502C176.327 6.44502 176.444 6.33886 176.444 6.06282V3.93948C176.444 3.66345 176.321 3.55728 176.13 3.55728C175.939 3.55728 175.812 3.66345 175.812 3.93948V6.06282Z" fill="#989898"/>
<path d="M175.201 9.56177C175.201 9.3154 175.299 9.07911 175.474 8.9049C175.648 8.73068 175.884 8.63281 176.13 8.63281C176.377 8.63281 176.613 8.73068 176.787 8.9049C176.961 9.07911 177.059 9.3154 177.059 9.56177V11.5843C177.059 11.8306 176.961 12.0669 176.787 12.2411C176.613 12.4153 176.377 12.5132 176.13 12.5132C175.884 12.5132 175.648 12.4153 175.474 12.2411C175.299 12.0669 175.201 11.8306 175.201 11.5843V9.56177ZM175.812 11.6426C175.812 11.924 175.934 12.0302 176.13 12.0302C176.327 12.0302 176.444 11.924 176.444 11.6426V9.51931C176.444 9.23796 176.321 9.1318 176.13 9.1318C175.939 9.1318 175.812 9.23796 175.812 9.51931V11.6426Z" fill="#989898"/>
<path d="M175.631 25.794C175.784 25.8129 175.938 25.7729 176.062 25.6822C176.187 25.5915 176.272 25.4568 176.3 25.3057H176.735V29.1967H176.125V26.2293H175.653L175.631 25.794Z" fill="#989898"/>
<path d="M175.631 31.3575C175.784 31.3764 175.938 31.3364 176.062 31.2457C176.187 31.1549 176.272 31.0203 176.3 30.8691H176.735V34.7549H176.125V31.814H175.653L175.631 31.3575Z" fill="#989898"/>
<path d="M175.201 48.4768C175.201 48.2304 175.299 47.9942 175.474 47.8199C175.648 47.6457 175.884 47.5479 176.13 47.5479C176.377 47.5479 176.613 47.6457 176.787 47.8199C176.961 47.9942 177.059 48.2304 177.059 48.4768V50.4993C177.059 50.7457 176.961 50.982 176.787 51.1562C176.613 51.3304 176.377 51.4283 176.13 51.4283C175.884 51.4283 175.648 51.3304 175.474 51.1562C175.299 50.982 175.201 50.7457 175.201 50.4993V48.4768ZM175.812 50.5418C175.812 50.8178 175.934 50.924 176.13 50.924C176.327 50.924 176.444 50.8178 176.444 50.5418V48.4184C176.444 48.1424 176.321 48.0362 176.13 48.0362C175.939 48.0362 175.812 48.1424 175.812 48.4184V50.5418Z" fill="#989898"/>
<path d="M175.201 59.5969C175.201 59.3506 175.299 59.1143 175.474 58.9401C175.648 58.7658 175.884 58.668 176.13 58.668C176.377 58.668 176.613 58.7658 176.787 58.9401C176.961 59.1143 177.059 59.3506 177.059 59.5969V61.6194C177.059 61.8658 176.961 62.1021 176.787 62.2763C176.613 62.4505 176.377 62.5484 176.13 62.5484C175.884 62.5484 175.648 62.4505 175.474 62.2763C175.299 62.1021 175.201 61.8658 175.201 61.6194V59.5969ZM175.812 61.6566C175.812 61.9379 175.934 62.0441 176.13 62.0441C176.327 62.0441 176.444 61.9379 176.444 61.6566V59.5598C176.444 59.2784 176.321 59.1776 176.13 59.1776C175.939 59.1776 175.812 59.2784 175.812 59.5598V61.6566Z" fill="#989898"/>
<path d="M165.285 15.1184C165.285 14.872 165.383 14.6358 165.557 14.4615C165.732 14.2873 165.968 14.1895 166.214 14.1895C166.461 14.1895 166.697 14.2873 166.871 14.4615C167.045 14.6358 167.143 14.872 167.143 15.1184V17.1409C167.143 17.3873 167.045 17.6236 166.871 17.7978C166.697 17.972 166.461 18.0699 166.214 18.0699C165.968 18.0699 165.732 17.972 165.557 17.7978C165.383 17.6236 165.285 17.3873 165.285 17.1409V15.1184ZM165.896 17.1834C165.896 17.4594 166.018 17.5656 166.214 17.5656C166.411 17.5656 166.528 17.4594 166.528 17.1834V15.06C166.528 14.784 166.405 14.6778 166.214 14.6778C166.023 14.6778 165.896 14.784 165.896 15.06V17.1834Z" fill="#989898"/>
<path d="M165.285 20.6663C165.285 20.4199 165.383 20.1836 165.557 20.0094C165.732 19.8352 165.968 19.7373 166.214 19.7373C166.461 19.7373 166.697 19.8352 166.871 20.0094C167.045 20.1836 167.143 20.4199 167.143 20.6663V22.6887C167.143 22.9351 167.045 23.1714 166.871 23.3456C166.697 23.5198 166.461 23.6177 166.214 23.6177C165.968 23.6177 165.732 23.5198 165.557 23.3456C165.383 23.1714 165.285 22.9351 165.285 22.6887V20.6663ZM165.896 22.7259C165.896 23.0019 166.018 23.1081 166.214 23.1081C166.411 23.1081 166.528 23.0019 166.528 22.7259V20.6663C166.528 20.3902 166.405 20.2841 166.214 20.2841C166.023 20.2841 165.896 20.3902 165.896 20.6663V22.7259Z" fill="#989898"/>
<path d="M165.285 26.2395C165.285 25.9931 165.383 25.7568 165.557 25.5826C165.732 25.4084 165.968 25.3105 166.214 25.3105C166.461 25.3105 166.697 25.4084 166.871 25.5826C167.045 25.7568 167.143 25.9931 167.143 26.2395V28.262C167.143 28.5084 167.045 28.7447 166.871 28.9189C166.697 29.0931 166.461 29.191 166.214 29.191C165.968 29.191 165.732 29.0931 165.557 28.9189C165.383 28.7447 165.285 28.5084 165.285 28.262V26.2395ZM165.896 28.2991C165.896 28.5805 166.018 28.6867 166.214 28.6867C166.411 28.6867 166.528 28.5805 166.528 28.2991V26.2024C166.528 25.921 166.405 25.8148 166.214 25.8148C166.023 25.8148 165.896 25.921 165.896 26.2024V28.2991Z" fill="#989898"/>
<path d="M165.715 31.3575C165.868 31.3764 166.022 31.3364 166.146 31.2457C166.27 31.1549 166.355 31.0203 166.384 30.8691H166.798V34.7549H166.188V31.814H165.715V31.3575Z" fill="#989898"/>
<path d="M165.715 42.4727C165.868 42.4916 166.022 42.4516 166.146 42.3609C166.27 42.2702 166.355 42.1355 166.384 41.9844H166.798V45.8754H166.188V42.908H165.715V42.4727Z" fill="#989898"/>
<path d="M165.715 48.0362C165.868 48.0551 166.022 48.0151 166.146 47.9244C166.27 47.8337 166.355 47.699 166.384 47.5479H166.798V51.4548H166.188V48.4874H165.715V48.0362Z" fill="#989898"/>
<path d="M165.285 59.5969C165.285 59.3506 165.383 59.1143 165.557 58.9401C165.732 58.7658 165.968 58.668 166.214 58.668C166.461 58.668 166.697 58.7658 166.871 58.9401C167.045 59.1143 167.143 59.3506 167.143 59.5969V61.6194C167.143 61.8658 167.045 62.1021 166.871 62.2763C166.697 62.4505 166.461 62.5484 166.214 62.5484C165.968 62.5484 165.732 62.4505 165.557 62.2763C165.383 62.1021 165.285 61.8658 165.285 61.6194V59.5969ZM165.896 61.6566C165.896 61.9379 166.018 62.0441 166.214 62.0441C166.411 62.0441 166.528 61.9379 166.528 61.6566V59.5598C166.528 59.2784 166.405 59.1776 166.214 59.1776C166.023 59.1776 165.896 59.2784 165.896 59.5598V61.6566Z" fill="#989898"/>
<path d="M165.715 64.7257C165.868 64.7445 166.022 64.7045 166.146 64.6138C166.27 64.5231 166.355 64.3885 166.384 64.2373H166.798V68.123H166.188V65.1556H165.715V64.7257Z" fill="#989898"/>
<path d="M171.894 4.00318C171.894 3.7568 171.992 3.52052 172.166 3.3463C172.34 3.17209 172.577 3.07422 172.823 3.07422C173.069 3.07422 173.306 3.17209 173.48 3.3463C173.654 3.52052 173.752 3.7568 173.752 4.00318V6.02566C173.752 6.27204 173.654 6.50832 173.48 6.68254C173.306 6.85675 173.069 6.95462 172.823 6.95462C172.577 6.95462 172.34 6.85675 172.166 6.68254C171.992 6.50832 171.894 6.27204 171.894 6.02566V4.00318ZM172.489 6.06282C172.489 6.33886 172.611 6.44502 172.802 6.44502C172.993 6.44502 173.12 6.33886 173.12 6.06282V3.93948C173.12 3.66345 172.998 3.55728 172.802 3.55728C172.605 3.55728 172.489 3.66345 172.489 3.93948V6.06282Z" fill="#989898"/>
<path d="M172.324 9.11532C172.477 9.13433 172.632 9.0945 172.757 9.00387C172.882 8.91324 172.968 8.77855 172.998 8.62695H173.407V12.518H172.796V9.55061H172.324V9.11532Z" fill="#989898"/>
<path d="M171.894 15.1184C171.894 14.872 171.992 14.6358 172.166 14.4615C172.34 14.2873 172.577 14.1895 172.823 14.1895C173.069 14.1895 173.306 14.2873 173.48 14.4615C173.654 14.6358 173.752 14.872 173.752 15.1184V17.1409C173.752 17.3873 173.654 17.6236 173.48 17.7978C173.306 17.972 173.069 18.0699 172.823 18.0699C172.577 18.0699 172.34 17.972 172.166 17.7978C171.992 17.6236 171.894 17.3873 171.894 17.1409V15.1184ZM172.489 17.1834C172.489 17.4594 172.611 17.5656 172.802 17.5656C172.993 17.5656 173.12 17.4594 173.12 17.1834V15.06C173.12 14.784 172.998 14.6778 172.802 14.6778C172.605 14.6778 172.489 14.784 172.489 15.06V17.1834Z" fill="#989898"/>
<path d="M172.324 20.2364C172.477 20.2554 172.632 20.2156 172.757 20.125C172.882 20.0343 172.968 19.8996 172.998 19.748H173.407V23.6391H172.796V20.6664H172.324V20.2364Z" fill="#989898"/>
<path d="M172.324 25.794C172.477 25.813 172.632 25.7732 172.757 25.6826C172.882 25.592 172.968 25.4573 172.998 25.3057H173.407V29.1967H172.796V26.2293H172.324V25.794Z" fill="#989898"/>
<path d="M172.324 31.3575C172.477 31.3765 172.632 31.3367 172.757 31.2461C172.882 31.1554 172.968 31.0207 172.998 30.8691H173.407V34.7549H172.796V31.814H172.324V31.3575Z" fill="#989898"/>
<path d="M171.894 37.3606C171.894 37.1142 171.992 36.8779 172.166 36.7037C172.34 36.5295 172.577 36.4316 172.823 36.4316C173.069 36.4316 173.306 36.5295 173.48 36.7037C173.654 36.8779 173.752 37.1142 173.752 37.3606V39.3831C173.752 39.6295 173.654 39.8657 173.48 40.04C173.306 40.2142 173.069 40.3121 172.823 40.3121C172.577 40.3121 172.34 40.2142 172.166 40.04C171.992 39.8657 171.894 39.6295 171.894 39.3831V37.3606ZM172.489 39.4202C172.489 39.6963 172.611 39.8024 172.802 39.8024C172.993 39.8024 173.12 39.6963 173.12 39.4202V37.2969C173.12 37.0209 172.998 36.9147 172.802 36.9147C172.605 36.9147 172.489 37.0209 172.489 37.2969V39.4202Z" fill="#989898"/>
<path d="M171.894 42.9182C171.894 42.6718 171.992 42.4356 172.166 42.2613C172.34 42.0871 172.577 41.9893 172.823 41.9893C173.069 41.9893 173.306 42.0871 173.48 42.2613C173.654 42.4356 173.752 42.6718 173.752 42.9182V44.9407C173.752 45.1871 173.654 45.4234 173.48 45.5976C173.306 45.7718 173.069 45.8697 172.823 45.8697C172.577 45.8697 172.34 45.7718 172.166 45.5976C171.992 45.4234 171.894 45.1871 171.894 44.9407V42.9182ZM172.489 44.9779C172.489 45.2592 172.611 45.3654 172.802 45.3654C172.993 45.3654 173.12 45.2592 173.12 44.9779V42.8545C173.12 42.5732 172.998 42.4723 172.802 42.4723C172.605 42.4723 172.489 42.5732 172.489 42.8545V44.9779Z" fill="#989898"/>
<path d="M169.017 9.11532C169.17 9.13433 169.325 9.0945 169.45 9.00387C169.575 8.91324 169.662 8.77855 169.691 8.62695H170.1V12.518H169.49V9.55061H169.017V9.11532Z" fill="#989898"/>
<path d="M168.592 15.1183C168.583 14.9907 168.6 14.8626 168.642 14.7418C168.684 14.6211 168.751 14.5103 168.838 14.4165C168.925 14.3227 169.03 14.2479 169.147 14.1967C169.264 14.1456 169.391 14.1191 169.519 14.1191C169.647 14.1191 169.773 14.1456 169.89 14.1967C170.008 14.2479 170.113 14.3227 170.2 14.4165C170.287 14.5103 170.354 14.6211 170.396 14.7418C170.438 14.8626 170.455 14.9907 170.445 15.1183V17.1408C170.455 17.2683 170.438 17.3965 170.396 17.5172C170.354 17.638 170.287 17.7487 170.2 17.8425C170.113 17.9363 170.008 18.0111 169.89 18.0623C169.773 18.1135 169.647 18.1399 169.519 18.1399C169.391 18.1399 169.264 18.1135 169.147 18.0623C169.03 18.0111 168.925 17.9363 168.838 17.8425C168.751 17.7487 168.684 17.638 168.642 17.5172C168.6 17.3965 168.583 17.2683 168.592 17.1408V15.1183ZM169.203 17.1832C169.203 17.4593 169.325 17.5654 169.516 17.5654C169.707 17.5654 169.835 17.4593 169.835 17.1832V15.0599C169.835 14.7838 169.713 14.6777 169.516 14.6777C169.32 14.6777 169.203 14.7838 169.203 15.0599V17.1832Z" fill="#989898"/>
<path d="M168.592 20.6661C168.583 20.5386 168.6 20.4104 168.642 20.2897C168.684 20.1689 168.751 20.0582 168.838 19.9644C168.925 19.8706 169.03 19.7958 169.147 19.7446C169.264 19.6934 169.391 19.667 169.519 19.667C169.647 19.667 169.773 19.6934 169.89 19.7446C170.008 19.7958 170.113 19.8706 170.2 19.9644C170.287 20.0582 170.354 20.1689 170.396 20.2897C170.438 20.4104 170.455 20.5386 170.445 20.6661V22.6886C170.455 22.8161 170.438 22.9443 170.396 23.0651C170.354 23.1858 170.287 23.2966 170.2 23.3904C170.113 23.4842 170.008 23.559 169.89 23.6102C169.773 23.6613 169.647 23.6877 169.519 23.6877C169.391 23.6877 169.264 23.6613 169.147 23.6102C169.03 23.559 168.925 23.4842 168.838 23.3904C168.751 23.2966 168.684 23.1858 168.642 23.0651C168.6 22.9443 168.583 22.8161 168.592 22.6886V20.6661ZM169.203 22.7258C169.203 23.0018 169.325 23.108 169.516 23.108C169.707 23.108 169.835 23.0018 169.835 22.7258V20.6661C169.835 20.3901 169.713 20.2839 169.516 20.2839C169.32 20.2839 169.203 20.3901 169.203 20.6661V22.7258Z" fill="#989898"/>
<path d="M169.017 25.794C169.17 25.813 169.325 25.7732 169.45 25.6826C169.575 25.592 169.662 25.4573 169.691 25.3057H170.1V29.1967H169.49V26.2293H169.017V25.794Z" fill="#989898"/>
<path d="M169.017 36.9151C169.17 36.9341 169.325 36.8943 169.45 36.8037C169.575 36.713 169.662 36.5784 169.691 36.4268H170.1V40.3072H169.49V37.3504H169.017V36.9151Z" fill="#989898"/>
<path d="M169.017 42.4727C169.17 42.4917 169.325 42.4519 169.45 42.3613C169.575 42.2707 169.662 42.136 169.691 41.9844H170.1V45.8754H169.49V42.908H169.017V42.4727Z" fill="#989898"/>
<path d="M169.017 48.0362C169.17 48.0552 169.325 48.0154 169.45 47.9248C169.575 47.8341 169.662 47.6995 169.691 47.5479H170.1V51.4548H169.49V48.4874H169.017V48.0362Z" fill="#989898"/>
<path d="M19.6082 65.5588C19.6082 65.3125 19.706 65.0762 19.8802 64.902C20.0545 64.7278 20.2907 64.6299 20.5371 64.6299C20.7835 64.6299 21.0198 64.7278 21.194 64.902C21.3682 65.0762 21.4661 65.3125 21.4661 65.5588V67.5866C21.4661 67.833 21.3682 68.0693 21.194 68.2435C21.0198 68.4177 20.7835 68.5156 20.5371 68.5156C20.2907 68.5156 20.0545 68.4177 19.8802 68.2435C19.706 68.0693 19.6082 67.833 19.6082 67.5866V65.5588ZM20.2186 67.6238C20.2186 67.8998 20.3407 68.006 20.5371 68.006C20.7335 68.006 20.8503 67.8998 20.8503 67.6238V65.5005C20.8503 65.2244 20.7282 65.1183 20.5371 65.1183C20.346 65.1183 20.2186 65.2244 20.2186 65.5005V67.6238Z" fill="#989898"/>
<path d="M19.6082 71.1223C19.6082 70.8759 19.706 70.6397 19.8802 70.4654C20.0545 70.2912 20.2907 70.1934 20.5371 70.1934C20.7835 70.1934 21.0198 70.2912 21.194 70.4654C21.3682 70.6397 21.4661 70.8759 21.4661 71.1223V73.1448C21.4661 73.3912 21.3682 73.6275 21.194 73.8017C21.0198 73.9759 20.7835 74.0738 20.5371 74.0738C20.2907 74.0738 20.0545 73.9759 19.8802 73.8017C19.706 73.6275 19.6082 73.3912 19.6082 73.1448V71.1223ZM20.2186 73.182C20.2186 73.4633 20.3407 73.5642 20.5371 73.5642C20.7335 73.5642 20.8503 73.4633 20.8503 73.182V71.0586C20.8503 70.7826 20.7282 70.6764 20.5371 70.6764C20.346 70.6764 20.2186 70.7826 20.2186 71.0586V73.182Z" fill="#989898"/>
<path d="M20.0327 76.2345C20.1854 76.2533 20.3395 76.2133 20.4638 76.1226C20.588 76.0319 20.673 75.8973 20.7016 75.7461H21.1156V79.6371H20.5052V76.6698H20.0327V76.2345Z" fill="#989898"/>
<path d="M19.6082 82.2434C19.6082 81.997 19.706 81.7608 19.8802 81.5865C20.0545 81.4123 20.2907 81.3145 20.5371 81.3145C20.7835 81.3145 21.0198 81.4123 21.194 81.5865C21.3682 81.7608 21.4661 81.997 21.4661 82.2434V84.2712C21.4661 84.5176 21.3682 84.7539 21.194 84.9281C21.0198 85.1023 20.7835 85.2002 20.5371 85.2002C20.2907 85.2002 20.0545 85.1023 19.8802 84.9281C19.706 84.7539 19.6082 84.5176 19.6082 84.2712V82.2434ZM20.2186 84.3084C20.2186 84.5844 20.3407 84.6906 20.5371 84.6906C20.7335 84.6906 20.8503 84.5844 20.8503 84.3084V82.185C20.8503 81.909 20.7282 81.8028 20.5371 81.8028C20.346 81.8028 20.2186 81.909 20.2186 82.185V84.3084Z" fill="#989898"/>
<path d="M20.0327 87.3546C20.1854 87.3734 20.3395 87.3334 20.4638 87.2427C20.588 87.152 20.673 87.0174 20.7016 86.8662H21.1156V90.736H20.5052V87.7686H20.0327V87.3546Z" fill="#989898"/>
<path d="M19.6082 93.3586C19.6082 93.1123 19.706 92.876 19.8802 92.7018C20.0545 92.5276 20.2907 92.4297 20.5371 92.4297C20.7835 92.4297 21.0198 92.5276 21.194 92.7018C21.3682 92.876 21.4661 93.1123 21.4661 93.3586V95.3811C21.4661 95.6275 21.3682 95.8638 21.194 96.038C21.0198 96.2122 20.7835 96.3101 20.5371 96.3101C20.2907 96.3101 20.0545 96.2122 19.8802 96.038C19.706 95.8638 19.6082 95.6275 19.6082 95.3811V93.3586ZM20.2186 95.4236C20.2186 95.6996 20.3407 95.8058 20.5371 95.8058C20.7335 95.8058 20.8503 95.6996 20.8503 95.4236V93.3003C20.8503 93.0189 20.7282 92.9181 20.5371 92.9181C20.346 92.9181 20.2186 93.0189 20.2186 93.3003V95.4236Z" fill="#989898"/>
<path d="M20.0327 98.4766C20.1854 98.4955 20.3395 98.4555 20.4638 98.3648C20.588 98.2741 20.673 98.1395 20.7016 97.9883H21.1156V101.885H20.5052V98.9172H20.0327V98.4766Z" fill="#989898"/>
<path d="M19.6082 104.48C19.6082 104.233 19.706 103.997 19.8802 103.823C20.0545 103.649 20.2907 103.551 20.5371 103.551C20.7835 103.551 21.0198 103.649 21.194 103.823C21.3682 103.997 21.4661 104.233 21.4661 104.48V106.502C21.4661 106.749 21.3682 106.985 21.194 107.159C21.0198 107.333 20.7835 107.431 20.5371 107.431C20.2907 107.431 20.0545 107.333 19.8802 107.159C19.706 106.985 19.6082 106.749 19.6082 106.502V104.48ZM20.2186 106.539C20.2186 106.821 20.3407 106.922 20.5371 106.922C20.7335 106.922 20.8503 106.821 20.8503 106.539V104.416C20.8503 104.14 20.7282 104.034 20.5371 104.034C20.346 104.034 20.2186 104.14 20.2186 104.416V106.539Z" fill="#989898"/>
<path d="M19.6082 110.037C19.6082 109.791 19.706 109.555 19.8802 109.38C20.0545 109.206 20.2907 109.108 20.5371 109.108C20.7835 109.108 21.0198 109.206 21.194 109.38C21.3682 109.555 21.4661 109.791 21.4661 110.037V112.06C21.4661 112.306 21.3682 112.543 21.194 112.717C21.0198 112.891 20.7835 112.989 20.5371 112.989C20.2907 112.989 20.0545 112.891 19.8802 112.717C19.706 112.543 19.6082 112.306 19.6082 112.06V110.037ZM20.2186 112.102C20.2186 112.378 20.3407 112.485 20.5371 112.485C20.7335 112.485 20.8503 112.378 20.8503 112.102V109.979C20.8503 109.703 20.7282 109.597 20.5371 109.597C20.346 109.597 20.2186 109.703 20.2186 109.979V112.102Z" fill="#989898"/>
<path d="M19.6082 115.601C19.6082 115.354 19.706 115.118 19.8802 114.944C20.0545 114.77 20.2907 114.672 20.5371 114.672C20.7835 114.672 21.0198 114.77 21.194 114.944C21.3682 115.118 21.4661 115.354 21.4661 115.601V117.623C21.4661 117.87 21.3682 118.106 21.194 118.28C21.0198 118.454 20.7835 118.552 20.5371 118.552C20.2907 118.552 20.0545 118.454 19.8802 118.28C19.706 118.106 19.6082 117.87 19.6082 117.623V115.601ZM20.2186 117.66C20.2186 117.937 20.3407 118.043 20.5371 118.043C20.7335 118.043 20.8503 117.937 20.8503 117.66V115.537C20.8503 115.261 20.7282 115.155 20.5371 115.155C20.346 115.155 20.2186 115.261 20.2186 115.537V117.66Z" fill="#989898"/>
<path d="M20.0327 126.27C20.1856 126.29 20.3404 126.25 20.4649 126.159C20.5895 126.068 20.6742 125.933 20.7016 125.781H21.1156V129.672H20.5052V126.705H20.0327V126.27Z" fill="#989898"/>
<path d="M23.324 87.3546C23.4773 87.3736 23.6321 87.3338 23.7572 87.2431C23.8823 87.1525 23.9684 87.0178 23.9981 86.8662H24.4069V90.736H23.807V87.7686H23.324V87.3546Z" fill="#989898"/>
<path d="M23.324 92.9132C23.4773 92.9322 23.6321 92.8924 23.7572 92.8017C23.8823 92.7111 23.9684 92.5764 23.9981 92.4248H24.4069V96.3158H23.807V93.3485H23.324V92.9132Z" fill="#989898"/>
<path d="M22.9099 98.9171C22.9002 98.7896 22.917 98.6614 22.9592 98.5406C23.0013 98.4199 23.068 98.3092 23.155 98.2154C23.2419 98.1216 23.3473 98.0467 23.4645 97.9956C23.5818 97.9444 23.7083 97.918 23.8362 97.918C23.9641 97.918 24.0906 97.9444 24.2078 97.9956C24.3251 98.0467 24.4305 98.1216 24.5174 98.2154C24.6044 98.3092 24.671 98.4199 24.7132 98.5406C24.7554 98.6614 24.7722 98.7896 24.7625 98.9171V100.945C24.7722 101.072 24.7554 101.201 24.7132 101.321C24.671 101.442 24.6044 101.553 24.5174 101.647C24.4305 101.74 24.3251 101.815 24.2078 101.866C24.0906 101.918 23.9641 101.944 23.8362 101.944C23.7083 101.944 23.5818 101.918 23.4645 101.866C23.3473 101.815 23.2419 101.74 23.155 101.647C23.068 101.553 23.0013 101.442 22.9592 101.321C22.917 101.201 22.9002 101.072 22.9099 100.945V98.9171ZM23.5203 100.982C23.5203 101.258 23.6424 101.364 23.8335 101.364C24.0246 101.364 24.152 101.258 24.152 100.982V98.8587C24.152 98.5827 24.0299 98.4765 23.8335 98.4765C23.6371 98.4765 23.5203 98.5827 23.5203 98.8587V100.982Z" fill="#989898"/>
<path d="M22.9099 104.48C22.9002 104.352 22.917 104.224 22.9592 104.103C23.0013 103.982 23.068 103.872 23.155 103.778C23.2419 103.684 23.3473 103.609 23.4645 103.558C23.5818 103.507 23.7083 103.48 23.8362 103.48C23.9641 103.48 24.0906 103.507 24.2078 103.558C24.3251 103.609 24.4305 103.684 24.5174 103.778C24.6044 103.872 24.671 103.982 24.7132 104.103C24.7554 104.224 24.7722 104.352 24.7625 104.48V106.502C24.7722 106.63 24.7554 106.758 24.7132 106.879C24.671 106.999 24.6044 107.11 24.5174 107.204C24.4305 107.298 24.3251 107.372 24.2078 107.424C24.0906 107.475 23.9641 107.501 23.8362 107.501C23.7083 107.501 23.5818 107.475 23.4645 107.424C23.3473 107.372 23.2419 107.298 23.155 107.204C23.068 107.11 23.0013 106.999 22.9592 106.879C22.917 106.758 22.9002 106.63 22.9099 106.502V104.48ZM23.5203 106.539C23.5203 106.821 23.6424 106.921 23.8335 106.921C24.0246 106.921 24.152 106.821 24.152 106.539V104.416C24.152 104.14 24.0299 104.034 23.8335 104.034C23.6371 104.034 23.5203 104.14 23.5203 104.416V106.539Z" fill="#989898"/>
<path d="M23.324 109.592C23.4775 109.612 23.633 109.573 23.7584 109.482C23.8838 109.391 23.9696 109.256 23.9981 109.104H24.4069V112.995H23.807V110.027H23.324V109.592Z" fill="#989898"/>
<path d="M23.324 120.713C23.4773 120.732 23.6321 120.692 23.7572 120.602C23.8823 120.511 23.9684 120.376 23.9981 120.225H24.4069V124.116H23.807V121.148H23.324V120.713Z" fill="#989898"/>
<path d="M16.2954 82.2434C16.2954 81.997 16.3933 81.7608 16.5675 81.5865C16.7417 81.4123 16.978 81.3145 17.2244 81.3145C17.4707 81.3145 17.707 81.4123 17.8812 81.5865C18.0555 81.7608 18.1533 81.997 18.1533 82.2434V84.2712C18.1533 84.5176 18.0555 84.7539 17.8812 84.9281C17.707 85.1023 17.4707 85.2002 17.2244 85.2002C16.978 85.2002 16.7417 85.1023 16.5675 84.9281C16.3933 84.7539 16.2954 84.5176 16.2954 84.2712V82.2434ZM16.9112 84.3084C16.9112 84.5844 17.0333 84.6906 17.2244 84.6906C17.4155 84.6906 17.5429 84.5844 17.5429 84.3084V82.185C17.5429 81.909 17.4208 81.8028 17.2244 81.8028C17.028 81.8028 16.9112 81.909 16.9112 82.185V84.3084Z" fill="#989898"/>
<path d="M16.7256 87.3546C16.8789 87.3736 17.0337 87.3338 17.1588 87.2431C17.2839 87.1525 17.37 87.0178 17.3997 86.8662H17.8085V90.736H17.198V87.7686H16.7256V87.3546Z" fill="#989898"/>
<path d="M16.7256 92.9132C16.8789 92.9322 17.0337 92.8924 17.1588 92.8017C17.2839 92.7111 17.37 92.5764 17.3997 92.4248H17.8085V96.3158H17.198V93.3485H16.7256V92.9132Z" fill="#989898"/>
<path d="M16.2954 98.9172C16.2954 98.6709 16.3933 98.4346 16.5675 98.2604C16.7417 98.0862 16.978 97.9883 17.2244 97.9883C17.4707 97.9883 17.707 98.0862 17.8812 98.2604C18.0555 98.4346 18.1533 98.6709 18.1533 98.9172V100.945C18.1533 101.191 18.0555 101.428 17.8812 101.602C17.707 101.776 17.4707 101.874 17.2244 101.874C16.978 101.874 16.7417 101.776 16.5675 101.602C16.3933 101.428 16.2954 101.191 16.2954 100.945V98.9172ZM16.9112 100.982C16.9112 101.258 17.0333 101.364 17.2244 101.364C17.4155 101.364 17.5429 101.258 17.5429 100.982V98.8589C17.5429 98.5828 17.4208 98.4766 17.2244 98.4766C17.028 98.4766 16.9112 98.5828 16.9112 98.8589V100.982Z" fill="#989898"/>
<path d="M16.7256 104.033C16.8789 104.052 17.0337 104.012 17.1588 103.922C17.2839 103.831 17.37 103.697 17.3997 103.545H17.8085V107.436H17.198V104.469H16.7256V104.033Z" fill="#989898"/>
<path d="M16.2954 110.037C16.2954 109.791 16.3933 109.555 16.5675 109.38C16.7417 109.206 16.978 109.108 17.2244 109.108C17.4707 109.108 17.707 109.206 17.8812 109.38C18.0555 109.555 18.1533 109.791 18.1533 110.037V112.06C18.1533 112.306 18.0555 112.543 17.8812 112.717C17.707 112.891 17.4707 112.989 17.2244 112.989C16.978 112.989 16.7417 112.891 16.5675 112.717C16.3933 112.543 16.2954 112.306 16.2954 112.06V110.037ZM16.9112 112.102C16.9112 112.378 17.0333 112.485 17.2244 112.485C17.4155 112.485 17.5429 112.378 17.5429 112.102V109.979C17.5429 109.703 17.4208 109.597 17.2244 109.597C17.028 109.597 16.9112 109.703 16.9112 109.979V112.102Z" fill="#989898"/>
<path d="M12.9939 71.1222C12.9842 70.9946 13.001 70.8665 13.0432 70.7457C13.0853 70.625 13.152 70.5142 13.2389 70.4204C13.3259 70.3266 13.4313 70.2518 13.5485 70.2006C13.6657 70.1495 13.7923 70.123 13.9202 70.123C14.0481 70.123 14.1746 70.1495 14.2918 70.2006C14.4091 70.2518 14.5144 70.3266 14.6014 70.4204C14.6884 70.5142 14.755 70.625 14.7972 70.7457C14.8394 70.8665 14.8561 70.9946 14.8465 71.1222V73.1447C14.8561 73.2722 14.8394 73.4004 14.7972 73.5211C14.755 73.6419 14.6884 73.7526 14.6014 73.8464C14.5144 73.9402 14.4091 74.015 14.2918 74.0662C14.1746 74.1174 14.0481 74.1438 13.9202 74.1438C13.7923 74.1438 13.6657 74.1174 13.5485 74.0662C13.4313 74.015 13.3259 73.9402 13.2389 73.8464C13.152 73.7526 13.0853 73.6419 13.0432 73.5211C13.001 73.4004 12.9842 73.2722 12.9939 73.1447V71.1222ZM13.6043 73.1818C13.6043 73.4632 13.7264 73.564 13.9175 73.564C14.1086 73.564 14.236 73.4632 14.236 73.1818V71.0585C14.236 70.7771 14.1139 70.671 13.9175 70.671C13.7211 70.671 13.6043 70.7771 13.6043 71.0585V73.1818Z" fill="#989898"/>
<path d="M13.4185 81.7979C13.5718 81.8169 13.7266 81.7771 13.8517 81.6865C13.9768 81.5959 14.0629 81.4612 14.0926 81.3096H14.5014V85.1953H13.8909V82.2438H13.4185V81.7979Z" fill="#989898"/>
<path d="M12.9939 87.8009C12.9842 87.6733 13.001 87.5452 13.0432 87.4244C13.0853 87.3037 13.152 87.1929 13.2389 87.0991C13.3259 87.0053 13.4313 86.9305 13.5485 86.8793C13.6657 86.8282 13.7923 86.8018 13.9202 86.8018C14.0481 86.8018 14.1746 86.8282 14.2918 86.8793C14.4091 86.9305 14.5144 87.0053 14.6014 87.0991C14.6884 87.1929 14.755 87.3037 14.7972 87.4244C14.8394 87.5452 14.8561 87.6733 14.8465 87.8009V89.8234C14.8561 89.9509 14.8394 90.0791 14.7972 90.1998C14.755 90.3206 14.6884 90.4313 14.6014 90.5251C14.5144 90.6189 14.4091 90.6937 14.2918 90.7449C14.1746 90.7961 14.0481 90.8225 13.9202 90.8225C13.7923 90.8225 13.6657 90.7961 13.5485 90.7449C13.4313 90.6937 13.3259 90.6189 13.2389 90.5251C13.152 90.4313 13.0853 90.3206 13.0432 90.1998C13.001 90.0791 12.9842 89.9509 12.9939 89.8234V87.8009ZM13.6043 89.8605C13.6043 90.1419 13.7264 90.2427 13.9175 90.2427C14.1086 90.2427 14.236 90.1419 14.236 89.8605V87.7637C14.236 87.4824 14.1139 87.3762 13.9175 87.3762C13.7211 87.3762 13.6043 87.4824 13.6043 87.7637V89.8605Z" fill="#989898"/>
<path d="M12.9939 98.922C12.9842 98.7944 13.001 98.6663 13.0432 98.5455C13.0853 98.4248 13.152 98.314 13.2389 98.2202C13.3259 98.1264 13.4313 98.0516 13.5485 98.0004C13.6657 97.9493 13.7923 97.9229 13.9202 97.9229C14.0481 97.9229 14.1746 97.9493 14.2918 98.0004C14.4091 98.0516 14.5144 98.1264 14.6014 98.2202C14.6884 98.314 14.755 98.4248 14.7972 98.5455C14.8394 98.6663 14.8561 98.7944 14.8465 98.922V100.944C14.8561 101.072 14.8394 101.2 14.7972 101.321C14.755 101.442 14.6884 101.552 14.6014 101.646C14.5144 101.74 14.4091 101.815 14.2918 101.866C14.1746 101.917 14.0481 101.944 13.9202 101.944C13.7923 101.944 13.6657 101.917 13.5485 101.866C13.4313 101.815 13.3259 101.74 13.2389 101.646C13.152 101.552 13.0853 101.442 13.0432 101.321C13.001 101.2 12.9842 101.072 12.9939 100.944V98.922ZM13.6043 100.982C13.6043 101.258 13.7264 101.364 13.9175 101.364C14.1086 101.364 14.236 101.258 14.236 100.982V98.8583C14.236 98.5823 14.1139 98.4761 13.9175 98.4761C13.7211 98.4761 13.6043 98.5823 13.6043 98.8583V100.982Z" fill="#989898"/>
<path d="M12.9939 104.48C12.9842 104.352 13.001 104.224 13.0432 104.103C13.0853 103.982 13.152 103.872 13.2389 103.778C13.3259 103.684 13.4313 103.609 13.5485 103.558C13.6657 103.507 13.7923 103.48 13.9202 103.48C14.0481 103.48 14.1746 103.507 14.2918 103.558C14.4091 103.609 14.5144 103.684 14.6014 103.778C14.6884 103.872 14.755 103.982 14.7972 104.103C14.8394 104.224 14.8561 104.352 14.8465 104.48V106.502C14.8561 106.63 14.8394 106.758 14.7972 106.879C14.755 106.999 14.6884 107.11 14.6014 107.204C14.5144 107.298 14.4091 107.372 14.2918 107.424C14.1746 107.475 14.0481 107.501 13.9202 107.501C13.7923 107.501 13.6657 107.475 13.5485 107.424C13.4313 107.372 13.3259 107.298 13.2389 107.204C13.152 107.11 13.0853 106.999 13.0432 106.879C13.001 106.758 12.9842 106.63 12.9939 106.502V104.48ZM13.6043 106.539C13.6043 106.821 13.7264 106.927 13.9175 106.927C14.1086 106.927 14.236 106.821 14.236 106.539V104.416C14.236 104.135 14.1139 104.028 13.9175 104.028C13.7211 104.028 13.6043 104.135 13.6043 104.416V106.539Z" fill="#989898"/>
<path d="M12.9939 110.037C12.9842 109.91 13.001 109.782 13.0432 109.661C13.0853 109.54 13.152 109.429 13.2389 109.335C13.3259 109.242 13.4313 109.167 13.5485 109.116C13.6657 109.064 13.7923 109.038 13.9202 109.038C14.0481 109.038 14.1746 109.064 14.2918 109.116C14.4091 109.167 14.5144 109.242 14.6014 109.335C14.6884 109.429 14.755 109.54 14.7972 109.661C14.8394 109.782 14.8561 109.91 14.8465 110.037V112.06C14.8561 112.187 14.8394 112.315 14.7972 112.436C14.755 112.557 14.6884 112.668 14.6014 112.761C14.5144 112.855 14.4091 112.93 14.2918 112.981C14.1746 113.032 14.0481 113.059 13.9202 113.059C13.7923 113.059 13.6657 113.032 13.5485 112.981C13.4313 112.93 13.3259 112.855 13.2389 112.761C13.152 112.668 13.0853 112.557 13.0432 112.436C13.001 112.315 12.9842 112.187 12.9939 112.06V110.037ZM13.6043 112.102C13.6043 112.378 13.7264 112.484 13.9175 112.484C14.1086 112.484 14.236 112.378 14.236 112.102V109.979C14.236 109.703 14.1139 109.597 13.9175 109.597C13.7211 109.597 13.6043 109.703 13.6043 109.979V112.102Z" fill="#989898"/>
<path d="M13.4185 126.302C13.5725 126.321 13.728 126.281 13.8532 126.189C13.9785 126.097 14.0641 125.961 14.0926 125.809H14.5014V129.7H13.8909V126.732H13.4185V126.302Z" fill="#989898"/>
<path d="M199.63 122.911C182.283 115.888 181.024 91.7348 181.024 91.7348H184.74V88.8471C193.547 88.8471 199.63 83.3848 199.63 83.3848C199.63 83.3848 205.714 88.8471 214.52 88.8471V91.7348H218.236C218.236 91.7348 216.973 115.888 199.63 122.911Z" stroke="#FEBF32" stroke-width="1.10721" stroke-linecap="round" stroke-linejoin="round"/>
<path d="M199.63 119.721C188.265 114.412 184.974 100.313 184.066 94.2406H187.464V91.2042C191.831 90.665 196.005 89.0808 199.63 86.5859C203.258 89.0807 207.433 90.6648 211.802 91.2042V94.2406H215.189C214.271 100.292 210.958 114.412 199.63 119.721Z" stroke="#FEBF32" stroke-width="1.10721" stroke-linecap="round" stroke-linejoin="round"/>
<path d="M205.756 99.7451H193.499C193.103 99.7451 192.782 100.066 192.782 100.462V107.824C192.782 108.22 193.103 108.541 193.499 108.541H205.756C206.152 108.541 206.473 108.22 206.473 107.824V100.462C206.473 100.066 206.152 99.7451 205.756 99.7451Z" fill="#FEBF32"/>
<path d="M199.875 92.329C199.209 92.2967 198.543 92.3999 197.918 92.6322C197.294 92.8646 196.722 93.2214 196.24 93.681C195.757 94.1405 195.372 94.6933 195.109 95.3059C194.846 95.9184 194.71 96.578 194.709 97.2446V97.7754C194.709 97.8207 194.718 97.8656 194.736 97.9075C194.753 97.9493 194.779 97.9874 194.811 98.0194C194.843 98.0514 194.881 98.0768 194.922 98.0942C194.964 98.1115 195.009 98.1205 195.055 98.1205H196.297C196.342 98.1205 196.387 98.1115 196.429 98.0942C196.471 98.0768 196.509 98.0514 196.541 98.0194C196.573 97.9874 196.598 97.9493 196.615 97.9075C196.633 97.8656 196.642 97.8207 196.642 97.7754V97.3667C196.632 96.5974 196.913 95.8528 197.429 95.2819C197.945 94.711 198.657 94.356 199.423 94.2878C199.831 94.261 200.24 94.318 200.625 94.4555C201.01 94.5929 201.362 94.8078 201.661 95.0869C201.959 95.366 202.197 95.7034 202.36 96.0782C202.523 96.4529 202.608 96.8571 202.608 97.2658V97.7966C202.608 97.8882 202.645 97.9759 202.709 98.0406C202.774 98.1053 202.862 98.1417 202.953 98.1417H204.196C204.287 98.1417 204.375 98.1053 204.439 98.0406C204.504 97.9759 204.541 97.8882 204.541 97.7966V97.4251C204.564 96.1395 204.093 94.894 203.225 93.9456C202.356 92.9973 201.157 92.4186 199.875 92.329Z" fill="#FEBF32"/>
<path d="M200.915 103.159C200.915 102.929 200.855 102.704 200.738 102.506C200.622 102.308 200.455 102.145 200.255 102.033C200.054 101.922 199.828 101.866 199.598 101.871C199.369 101.877 199.145 101.944 198.951 102.066C198.756 102.187 198.597 102.358 198.491 102.562C198.385 102.765 198.335 102.993 198.347 103.223C198.359 103.452 198.432 103.673 198.559 103.865C198.686 104.056 198.861 104.21 199.068 104.311L198.601 106.376H200.655L200.188 104.311C200.404 104.206 200.587 104.042 200.716 103.838C200.844 103.635 200.913 103.399 200.915 103.159Z" fill="#17161B" stroke="#FEBF32" stroke-width="1.10721" stroke-linecap="round" stroke-linejoin="round"/>
<path d="M144.822 12.2363H102.907C101.934 12.2363 101.145 13.0254 101.145 13.9987V37.5996C101.145 38.573 101.934 39.362 102.907 39.362H144.822C145.795 39.362 146.584 38.573 146.584 37.5996V13.9987C146.584 13.0254 145.795 12.2363 144.822 12.2363Z" stroke="#FEBF32" stroke-width="1.10721" stroke-linecap="round" stroke-linejoin="round"/>
<path d="M105.375 35.5723H118.524C118.861 35.5723 119.135 35.299 119.135 34.9618V16.6427C119.135 16.3055 118.861 16.0322 118.524 16.0322H105.375C105.038 16.0322 104.765 16.3055 104.765 16.6427V34.9618C104.765 35.299 105.038 35.5723 105.375 35.5723Z" stroke="#FEBF32" stroke-width="1.10721" stroke-linecap="round" stroke-linejoin="round"/>
<path d="M111.973 35.5663H105.412C105.241 35.5663 105.076 35.4981 104.954 35.3767C104.833 35.2552 104.765 35.0905 104.765 34.9187V30.4066C104.765 30.4066 108.433 30.2474 109.048 29.4671C109.664 28.6867 108.985 27.4658 108.985 27.4658C108.762 27.1898 108.709 25.231 108.709 25.231L108.486 25.1726C108.268 25.1195 107.955 23.4952 107.955 22.8847C107.954 22.7089 108.004 22.5365 108.098 22.388C108.192 22.2394 108.327 22.1207 108.486 22.046C108.486 22.046 107.955 18.0859 111.952 18.0859C115.949 18.0859 115.413 22.046 115.413 22.046C115.572 22.1207 115.707 22.2394 115.801 22.388C115.895 22.5365 115.945 22.7089 115.944 22.8847C115.944 23.4952 115.657 25.1195 115.413 25.1726L115.19 25.231C115.19 25.231 115.137 27.1898 114.914 27.4658C114.914 27.4658 114.229 28.6867 114.851 29.4671C115.472 30.2474 119.134 30.4066 119.134 30.4066V34.9187C119.135 35.004 119.119 35.0885 119.087 35.1674C119.054 35.2463 119.007 35.318 118.946 35.3782C118.886 35.4385 118.814 35.4862 118.735 35.5185C118.657 35.5508 118.572 35.5671 118.487 35.5663H111.973Z" fill="#FEBF32"/>
<path d="M142.03 35.6623H133.101C132.923 35.6624 132.753 35.593 132.626 35.469C132.499 35.345 132.426 35.1762 132.421 34.9988C132.421 34.8186 132.493 34.6458 132.62 34.5183C132.748 34.3909 132.921 34.3193 133.101 34.3193H142.03C142.21 34.3193 142.383 34.3909 142.51 34.5183C142.637 34.6458 142.709 34.8186 142.709 34.9988C142.705 35.1762 142.631 35.345 142.504 35.469C142.377 35.593 142.207 35.6624 142.03 35.6623Z" fill="#FEBF32"/>
<path d="M142.029 17.2955H123.519C123.339 17.2955 123.166 17.2239 123.039 17.0965C122.911 16.969 122.84 16.7962 122.84 16.616C122.84 16.4358 122.911 16.263 123.039 16.1355C123.166 16.0081 123.339 15.9365 123.519 15.9365H142.029C142.21 15.9365 142.382 16.0081 142.51 16.1355C142.637 16.263 142.709 16.4358 142.709 16.616C142.709 16.7962 142.637 16.969 142.51 17.0965C142.382 17.2239 142.21 17.2955 142.029 17.2955Z" fill="#FEBF32"/>
<path d="M134.136 21.8871H123.519C123.429 21.8871 123.34 21.8692 123.257 21.8344C123.174 21.7996 123.098 21.7486 123.035 21.6844C122.972 21.6202 122.922 21.544 122.888 21.4603C122.855 21.3767 122.838 21.2872 122.84 21.197C122.84 21.0168 122.911 20.844 123.039 20.7166C123.166 20.5892 123.339 20.5176 123.519 20.5176H134.136C134.313 20.5217 134.482 20.5952 134.606 20.7221C134.73 20.8491 134.799 21.0196 134.799 21.197C134.802 21.3764 134.734 21.5495 134.61 21.6788C134.486 21.8081 134.315 21.883 134.136 21.8871Z" fill="#FEBF32"/>
<path d="M130.754 26.5054H123.519C123.339 26.5054 123.166 26.4338 123.039 26.3064C122.911 26.179 122.84 26.0062 122.84 25.826C122.84 25.6457 122.911 25.4729 123.039 25.3455C123.166 25.2181 123.339 25.1465 123.519 25.1465H130.754C130.935 25.1465 131.107 25.2181 131.235 25.3455C131.362 25.4729 131.434 25.6457 131.434 25.826C131.434 26.0062 131.362 26.179 131.235 26.3064C131.107 26.4338 130.935 26.5054 130.754 26.5054Z" fill="#FEBF32"/>
<path d="M134.136 31.0696H123.519C123.339 31.0696 123.166 30.998 123.039 30.8706C122.911 30.7432 122.84 30.5704 122.84 30.3902C122.837 30.2992 122.852 30.2085 122.885 30.1236C122.918 30.0387 122.968 29.9613 123.031 29.8959C123.094 29.8306 123.17 29.7786 123.254 29.7431C123.338 29.7077 123.428 29.6894 123.519 29.6895H134.136C134.226 29.6915 134.314 29.7113 134.396 29.7477C134.478 29.7841 134.552 29.8364 134.614 29.9015C134.675 29.9667 134.724 30.0434 134.755 30.1273C134.787 30.2111 134.802 30.3005 134.799 30.3902C134.799 30.5676 134.73 30.7381 134.606 30.8651C134.482 30.992 134.313 31.0655 134.136 31.0696Z" fill="#FEBF32"/>
<path d="M58.4441 84.4629V110.58L51.4159 117.608H32.7517V84.4629H58.4441Z" stroke="#FEBF32" stroke-width="1.10721" stroke-linecap="round" stroke-linejoin="round"/>
<path d="M58.4443 110.58L51.416 117.608V110.58H58.4443Z" fill="#FEBF32" stroke="#FEBF32" stroke-width="1.10721" stroke-linecap="round" stroke-linejoin="round"/>
<path d="M39.0103 88.6885H54.516" stroke="#FEBF32" stroke-width="1.10721" stroke-linecap="round" stroke-linejoin="round"/>
<path d="M36.6746 91.6074H54.5159" stroke="#FEBF32" stroke-width="1.10721" stroke-linecap="round" stroke-linejoin="round"/>
<path d="M36.6746 94.5273H54.5159" stroke="#FEBF32" stroke-width="1.10721" stroke-linecap="round" stroke-linejoin="round"/>
<path d="M36.6746 97.4473H54.5159" stroke="#FEBF32" stroke-width="1.10721" stroke-linecap="round" stroke-linejoin="round"/>
<path d="M36.6746 100.366H54.5159" stroke="#FEBF32" stroke-width="1.10721" stroke-linecap="round" stroke-linejoin="round"/>
<path d="M36.6746 103.286H54.5159" stroke="#FEBF32" stroke-width="1.10721" stroke-linecap="round" stroke-linejoin="round"/>
<path d="M36.6746 106.201H54.5159" stroke="#FEBF32" stroke-width="1.10721" stroke-linecap="round" stroke-linejoin="round"/>
<path d="M36.6746 109.12H52.1856" stroke="#FEBF32" stroke-width="1.10721" stroke-linecap="round" stroke-linejoin="round"/>
<path d="M59.665 88.6885H62.6642V114.806L55.6412 121.834H36.9771V118.744" stroke="#FEBF32" stroke-width="1.10721" stroke-linecap="round" stroke-linejoin="round"/>
<path d="M62.6643 114.806L55.6414 121.834V114.806H62.6643Z" fill="#FEBF32" stroke="#FEBF32" stroke-width="1.10721" stroke-linecap="round" stroke-linejoin="round"/>
<path d="M154.961 66.3027H92.7678C91.5248 66.3027 90.5171 67.3104 90.5171 68.5535V137.743C90.5171 138.986 91.5248 139.993 92.7678 139.993H154.961C156.204 139.993 157.211 138.986 157.211 137.743V68.5535C157.211 67.3104 156.204 66.3027 154.961 66.3027Z" fill="#FEBF32" stroke="black" stroke-width="1.10721" stroke-linecap="round" stroke-linejoin="round"/>
<g opacity="0.5">
<path opacity="0.5" d="M155.868 90.8711H91.8599" stroke="white" stroke-width="1.10721" stroke-linecap="round" stroke-linejoin="round"/>
<path opacity="0.5" d="M155.868 99.0557H91.8599" stroke="white" stroke-width="1.10721" stroke-linecap="round" stroke-linejoin="round"/>
<path opacity="0.5" d="M155.868 107.241H91.8599" stroke="white" stroke-width="1.10721" stroke-linecap="round" stroke-linejoin="round"/>
<path opacity="0.5" d="M155.868 115.426H91.8599" stroke="white" stroke-width="1.10721" stroke-linecap="round" stroke-linejoin="round"/>
<path opacity="0.5" d="M155.868 123.612H91.8599" stroke="white" stroke-width="1.10721" stroke-linecap="round" stroke-linejoin="round"/>
<path opacity="0.5" d="M155.868 131.803H91.8599" stroke="white" stroke-width="1.10721" stroke-linecap="round" stroke-linejoin="round"/>
<path opacity="0.5" d="M155.868 82.6797H91.8599" stroke="white" stroke-width="1.10721" stroke-linecap="round" stroke-linejoin="round"/>
<path opacity="0.5" d="M155.868 74.4941H91.8599" stroke="white" stroke-width="1.10721" stroke-linecap="round" stroke-linejoin="round"/>
<path opacity="0.5" d="M140.575 138.677V67.6143" stroke="white" stroke-width="1.10721" stroke-linecap="round" stroke-linejoin="round"/>
<path opacity="0.5" d="M132.219 138.677V67.6143" stroke="white" stroke-width="1.10721" stroke-linecap="round" stroke-linejoin="round"/>
<path opacity="0.5" d="M123.864 138.677V67.6143" stroke="white" stroke-width="1.10721" stroke-linecap="round" stroke-linejoin="round"/>
<path opacity="0.5" d="M115.509 138.677V67.6143" stroke="white" stroke-width="1.10721" stroke-linecap="round" stroke-linejoin="round"/>
<path opacity="0.5" d="M107.153 138.677V67.6143" stroke="white" stroke-width="1.10721" stroke-linecap="round" stroke-linejoin="round"/>
<path opacity="0.5" d="M98.8032 138.677V67.6143" stroke="white" stroke-width="1.10721" stroke-linecap="round" stroke-linejoin="round"/>
<path opacity="0.5" d="M148.93 138.677V67.6143" stroke="white" stroke-width="1.10721" stroke-linecap="round" stroke-linejoin="round"/>
</g>
<path d="M121.528 125.597C122.243 121.903 123.22 118.265 124.453 114.71C124.703 113.993 124.984 113.271 125.292 112.501C126.019 110.643 127.511 106.848 126.948 105.717C126.892 105.597 126.805 105.494 126.696 105.418C126.587 105.343 126.46 105.297 126.327 105.287C126.299 105.286 126.271 105.291 126.244 105.301C126.218 105.311 126.194 105.326 126.173 105.346C124.517 106.699 123.45 110.452 122.675 113.191L122.415 114.115C121.387 117.798 120.659 121.558 120.239 125.358" stroke="#17161B" stroke-width="1.10721" stroke-linecap="round" stroke-linejoin="round"/>
<path d="M123.986 125.773C124.673 122.296 125.6 118.871 126.763 115.523C126.996 114.838 127.293 114.121 127.575 113.367C128.737 110.411 130.181 106.748 129.141 104.651C128.882 104.128 128.485 103.686 127.993 103.374C127.5 103.061 126.932 102.89 126.349 102.878C125.733 102.872 125.135 103.085 124.66 103.478C122.415 105.309 121.279 109.317 120.366 112.534L120.106 113.452C119.078 117.104 118.345 120.831 117.914 124.6" stroke="#17161B" stroke-width="1.10721" stroke-linecap="round" stroke-linejoin="round"/>
<path d="M126.502 125.534C127.15 122.407 127.999 119.325 129.045 116.308C130.309 112.703 133.154 107.284 131.306 103.568C129.794 100.526 125.834 99.3953 123.132 101.604C120.042 104.12 118.816 109.168 117.775 112.783C116.794 116.264 116.072 119.812 115.615 123.4" stroke="#17161B" stroke-width="1.10721" stroke-linecap="round" stroke-linejoin="round"/>
<path d="M129.146 124.801C129.723 122.197 130.453 119.628 131.333 117.109C131.54 116.51 131.805 115.841 132.087 115.124C133.594 111.286 135.473 106.503 133.472 102.48C132.811 101.152 131.796 100.032 130.539 99.2455C129.282 98.4585 127.832 98.0346 126.348 98.0205C124.618 98.0151 122.939 98.614 121.603 99.7139C118.174 102.511 116.825 107.337 115.705 111.206L115.45 112.104C114.556 115.255 113.877 118.463 113.417 121.706" stroke="#17161B" stroke-width="1.10721" stroke-linecap="round" stroke-linejoin="round"/>
<path d="M131.97 123.405C132.464 121.462 133.005 119.662 133.616 117.911C133.817 117.343 134.067 116.7 134.332 116.026C135.925 111.949 138.117 106.386 135.638 101.407C134.778 99.675 133.454 98.2154 131.814 97.1903C130.174 96.1651 128.282 95.6146 126.349 95.5997C124.06 95.5915 121.84 96.384 120.074 97.8398C116.05 101.12 114.569 106.333 113.375 110.548L113.12 111.44C112.371 114.071 111.771 116.741 111.321 119.439" stroke="#17161B" stroke-width="1.10721" stroke-linecap="round" stroke-linejoin="round"/>
<path d="M134.884 121.043C135.415 117.157 138.547 112.549 138.855 107.161C139.136 102.224 137.512 99.0607 136.36 97.4735C136.086 97.0824 135.912 96.6303 135.853 96.1567C135.794 95.683 135.851 95.202 136.02 94.7556C136.79 92.4935 136.764 90.0362 135.946 87.791" stroke="#17161B" stroke-width="1.10721" stroke-linecap="round" stroke-linejoin="round"/>
<path d="M127.527 80.5342C131.614 83.0928 134.269 87.1218 134.476 92.3293C134.545 94.1979 133.026 94.8402 131.126 94.2616C127.15 93.0513 117.675 89.9512 111.899 106.189C110.793 109.559 109.976 113.016 109.457 116.525" stroke="#17161B" stroke-width="1.10721" stroke-linecap="round" stroke-linejoin="round"/>
<path d="M119.405 80.8003C121.956 80.7658 124.477 81.3562 126.747 82.5202C130.627 84.6064 133.069 89.5113 131.821 90.7587C130.436 92.1442 127.861 88.7999 119.989 92.0274C116.204 93.5775 113.518 96.7359 111.692 100.324C110.869 101.963 110.173 103.664 109.611 105.41C108.879 107.656 108.277 109.942 107.806 112.258" stroke="#17161B" stroke-width="1.10721" stroke-linecap="round" stroke-linejoin="round"/>
<path d="M114.93 83.7947C116.317 83.4292 117.743 83.2384 119.177 83.2267C126.126 83.0674 128.732 86.7726 127.968 87.7122C127.325 88.5032 125.897 88.0573 123.939 88.2961C118.285 88.9915 113.816 92.2084 110.806 96.9647C109.321 99.3732 108.137 101.955 107.281 104.651C107.122 105.134 106.968 105.623 106.819 106.111" stroke="#17161B" stroke-width="1.10721" stroke-linecap="round" stroke-linejoin="round"/>
<path d="M111.655 87.7911C113.971 85.9206 116.887 84.9548 119.862 85.0732C120.743 85.0732 122.919 85.3599 123.211 86.1933C123.599 87.2868 120.063 85.8005 114.941 89.2137C108.374 93.5931 107.578 97.7442 107.578 97.7442" stroke="#17161B" stroke-width="1.10721" stroke-linecap="round" stroke-linejoin="round"/>
<path d="M137.671 118.101C137.671 118.101 141.233 110.41 140.856 104.464C140.623 100.637 138.733 98.2376 138.436 96.5336C138.138 94.8296 138.966 94.4103 138.743 92.8496" stroke="#17161B" stroke-width="1.10721" stroke-linecap="round" stroke-linejoin="round"/>
<path d="M95.0078 81.8941V71.0332H105.869" stroke="black" stroke-width="1.10721" stroke-linecap="round" stroke-linejoin="round"/>
<path d="M105.869 135.264H95.0078V124.403" stroke="black" stroke-width="1.10721" stroke-linecap="round" stroke-linejoin="round"/>
<path d="M152.726 81.8941V71.0332H141.865" stroke="black" stroke-width="1.10721" stroke-linecap="round" stroke-linejoin="round"/>
<path d="M141.865 135.264H152.726V124.403" stroke="black" stroke-width="1.10721" stroke-linecap="round" stroke-linejoin="round"/>
<path d="M198.861 235.123C196.026 230.876 193.053 226.396 190.611 222.686C187.49 217.956 185.239 214.5 185.239 214.5C184.045 208.91 182.352 206.718 180.648 202.126C178.944 197.535 180.35 193.442 181.056 187.757C181.762 182.071 180.648 176.774 180.053 173.18C179.459 169.586 180.154 166.194 180.053 165.398C179.952 164.602 176.56 160.408 175.276 157.313C174.694 155.933 173.88 154.662 172.871 153.555C171.756 152.279 170.36 151.277 168.794 150.63C168.142 150.373 167.461 150.195 166.766 150.099C165.174 149.871 163.889 150.126 162.605 150.126C160.805 150.126 157.015 147.036 154.52 146.543C154.057 146.451 153.589 146.385 153.119 146.346C151.054 146.15 148.872 146.346 146.457 146.537C144.041 146.728 141.233 144.44 138.972 143.724H138.935C138.434 143.549 137.9 143.491 137.374 143.554C134.98 143.952 130.473 144.35 130.473 144.35C130.473 144.35 130.075 141.261 129.873 137.067C129.836 136.34 129.783 135.639 129.719 134.944C129.486 132.353 129.114 130.039 129.056 127.921C129.056 127.39 129.056 126.822 129.056 126.291C129.252 123.308 129.162 120.983 129.056 116.396C129.056 116.242 129.056 116.078 129.056 115.913C129.056 114.485 129.056 113.121 128.971 111.89C128.806 108.901 128.143 106.693 125.17 106.236C122.574 105.838 120.78 107.133 119.681 111.428C118.582 115.722 117.786 115.42 117.489 121.705C117.192 127.99 115.785 131.992 115.987 135.183C116.188 138.373 115.488 144.562 115.488 144.562C114.293 143.963 113.194 144.462 112.987 144.961C112.78 145.46 111.899 150.354 111.193 153.847C110.577 156.952 107.748 159.824 106.708 161.963V162.011C106.596 162.242 106.504 162.482 106.432 162.728C105.832 164.925 106.134 169.629 106.134 175.606C106.134 181.583 104.637 187.783 106.134 191.77C106.453 192.582 106.899 193.338 107.456 194.01C109.755 196.85 113.975 199.318 117.813 203.846C122.59 209.537 125.998 213.73 129.188 215.631C131.476 216.979 132.48 218.083 132.904 219.538C133.071 220.168 133.158 220.818 133.164 221.47C133.207 222.744 133.897 223.715 135.065 225.329C136.887 227.797 138.486 230.423 139.842 233.175C141.122 235.739 143.08 240.607 145.151 246L198.861 235.123Z" fill="white"/>
<path opacity="0.4" d="M129.04 126.266C129.008 126.796 129.003 127.327 129.04 127.895C125.223 127.173 117.855 129.058 117.744 131.309C117.616 134.053 117.282 140.54 118.678 142.053C120.074 143.566 123.068 144.532 123.068 144.532C122.847 144.549 122.627 144.577 122.41 144.617H122.335C121.38 144.818 120.509 145.307 119.84 146.018C116.921 149.012 116.799 155.647 117.754 158.843C121.751 172.114 115.281 182.614 112.977 181.34C110.673 180.066 110.487 168.658 111.183 165.988C111.603 164.431 111.808 162.823 111.793 161.211C110.774 160.871 108.635 161.364 106.67 161.975V161.927C107.732 159.804 110.54 156.916 111.156 153.811C111.862 150.318 112.748 145.423 112.95 144.924C113.152 144.425 114.256 143.927 115.45 144.526C115.45 144.526 116.151 138.342 115.949 135.147C115.748 131.951 117.149 127.959 117.452 121.669C117.754 115.378 118.545 115.686 119.644 111.392C120.743 107.097 122.537 105.802 125.133 106.2C128.106 106.657 128.769 108.854 128.934 111.853C128.6 111.537 128.245 111.242 127.872 110.972C126.932 110.242 125.751 109.893 124.565 109.996C123.19 110.187 121.985 111.588 121.221 113.032C120.122 115.155 119.941 117.433 121.486 116.652C123.238 115.776 126.853 116.068 129.056 116.36C129.146 120.941 129.236 123.282 129.04 126.266Z" fill="#FEBF32"/>
<path opacity="0.4" d="M133.117 221.455C133.111 220.803 133.023 220.154 132.857 219.523C132.437 218.069 131.434 216.964 129.141 215.616C125.956 213.716 122.553 209.522 117.765 203.831C113.927 199.282 109.707 196.835 107.408 193.995C110.302 195.561 114.23 194.754 115.467 197.233C117.266 200.811 125.717 206.257 125.717 206.257C133.966 214.422 133.117 221.455 133.117 221.455Z" fill="#FEBF32"/>
<path opacity="0.4" d="M138.887 143.703C137.916 143.507 135.283 149.999 135.033 152.303C134.37 158.275 137.433 176.684 133.494 176.27C131.864 176.1 129.953 167.501 129.842 163.493C129.486 151.321 129.974 146.262 129.974 146.262C129.974 146.262 129.104 139.52 129.688 134.929C129.751 135.619 129.804 136.319 129.842 137.052C130.043 141.246 130.441 144.335 130.441 144.335C130.441 144.335 134.932 143.937 137.342 143.539C137.863 143.477 138.391 143.533 138.887 143.703Z" fill="#FEBF32"/>
<path opacity="0.4" d="M153.071 146.341C150.948 146.532 148.824 148.608 147.078 148.995C144.954 149.447 141.053 144.664 138.924 143.729C141.185 144.446 144.02 146.697 146.409 146.543C148.798 146.389 151.006 146.145 153.071 146.341Z" fill="#FEBF32"/>
<path opacity="0.4" d="M166.74 150.095C165.688 151.412 164.841 152.882 164.229 154.453C162.52 159.979 164.133 180.888 161.378 177.465C157.79 173.016 161.538 157.585 158.921 151.692C158.092 149.808 155.136 146.793 154.493 146.538C156.988 147.032 160.778 150.121 162.578 150.121C163.863 150.121 165.153 149.866 166.74 150.095Z" fill="#FEBF32"/>
<path opacity="0.4" d="M190.601 222.681C187.803 219.528 184.873 216.524 182.957 215.398C178.291 212.649 176.953 209.803 176.55 205.063C176.146 200.323 177.351 200.423 178.747 195.736C180.143 191.049 177.548 185.252 177.749 186.505C177.951 187.758 175.748 196.432 174.129 196.862C172.51 197.292 171.963 191.442 171.761 186.675C171.56 181.908 174.156 159.708 173.428 155.356C173.33 154.724 173.133 154.111 172.844 153.54C173.854 154.647 174.667 155.918 175.249 157.298C176.55 160.393 179.942 164.587 180.027 165.383C180.112 166.179 179.427 169.577 180.027 173.165C180.626 176.753 181.725 182.046 181.03 187.742C180.334 193.438 178.907 197.52 180.621 202.111C182.336 206.703 184.018 208.896 185.213 214.485C185.229 214.496 187.479 217.952 190.601 222.681Z" fill="#FEBF32"/>
<path opacity="0.4" d="M148.469 158.153C149.53 159.267 150.199 173.876 150.799 177.47C151.399 181.063 149.536 189.679 148.469 187.057C147.402 184.434 144.148 153.609 148.469 158.153Z" fill="#FEBF32"/>
<path d="M144.355 243.936C142.592 239.382 140.962 235.395 139.848 233.16C138.491 230.408 136.892 227.783 135.07 225.314C133.902 223.722 133.212 222.729 133.17 221.455C133.164 220.803 133.076 220.154 132.91 219.523V219.523C132.49 218.069 131.487 216.964 129.194 215.616C126.009 213.716 122.606 209.522 117.818 203.832C113.98 199.282 109.76 196.835 107.461 193.995C106.905 193.323 106.458 192.567 106.14 191.755C104.643 187.768 106.14 181.574 106.14 175.591C106.14 169.609 105.837 164.911 106.437 162.713C106.509 162.467 106.602 162.227 106.713 161.996V161.949C107.775 159.825 110.583 156.938 111.199 153.832C111.905 150.339 112.791 145.445 112.993 144.946C113.194 144.447 114.299 143.948 115.493 144.548C115.493 144.548 116.194 138.364 115.992 135.168C115.79 131.972 117.192 127.98 117.494 121.69C117.797 115.4 118.588 115.708 119.687 111.413C120.785 107.119 122.58 105.823 125.175 106.222C128.148 106.678 128.812 108.876 128.976 111.875C129.045 113.106 129.035 114.471 129.061 115.899C129.061 116.063 129.061 116.228 129.061 116.382C129.157 120.952 129.247 123.283 129.061 126.277C129.029 126.807 129.024 127.338 129.061 127.906C129.12 130.029 129.491 132.339 129.725 134.929C129.788 135.619 129.841 136.32 129.879 137.052C130.08 141.246 130.478 144.336 130.478 144.336C130.478 144.336 134.969 143.937 137.379 143.539C137.906 143.476 138.439 143.534 138.94 143.709H138.977C141.239 144.426 144.073 146.677 146.462 146.523C148.851 146.369 151.059 146.135 153.124 146.331C153.594 146.37 154.062 146.436 154.525 146.528C157.02 147.022 160.81 150.111 162.61 150.111C163.895 150.111 165.185 149.856 166.772 150.084C167.466 150.18 168.147 150.359 168.799 150.615C170.366 151.263 171.761 152.264 172.876 153.54C173.886 154.647 174.699 155.918 175.281 157.299C176.582 160.393 179.974 164.587 180.059 165.383C180.143 166.179 179.459 169.577 180.059 173.165C180.658 176.754 181.757 182.046 181.062 187.742C180.366 193.438 178.938 197.52 180.653 202.112C182.368 206.703 184.05 208.896 185.245 214.485C185.245 214.485 187.496 217.941 190.617 222.671C192.783 225.957 195.363 229.864 197.9 233.659" stroke="black" stroke-width="1.10721" stroke-linecap="round" stroke-linejoin="round"/>
<path d="M115.467 144.532C115.467 148.928 115.068 154.379 114.405 156.646C113.741 158.913 114.187 166.493 112.966 169.683" stroke="black" stroke-width="1.10721" stroke-linecap="round" stroke-linejoin="round"/>
<path d="M117.733 147.992C117.733 147.992 120.791 144.531 123.042 144.531C125.292 144.531 127.57 145.996 129.942 146.262C132.315 146.527 134.831 144.76 137.13 144.335" stroke="black" stroke-width="1.10721" stroke-linecap="round" stroke-linejoin="round"/>
<path d="M119.458 131.978C119.458 131.978 123.588 130.47 125.717 131.978" stroke="black" stroke-width="1.10721" stroke-linecap="round" stroke-linejoin="round"/>
<path d="M122.59 130.019C122.59 130.019 123.854 129.674 125.717 130.576" stroke="black" stroke-width="1.10721" stroke-linecap="round" stroke-linejoin="round"/>
<path d="M121.486 119.401C122.885 119.09 124.334 119.09 125.733 119.401" stroke="black" stroke-width="1.10721" stroke-linecap="round" stroke-linejoin="round"/>
<path d="M106.665 161.927C106.665 161.927 109.319 160.637 110.381 160.504" stroke="black" stroke-width="1.10721" stroke-linecap="round" stroke-linejoin="round"/>
<path d="M113.678 166.015C113.678 166.015 112.085 168.488 111.788 169.683" stroke="black" stroke-width="1.10721" stroke-linecap="round" stroke-linejoin="round"/>
<path d="M121.486 108.605C121.486 108.605 120.849 113.685 121.486 114.136C122.123 114.587 127.044 115.017 127.448 114.136C127.851 113.255 127.92 109.534 127.92 109.534C127.92 109.534 124.974 104.475 121.486 108.605Z" stroke="black" stroke-width="1.10721" stroke-linecap="round" stroke-linejoin="round"/>
<path d="M111.177 153.816C111.177 153.816 115.259 151.756 115.355 148.81C115.45 145.864 114.251 145.896 112.733 145.88" stroke="black" stroke-width="1.10721" stroke-linecap="round" stroke-linejoin="round"/>
<path d="M174.819 160.504C174.952 165.159 173.625 178.733 173.487 180.729C173.349 182.725 173.487 187.826 173.487 187.826" stroke="black" stroke-width="1.10721" stroke-linecap="round" stroke-linejoin="round"/>
<path d="M145.676 149.846C150.066 156.216 145.676 153.816 148.468 184.323" stroke="black" stroke-width="1.10721" stroke-linecap="round" stroke-linejoin="round"/>
<path d="M185.229 214.496C185.229 214.496 181.338 211.471 180.669 209.719" stroke="black" stroke-width="1.10721" stroke-linecap="round" stroke-linejoin="round"/>
<path d="M130.903 213.063C132.071 215.001 132.809 219.248 132.851 219.508" stroke="black" stroke-width="1.10721" stroke-linecap="round" stroke-linejoin="round"/>
</svg>
