<svg width="274" height="210" viewBox="0 0 274 210" fill="none" xmlns="http://www.w3.org/2000/svg">
<path d="M250.195 206.311C250.195 207.478 213.283 208.421 167.802 208.421C122.321 208.421 85.4091 207.478 85.4091 206.311C85.4091 205.145 122.321 204.209 167.802 204.209C213.283 204.209 250.195 205.151 250.195 206.311Z" fill="black"/>
<path d="M43.402 140.845C43.3426 140.845 43.079 136.712 43.0922 136.449C43.2438 133.397 45.3398 127.583 48.6553 126.7C49.2088 126.568 49.7839 126.554 50.3432 126.659C50.9024 126.764 51.4333 126.985 51.901 127.31C52.3688 127.634 52.7629 128.053 53.0578 128.539C53.3526 129.026 53.5415 129.569 53.6121 130.134C53.9944 132.52 52.4388 135.065 50.8635 136.726C49.0047 138.65 43.402 140.845 43.402 140.845Z" fill="black"/>
<path d="M39.078 124.92C39.0187 124.92 39.3812 120.794 39.4339 120.53C40.0535 117.538 43.0065 112.107 46.4077 111.737C46.9749 111.691 47.5456 111.764 48.0825 111.953C48.6195 112.142 49.1107 112.441 49.5242 112.833C49.9377 113.224 50.2642 113.697 50.4824 114.223C50.7007 114.749 50.8058 115.314 50.791 115.883C50.791 118.302 48.886 120.583 47.08 121.974C44.9509 123.609 39.078 124.92 39.078 124.92Z" fill="black"/>
<path d="M37.9838 106.128C37.9245 106.128 38.2936 102.002 38.3463 101.738C38.9593 98.7459 41.9123 93.3146 45.3201 92.9455C45.887 92.8989 46.4574 92.9724 46.994 93.1612C47.5307 93.3499 48.0215 93.6497 48.4345 94.0409C48.8475 94.4321 49.1733 94.906 49.3908 95.4316C49.6083 95.9572 49.7126 96.5228 49.6968 97.0915C49.6968 99.5105 47.7984 101.785 45.9858 103.182C43.8568 104.817 37.9904 106.128 37.9838 106.128Z" fill="black"/>
<path d="M36.0921 88.4434C36.0328 88.4434 36.4019 84.3106 36.4546 84.0535C37.0676 81.0544 40.0206 75.6297 43.4283 75.254C43.9956 75.2084 44.5662 75.2828 45.1028 75.4723C45.6394 75.6619 46.1302 75.9623 46.543 76.354C46.9559 76.7457 47.2816 77.22 47.4991 77.7459C47.7165 78.2718 47.8208 78.8377 47.8051 79.4066C47.8051 81.819 45.9067 84.0997 44.0941 85.4905C41.965 87.1251 36.0987 88.4434 36.0921 88.4434Z" fill="black"/>
<path d="M30.4498 74.2522C30.3971 74.2522 29.6588 70.1852 29.639 69.9216C29.4413 66.8698 30.8585 60.8518 34.0421 59.5994C34.5767 59.4043 35.1464 59.324 35.7141 59.364C36.2817 59.4039 36.8346 59.5631 37.3366 59.8312C37.8385 60.0993 38.2783 60.4703 38.6272 60.9198C38.9761 61.3694 39.2263 61.8875 39.3614 62.4403C40.0205 64.7671 38.7682 67.4696 37.384 69.2888C35.7757 71.431 30.4498 74.2522 30.4498 74.2522Z" fill="black"/>
<path d="M41.6552 140.891C41.7211 140.891 39.9217 137.128 39.7766 136.904C38.1486 134.32 33.4752 130.273 30.1597 131.123C29.6131 131.279 29.1056 131.549 28.6701 131.914C28.2346 132.279 27.8809 132.732 27.6322 133.243C27.3834 133.755 27.2452 134.312 27.2264 134.881C27.2076 135.449 27.3087 136.015 27.5232 136.541C28.3537 138.815 30.9507 140.272 33.1391 140.938C35.7229 141.722 41.6552 140.891 41.6552 140.891Z" fill="black"/>
<path d="M38.1947 122.792C38.2606 122.792 35.9075 119.338 35.7361 119.14C33.7587 116.826 28.4855 113.537 25.3546 114.875C24.8365 115.112 24.3741 115.455 23.9976 115.882C23.6212 116.309 23.3391 116.811 23.1699 117.355C23.0007 117.899 22.9481 118.472 23.0156 119.037C23.0831 119.603 23.2692 120.148 23.5617 120.636C24.7218 122.752 27.5166 123.8 29.7775 124.13C32.4272 124.512 38.1947 122.792 38.1947 122.792Z" fill="black"/>
<path d="M37.1994 105.06C37.2587 105.06 34.9122 101.606 34.7408 101.409C32.7634 99.0951 27.4902 95.806 24.3527 97.1507C23.829 97.3854 23.3611 97.7286 22.98 98.1577C22.5989 98.5867 22.3132 99.0918 22.1418 99.6395C21.9705 100.187 21.9174 100.765 21.986 101.335C22.0547 101.905 22.2435 102.453 22.5401 102.945C23.7067 105.06 26.4949 106.108 28.7624 106.431C31.4319 106.787 37.1994 105.067 37.1994 105.06Z" fill="black"/>
<path d="M35.4922 88.7928C35.5582 88.7928 33.205 85.3389 33.0336 85.1412C31.0562 82.8276 25.7831 79.5384 22.6521 80.8765C22.134 81.1128 21.6716 81.4558 21.2952 81.8831C20.9187 82.3104 20.6366 82.8123 20.4674 83.356C20.2982 83.8998 20.2456 84.4731 20.3132 85.0385C20.3807 85.604 20.5668 86.1488 20.8593 86.6374C22.0194 88.7598 24.8141 89.8013 27.075 90.1309C29.7247 90.5132 35.4922 88.7928 35.4922 88.7928Z" fill="black"/>
<path d="M30.4894 74.786C30.5487 74.786 27.8528 71.6089 27.6419 71.4243C25.4008 69.348 19.8376 66.6521 16.8517 68.333C16.3615 68.6249 15.9385 69.0171 15.6105 69.484C15.2826 69.9509 15.0571 70.4819 14.9488 71.0421C14.8405 71.6022 14.8518 72.179 14.9821 72.7345C15.1124 73.29 15.3587 73.8116 15.7048 74.2652C17.0956 76.2427 19.9826 76.9809 22.2962 77.0534C24.946 77.1325 30.4894 74.7926 30.4894 74.786Z" fill="black"/>
<path d="M23.2981 63.2114C23.3574 63.2114 22.4083 59.1643 22.3226 58.9138C21.2877 56.0333 17.5965 51.0832 14.169 51.1952C13.6009 51.2297 13.0464 51.3835 12.5417 51.6465C12.0369 51.9095 11.5932 52.2758 11.2394 52.7216C10.8856 53.1674 10.6297 53.6827 10.4882 54.234C10.3468 54.7853 10.323 55.3602 10.4184 55.9213C10.748 58.3206 12.9693 60.298 14.9599 61.4185C17.2999 62.7368 23.2915 63.2114 23.2981 63.2114Z" fill="black"/>
<path d="M49.1629 162.201C49.1629 162.201 48.4576 160.587 47.3502 157.759C46.2429 154.931 44.7137 150.851 43.0922 145.894C42.2814 143.416 41.4575 140.713 40.6533 137.833C40.2447 136.383 39.8756 134.926 39.4735 133.364C39.3021 132.599 39.1373 131.828 38.9659 131.05C38.7946 130.273 38.6759 129.449 38.5309 128.638C38.0106 125.313 37.6739 121.961 37.5224 118.599C37.3576 115.178 37.2917 111.718 37.206 108.257C37.1203 104.797 37.0346 101.349 36.7578 97.9746C36.5164 94.6695 36.0428 91.3854 35.3406 88.1468C34.6334 85.1305 33.6584 82.1835 32.4272 79.3406C31.3278 76.7828 30.0799 74.2914 28.6899 71.8791C27.4178 69.6182 26.1126 67.6342 24.946 65.8809C23.7793 64.1276 22.6851 62.6511 21.7689 61.4449C19.9365 59.0324 18.7896 57.7405 18.7896 57.7405C18.7896 57.7405 19.9628 59.0126 21.8546 61.379C22.7906 62.572 23.9111 64.0155 25.1503 65.7557C26.3895 67.4958 27.7078 69.4469 29.0326 71.688C30.4936 74.0855 31.8141 76.5659 32.9875 79.1165C34.3023 81.9662 35.3632 84.9262 36.158 87.9622C36.9403 91.2151 37.4932 94.519 37.8124 97.8493C38.1618 101.257 38.3397 104.724 38.4716 108.185C38.6034 111.645 38.7682 115.093 39.0055 118.474C39.2276 121.771 39.6281 125.054 40.2051 128.308C40.3699 129.093 40.4688 129.857 40.6731 130.635C40.8775 131.413 41.0488 132.178 41.2334 132.936C41.6421 134.379 42.0573 135.882 42.4923 137.286C43.3426 140.114 44.2193 142.77 45.0762 145.196C46.7768 150.073 48.3719 154.068 49.5386 156.849C50.7053 159.631 51.4237 161.173 51.4237 161.173C51.5324 161.458 51.529 161.774 51.4143 162.057C51.2996 162.339 51.082 162.568 50.8055 162.697C50.5289 162.825 50.2138 162.844 49.9237 162.75C49.6336 162.656 49.39 162.455 49.242 162.188L49.1629 162.201Z" fill="black"/>
<path d="M64.6857 136.653C64.6264 136.653 65.5558 132.599 65.6415 132.349C66.6565 129.468 70.3214 124.492 73.7423 124.584C74.3104 124.614 74.8658 124.764 75.3721 125.024C75.8784 125.283 76.3243 125.647 76.6806 126.09C77.037 126.534 77.2959 127.047 77.4404 127.598C77.5849 128.148 77.6118 128.722 77.5192 129.284C77.2094 131.683 75.0013 133.68 73.0173 134.814C70.6575 136.145 64.7253 136.653 64.6857 136.653Z" fill="black"/>
<path d="M65.068 120.161C65.0087 120.161 66.5379 116.286 66.6631 116.055C68.1067 113.353 72.4768 108.989 75.845 109.602C76.4021 109.719 76.9285 109.951 77.3898 110.284C77.8511 110.618 78.237 111.045 78.5224 111.537C78.8078 112.03 78.9863 112.577 79.0463 113.143C79.1062 113.709 79.0463 114.281 78.8705 114.822C78.2113 117.149 75.7132 118.777 73.5973 119.601C71.0728 120.564 65.0746 120.161 65.068 120.161Z" fill="black"/>
<path d="M69.3393 101.83C69.2733 101.83 70.8026 97.9547 70.9278 97.724C72.3713 95.0281 76.748 90.6646 80.1163 91.271C80.6736 91.3881 81.1999 91.6214 81.661 91.9556C82.1222 92.2898 82.5077 92.7174 82.7925 93.2106C83.0773 93.7037 83.2551 94.2513 83.3141 94.8178C83.3731 95.3842 83.3121 95.9567 83.1351 96.498C82.476 98.8182 79.9778 100.453 77.862 101.277C75.3704 102.239 69.3393 101.83 69.3393 101.83Z" fill="black"/>
<path d="M72.5756 84.3436C72.5097 84.3436 74.0389 80.4744 74.1642 80.2371C75.6077 77.5412 79.9844 73.1777 83.3526 73.7907C83.9097 73.9071 84.4359 74.1396 84.897 74.4731C85.3581 74.8067 85.7437 75.2337 86.0286 75.7263C86.3135 76.219 86.4913 76.7661 86.5504 77.3322C86.6094 77.8982 86.5485 78.4703 86.3715 79.0111C85.7123 81.3379 83.2142 82.966 81.0983 83.7899C78.5672 84.7523 72.5756 84.3436 72.5756 84.3436Z" fill="black"/>
<path d="M71.2112 69.1239C71.1453 69.1239 71.6001 65.0043 71.6594 64.7472C72.3185 61.7613 75.4033 56.3959 78.8177 56.0993C79.3856 56.0653 79.9542 56.1513 80.4866 56.3516C81.0191 56.5518 81.5034 56.8619 81.9082 57.2617C82.3129 57.6615 82.629 58.1419 82.8358 58.6718C83.0426 59.2018 83.1356 59.7693 83.1087 60.3376C83.1087 62.7566 81.1313 64.9911 79.2725 66.3424C77.1105 67.9309 71.2112 69.1239 71.2112 69.1239Z" fill="black"/>
<path d="M63.0246 136.205C63.084 136.205 62.4248 132.105 62.3655 131.855C61.5416 128.908 58.2129 123.701 54.7919 123.569C54.2224 123.563 53.6579 123.676 53.1352 123.903C52.6126 124.129 52.1435 124.463 51.7585 124.883C51.3736 125.303 51.0814 125.799 50.9011 126.339C50.7207 126.879 50.6562 127.451 50.7118 128.018C50.8634 130.431 52.9397 132.566 54.8447 133.825C57.0726 135.308 63.018 136.205 63.0246 136.205Z" fill="black"/>
<path d="M64.8307 117.868C64.8966 117.868 63.6179 113.913 63.5124 113.662C62.2469 110.874 58.1668 106.234 54.7656 106.623C54.202 106.703 53.6617 106.901 53.1798 107.204C52.6979 107.508 52.2853 107.909 51.9687 108.382C51.6522 108.855 51.439 109.39 51.3428 109.951C51.2466 110.512 51.2697 111.087 51.4106 111.639C51.9247 113.998 54.3042 115.798 56.3739 116.754C58.793 117.881 64.8241 117.868 64.8307 117.868Z" fill="black"/>
<path d="M68.9174 100.585C68.9767 100.585 67.7045 96.6297 67.5991 96.3793C66.3401 93.5977 62.26 88.9573 58.8588 89.3462C58.2932 89.4255 57.7508 89.6235 57.267 89.9271C56.7832 90.2307 56.3691 90.6331 56.0517 91.108C55.7343 91.5828 55.5208 92.1194 55.4253 92.6825C55.3297 93.2456 55.3542 93.8225 55.4972 94.3755C56.0179 96.7418 58.3908 98.5347 60.4671 99.4904C62.8994 100.598 68.9108 100.585 68.9174 100.585Z" fill="black"/>
<path d="M71.9033 84.4887C71.9692 84.4887 70.6905 80.5338 70.585 80.2833C69.3195 77.5017 65.246 72.8548 61.8382 73.2503C61.2749 73.3298 60.7346 73.5273 60.2528 73.8297C59.7709 74.1322 59.3582 74.5328 59.0416 75.0055C58.725 75.4782 58.5117 76.0124 58.4154 76.5731C58.3192 77.1338 58.3423 77.7085 58.4832 78.2598C58.9973 80.6261 61.3768 82.4189 63.4531 83.3747C65.8853 84.4887 71.9033 84.4887 71.9033 84.4887Z" fill="black"/>
<path d="M71.086 69.6511C71.1519 69.6511 69.4513 65.8478 69.3129 65.6171C67.7507 62.9806 63.1894 58.8214 59.8476 59.586C59.2961 59.7272 58.7806 59.9831 58.3348 60.3371C57.889 60.6911 57.5229 61.1352 57.2604 61.6403C56.9978 62.1454 56.8448 62.7002 56.8113 63.2685C56.7779 63.8368 56.8646 64.4058 57.066 64.9382C57.8372 67.2254 60.3947 68.7481 62.5632 69.4731C65.1075 70.3234 71.086 69.6511 71.086 69.6511Z" fill="black"/>
<path d="M67.487 56.5079C67.5398 56.5079 67.7836 52.3751 67.7639 52.1115C67.5925 49.053 65.4635 43.2526 62.148 42.3891C61.5935 42.2611 61.0183 42.2512 60.4597 42.3601C59.9012 42.4691 59.3719 42.6944 58.9062 43.0215C58.4405 43.3485 58.0488 43.77 57.7568 44.2584C57.4647 44.7468 57.2788 45.2912 57.211 45.8562C56.8419 48.2489 58.4106 50.78 59.9992 52.4476C61.8645 54.346 67.4804 56.5014 67.487 56.5079Z" fill="black"/>
<path d="M64.1452 158.767C64.1452 158.767 63.9211 157.02 63.664 153.988C63.4069 150.956 63.0972 146.619 62.9587 141.405C62.8862 138.769 62.8599 135.974 62.9126 132.981C62.9126 131.479 62.9917 129.976 63.051 128.367C63.1037 127.59 63.1631 126.799 63.2158 126.008C63.2685 125.217 63.4004 124.386 63.486 123.569C63.9379 120.242 64.5694 116.941 65.3778 113.682C66.1885 110.353 67.1113 107.011 68.0144 103.676C68.9174 100.341 69.8072 97.0055 70.5059 93.6834C71.2134 90.4474 71.6914 87.1655 71.9363 83.8621C72.1059 80.7675 72 77.6639 71.6199 74.588C71.2943 71.8217 70.8056 69.0771 70.1566 66.3685C69.5765 63.8374 68.8976 61.5633 68.278 59.5529C67.6584 57.5426 67.019 55.809 66.4917 54.3984C65.4173 51.5641 64.6857 49.9954 64.6857 49.9954C64.6857 49.9954 65.4503 51.5509 66.584 54.3589C67.1509 55.7629 67.8034 57.4832 68.4889 59.4804C69.1745 61.4776 69.8863 63.7517 70.5191 66.2762C71.2308 68.988 71.7832 71.7391 72.1736 74.5155C72.6272 77.6224 72.8036 80.7635 72.7009 83.9017C72.5247 87.253 72.1128 90.5877 71.4683 93.8811C70.8091 97.2427 70.0181 100.618 69.181 103.979C68.3439 107.341 67.5002 110.689 66.7686 113.998C66.042 117.222 65.4918 120.483 65.1207 123.767C65.0548 124.564 64.9362 125.322 64.9098 126.126C64.8834 126.931 64.8307 127.715 64.7912 128.493C64.7912 129.996 64.745 131.551 64.7912 133.021C64.7912 135.981 64.89 138.775 65.0218 141.353C65.2657 146.514 65.681 150.805 65.9908 153.791C66.3006 156.777 66.5642 158.477 66.5642 158.477C66.5872 158.633 66.5791 158.793 66.5405 158.946C66.5019 159.099 66.4335 159.243 66.3393 159.37C66.245 159.496 66.1267 159.603 65.9912 159.684C65.8556 159.765 65.7054 159.819 65.5492 159.842C65.3929 159.865 65.2337 159.856 65.0806 159.818C64.9274 159.779 64.7834 159.711 64.6567 159.617C64.53 159.522 64.4231 159.404 64.3421 159.268C64.2612 159.133 64.2077 158.983 64.1847 158.826V158.794L64.1452 158.767Z" fill="black"/>
<path d="M71.7912 202.35H43.8831L36.0327 156.645H79.6416L71.7912 202.35Z" fill="black"/>
<path d="M120.95 206.674C154.467 206.674 181.637 179.503 181.637 145.987C181.637 112.47 154.467 85.2993 120.95 85.2993C87.4335 85.2993 60.2628 112.47 60.2628 145.987C60.2628 179.503 87.4335 206.674 120.95 206.674Z" fill="#5546FF"/>
<path d="M148.604 180.031L134.563 158.774H154.707V150.782H88.6093V158.829H108.751L94.7124 180.031H105.143L121.624 155.055L138.106 180.031H148.604ZM154.699 142.955V134.907H134.944L148.817 113.926H138.329L121.626 139.236L104.977 113.926H94.4913L108.364 134.907H88.6168V143.01H154.715L154.699 142.955Z" fill="white"/>
<path d="M120.95 206.977C108.887 206.977 97.0955 203.4 87.0656 196.698C77.0358 189.997 69.2185 180.471 64.6022 169.327C59.986 158.182 58.7782 145.919 61.1315 134.088C63.4849 122.257 69.2937 111.39 77.8233 102.86C86.353 94.3302 97.2205 88.5214 109.051 86.168C120.882 83.8147 133.146 85.0225 144.29 89.6387C155.435 94.255 164.96 102.072 171.662 112.102C178.364 122.132 181.941 133.924 181.941 145.987C181.921 162.156 175.49 177.658 164.056 189.092C152.622 200.526 137.12 206.958 120.95 206.977ZM120.95 85.5959C109.006 85.5959 97.3301 89.1378 87.3989 95.7736C77.4677 102.409 69.7272 111.841 65.1564 122.876C60.5856 133.911 59.3896 146.054 61.7198 157.768C64.05 169.483 69.8017 180.244 78.2475 188.689C86.6933 197.135 97.4538 202.887 109.168 205.217C120.883 207.547 133.026 206.351 144.061 201.78C155.096 197.21 164.527 189.469 171.163 179.538C177.799 169.607 181.341 157.931 181.341 145.987C181.325 129.975 174.958 114.623 163.635 103.301C152.313 91.9793 136.962 85.6116 120.95 85.5959Z" fill="black"/>
<path d="M203.481 94.949C203.481 94.949 201.504 98.627 201.214 99.1411C200.924 99.6553 199.863 102.437 200.179 103.096C200.495 103.755 200.799 104.131 201.425 104.236C202.051 104.342 202.565 105.482 203.6 105.686C204.252 105.816 204.913 105.886 205.577 105.897C205.74 106.017 205.928 106.098 206.127 106.133C206.326 106.168 206.53 106.158 206.724 106.102C207.344 105.897 207.865 105.588 208.28 103.821C208.534 102.946 208.603 102.028 208.484 101.125L208.3 97.5592L203.481 94.949Z" fill="white"/>
<path d="M206.355 106.484C206.042 106.48 205.736 106.388 205.472 106.22C204.821 106.203 204.173 106.13 203.534 106.003C202.942 105.841 202.412 105.506 202.012 105.04C201.834 104.828 201.608 104.661 201.352 104.553C201.014 104.477 200.7 104.316 200.44 104.086C200.181 103.855 199.984 103.562 199.869 103.234C199.441 102.384 200.687 99.3587 200.917 98.9763C201.221 98.4688 203.158 94.8303 203.178 94.7908C203.222 94.7148 203.292 94.6582 203.376 94.6326C203.456 94.6003 203.546 94.6003 203.626 94.6326L208.438 97.2362C208.487 97.2645 208.529 97.3047 208.559 97.353C208.589 97.4013 208.606 97.4563 208.61 97.5131L208.794 101.072C208.915 102.007 208.841 102.956 208.577 103.861C208.168 105.621 207.634 106.108 206.804 106.385C206.66 106.441 206.509 106.475 206.355 106.484ZM203.62 95.3972C203.145 96.2805 201.761 98.8709 201.497 99.3125C201.135 99.9123 200.265 102.529 200.469 102.938C200.799 103.597 201.049 103.834 201.478 103.907C201.868 104.022 202.214 104.252 202.473 104.566C202.784 104.941 203.199 105.216 203.666 105.357C204.294 105.478 204.931 105.547 205.571 105.561C205.647 105.561 205.722 105.587 205.782 105.634C205.9 105.72 206.036 105.778 206.18 105.804C206.324 105.83 206.471 105.824 206.612 105.785C207.067 105.634 207.542 105.475 207.931 103.742C208.17 102.912 208.239 102.042 208.135 101.184L207.957 97.7569L203.62 95.3972Z" fill="black"/>
<path d="M214.911 193.985C214.911 193.985 212.096 198.566 212.096 199.674C212.096 200.781 215.972 202.818 217.633 203.556C219.294 204.294 222.247 204.874 224.647 205.217C227.046 205.56 232.029 206.535 230.579 204.663C229.129 202.791 220.217 197.861 219.848 197.274C219.391 196.726 218.878 196.227 218.319 195.785L214.911 193.985Z" fill="white"/>
<path d="M229.379 206.1C227.972 206.043 226.572 205.887 225.187 205.632L224.594 205.54C221.245 205.026 218.859 204.459 217.501 203.853C217.264 203.747 211.767 201.289 211.767 199.674C211.767 198.507 214.338 194.288 214.628 193.807C214.672 193.737 214.742 193.686 214.822 193.664C214.903 193.642 214.988 193.651 215.063 193.689L218.47 195.495C219.082 195.963 219.637 196.5 220.125 197.096C220.283 197.281 221.733 198.191 223.137 199.074C226.13 200.939 229.847 203.266 230.809 204.466C231.159 204.901 231.245 205.276 231.06 205.586C230.875 205.896 230.295 206.1 229.379 206.1ZM215.01 194.42C213.942 196.187 212.406 198.975 212.406 199.693C212.406 200.412 215.227 202.152 217.745 203.273C219.064 203.853 221.384 204.4 224.679 204.907L225.266 205C226.479 205.191 230.17 205.777 230.473 205.263C230.473 205.263 230.473 205.131 230.276 204.887C229.386 203.774 225.563 201.381 222.768 199.614C220.52 198.21 219.716 197.696 219.551 197.452C219.114 196.93 218.624 196.456 218.088 196.035L215.01 194.42Z" fill="black"/>
<path d="M219.321 201.203L220.309 202.679C221.373 204.293 222.817 205.619 224.515 206.542C227.151 207.966 231.212 209.594 234.758 208.618C240.571 207.017 225.938 198.191 225.938 198.191C225.938 198.191 220.725 201.816 219.321 201.203Z" fill="white"/>
<path d="M232.451 209.245C229.524 209.245 226.518 208.019 224.357 206.832C222.614 205.886 221.13 204.529 220.033 202.877L219.044 201.394C219.003 201.338 218.98 201.27 218.98 201.2C218.98 201.13 219.003 201.062 219.044 201.005C219.09 200.95 219.153 200.912 219.223 200.895C219.293 200.878 219.367 200.885 219.433 200.913C220.283 201.282 223.625 199.39 225.728 197.934C225.78 197.898 225.842 197.879 225.905 197.879C225.969 197.879 226.031 197.898 226.083 197.934C227.184 198.593 236.834 204.525 236.419 207.531C236.327 208.19 235.76 208.691 234.824 208.955C234.049 209.157 233.251 209.255 232.451 209.245ZM219.967 201.572L220.58 202.502C221.616 204.066 223.019 205.353 224.666 206.252C227.356 207.702 231.258 209.238 234.672 208.302C235.7 208.012 235.766 207.564 235.786 207.419C236.083 205.263 228.951 200.419 225.945 198.586C224.897 199.285 221.746 201.361 219.967 201.572Z" fill="black"/>
<path d="M220.995 201.902C222.596 204.324 225.023 206.083 227.824 206.852C232.602 208.216 233.973 207.873 234.995 206.509" fill="white"/>
<path d="M232.385 208.051C230.804 207.962 229.241 207.665 227.738 207.168C224.849 206.388 222.348 204.572 220.711 202.066C220.689 202.029 220.674 201.988 220.668 201.945C220.662 201.903 220.665 201.859 220.676 201.817C220.687 201.775 220.706 201.736 220.733 201.702C220.759 201.668 220.792 201.639 220.83 201.618C220.906 201.575 220.997 201.563 221.082 201.585C221.167 201.607 221.24 201.662 221.285 201.737C222.852 204.076 225.204 205.778 227.916 206.535C232.576 207.854 233.848 207.524 234.731 206.311C234.785 206.243 234.863 206.198 234.949 206.185C235.035 206.173 235.122 206.195 235.193 206.245C235.263 206.298 235.309 206.376 235.321 206.462C235.334 206.549 235.311 206.637 235.259 206.707C234.936 207.159 234.502 207.521 233.998 207.756C233.495 207.992 232.939 208.094 232.385 208.051Z" fill="black"/>
<path d="M212.459 198.83C212.459 198.83 217.732 202.607 220.309 202.679L212.459 198.83Z" fill="white"/>
<path d="M220.283 203.009C217.646 202.937 212.472 199.252 212.255 199.1C212.185 199.048 212.139 198.97 212.125 198.884C212.112 198.798 212.132 198.71 212.182 198.639C212.206 198.604 212.238 198.573 212.274 198.55C212.31 198.527 212.351 198.511 212.393 198.504C212.435 198.496 212.479 198.498 212.521 198.507C212.562 198.517 212.602 198.535 212.637 198.56C212.69 198.599 217.864 202.284 220.303 202.35C220.391 202.353 220.474 202.391 220.534 202.455C220.595 202.519 220.628 202.605 220.626 202.693C220.624 202.736 220.614 202.779 220.596 202.818C220.578 202.857 220.552 202.893 220.52 202.922C220.488 202.951 220.451 202.974 220.41 202.989C220.369 203.004 220.326 203.011 220.283 203.009Z" fill="black"/>
<path d="M201.01 96.2146C201.01 96.2146 205.69 103.973 206.691 105.772C207.693 107.572 220.323 122.013 225.332 134.445C230.342 146.876 235.16 158.095 234.956 161.707C234.751 165.319 218.306 195.785 218.306 195.785L214.898 193.985C214.898 193.985 220.105 165.313 219.512 162.307C218.919 159.301 200.509 129.429 200.509 129.429C200.509 129.429 191.887 123.417 188.282 116.398" fill="black"/>
<path d="M201.675 115.6C201.675 115.6 199.072 121.209 199.072 122.013C199.072 122.817 213.705 165.919 217.917 175.74C220.583 182.031 222.924 188.455 224.93 194.987C224.93 194.987 226.538 196.964 225.332 198.995C224.126 201.025 219.321 202.402 218.319 200.596C217.317 198.79 207.489 189.391 203.284 179.952C199.078 170.513 193.06 154.489 189.646 148.478C185.148 140.781 181.133 132.812 177.623 124.617C173.207 114.196 168.666 102.898 168.666 102.898C174.618 103.395 180.61 102.724 186.304 100.921C195.532 97.915 199.487 92.1606 199.487 92.1606C199.487 92.1606 201.834 98.1588 202.433 99.3189" fill="black"/>
<path d="M203.053 132.527C203.007 132.526 202.963 132.512 202.926 132.486C202.888 132.46 202.859 132.424 202.842 132.382L198.228 120.385C198.212 120.341 198.21 120.292 198.222 120.247C198.233 120.201 198.259 120.16 198.294 120.128L203.462 115.699C203.506 115.658 203.563 115.635 203.623 115.635C203.683 115.635 203.741 115.658 203.785 115.699C203.825 115.741 203.847 115.798 203.847 115.857C203.847 115.916 203.825 115.972 203.785 116.015L198.736 120.346L203.29 132.21C203.312 132.266 203.311 132.329 203.288 132.384C203.265 132.439 203.22 132.483 203.165 132.507L203.053 132.527Z" fill="white"/>
<path d="M198.432 120.524C198.376 120.524 198.322 120.503 198.281 120.464C198.258 120.443 198.24 120.418 198.227 120.39C198.215 120.361 198.208 120.331 198.208 120.3C198.208 120.267 198.208 116.648 196.587 114.367C196.185 113.781 195.862 113.319 195.591 112.944C194.748 111.744 194.491 111.381 194.339 110.782C194.235 110.08 194.235 109.367 194.339 108.666C194.35 108.608 194.383 108.556 194.431 108.52C194.478 108.485 194.537 108.469 194.596 108.475C194.626 108.479 194.654 108.489 194.68 108.504C194.706 108.519 194.728 108.539 194.746 108.563C194.764 108.587 194.776 108.614 194.784 108.643C194.791 108.672 194.792 108.702 194.787 108.732C194.694 109.376 194.694 110.031 194.787 110.676C194.919 111.19 195.143 111.507 195.974 112.687C196.237 113.062 196.567 113.524 196.969 114.11C198.432 116.213 198.637 119.232 198.67 120.095L208.036 119.733C208.096 119.733 208.153 119.755 208.197 119.795C208.241 119.835 208.268 119.891 208.273 119.95C208.275 119.98 208.271 120.01 208.261 120.038C208.251 120.066 208.235 120.091 208.215 120.113C208.194 120.134 208.17 120.152 208.142 120.163C208.115 120.175 208.086 120.181 208.056 120.181L198.459 120.55L198.432 120.524Z" fill="white"/>
<path d="M229.821 163.197C225.648 163.197 220.349 160.494 220.112 160.376C220.059 160.348 220.02 160.3 220.003 160.243C219.985 160.186 219.991 160.125 220.019 160.072C220.033 160.046 220.051 160.022 220.073 160.003C220.096 159.983 220.122 159.969 220.15 159.96C220.178 159.95 220.208 159.947 220.238 159.949C220.267 159.952 220.296 159.96 220.323 159.973C220.382 160.006 226.406 163.078 230.533 162.715C230.563 162.713 230.593 162.716 230.621 162.725C230.65 162.735 230.677 162.749 230.699 162.769C230.722 162.789 230.741 162.813 230.754 162.84C230.767 162.867 230.775 162.896 230.777 162.926C230.779 162.956 230.776 162.986 230.767 163.014C230.758 163.042 230.744 163.068 230.725 163.091C230.706 163.114 230.683 163.132 230.657 163.146C230.63 163.16 230.602 163.168 230.572 163.17C230.328 163.19 230.078 163.197 229.821 163.197Z" fill="white"/>
<path d="M229.261 166.677H229.208C225.51 165.747 221.357 162.346 221.179 162.201C221.139 162.158 221.117 162.102 221.117 162.043C221.117 161.984 221.139 161.928 221.179 161.885C221.198 161.862 221.221 161.843 221.247 161.829C221.273 161.814 221.301 161.806 221.331 161.802C221.36 161.799 221.39 161.802 221.418 161.811C221.447 161.819 221.473 161.833 221.496 161.852C221.535 161.885 225.747 165.339 229.346 166.235C229.375 166.243 229.402 166.256 229.425 166.274C229.449 166.292 229.468 166.315 229.483 166.341C229.498 166.366 229.507 166.395 229.511 166.424C229.515 166.454 229.512 166.483 229.504 166.512C229.492 166.565 229.46 166.611 229.415 166.642C229.369 166.672 229.314 166.685 229.261 166.677Z" fill="white"/>
<path d="M198.248 117.017C198.212 117.017 198.177 117.009 198.145 116.993C198.113 116.977 198.085 116.954 198.063 116.925C198.046 116.9 198.034 116.873 198.027 116.843C198.021 116.814 198.02 116.784 198.026 116.754C198.032 116.725 198.043 116.697 198.06 116.672C198.076 116.646 198.098 116.625 198.123 116.609C199.012 115.989 200.423 114.796 200.423 114.209C200.423 113.82 199.942 113.359 199.428 112.891C198.859 112.416 198.388 111.833 198.044 111.177C197.707 110.393 196.501 107.315 196.725 106.563C196.734 106.535 196.749 106.509 196.768 106.486C196.787 106.464 196.81 106.445 196.837 106.432C196.863 106.418 196.892 106.41 196.921 106.408C196.951 106.405 196.981 106.409 197.009 106.418C197.066 106.438 197.114 106.479 197.141 106.533C197.168 106.588 197.173 106.65 197.154 106.708C197.015 107.11 197.734 109.345 198.439 110.979C198.761 111.575 199.196 112.103 199.718 112.535C200.331 113.122 200.858 113.623 200.858 114.203C200.858 115.218 198.617 116.793 198.36 116.971C198.327 116.996 198.289 117.012 198.248 117.017Z" fill="white"/>
<path d="M176.285 118.309C176.238 118.311 176.191 118.298 176.151 118.271C176.112 118.245 176.082 118.206 176.065 118.161C176.049 118.116 176.048 118.068 176.061 118.022C176.075 117.976 176.102 117.936 176.14 117.907L177.986 116.431C179.759 115.02 180.853 111.414 180.866 111.375C180.885 111.318 180.924 111.27 180.977 111.242C181.03 111.213 181.092 111.207 181.15 111.223C181.207 111.242 181.255 111.281 181.283 111.334C181.311 111.387 181.318 111.449 181.301 111.507C181.255 111.658 180.148 115.284 178.269 116.78L176.424 118.256C176.385 118.29 176.336 118.308 176.285 118.309Z" fill="white"/>
<path d="M220.105 201.493C220.072 201.492 220.04 201.483 220.01 201.469C219.98 201.454 219.954 201.433 219.934 201.407C217.574 198.514 215.443 195.442 213.56 192.219C211.009 187.658 203.673 175.18 203.593 175.081C202.914 173.58 202.41 172.005 202.091 170.388C202.045 170.137 202.012 169.907 201.979 169.729C201.735 168.068 201.629 167.382 199.421 165.959C197.213 164.535 197.075 162.056 196.89 159.4C196.85 158.774 196.804 158.128 196.732 157.489C196.435 154.852 189.435 142.987 184.327 134.366C183.167 132.388 182.112 130.622 181.255 129.152C176.681 121.282 173.517 110.933 173.484 110.828C173.467 110.77 173.474 110.708 173.502 110.655C173.53 110.602 173.578 110.563 173.635 110.544C173.664 110.535 173.693 110.532 173.723 110.535C173.752 110.538 173.781 110.546 173.806 110.561C173.832 110.575 173.855 110.594 173.873 110.617C173.891 110.641 173.905 110.667 173.912 110.696C173.945 110.801 177.096 121.104 181.644 128.921C182.501 130.391 183.556 132.177 184.716 134.135C189.85 142.803 196.877 154.681 197.18 157.436C197.253 158.095 197.299 158.754 197.345 159.374C197.523 162.01 197.674 164.304 199.665 165.583C202.045 167.112 202.163 167.91 202.427 169.656C202.427 169.874 202.493 170.098 202.532 170.348C202.845 171.917 203.336 173.445 203.996 174.903C204.055 175.015 211.398 187.493 213.955 192.041C215.826 195.238 217.942 198.286 220.283 201.157C220.302 201.18 220.316 201.206 220.324 201.234C220.333 201.263 220.335 201.292 220.332 201.322C220.329 201.351 220.32 201.38 220.306 201.406C220.292 201.432 220.273 201.455 220.25 201.473C220.205 201.495 220.154 201.502 220.105 201.493Z" fill="white"/>
<path d="M168.666 102.898C168.666 102.898 169.087 107.565 170.933 109.041C172.779 110.518 178.315 111.81 185.882 110.36C193.449 108.909 201.755 102.45 202.493 100.209C203.231 97.9677 199.474 92.1672 199.474 92.1672C199.474 92.1672 195.11 98.3632 182.929 100.393C170.748 102.424 168.666 102.898 168.666 102.898Z" fill="white"/>
<path d="M179.469 111.316C175.006 111.316 171.948 110.281 170.722 109.299C168.791 107.75 168.356 103.129 168.336 102.931C168.329 102.853 168.35 102.774 168.396 102.71C168.442 102.646 168.51 102.601 168.586 102.582C168.672 102.582 170.821 102.048 182.877 100.038C194.741 98.0602 199.157 92.0093 199.204 91.9499C199.235 91.9073 199.275 91.8725 199.322 91.8485C199.369 91.8244 199.421 91.8118 199.474 91.8115C199.528 91.8127 199.581 91.8271 199.628 91.8536C199.675 91.88 199.715 91.9176 199.744 91.9631C200.14 92.5695 203.567 97.9877 202.803 100.288C201.992 102.714 193.495 109.18 185.942 110.656C183.81 111.083 181.643 111.304 179.469 111.316ZM169.028 103.162C169.153 104.177 169.687 107.618 171.137 108.784C172.785 110.103 178.065 111.526 185.816 110.01C193.436 108.521 201.524 102.055 202.183 100.077C202.704 98.5084 200.575 94.547 199.441 92.7145C198.268 94.1185 193.561 98.9303 182.962 100.69C173.194 102.325 169.911 102.944 169.028 103.162Z" fill="black"/>
<path d="M217.317 57.6612C214.305 55.6837 190.852 37.4123 188.644 36.6081C186.436 35.804 182.053 36.6081 182.053 36.6081C182.053 36.6081 168.461 38.2692 165.614 39.4161C165.343 39.5215 159.22 43.0414 159.022 43.2259C156.814 45.032 147.158 49.4746 144.561 55.0905C141.614 61.4446 167.505 99.7013 168.712 102.905C169.918 106.108 176.239 106.899 182.053 106.095C187.866 105.291 192.968 104.118 197.18 99.2992C197.944 98.3395 198.584 97.2876 199.085 96.1683C199.687 94.9176 199.84 93.498 199.52 92.1475C198.017 85.8857 194.181 67.8317 191.65 55.8947C195.868 58.6169 204.642 64.1471 209.743 66.0982C216.559 68.7348 221.773 66.9024 221.773 64.6942C221.773 62.4861 220.323 59.665 217.317 57.6612Z" fill="white"/>
<path d="M209.176 61.5568C205.158 61.1602 201.266 59.9324 197.747 57.9513C197.747 57.9513 202.961 55.5454 203.158 54.3392C203.356 53.1329 195.941 54.1414 196.943 53.7394C197.945 53.3373 199.349 52.3354 196.943 52.3354C195.025 52.2092 193.135 51.8051 191.333 51.1357L191.604 55.875C193.898 57.3581 197.536 59.6585 201.188 61.7677C204.622 63.5735 208.159 65.1779 211.78 66.5729C211.78 66.5729 216.19 62.361 209.176 61.5568Z" fill="#5546FF"/>
<g style="mix-blend-mode:multiply">
<path d="M182.007 106.088L182.751 105.983C184.36 105.205 187.082 104.717 189.732 104.058C193.739 103.056 189.33 103.056 182.712 99.6485C176.094 96.2407 173.484 91.2312 167.472 84.0136C161.461 76.796 159.055 73.1839 160.261 72.3863C161.468 71.5887 157.856 71.5821 156.452 70.778C155.048 69.9738 158.429 69.9804 161.263 67.1725C164.098 64.3645 155.845 67.7723 155.048 67.5745C154.25 67.3768 155.845 64.7666 155.845 64.7666L150.032 70.778L164.065 94.8367L164.869 95.4365L165.792 96.7548L168.428 102.423C168.534 102.621 168.606 102.786 168.652 102.898C169.865 106.108 176.193 106.899 182.007 106.088Z" fill="#5546FF"/>
</g>
<path d="M155.43 50.0349C159.866 49.3758 172.231 56.4286 172.231 56.4286C165.436 51.8146 159.49 47.4906 155.423 45.5396L147.929 50.8127L147.415 51.2939C148.285 51.1225 151.62 50.5754 155.43 50.0349Z" fill="#5546FF"/>
<path opacity="0.5" d="M209.176 61.5568C205.158 61.1602 201.266 59.9324 197.747 57.9513C197.747 57.9513 202.961 55.5454 203.158 54.3392C203.356 53.1329 195.941 54.1414 196.943 53.7394C197.945 53.3373 199.349 52.3354 196.943 52.3354C195.025 52.2092 193.135 51.8051 191.333 51.1357L191.604 55.875C193.898 57.3581 197.536 59.6585 201.188 61.7677C204.622 63.5735 208.159 65.1779 211.78 66.5729C211.78 66.5729 216.19 62.361 209.176 61.5568Z" fill="white"/>
<path opacity="0.5" d="M182.007 106.088L182.751 105.983C184.36 105.205 187.082 104.717 189.732 104.058C193.739 103.056 189.33 103.056 182.712 99.6485C176.094 96.2407 173.484 91.2312 167.472 84.0136C161.461 76.796 159.055 73.1839 160.261 72.3863C161.468 71.5887 157.856 71.5821 156.452 70.778C155.048 69.9738 158.429 69.9804 161.263 67.1725C164.098 64.3645 155.845 67.7723 155.048 67.5745C154.25 67.3768 155.845 64.7666 155.845 64.7666L150.032 70.778L164.065 94.8367L164.869 95.4365L165.792 96.7548L168.428 102.423C168.534 102.621 168.606 102.786 168.652 102.898C169.865 106.108 176.193 106.899 182.007 106.088Z" fill="white"/>
<path opacity="0.5" d="M155.43 50.0349C159.866 49.3758 172.231 56.4286 172.231 56.4286C165.436 51.8146 159.49 47.4906 155.423 45.5396L147.929 50.8127L147.415 51.2939C148.285 51.1225 151.62 50.5754 155.43 50.0349Z" fill="white"/>
<path d="M177.788 106.715C173.345 106.715 169.344 105.653 168.356 103.017C168.066 102.239 166.115 99.062 163.643 95.0676C153.143 78.0354 142.115 59.4739 144.218 54.9456C146.195 50.6743 152.042 47.1479 155.911 44.8146C156.897 44.2544 157.85 43.6382 158.765 42.969C159.002 42.7778 165.139 39.2448 165.469 39.113C168.329 37.9595 181.433 36.3512 181.993 36.2852C182.158 36.2523 186.495 35.4745 188.756 36.2852C190.219 36.8192 200.245 44.4059 208.3 50.503C212.663 53.7987 216.427 56.6594 217.495 57.3712C220.856 59.6123 222.056 62.6048 222.056 64.6614C222.032 65.0431 221.913 65.4128 221.711 65.7373C221.508 66.0617 221.228 66.3308 220.896 66.5202C218.951 67.8384 214.7 68.3328 209.578 66.3751C205.999 65.0041 199.962 61.6227 192.091 56.5671C194.728 69.1238 198.347 86.0374 199.79 92.0488C200.13 93.474 199.969 94.9727 199.335 96.2936C198.82 97.444 198.155 98.5211 197.358 99.4971C192.955 104.526 187.596 105.634 182.033 106.398C180.627 106.601 179.209 106.707 177.788 106.715ZM185.961 36.5819C184.665 36.6014 183.371 36.7182 182.092 36.9312C181.934 36.9312 168.494 38.5988 165.712 39.7194C165.35 39.8842 159.477 43.2656 159.18 43.4831C158.242 44.1727 157.263 44.8045 156.247 45.3748C152.451 47.6687 146.716 51.1357 144.818 55.262C142.682 59.876 156.682 82.5571 164.203 94.7578C166.886 99.1082 168.659 102.008 168.975 102.819C170.142 105.93 176.522 106.543 181.96 105.792C187.398 105.04 192.632 103.966 196.883 99.1082C197.631 98.172 198.255 97.1442 198.742 96.0498C199.309 94.8682 199.453 93.5281 199.151 92.2531C197.674 86.1099 193.957 68.6096 191.281 56.0002C191.268 55.9358 191.274 55.869 191.299 55.8081C191.323 55.7472 191.365 55.6948 191.419 55.6575C191.473 55.622 191.536 55.6031 191.6 55.6031C191.665 55.6031 191.728 55.622 191.782 55.6575C199.942 60.9306 206.177 64.4438 209.816 65.828C214.68 67.6934 218.78 67.2518 220.52 66.0522C220.76 65.917 220.964 65.7271 221.117 65.498C221.269 65.2689 221.365 65.0071 221.397 64.7339C221.397 62.8487 220.276 60.0869 217.132 57.9908C216.045 57.2658 212.274 54.4117 207.904 51.1028C200.304 45.3551 189.903 37.4783 188.532 36.9774C187.702 36.7062 186.834 36.5726 185.961 36.5819Z" fill="black"/>
<path d="M147.738 50.9839C147.738 50.9839 145.332 53.6205 144.396 54.8399C139.373 61.2929 123.389 81.9702 123.211 83.6378C123.033 85.3055 123.791 86.426 127.7 87.9289C131.608 89.4317 157.757 63.2308 157.757 63.2308" fill="white"/>
<g style="mix-blend-mode:multiply" opacity="0.8">
<path d="M147.777 51.0632L147.441 51.2808C146.953 51.8212 145.899 53.0011 145.081 53.9701L132.94 69.895C132.94 69.895 132.564 70.3168 131.971 71.0155C127.416 77.0862 123.448 82.5637 123.204 83.5392C123.204 83.5722 123.204 83.6051 123.204 83.6315C123.046 85.2069 123.811 86.4065 127.7 87.9027C128.392 88.1664 129.763 87.5732 131.562 86.4197C130.648 86.2358 129.775 85.8874 128.985 85.3914C126.777 83.9874 128.583 82.5835 128.583 82.5835C128.583 82.5835 131.45 83.7304 134.278 84.5016C134.865 84.0599 135.478 83.5854 136.104 83.0844C135.501 82.6899 134.931 82.2491 134.397 81.7661C131.991 79.5646 129.987 77.3565 129.987 77.3565L148.364 51.7092L147.777 51.0632Z" fill="#5546FF"/>
</g>
<path opacity="0.5" d="M147.777 51.0632L147.441 51.2808C146.953 51.8212 145.899 53.0011 145.081 53.9701L132.94 69.895C132.94 69.895 132.564 70.3168 131.971 71.0155C127.416 77.0862 123.448 82.5637 123.204 83.5392C123.204 83.5722 123.204 83.6051 123.204 83.6315C123.046 85.2069 123.811 86.4065 127.7 87.9027C128.392 88.1664 129.763 87.5732 131.562 86.4197C130.648 86.2358 129.775 85.8874 128.985 85.3914C126.777 83.9874 128.583 82.5835 128.583 82.5835C128.583 82.5835 131.45 83.7304 134.278 84.5016C134.865 84.0599 135.478 83.5854 136.104 83.0844C135.501 82.6899 134.931 82.2491 134.397 81.7661C131.991 79.5646 129.987 77.3565 129.987 77.3565L148.364 51.7092L147.777 51.0632Z" fill="white"/>
<path d="M128.003 88.3116C127.855 88.3133 127.708 88.2888 127.568 88.2391C123.929 86.8351 122.651 85.6025 122.868 83.6251C123.046 81.9838 136.262 64.7736 144.119 54.6623C145.055 53.4627 147.382 50.8986 147.481 50.7931C147.509 50.7581 147.544 50.7292 147.583 50.7082C147.623 50.6872 147.667 50.6745 147.712 50.671C147.756 50.6674 147.801 50.673 147.844 50.6875C147.886 50.702 147.926 50.725 147.959 50.7552C147.992 50.7853 148.019 50.822 148.038 50.8629C148.056 50.9037 148.066 50.948 148.067 50.9929C148.068 51.0378 148.06 51.0824 148.043 51.124C148.026 51.1656 148 51.2033 147.968 51.2348C147.968 51.2348 145.556 53.8713 144.64 55.071C131.945 71.4045 123.653 82.6429 123.547 83.6976C123.396 85.1015 124.048 86.1957 127.832 87.6524C130.554 88.7005 147.085 73.494 157.533 63.0202C157.595 62.9582 157.679 62.9233 157.767 62.9233C157.854 62.9233 157.939 62.9582 158.001 63.0202C158.063 63.0823 158.097 63.1665 158.097 63.2542C158.097 63.342 158.063 63.4262 158.001 63.4882C155.384 66.0721 133.052 88.3116 128.003 88.3116Z" fill="black"/>
<path d="M200.647 49.7847L191.604 55.8751C192.922 55.6906 199.171 53.4759 199.171 53.4759" fill="white"/>
<path d="M191.604 56.2046C191.537 56.2056 191.473 56.1858 191.418 56.148C191.364 56.1101 191.323 56.0561 191.3 55.9937C191.273 55.9251 191.269 55.849 191.291 55.7782C191.313 55.7074 191.358 55.6462 191.419 55.6048L200.469 49.5143C200.504 49.4895 200.544 49.472 200.587 49.4629C200.629 49.4538 200.672 49.4532 200.715 49.4611C200.757 49.4691 200.797 49.4855 200.833 49.5094C200.869 49.5332 200.9 49.564 200.924 49.6C200.972 49.6737 200.989 49.7632 200.972 49.8495C200.955 49.9358 200.904 50.0118 200.832 50.0614L193.416 55.0577C195.69 54.359 199.019 53.1857 199.065 53.1659C199.153 53.1371 199.248 53.1442 199.33 53.1856C199.412 53.227 199.475 53.2993 199.504 53.3867C199.532 53.4742 199.525 53.5694 199.484 53.6516C199.442 53.7338 199.37 53.7962 199.283 53.8251C199.026 53.9108 192.962 56.053 191.65 56.2375L191.604 56.2046Z" fill="black"/>
<path d="M200.278 53.6207C200.201 53.6192 200.128 53.5916 200.069 53.5425C200.01 53.4933 199.97 53.4256 199.955 53.3505C199.94 53.2649 199.959 53.1766 200.008 53.105C200.057 53.0334 200.133 52.9842 200.219 52.9682L202.249 52.5991C202.335 52.5835 202.424 52.6024 202.497 52.6517C202.57 52.7009 202.62 52.7767 202.638 52.8627C202.646 52.9061 202.646 52.9507 202.637 52.9939C202.628 53.0372 202.61 53.0781 202.585 53.1144C202.56 53.1507 202.528 53.1815 202.49 53.2051C202.453 53.2287 202.411 53.2445 202.368 53.2516L200.337 53.6207H200.278Z" fill="black"/>
<path d="M133.276 77.2377C131.881 77.196 130.493 77.4592 129.209 78.0089L133.276 77.2377Z" fill="white"/>
<path d="M129.209 78.3585C129.122 78.3751 129.031 78.3563 128.958 78.3062C128.884 78.2562 128.834 78.1789 128.817 78.0915C128.8 78.0041 128.819 77.9137 128.869 77.8402C128.919 77.7666 128.997 77.716 129.084 77.6993C130.415 77.1277 131.855 76.8555 133.302 76.9018C133.346 76.9051 133.388 76.917 133.427 76.9367C133.466 76.9564 133.5 76.9836 133.528 77.0167C133.556 77.0498 133.578 77.0881 133.591 77.1295C133.604 77.1708 133.609 77.2144 133.606 77.2577C133.597 77.3446 133.556 77.4248 133.489 77.4813C133.423 77.5379 133.337 77.5665 133.25 77.5609C131.908 77.522 130.574 77.7762 129.341 78.3058C129.302 78.3331 129.257 78.3511 129.209 78.3585Z" fill="black"/>
<path d="M152.984 68.2008C152.984 68.2008 158.066 66.6452 159.411 65.6104L152.984 68.2008Z" fill="white"/>
<path d="M152.985 68.5303C152.897 68.5425 152.808 68.5196 152.738 68.4664C152.667 68.4133 152.621 68.3343 152.609 68.2469C152.597 68.1595 152.62 68.0708 152.673 68.0003C152.726 67.9299 152.805 67.8834 152.892 67.8712C152.938 67.8712 157.928 66.3288 159.213 65.3401C159.283 65.2869 159.37 65.2633 159.456 65.2744C159.543 65.2855 159.621 65.3305 159.675 65.3994C159.726 65.4691 159.749 65.556 159.738 65.642C159.727 65.728 159.683 65.8064 159.615 65.8608C158.231 66.922 153.294 68.438 153.083 68.4974C153.053 68.515 153.019 68.5262 152.985 68.5303Z" fill="black"/>
<path d="M160.657 65.0964C160.657 65.0964 161.487 64.3713 161.797 64.3713L160.657 65.0964Z" fill="white"/>
<path d="M160.657 65.426C160.61 65.4255 160.563 65.4154 160.52 65.3961C160.477 65.3768 160.438 65.3488 160.406 65.3139C160.346 65.2512 160.312 65.1673 160.312 65.0799C160.312 64.9925 160.346 64.9086 160.406 64.8459C160.779 64.4614 161.248 64.1838 161.764 64.0417C161.852 64.0417 161.936 64.0765 161.997 64.1383C162.059 64.2001 162.094 64.2839 162.094 64.3713C162.092 64.4582 162.057 64.5411 161.995 64.6025C161.934 64.6639 161.851 64.6992 161.764 64.7009C161.425 64.872 161.114 65.0943 160.841 65.36C160.788 65.401 160.724 65.4241 160.657 65.426Z" fill="black"/>
<path d="M191.604 56.2047C191.522 56.2037 191.444 56.1731 191.383 56.1185C191.322 56.0639 191.284 55.9891 191.274 55.9081L190.45 47.4381C190.446 47.3949 190.45 47.3512 190.463 47.3095C190.475 47.2679 190.496 47.2291 190.523 47.1954C190.551 47.1618 190.585 47.1339 190.623 47.1133C190.662 47.0928 190.704 47.0799 190.747 47.0756C190.79 47.0713 190.834 47.0755 190.875 47.0881C190.917 47.1007 190.956 47.1213 190.989 47.1488C191.023 47.1764 191.051 47.2103 191.072 47.2486C191.092 47.2869 191.105 47.329 191.109 47.3722L191.94 55.8488C191.944 55.8918 191.94 55.9352 191.928 55.9765C191.915 56.0179 191.894 56.0563 191.867 56.0895C191.839 56.1227 191.805 56.15 191.767 56.1698C191.728 56.1896 191.686 56.2015 191.643 56.2047H191.604Z" fill="black"/>
<path d="M123.191 83.7235C123.191 83.7235 122.025 88.1859 129.506 90.0381C133.059 90.9148 156.57 96.6296 156.57 96.6296C156.57 96.6296 158.673 92.121 157.473 92.121C156.274 92.121 134.594 77.7056 134.594 77.7056" fill="white"/>
<path d="M126.685 89.0561L153.947 96.0167L154.672 94.2897C154.672 94.2897 144.402 92.2332 137.989 89.0165C131.576 85.7999 131.167 86.8084 128.965 85.411C126.764 84.0136 128.563 82.6031 128.563 82.6031C128.563 82.6031 134.581 85.009 137.791 85.2067C141.001 85.4044 136.789 84.0071 134.383 81.7989C133.388 80.8893 132.465 79.9731 131.747 79.2217L123.178 83.717C123.178 83.717 122.348 86.9534 126.685 89.0561Z" fill="#5546FF"/>
<path opacity="0.5" d="M126.685 89.0561L153.947 96.0167L154.672 94.2897C154.672 94.2897 144.402 92.2332 137.989 89.0165C131.576 85.7999 131.167 86.8084 128.965 85.411C126.764 84.0136 128.563 82.6031 128.563 82.6031C128.563 82.6031 134.581 85.009 137.791 85.2067C141.001 85.4044 136.789 84.0071 134.383 81.7989C133.388 80.8893 132.465 79.9731 131.747 79.2217L123.178 83.717C123.178 83.717 122.348 86.9534 126.685 89.0561Z" fill="white"/>
<path d="M156.57 97.012H156.491C156.491 97.012 132.98 91.2708 129.427 90.4205C126.461 89.6889 124.45 88.4431 123.455 86.7887C122.875 85.872 122.668 84.7685 122.875 83.7039C122.898 83.6199 122.953 83.5483 123.028 83.504C123.103 83.4598 123.192 83.4464 123.277 83.4666C123.361 83.4897 123.432 83.5449 123.475 83.6202C123.518 83.6955 123.53 83.7848 123.508 83.8687C123.358 84.7697 123.546 85.6942 124.035 86.4657C124.938 87.9817 126.81 89.1023 129.585 89.7614C132.881 90.5853 153.789 95.6937 156.386 96.3133C157.196 94.5204 157.704 92.7803 157.473 92.51C156.221 92.51 138.061 80.4477 134.436 78.0089C134.364 77.9593 134.313 77.8833 134.296 77.797C134.279 77.7107 134.296 77.6212 134.344 77.5475C134.368 77.5115 134.399 77.4807 134.435 77.4569C134.471 77.433 134.511 77.4166 134.553 77.4087C134.596 77.4007 134.639 77.4013 134.681 77.4104C134.724 77.4195 134.763 77.437 134.799 77.4618C143.335 83.1502 156.425 91.6729 157.486 91.8377C157.594 91.8393 157.699 91.8672 157.794 91.9189C157.888 91.9706 157.968 92.0446 158.027 92.1343C158.574 92.9978 157.276 95.9376 156.86 96.8208C156.835 96.8765 156.794 96.9239 156.742 96.9577C156.691 96.9915 156.632 97.0103 156.57 97.012Z" fill="black"/>
<path d="M157.473 92.1411C157.473 92.1411 165.192 95.7532 165.792 96.7551C166.391 97.757 167.769 102.964 167.769 104.573C167.769 106.181 167.571 106.174 166.569 106.174C165.568 106.174 162.957 102.364 162.357 101.56C161.758 100.756 160.38 100.756 158.548 99.5828C158.037 99.2589 157.598 98.8339 157.258 98.334C156.918 97.8341 156.684 97.2698 156.57 96.676L157.473 92.1411Z" fill="white"/>
<path d="M166.596 106.504C165.732 106.504 164.309 104.783 162.437 102.2C162.305 102.015 162.199 101.863 162.12 101.765C161.744 101.39 161.272 101.126 160.756 101C159.924 100.704 159.13 100.313 158.389 99.8333C157.835 99.4845 157.358 99.0254 156.988 98.4845C156.619 97.9436 156.364 97.3325 156.241 96.6891C156.237 96.6563 156.237 96.6232 156.241 96.5903L157.144 92.0751C157.154 92.0266 157.174 91.9808 157.204 91.941C157.234 91.9011 157.272 91.8682 157.315 91.8444C157.36 91.8218 157.41 91.8101 157.46 91.8101C157.51 91.8101 157.56 91.8218 157.605 91.8444C158.923 92.4509 165.449 95.5488 166.068 96.5837C166.688 97.6185 168.118 102.918 168.118 104.572C168.118 106.227 167.815 106.504 166.596 106.504ZM156.906 96.6628C157.024 97.2035 157.248 97.7153 157.566 98.168C157.884 98.6208 158.29 99.0054 158.759 99.2994C159.458 99.7497 160.208 100.117 160.993 100.394C161.628 100.558 162.202 100.902 162.648 101.382C162.727 101.481 162.839 101.633 162.971 101.824C165.383 105.159 166.266 105.858 166.596 105.858C167.466 105.858 167.466 105.858 167.466 104.586C167.466 103.03 166.095 97.9086 165.488 96.933C165.106 96.2739 160.657 94.0328 157.691 92.6288L156.906 96.6628Z" fill="black"/>
<path d="M154.178 96.2079C154.145 96.2141 154.111 96.2141 154.079 96.2079C154.037 96.1952 153.998 96.1743 153.965 96.1463C153.932 96.1184 153.904 96.084 153.885 96.0452C153.865 96.0064 153.853 95.964 153.85 95.9206C153.848 95.8772 153.853 95.8337 153.868 95.7926L155.067 92.0685C155.08 92.0259 155.1 91.9861 155.128 91.9517C155.156 91.9172 155.19 91.8887 155.23 91.8679C155.269 91.8471 155.312 91.8344 155.356 91.8306C155.4 91.8267 155.444 91.8319 155.487 91.8456C155.529 91.8594 155.568 91.8815 155.601 91.9106C155.634 91.9397 155.662 91.9753 155.681 92.0152C155.7 92.0551 155.711 92.0984 155.713 92.1427C155.716 92.187 155.709 92.2312 155.694 92.2728L154.494 95.997C154.469 96.06 154.425 96.1138 154.368 96.1515C154.312 96.1891 154.245 96.2088 154.178 96.2079Z" fill="black"/>
<path d="M212.703 64.055C212.703 64.055 210.725 70.8705 209.895 74.8781C209.064 78.8857 203.481 94.9292 203.481 94.9292L208.293 97.9349C208.293 97.9349 218.919 75.9196 220.942 71.0946C222.966 66.2697 222.346 62.6708 220.342 60.667" fill="white"/>
<path d="M208.293 98.2844C208.232 98.283 208.173 98.2647 208.122 98.2317L203.31 95.226C203.246 95.1866 203.198 95.1266 203.172 95.0559C203.147 94.9851 203.147 94.908 203.172 94.8371C203.224 94.6789 208.788 78.7737 209.572 74.8387C210.356 70.9036 212.373 64.0551 212.373 63.9826C212.398 63.8952 212.456 63.8211 212.535 63.7766C212.614 63.7321 212.708 63.7208 212.795 63.7453C212.883 63.7698 212.957 63.8279 213.001 63.9071C213.046 63.9862 213.057 64.0797 213.032 64.1671C213.032 64.233 211.022 71.0156 210.231 74.9639C209.48 78.7276 204.635 92.6883 203.89 94.8107L208.168 97.4802C209.486 94.7052 218.787 75.3923 220.632 70.9629C222.412 66.6851 222.221 63.0532 220.105 60.8978C220.044 60.8366 220.009 60.7536 220.009 60.6671C220.009 60.5806 220.044 60.4976 220.105 60.4364C220.166 60.3752 220.249 60.3408 220.336 60.3408C220.422 60.3408 220.505 60.3752 220.566 60.4364C222.887 62.75 223.13 66.6851 221.226 71.22C219.248 75.9856 208.702 97.8757 208.59 98.0998C208.57 98.1415 208.542 98.1785 208.507 98.2081C208.471 98.2377 208.43 98.2592 208.385 98.2712L208.293 98.2844Z" fill="black"/>
<path d="M204.391 92.6353C204.754 92.6353 209.321 95.1532 209.321 95.1532L204.391 92.6353Z" fill="black"/>
<path d="M172.779 56.4287C171.671 56.2442 165.759 52.3684 161.698 49.2309C157.638 46.0934 155.423 45.5397 155.423 45.5397L152.655 47.3853C152.236 46.0363 152.369 44.5763 153.024 43.325C154.131 41.2948 158.007 39.2647 161.883 37.7882C165.759 36.3117 170.188 35.0527 172.963 35.0527C175.738 35.0527 176.47 36.1601 176.47 37.6366C176.47 39.1131 176.47 43.7271 175.547 47.2337C174.624 50.7403 172.779 56.4287 172.779 56.4287Z" fill="white"/>
<g style="mix-blend-mode:multiply">
<path d="M171.038 37.1816C171.038 37.1816 169.331 42.2966 167.624 43.8324C166.306 44.9379 164.879 45.9073 163.366 46.726C163.366 46.726 162.344 43.1469 159.787 43.1469C157.229 43.1469 153.307 44.8541 153.307 44.8541C153.307 44.8541 153.307 43.4896 156.544 41.7825L159.787 40.0819L167.288 37.1816H171.038Z" fill="#5546FF"/>
</g>
<path opacity="0.5" d="M171.038 37.1816C171.038 37.1816 169.331 42.2966 167.624 43.8324C166.306 44.9379 164.879 45.9073 163.366 46.726C163.366 46.726 162.344 43.1469 159.787 43.1469C157.229 43.1469 153.307 44.8541 153.307 44.8541C153.307 44.8541 153.307 43.4896 156.544 41.7825L159.787 40.0819L167.288 37.1816H171.038Z" fill="white"/>
<path d="M172.779 56.758H172.719C171.493 56.5537 165.423 52.5264 161.514 49.5075C158.119 46.8709 156.023 46.0865 155.489 45.9151L152.853 47.6751C152.81 47.7011 152.762 47.718 152.712 47.7248C152.662 47.7316 152.611 47.7281 152.563 47.7146C152.515 47.6983 152.472 47.6714 152.437 47.636C152.401 47.6006 152.375 47.5576 152.358 47.5103C152.132 46.7988 152.05 46.0494 152.117 45.3059C152.184 44.5624 152.398 43.8396 152.747 43.1797C154.066 40.7145 158.983 38.5657 161.784 37.4913C163.986 36.6542 169.483 34.7031 172.989 34.7031C175.567 34.7031 176.826 35.6523 176.826 37.6165C176.826 39.1326 176.826 43.7532 175.89 47.2994C174.954 50.8455 173.135 56.4878 173.115 56.5274C173.094 56.5986 173.049 56.6604 172.988 56.7024C172.926 56.7445 172.853 56.7641 172.779 56.758ZM155.423 45.2099H155.502C155.595 45.2099 157.836 45.8163 161.903 48.9604C165.719 51.9068 171.038 55.4134 172.561 56.0132C172.957 54.774 174.44 50.0809 175.198 47.1016C176.114 43.6411 176.114 39.0864 176.114 37.5902C176.114 36.4762 175.738 35.3359 172.937 35.3359C170.551 35.3359 166.556 36.3378 161.975 38.0845C157.394 39.8313 154.197 41.8021 153.288 43.4697C152.742 44.5055 152.579 45.7003 152.826 46.8445L155.212 45.256C155.275 45.2169 155.35 45.2006 155.423 45.2099Z" fill="black"/>
<path d="M156.346 33.0026C158.508 35.3873 160.026 38.2845 160.756 41.4198C161.955 46.6336 169.496 52.7637 171.302 52.7637C173.108 52.7637 172.983 43.8257 172.383 41.2221C171.783 38.6185 169.377 31.5986 169.377 31.5986C169.377 31.5986 159.78 26.9846 156.346 33.0026Z" fill="white"/>
<path d="M171.328 53.0935C169.391 53.0935 161.679 46.7921 160.459 41.4926C159.736 38.4193 158.249 35.5785 156.135 33.2335C156.084 33.1824 156.052 33.1161 156.042 33.0446C156.033 32.9732 156.047 32.9006 156.082 32.838C159.602 26.6289 169.443 31.2495 169.542 31.3022C169.582 31.321 169.618 31.3476 169.647 31.3804C169.677 31.4132 169.699 31.4516 169.714 31.4934C169.812 31.7768 172.133 38.5528 172.732 41.1498C173.253 43.4304 173.497 50.9249 172.113 52.6716C172.024 52.798 171.907 52.902 171.77 52.9752C171.634 53.0484 171.483 53.0889 171.328 53.0935ZM156.781 32.9567C158.896 35.3511 160.38 38.2351 161.099 41.3475C162.298 46.5218 169.793 52.4343 171.328 52.4343C171.328 52.4343 171.454 52.4343 171.592 52.2564C172.713 50.8524 172.64 43.6875 172.086 41.2948C171.533 38.9021 169.45 32.8248 169.133 31.8361C168.033 31.3483 159.892 27.9406 156.781 32.9567Z" fill="black"/>
<g style="mix-blend-mode:multiply">
<path d="M171.038 37.1816C171.038 37.1816 169.331 42.2966 167.624 43.8324C166.306 44.9379 164.879 45.9073 163.366 46.726C163.366 46.726 162.344 43.1469 159.787 43.1469C157.229 43.1469 153.307 44.8541 153.307 44.8541C153.307 44.8541 153.307 43.4896 156.544 41.7825L159.787 40.0819L167.288 37.1816H171.038Z" fill="#5546FF"/>
</g>
<path opacity="0.5" d="M171.038 37.1816C171.038 37.1816 169.331 42.2966 167.624 43.8324C166.306 44.9379 164.879 45.9073 163.366 46.726C163.366 46.726 162.344 43.1469 159.787 43.1469C157.229 43.1469 153.307 44.8541 153.307 44.8541C153.307 44.8541 153.307 43.4896 156.544 41.7825L159.787 40.0819L167.288 37.1816H171.038Z" fill="white"/>
<path d="M156.346 33.003C158.508 35.3877 160.026 38.285 160.756 41.4203C161.955 46.6341 169.496 52.7642 171.302 52.7642C173.108 52.7642 172.983 43.8262 172.383 41.2226C171.783 38.6189 169.377 31.5991 169.377 31.5991C169.377 31.5991 159.78 26.9851 156.346 33.003Z" fill="white"/>
<path d="M171.328 53.0935C169.391 53.0935 161.679 46.7921 160.459 41.4926C159.736 38.4193 158.249 35.5785 156.135 33.2335C156.084 33.1824 156.052 33.1161 156.042 33.0446C156.033 32.9732 156.047 32.9006 156.082 32.838C159.602 26.6289 169.443 31.2495 169.542 31.3022C169.582 31.321 169.618 31.3476 169.647 31.3804C169.677 31.4132 169.699 31.4516 169.714 31.4934C169.812 31.7768 172.133 38.5528 172.732 41.1498C173.253 43.4304 173.497 50.9249 172.113 52.6716C172.024 52.798 171.907 52.902 171.77 52.9752C171.634 53.0484 171.483 53.0889 171.328 53.0935ZM156.781 32.9567C158.896 35.3511 160.38 38.2351 161.099 41.3475C162.298 46.5218 169.793 52.4343 171.328 52.4343C171.328 52.4343 171.454 52.4343 171.592 52.2564C172.713 50.8524 172.64 43.6875 172.086 41.2948C171.533 38.9021 169.45 32.8248 169.134 31.8361C168.033 31.3483 159.892 27.9406 156.781 32.9567Z" fill="black"/>
<path d="M150.012 23.3397C151.426 27.1855 153.175 30.8997 155.239 34.4396C158.284 39.4425 164.164 42.2769 167.426 40.9718C170.689 39.6666 172.91 35.4547 172.04 28.9292C171.849 27.4923 170.597 26.9056 170.195 25.6335C168.751 21.0195 167.281 16.5703 166.774 14.8763C166.115 12.6945 160.894 10.5193 155.456 12.042C150.018 13.5646 149.142 18.1127 150.012 23.3397Z" fill="white"/>
<path d="M168.079 19.3452C168.079 19.3452 166.101 20.8151 161.659 19.9648C157.216 19.1145 154.158 19.3056 154.329 20.4789C154.501 21.6522 154.843 23.2012 154.843 23.2012C154.843 23.2012 149.511 18.5872 154.342 17.3612C157.823 16.4582 159.833 17.8292 160.683 18.0203C161.534 18.2115 168.079 19.3452 168.079 19.3452Z" fill="#5546FF"/>
<path opacity="0.5" d="M168.079 19.3452C168.079 19.3452 166.101 20.8151 161.659 19.9648C157.216 19.1145 154.158 19.3056 154.329 20.4789C154.501 21.6522 154.843 23.2012 154.843 23.2012C154.843 23.2012 149.511 18.5872 154.342 17.3612C157.823 16.4582 159.833 17.8292 160.683 18.0203C161.534 18.2115 168.079 19.3452 168.079 19.3452Z" fill="white"/>
<path d="M165.607 41.644C162.067 41.644 157.46 38.7504 154.955 34.6308C152.874 31.0705 151.109 27.3341 149.682 23.4649C149.678 23.4475 149.678 23.4295 149.682 23.4121C148.595 16.9196 150.453 13.09 155.357 11.7189C161.046 10.1238 166.391 12.4704 167.084 14.7708C167.321 15.5683 167.743 16.9657 168.329 18.7256C168.988 20.7031 169.733 23.0958 170.498 25.5478C170.689 26.0356 170.971 26.4829 171.328 26.866C171.862 27.4256 172.219 28.1291 172.357 28.8896C173.332 36.2127 170.511 40.095 167.545 41.2815C166.928 41.5248 166.27 41.6479 165.607 41.644ZM150.335 23.2539C151.739 27.0686 153.473 30.7539 155.516 34.2682C158.581 39.2975 164.374 41.8352 167.308 40.6619C170.043 39.5677 172.64 35.9227 171.711 28.9687C171.59 28.3334 171.29 27.7458 170.847 27.2747C170.431 26.818 170.11 26.2823 169.905 25.6994C169.14 23.2539 168.369 20.8547 167.736 18.8838C167.176 17.1437 166.728 15.7397 166.484 14.929C165.93 13.0965 161.059 10.783 155.568 12.2924C151.033 13.5975 149.326 17.1701 150.335 23.2539Z" fill="black"/>
<path d="M153.934 30.5175C153.934 30.5175 150.447 28.9949 150.229 30.5175C150.012 32.0402 151.548 33.1541 153.057 33.8133C153.433 34.0191 153.862 34.1084 154.29 34.0697C154.717 34.0309 155.123 33.8659 155.456 33.5957" fill="white"/>
<path d="M154.158 34.3936C153.735 34.3883 153.318 34.2963 152.932 34.1233C150.776 33.2005 149.702 31.9152 149.906 30.5046C149.924 30.3434 149.98 30.1888 150.071 30.0544C150.162 29.92 150.284 29.8098 150.427 29.7334C151.475 29.1468 153.802 30.1355 154.066 30.2541C154.14 30.2932 154.196 30.3592 154.224 30.4385C154.251 30.5178 154.247 30.6046 154.212 30.6811C154.178 30.7576 154.116 30.818 154.038 30.8502C153.961 30.8823 153.874 30.8836 153.795 30.854C152.925 30.4717 151.323 29.9905 150.743 30.3069C150.691 30.3357 150.646 30.3774 150.614 30.4281C150.582 30.4788 150.563 30.5369 150.559 30.5969C150.348 32.0668 152.114 33.0555 153.195 33.5169C153.513 33.6932 153.875 33.7728 154.237 33.7459C154.598 33.719 154.945 33.5866 155.232 33.3653C155.296 33.3117 155.377 33.284 155.46 33.2878C155.543 33.2916 155.621 33.3266 155.68 33.3857C155.738 33.4448 155.772 33.5237 155.774 33.6067C155.777 33.6897 155.748 33.7706 155.694 33.8333C155.271 34.2073 154.722 34.4075 154.158 34.3936Z" fill="black"/>
<path d="M168.165 21.9095C168.165 21.9095 164.282 20.9867 165.943 26.161C166.273 27.1826 168.534 28.3757 168.534 28.3757C168.534 28.3757 168.349 30.0367 167.426 30.2213" fill="white"/>
<path d="M167.42 30.5505C167.344 30.5493 167.271 30.5227 167.212 30.4748C167.154 30.427 167.113 30.3607 167.097 30.2869C167.088 30.244 167.088 30.1998 167.097 30.157C167.105 30.1141 167.123 30.0734 167.147 30.0372C167.172 30.001 167.203 29.97 167.24 29.9461C167.276 29.9222 167.317 29.9059 167.36 29.898C167.835 29.7991 168.079 29.0147 168.171 28.5797C167.565 28.2369 165.943 27.2614 165.633 26.2859C165.014 24.3612 165.067 22.9902 165.785 22.2124C166.668 21.2566 168.171 21.6059 168.237 21.6191C168.322 21.6395 168.395 21.6925 168.441 21.7666C168.486 21.8407 168.501 21.9298 168.481 22.0146C168.472 22.057 168.454 22.097 168.429 22.1324C168.404 22.1678 168.372 22.1977 168.335 22.2205C168.298 22.2432 168.257 22.2583 168.214 22.2649C168.171 22.2714 168.127 22.2692 168.085 22.2585C168.085 22.2585 166.886 21.9882 166.266 22.6606C165.647 23.3329 165.726 24.4271 166.266 26.0815C166.477 26.7407 167.868 27.6701 168.692 28.1051C168.749 28.1378 168.796 28.1862 168.826 28.2447C168.856 28.3031 168.869 28.3691 168.863 28.4347C168.863 28.6324 168.619 30.3462 167.492 30.5703L167.42 30.5505Z" fill="black"/>
<path d="M165.39 33.9123C165.39 33.9123 162.621 34.466 161.514 33.1741L165.39 33.9123Z" fill="white"/>
<path d="M164.065 34.3934C163.556 34.4338 163.044 34.3679 162.561 34.2C162.079 34.032 161.637 33.7657 161.263 33.4178C161.235 33.3849 161.214 33.3468 161.2 33.3057C161.187 33.2645 161.182 33.2211 161.185 33.178C161.189 33.1348 161.2 33.0928 161.22 33.0542C161.24 33.0156 161.267 32.9813 161.3 32.9531C161.332 32.925 161.371 32.9036 161.412 32.8902C161.453 32.8768 161.496 32.8717 161.539 32.875C161.583 32.8784 161.625 32.8902 161.663 32.9098C161.702 32.9295 161.736 32.9565 161.764 32.9894C162.733 34.1231 165.304 33.6485 165.33 33.6485C165.372 33.639 165.416 33.6381 165.458 33.646C165.501 33.6539 165.541 33.6704 165.577 33.6945C165.613 33.7186 165.643 33.7497 165.667 33.786C165.69 33.8223 165.706 33.863 165.713 33.9056C165.721 33.948 165.721 33.9917 165.713 34.0342C165.705 34.0767 165.688 34.1172 165.665 34.1533C165.641 34.1894 165.61 34.2205 165.574 34.2447C165.538 34.2689 165.498 34.2859 165.455 34.2945C164.996 34.3674 164.53 34.4005 164.065 34.3934Z" fill="black"/>
<path d="M161.329 25.2378C161.329 25.2378 159.299 24.4996 158.192 25.4224C157.599 25.8349 157.141 26.4125 156.873 27.0834" fill="white"/>
<path d="M156.9 27.4067H156.821C156.779 27.396 156.739 27.377 156.705 27.351C156.67 27.3249 156.641 27.2923 156.619 27.255C156.597 27.2176 156.582 27.1763 156.576 27.1333C156.57 27.0904 156.573 27.0466 156.583 27.0047C156.859 26.2698 157.345 25.6325 157.981 25.1722C159.22 24.144 161.356 24.902 161.441 24.9349C161.483 24.9489 161.52 24.9711 161.553 25.0001C161.585 25.0291 161.612 25.0643 161.63 25.1037C161.649 25.1431 161.659 25.1859 161.66 25.2294C161.662 25.2728 161.655 25.3162 161.639 25.3568C161.609 25.4389 161.548 25.5059 161.469 25.543C161.39 25.5801 161.299 25.5842 161.217 25.5545C161.217 25.5545 159.352 24.8954 158.403 25.6798C157.88 26.0588 157.472 26.5741 157.223 27.1694C157.202 27.2384 157.159 27.2988 157.101 27.3415C157.042 27.3842 156.972 27.4071 156.9 27.4067Z" fill="black"/>
<path d="M161.277 28.3951C161.54 29.0081 161.487 29.6146 161.158 29.753C160.828 29.8914 160.354 29.5157 160.09 28.9027C159.826 28.2897 159.886 27.6899 160.215 27.5449C160.545 27.3998 161.019 27.8019 161.277 28.3951Z" fill="black"/>
<path d="M167.914 25.1652C168.178 25.7717 168.118 26.3781 167.795 26.5231C167.472 26.6681 166.985 26.2792 166.728 25.6728C166.471 25.0664 166.517 24.4534 166.846 24.315C167.176 24.1765 167.65 24.5588 167.914 25.1652Z" fill="black"/>
<path d="M152.965 31.3945C152.965 31.3945 155.166 29.7927 154.764 28.3888C154.362 26.9848 153.565 26.9848 154.369 26.1872C155.173 25.3897 155.766 24.981 155.568 23.7813C155.371 22.5817 152.161 20.5713 153.162 19.3717C154.164 18.1721 153.762 16.7351 161.982 18.7653C170.201 20.7954 175.415 17.5656 173.009 14.5599C170.603 11.5543 168.6 11.1522 168.6 11.1522C168.6 11.1522 173.214 9.17474 169.404 7.13799C165.594 5.10124 156.972 5.16056 152.161 8.94404C147.349 12.7275 148.351 15.9376 148.351 15.9376C148.351 15.9376 145.747 16.3396 145.543 20.3538C145.338 24.368 152.965 31.3945 152.965 31.3945Z" fill="black"/>
<path d="M166.082 17.9677C164.33 17.8942 162.604 17.5103 160.986 16.834C159.719 16.2933 158.368 15.9723 156.992 15.8848C153.808 15.8848 153.149 17.6909 153.123 17.77C153.114 17.7981 153.1 17.8242 153.08 17.8465C153.061 17.8689 153.037 17.8871 153.011 17.9C152.984 17.913 152.956 17.9204 152.926 17.9218C152.897 17.9233 152.867 17.9187 152.839 17.9084C152.811 17.8994 152.785 17.885 152.763 17.8658C152.74 17.8467 152.721 17.8233 152.708 17.7969C152.694 17.7706 152.686 17.7418 152.684 17.7123C152.682 17.6828 152.685 17.6531 152.694 17.625C152.727 17.5393 153.466 15.43 156.992 15.43C158.421 15.5145 159.823 15.8468 161.138 16.4122C163.188 17.1438 165.317 17.9018 167.993 17.3086C169.443 16.9856 170.294 16.4649 170.505 15.7728C170.781 14.8829 169.924 13.9535 169.918 13.9404C169.876 13.8984 169.853 13.8415 169.853 13.7822C169.853 13.7229 169.876 13.666 169.918 13.624C169.962 13.5832 170.019 13.5605 170.079 13.5605C170.139 13.5605 170.197 13.5832 170.241 13.624C170.28 13.6701 171.282 14.7577 170.933 15.898C170.663 16.7615 169.707 17.3811 168.085 17.7436C167.427 17.8892 166.756 17.9643 166.082 17.9677Z" fill="white"/>
<path d="M151.376 17.4138C151.316 17.4088 151.26 17.3804 151.221 17.3349C151.182 17.2893 151.162 17.2301 151.165 17.1699C151.165 17.1238 151.554 12.7735 155.41 11.7979C157.684 11.2245 160.314 11.6529 162.43 11.9957C163.748 12.2132 164.928 12.4043 165.422 12.2132C165.477 12.2016 165.533 12.2099 165.582 12.2366C165.631 12.2634 165.668 12.3068 165.687 12.3589C165.706 12.4109 165.706 12.4682 165.687 12.5201C165.667 12.5721 165.63 12.6152 165.581 12.6416C164.974 12.8657 163.821 12.6812 162.357 12.4439C160.281 12.1011 157.697 11.6859 155.522 12.233C151.976 13.136 151.62 17.1634 151.613 17.2029C151.612 17.2323 151.604 17.2612 151.591 17.2877C151.579 17.3143 151.561 17.338 151.539 17.3576C151.517 17.3772 151.491 17.3923 151.463 17.4019C151.435 17.4116 151.406 17.4156 151.376 17.4138Z" fill="white"/>
<path d="M148.825 24.2164C148.781 24.2156 148.737 24.2019 148.7 24.1769C148.108 23.6806 147.649 23.0446 147.365 22.3265C147.081 21.6083 146.98 20.8307 147.072 20.0638C147.257 17.1636 149.484 17.1306 149.511 17.1306C149.564 17.1398 149.613 17.1676 149.648 17.2093C149.683 17.2509 149.703 17.3036 149.703 17.358C149.703 17.4125 149.683 17.4652 149.648 17.5068C149.613 17.5484 149.564 17.5763 149.511 17.5854C149.432 17.5854 147.678 17.625 147.533 20.0902C147.444 20.7799 147.528 21.4809 147.778 22.13C148.028 22.7791 148.435 23.3557 148.964 23.8077C148.988 23.8242 149.009 23.8454 149.025 23.8701C149.041 23.8948 149.051 23.9224 149.056 23.9514C149.061 23.9803 149.06 24.01 149.053 24.0385C149.046 24.0671 149.034 24.094 149.016 24.1175C148.996 24.1497 148.968 24.1758 148.934 24.1932C148.901 24.2106 148.863 24.2186 148.825 24.2164Z" fill="white"/>
<path d="M150.19 22.3441C150.147 22.3441 150.104 22.3317 150.068 22.3083C150.032 22.2849 150.003 22.2516 149.985 22.2122C149.823 21.9115 149.726 21.5795 149.702 21.2385C149.679 20.8975 149.728 20.5553 149.847 20.2348C150.138 19.6065 150.656 19.1119 151.297 18.8506C151.324 18.839 151.354 18.833 151.383 18.833C151.413 18.833 151.442 18.8391 151.469 18.8508C151.496 18.8626 151.521 18.8797 151.541 18.9012C151.561 18.9227 151.577 18.9481 151.587 18.9759C151.609 19.0309 151.608 19.0923 151.584 19.1467C151.561 19.201 151.517 19.2439 151.462 19.2659C150.937 19.4882 150.511 19.8934 150.262 20.4062C150.169 20.6694 150.132 20.9494 150.155 21.2278C150.178 21.5061 150.259 21.7765 150.394 22.0211C150.419 22.0762 150.421 22.1389 150.4 22.1956C150.379 22.2523 150.337 22.2985 150.282 22.3243C150.253 22.3372 150.222 22.3439 150.19 22.3441Z" fill="white"/>
<path d="M150.697 25.9169C150.661 25.9162 150.625 25.9068 150.593 25.8896C150.561 25.8724 150.533 25.8479 150.513 25.818L149.662 24.6316C149.627 24.5826 149.613 24.5218 149.623 24.4625C149.633 24.4031 149.666 24.3502 149.715 24.3152C149.764 24.2802 149.825 24.2661 149.884 24.276C149.944 24.2859 149.997 24.319 150.032 24.3679L150.882 25.561C150.915 25.6092 150.929 25.6687 150.919 25.7267C150.909 25.7846 150.877 25.8364 150.829 25.8708C150.792 25.9012 150.745 25.9175 150.697 25.9169Z" fill="white"/>
</svg>
