<svg width="274" height="210" viewBox="0 0 285 218" fill="none" xmlns="http://www.w3.org/2000/svg">
<path d="M259.761 214.199C259.761 215.41 221.437 216.389 174.218 216.389C126.998 216.389 88.6746 215.41 88.6746 214.199C88.6746 212.988 126.998 212.016 174.218 212.016C221.437 212.016 259.761 212.995 259.761 214.199Z" fill="black"/>
<path d="M45.0613 146.23C44.9997 146.23 44.726 141.939 44.7397 141.666C44.8971 138.497 47.0733 132.461 50.5156 131.544C51.0902 131.407 51.6873 131.392 52.2679 131.501C52.8486 131.61 53.3997 131.84 53.8854 132.177C54.371 132.513 54.7802 132.948 55.0863 133.454C55.3924 133.959 55.5885 134.523 55.6618 135.11C56.0587 137.587 54.4437 140.228 52.8081 141.953C50.8783 143.951 45.0613 146.23 45.0613 146.23Z" fill="black"/>
<path d="M40.572 129.696C40.5104 129.696 40.8868 125.412 40.9416 125.139C41.5849 122.032 44.6507 116.393 48.1819 116.009C48.7709 115.961 49.3634 116.037 49.9209 116.233C50.4784 116.429 50.9883 116.74 51.4176 117.146C51.8469 117.552 52.1859 118.044 52.4125 118.59C52.6391 119.136 52.7483 119.723 52.7328 120.314C52.7328 122.825 50.7551 125.193 48.88 126.637C46.6695 128.334 40.572 129.696 40.572 129.696Z" fill="black"/>
<path d="M39.436 110.186C39.3744 110.186 39.7576 105.902 39.8124 105.628C40.4488 102.521 43.5147 96.8822 47.0527 96.499C47.6414 96.4507 48.2336 96.527 48.7907 96.7229C49.3479 96.9189 49.8575 97.2301 50.2862 97.6363C50.715 98.0425 51.0533 98.5345 51.2791 99.0802C51.505 99.6259 51.6132 100.213 51.5968 100.804C51.5968 103.315 49.6259 105.676 47.7439 107.127C45.5335 108.824 39.4428 110.186 39.436 110.186Z" fill="black"/>
<path d="M37.4719 91.8247C37.4104 91.8247 37.7936 87.5339 37.8483 87.267C38.4848 84.1532 41.5506 78.5211 45.0887 78.131C45.6777 78.0837 46.27 78.1609 46.8272 78.3577C47.3843 78.5545 47.8938 78.8663 48.3224 79.273C48.7511 79.6797 49.0893 80.1721 49.315 80.7182C49.5408 81.2642 49.6491 81.8517 49.6327 82.4424C49.6327 84.9471 47.6618 87.3149 45.7799 88.7589C43.5695 90.456 37.4788 91.8247 37.4719 91.8247Z" fill="black"/>
<path d="M31.6139 77.0909C31.5592 77.0909 30.7927 72.8685 30.7722 72.5948C30.5669 69.4262 32.0382 63.1782 35.3436 61.8779C35.8986 61.6753 36.4901 61.592 37.0795 61.6335C37.6688 61.675 38.2428 61.8403 38.764 62.1186C39.2852 62.397 39.7418 62.7821 40.104 63.2489C40.4662 63.7156 40.726 64.2535 40.8662 64.8275C41.5506 67.2432 40.2503 70.049 38.8132 71.9378C37.1434 74.1619 31.6139 77.0909 31.6139 77.0909Z" fill="black"/>
<path d="M43.2478 146.278C43.3162 146.278 41.4479 142.37 41.2974 142.138C39.6071 139.455 34.7551 135.253 31.3128 136.136C30.7453 136.298 30.2183 136.578 29.7662 136.957C29.314 137.337 28.9469 137.807 28.6886 138.338C28.4304 138.868 28.2868 139.447 28.2673 140.037C28.2478 140.627 28.3528 141.215 28.5754 141.761C29.4377 144.122 32.134 145.635 34.406 146.326C37.0887 147.14 43.2478 146.278 43.2478 146.278Z" fill="black"/>
<path d="M39.655 127.486C39.7234 127.486 37.2803 123.9 37.1024 123.695C35.0493 121.293 29.5746 117.878 26.324 119.267C25.786 119.512 25.306 119.869 24.9151 120.312C24.5242 120.756 24.2314 121.277 24.0557 121.841C23.88 122.406 23.8254 123.001 23.8955 123.588C23.9657 124.175 24.1589 124.741 24.4625 125.248C25.667 127.445 28.5686 128.533 30.9159 128.875C33.667 129.272 39.655 127.486 39.655 127.486Z" fill="black"/>
<path d="M38.6216 109.077C38.6832 109.077 36.247 105.491 36.069 105.286C34.016 102.884 28.5412 99.469 25.2838 100.865C24.7401 101.109 24.2543 101.465 23.8586 101.911C23.4629 102.356 23.1663 102.88 22.9884 103.449C22.8105 104.018 22.7553 104.618 22.8266 105.209C22.8979 105.801 23.0939 106.37 23.4018 106.88C24.6131 109.077 27.5079 110.165 29.862 110.501C32.6336 110.87 38.6216 109.084 38.6216 109.077Z" fill="black"/>
<path d="M36.8492 92.1876C36.9177 92.1876 34.4746 88.6017 34.2966 88.3964C32.2436 85.9943 26.7689 82.5794 23.5182 83.9687C22.9803 84.214 22.5002 84.5701 22.1094 85.0137C21.7185 85.4574 21.4257 85.9784 21.25 86.543C21.0743 87.1075 21.0197 87.7028 21.0898 88.2898C21.1599 88.8769 21.3531 89.4425 21.6568 89.9498C22.8613 92.1534 25.7629 93.2347 28.1102 93.5768C30.8612 93.9738 36.8492 92.1876 36.8492 92.1876Z" fill="black"/>
<path d="M31.6551 77.6452C31.7167 77.6452 28.9177 74.3467 28.6987 74.1551C26.3719 71.9994 20.5961 69.2004 17.496 70.9455C16.987 71.2486 16.5479 71.6559 16.2074 72.1406C15.8669 72.6253 15.6327 73.1766 15.5203 73.7582C15.4079 74.3398 15.4197 74.9386 15.5549 75.5153C15.6902 76.0921 15.9459 76.6337 16.3052 77.1046C17.7492 79.1576 20.7466 79.9241 23.1487 79.9994C25.8997 80.0815 31.6551 77.6521 31.6551 77.6452Z" fill="black"/>
<path d="M24.1888 65.6282C24.2504 65.6282 23.265 61.4263 23.176 61.1663C22.1016 58.1757 18.2692 53.0363 14.7107 53.1526C14.1208 53.1885 13.5452 53.3481 13.0211 53.6211C12.4971 53.8942 12.0364 54.2745 11.6691 54.7373C11.3018 55.2002 11.0361 55.7352 10.8892 56.3076C10.7423 56.88 10.7176 57.4768 10.8167 58.0594C11.1589 60.5504 13.4652 62.6034 15.5319 63.7668C17.9613 65.1355 24.182 65.6282 24.1888 65.6282Z" fill="black"/>
<path d="M51.0425 168.403C51.0425 168.403 50.3103 166.726 49.1606 163.79C48.0109 160.854 46.4232 156.618 44.7397 151.472C43.898 148.899 43.0425 146.093 42.2076 143.103C41.7833 141.597 41.4001 140.085 40.9826 138.463C40.8047 137.669 40.6336 136.868 40.4557 136.061C40.2778 135.253 40.1546 134.398 40.004 133.556C39.4639 130.104 39.1143 126.624 38.957 123.133C38.7859 119.582 38.7175 115.989 38.6285 112.396C38.5395 108.803 38.4506 105.224 38.1632 101.72C37.9125 98.2888 37.4208 94.8792 36.6918 91.5167C35.9575 88.3852 34.9452 85.3254 33.667 82.3739C32.5255 79.7183 31.2299 77.1316 29.7868 74.6271C28.466 72.2798 27.111 70.2199 25.8997 68.3996C24.6884 66.5792 23.5524 65.0463 22.6012 63.7939C20.6987 61.2892 19.5079 59.9479 19.5079 59.9479C19.5079 59.9479 20.7261 61.2687 22.6901 63.7255C23.6619 64.9642 24.8253 66.4629 26.1119 68.2695C27.3984 70.0762 28.7671 72.1019 30.1426 74.4286C31.6594 76.9179 33.0304 79.4931 34.2487 82.1412C35.6137 85.0998 36.7152 88.173 37.5404 91.3251C38.3526 94.7024 38.9266 98.1325 39.2581 101.59C39.6208 105.128 39.8056 108.728 39.9424 112.321C40.0793 115.914 40.2504 119.493 40.4968 123.003C40.7274 126.427 41.1432 129.835 41.7423 133.214C41.9134 134.028 42.016 134.822 42.2282 135.63C42.4403 136.437 42.6182 137.231 42.8098 138.018C43.2341 139.517 43.6653 141.077 44.1169 142.535C44.9997 145.47 45.9099 148.228 46.7996 150.747C48.5652 155.811 50.2213 159.958 51.4326 162.846C52.6439 165.734 53.3898 167.335 53.3898 167.335C53.5026 167.631 53.4991 167.959 53.38 168.252C53.2609 168.546 53.035 168.783 52.7479 168.917C52.4607 169.05 52.1336 169.07 51.8324 168.972C51.5312 168.874 51.2783 168.666 51.1246 168.389V168.389L51.0425 168.403Z" fill="black"/>
<path d="M67.1588 141.878C67.0972 141.878 68.0621 137.669 68.1511 137.409C69.205 134.418 73.0099 129.251 76.5616 129.347C77.1515 129.379 77.728 129.534 78.2537 129.804C78.7794 130.073 79.2423 130.451 79.6123 130.911C79.9823 131.371 80.2511 131.905 80.4011 132.476C80.5512 133.047 80.579 133.644 80.4829 134.227C80.1613 136.718 77.8688 138.791 75.8089 139.968C73.3589 141.351 67.1998 141.878 67.1588 141.878Z" fill="black"/>
<path d="M67.5557 124.756C67.4941 124.756 69.0818 120.732 69.2118 120.492C70.7105 117.686 75.2477 113.156 78.7447 113.792C79.3231 113.913 79.8696 114.155 80.3486 114.501C80.8275 114.847 81.2282 115.29 81.5245 115.802C81.8208 116.313 82.0061 116.881 82.0684 117.468C82.1306 118.056 82.0685 118.65 81.8859 119.212C81.2015 121.628 78.6079 123.318 76.4111 124.174C73.7901 125.173 67.5625 124.756 67.5557 124.756Z" fill="black"/>
<path d="M71.9902 105.724C71.9218 105.724 73.5095 101.7 73.6395 101.46C75.1382 98.6613 79.6823 94.131 83.1793 94.7606C83.7579 94.8822 84.3044 95.1244 84.7831 95.4714C85.2619 95.8184 85.6621 96.2623 85.9579 96.7743C86.2536 97.2863 86.4381 97.8549 86.4994 98.443C86.5607 99.031 86.4973 99.6254 86.3136 100.187C85.6292 102.596 83.0356 104.293 80.8388 105.149C78.252 106.148 71.9902 105.724 71.9902 105.724Z" fill="black"/>
<path d="M75.3504 87.5682C75.282 87.5682 76.8697 83.5511 76.9997 83.3047C78.4984 80.5058 83.0424 75.9754 86.5394 76.6118C87.1178 76.7327 87.6642 76.9741 88.1429 77.3203C88.6216 77.6666 89.022 78.11 89.3177 78.6215C89.6135 79.1329 89.7981 79.701 89.8594 80.2887C89.9208 80.8763 89.8575 81.4703 89.6737 82.0318C88.9894 84.4476 86.3957 86.1379 84.199 86.9933C81.5711 87.9925 75.3504 87.5682 75.3504 87.5682Z" fill="black"/>
<path d="M73.9338 71.7668C73.8653 71.7668 74.3375 67.4897 74.3991 67.2228C75.0835 64.1227 78.2862 58.5521 81.8311 58.2442C82.4207 58.2089 83.011 58.2982 83.5639 58.5061C84.1167 58.714 84.6195 59.036 85.0397 59.451C85.4599 59.8661 85.7881 60.3649 86.0028 60.9151C86.2176 61.4653 86.3141 62.0545 86.2862 62.6445C86.2862 65.156 84.2331 67.476 82.3033 68.8789C80.0586 70.5281 73.9338 71.7668 73.9338 71.7668Z" fill="black"/>
<path d="M65.4342 141.412C65.4958 141.412 64.8114 137.156 64.7499 136.896C63.8944 133.837 60.4385 128.43 56.8867 128.293C56.2954 128.287 55.7094 128.405 55.1667 128.64C54.6241 128.875 54.137 129.221 53.7374 129.657C53.3377 130.093 53.0344 130.608 52.8471 131.169C52.6599 131.73 52.5929 132.324 52.6507 132.913C52.8081 135.417 54.9637 137.635 56.9415 138.942C59.2546 140.482 65.4274 141.412 65.4342 141.412Z" fill="black"/>
<path d="M67.3093 122.374C67.3778 122.374 66.0502 118.268 65.9407 118.008C64.6267 115.113 60.3906 110.295 56.8594 110.699C56.2743 110.782 55.7133 110.988 55.213 111.303C54.7127 111.618 54.2842 112.034 53.9556 112.526C53.627 113.017 53.4056 113.572 53.3057 114.154C53.2059 114.737 53.2299 115.334 53.3761 115.907C53.9099 118.357 56.3804 120.225 58.5292 121.217C61.0408 122.388 67.3025 122.374 67.3093 122.374Z" fill="black"/>
<path d="M71.5522 104.43C71.6138 104.43 70.2931 100.324 70.1836 100.064C68.8765 97.1762 64.6404 92.3584 61.1092 92.7622C60.5219 92.8445 59.9587 93.0501 59.4564 93.3653C58.9542 93.6805 58.5242 94.0983 58.1947 94.5913C57.8651 95.0843 57.6435 95.6414 57.5443 96.226C57.4451 96.8106 57.4706 97.4096 57.619 97.9837C58.1596 100.441 60.6233 102.302 62.7789 103.294C65.3042 104.444 71.5454 104.43 71.5522 104.43Z" fill="black"/>
<path d="M74.6523 87.7189C74.7207 87.7189 73.3931 83.6128 73.2836 83.3527C71.9697 80.4648 67.7404 75.6402 64.2024 76.0508C63.6175 76.1334 63.0566 76.3384 62.5563 76.6524C62.056 76.9664 61.6275 77.3824 61.2989 77.8732C60.9702 78.3639 60.7486 78.9185 60.6487 79.5007C60.5488 80.0828 60.5728 80.6795 60.7191 81.2518C61.2528 83.7086 63.7233 85.57 65.879 86.5623C68.4042 87.7189 74.6523 87.7189 74.6523 87.7189Z" fill="black"/>
<path d="M73.8038 72.3141C73.8722 72.3141 72.1066 68.3654 71.9629 68.1259C70.341 65.3885 65.6054 61.0703 62.1357 61.8641C61.5632 62.0107 61.028 62.2765 60.5651 62.644C60.1023 63.0115 59.7221 63.4726 59.4496 63.997C59.177 64.5214 59.0182 65.0975 58.9834 65.6875C58.9486 66.2775 59.0387 66.8682 59.2478 67.421C60.0485 69.7957 62.7037 71.3765 64.9552 72.1293C67.5968 73.0121 73.8038 72.3141 73.8038 72.3141Z" fill="black"/>
<path d="M70.0672 58.6683C70.1219 58.6683 70.3751 54.3775 70.3546 54.1037C70.1767 50.9284 67.9663 44.9061 64.524 44.0097C63.9483 43.8767 63.3511 43.8665 62.7712 43.9796C62.1913 44.0927 61.6418 44.3267 61.1583 44.6662C60.6748 45.0058 60.2682 45.4433 59.9649 45.9504C59.6617 46.4575 59.4686 47.0227 59.3983 47.6093C59.015 50.0935 60.6438 52.7213 62.293 54.4527C64.2297 56.4237 70.0604 58.6615 70.0672 58.6683Z" fill="black"/>
<path d="M66.5976 164.837C66.5976 164.837 66.365 163.024 66.0981 159.876C65.8312 156.728 65.5095 152.225 65.3658 146.812C65.2905 144.074 65.2632 141.173 65.3179 138.066C65.3179 136.505 65.4 134.945 65.4616 133.275C65.5164 132.468 65.578 131.647 65.6327 130.825C65.6875 130.004 65.8243 129.142 65.9133 128.293C66.3824 124.839 67.0381 121.412 67.8774 118.028C68.7191 114.572 69.6772 111.103 70.6147 107.64C71.5523 104.177 72.4762 100.714 73.2016 97.2651C73.9361 93.9055 74.4324 90.4981 74.6866 87.0684C74.8627 83.8555 74.7528 80.6332 74.3581 77.4397C74.02 74.5677 73.5127 71.7181 72.8389 68.9059C72.2366 66.2781 71.5318 63.9171 70.8885 61.8298C70.2452 59.7426 69.5814 57.9427 69.0339 56.4783C67.9184 53.5356 67.1588 51.9068 67.1588 51.9068C67.1588 51.9068 67.9526 53.5219 69.1297 56.4372C69.7183 57.8948 70.3958 59.681 71.1075 61.7545C71.8192 63.8281 72.5583 66.1891 73.2152 68.8101C73.9541 71.6256 74.5277 74.4819 74.9329 77.3644C75.4039 80.5901 75.5871 83.8513 75.4804 87.1095C75.2976 90.5889 74.8699 94.0511 74.2007 97.4705C73.5164 100.961 72.6951 104.464 71.826 107.955C70.9569 111.445 70.081 114.921 69.3213 118.357C68.5669 121.704 67.9958 125.089 67.6105 128.499C67.542 129.327 67.4189 130.114 67.3915 130.949C67.3641 131.783 67.3094 132.598 67.2683 133.405C67.2683 134.966 67.2204 136.581 67.2683 138.107C67.2683 141.18 67.3709 144.081 67.5078 146.757C67.761 152.115 68.1922 156.57 68.5138 159.67C68.8354 162.771 69.1092 164.536 69.1092 164.536C69.133 164.698 69.1246 164.864 69.0846 165.023C69.0445 165.182 68.9735 165.331 68.8756 165.463C68.7778 165.594 68.655 165.705 68.5142 165.789C68.3734 165.873 68.2175 165.929 68.0553 165.953C67.8931 165.977 67.7278 165.968 67.5688 165.928C67.4098 165.888 67.2603 165.817 67.1287 165.719C66.9972 165.621 66.8862 165.499 66.8021 165.358C66.718 165.217 66.6625 165.061 66.6387 164.899V164.865L66.5976 164.837Z" fill="black"/>
<path d="M74.536 210.086H45.5609L37.4103 162.634H82.6865L74.536 210.086Z" fill="black"/>
<path d="M125.574 214.575C160.372 214.575 188.582 186.366 188.582 151.568C188.582 116.77 160.372 88.5604 125.574 88.5604C90.7762 88.5604 62.5668 116.77 62.5668 151.568C62.5668 186.366 90.7762 214.575 125.574 214.575Z" fill="#FF8800"/>
<path d="M125.574 214.89C113.05 214.89 100.808 211.176 90.3944 204.219C79.9811 197.261 71.8649 187.371 67.0722 175.8C62.2795 164.23 61.0255 151.498 63.4688 139.214C65.9121 126.931 71.9429 115.648 80.7987 106.792C89.6545 97.9365 100.937 91.9056 113.221 89.4623C125.504 87.019 138.236 88.273 149.807 93.0657C161.377 97.8584 171.267 105.975 178.225 116.388C185.183 126.801 188.897 139.044 188.897 151.568C188.877 168.356 182.199 184.451 170.328 196.322C158.457 208.193 142.362 214.87 125.574 214.89V214.89ZM125.574 88.8683C113.174 88.8683 101.051 92.5456 90.7404 99.4351C80.4295 106.325 72.3931 116.117 67.6475 127.574C62.9019 139.031 61.6603 151.637 64.0796 163.8C66.4988 175.963 72.4704 187.135 81.2391 195.903C90.0078 204.672 101.18 210.643 113.342 213.063C125.505 215.482 138.112 214.24 149.568 209.495C161.025 204.749 170.818 196.713 177.707 186.402C184.597 176.091 188.274 163.969 188.274 151.568C188.258 134.944 181.647 119.006 169.892 107.251C158.137 95.4957 142.198 88.8846 125.574 88.8683V88.8683Z" fill="black"/>
<path d="M211.261 98.579C211.261 98.579 209.208 102.398 208.907 102.931C208.606 103.465 207.504 106.353 207.832 107.038C208.161 107.722 208.476 108.112 209.126 108.221C209.776 108.331 210.31 109.515 211.384 109.727C212.061 109.861 212.748 109.934 213.437 109.946C213.606 110.07 213.801 110.154 214.008 110.191C214.214 110.228 214.427 110.216 214.628 110.158C215.271 109.946 215.812 109.624 216.243 107.79C216.506 106.882 216.579 105.929 216.455 104.991L216.264 101.289L211.261 98.579Z" fill="white"/>
<path d="M214.245 110.555C213.92 110.551 213.602 110.456 213.328 110.281C212.652 110.263 211.979 110.187 211.316 110.055C210.701 109.888 210.15 109.54 209.735 109.056C209.55 108.836 209.316 108.662 209.051 108.55C208.699 108.471 208.373 108.304 208.104 108.065C207.834 107.825 207.63 107.521 207.511 107.181C207.066 106.298 208.36 103.157 208.599 102.76C208.914 102.233 210.926 98.4558 210.946 98.4147C210.991 98.3358 211.065 98.277 211.152 98.2505C211.235 98.217 211.328 98.217 211.412 98.2505L216.407 100.954C216.459 100.983 216.502 101.025 216.533 101.075C216.564 101.125 216.582 101.182 216.585 101.241L216.777 104.937C216.902 105.907 216.825 106.892 216.551 107.831C216.127 109.658 215.573 110.165 214.71 110.452C214.561 110.511 214.404 110.545 214.245 110.555ZM211.405 99.0443C210.912 99.9613 209.475 102.651 209.201 103.109C208.825 103.732 207.922 106.449 208.134 106.873C208.476 107.558 208.736 107.804 209.181 107.879C209.586 107.999 209.946 108.237 210.214 108.564C210.537 108.953 210.968 109.239 211.453 109.385C212.105 109.511 212.766 109.582 213.431 109.597C213.51 109.597 213.587 109.623 213.65 109.672C213.772 109.761 213.913 109.822 214.063 109.849C214.212 109.876 214.365 109.87 214.512 109.83C214.984 109.672 215.477 109.508 215.88 107.708C216.129 106.846 216.201 105.943 216.093 105.053L215.908 101.494L211.405 99.0443Z" fill="black"/>
<path d="M223.128 201.402C223.128 201.402 220.205 206.158 220.205 207.308C220.205 208.457 224.229 210.572 225.954 211.338C227.678 212.105 230.744 212.707 233.235 213.063C235.726 213.419 240.9 214.432 239.394 212.488C237.889 210.545 228.637 205.426 228.253 204.817C227.779 204.248 227.247 203.73 226.666 203.27L223.128 201.402Z" fill="white"/>
<path d="M238.149 213.98C236.689 213.921 235.234 213.759 233.797 213.494L233.181 213.398C229.704 212.865 227.227 212.276 225.817 211.647C225.571 211.537 219.863 208.984 219.863 207.308C219.863 206.097 222.532 201.717 222.833 201.217C222.88 201.144 222.952 201.091 223.035 201.069C223.119 201.046 223.208 201.055 223.285 201.094L226.823 202.969C227.458 203.455 228.035 204.013 228.541 204.632C228.705 204.824 230.211 205.768 231.668 206.685C234.775 208.622 238.635 211.038 239.634 212.283C239.997 212.735 240.086 213.125 239.894 213.446C239.702 213.768 239.1 213.98 238.149 213.98ZM223.23 201.854C222.122 203.688 220.527 206.582 220.527 207.328C220.527 208.074 223.456 209.881 226.07 211.044C227.439 211.647 229.848 212.215 233.27 212.742L233.879 212.837C235.138 213.036 238.97 213.645 239.285 213.111C239.285 213.111 239.285 212.974 239.08 212.721C238.156 211.564 234.187 209.08 231.285 207.246C228.951 205.789 228.116 205.255 227.945 205.002C227.491 204.46 226.982 203.967 226.426 203.53L223.23 201.854Z" fill="black"/>
<path d="M227.706 208.895L228.732 210.428C229.836 212.103 231.336 213.481 233.099 214.439C235.836 215.917 240.051 217.607 243.733 216.594C249.769 214.931 234.577 205.768 234.577 205.768C234.577 205.768 229.164 209.532 227.706 208.895Z" fill="white"/>
<path d="M241.338 217.245C238.299 217.245 235.179 215.972 232.934 214.74C231.125 213.758 229.584 212.348 228.445 210.634L227.418 209.094C227.376 209.035 227.353 208.965 227.353 208.892C227.353 208.82 227.376 208.749 227.418 208.69C227.467 208.633 227.532 208.593 227.605 208.576C227.677 208.559 227.753 208.565 227.822 208.594C228.705 208.978 232.175 207.014 234.358 205.501C234.412 205.464 234.477 205.444 234.542 205.444C234.608 205.444 234.673 205.464 234.727 205.501C235.87 206.186 245.889 212.345 245.458 215.465C245.362 216.15 244.773 216.67 243.802 216.943C242.998 217.154 242.169 217.255 241.338 217.245V217.245ZM228.377 209.279L229.013 210.244C230.089 211.868 231.546 213.205 233.256 214.138C236.048 215.643 240.099 217.238 243.644 216.266C244.712 215.965 244.78 215.499 244.801 215.349C245.109 213.111 237.704 208.081 234.584 206.179C233.495 206.904 230.224 209.06 228.377 209.279Z" fill="black"/>
<path d="M229.444 209.621C231.107 212.136 233.626 213.962 236.534 214.76C241.495 216.177 242.919 215.821 243.98 214.404" fill="white"/>
<path d="M241.27 216.006C239.628 215.913 238.006 215.605 236.445 215.089C233.445 214.279 230.849 212.393 229.15 209.792C229.127 209.753 229.111 209.711 229.105 209.666C229.099 209.622 229.101 209.577 229.113 209.533C229.124 209.49 229.145 209.449 229.172 209.414C229.2 209.378 229.234 209.349 229.273 209.327C229.352 209.281 229.446 209.269 229.534 209.292C229.622 209.315 229.698 209.372 229.745 209.45C231.372 211.879 233.814 213.646 236.63 214.432C241.468 215.8 242.789 215.458 243.706 214.199C243.761 214.128 243.842 214.081 243.932 214.068C244.021 214.056 244.112 214.078 244.185 214.131C244.257 214.185 244.305 214.266 244.318 214.356C244.331 214.446 244.308 214.537 244.253 214.61C243.918 215.08 243.467 215.455 242.945 215.699C242.422 215.944 241.845 216.05 241.27 216.006V216.006Z" fill="black"/>
<path d="M220.582 206.432C220.582 206.432 226.057 210.353 228.732 210.428Z" fill="white"/>
<path d="M228.705 210.771C225.968 210.695 220.595 206.87 220.37 206.712C220.297 206.658 220.249 206.578 220.235 206.488C220.221 206.399 220.242 206.307 220.294 206.233C220.32 206.197 220.352 206.165 220.39 206.141C220.427 206.117 220.469 206.101 220.513 206.093C220.557 206.085 220.602 206.087 220.646 206.097C220.689 206.107 220.73 206.125 220.767 206.151C220.821 206.192 226.193 210.018 228.725 210.086C228.817 210.09 228.903 210.129 228.966 210.196C229.029 210.262 229.063 210.351 229.061 210.442C229.059 210.487 229.048 210.531 229.03 210.572C229.011 210.613 228.984 210.65 228.951 210.68C228.918 210.711 228.879 210.734 228.837 210.75C228.795 210.765 228.75 210.772 228.705 210.771V210.771Z" fill="black"/>
<path d="M208.695 99.8931C208.695 99.8931 213.554 107.948 214.594 109.816C215.634 111.684 228.746 126.678 233.947 139.585C239.148 152.492 244.151 164.139 243.939 167.89C243.726 171.64 226.652 203.27 226.652 203.27L223.114 201.402C223.114 201.402 228.52 171.633 227.904 168.512C227.289 165.392 208.175 134.377 208.175 134.377C208.175 134.377 199.224 128.136 195.48 120.848" fill="black"/>
<path d="M209.386 120.019C209.386 120.019 206.683 125.843 206.683 126.678C206.683 127.513 221.875 172.262 226.248 182.459C229.016 188.991 231.446 195.66 233.53 202.442C233.53 202.442 235.199 204.495 233.947 206.603C232.695 208.71 227.706 210.141 226.666 208.266C225.625 206.39 215.422 196.632 211.056 186.832C206.69 177.032 200.442 160.396 196.897 154.154C192.227 146.163 188.058 137.889 184.414 129.381C179.829 118.562 175.114 106.832 175.114 106.832C181.294 107.349 187.515 106.651 193.427 104.779C203.008 101.658 207.114 95.6841 207.114 95.6841C207.114 95.6841 209.55 101.912 210.173 103.116" fill="black"/>
<path d="M210.816 137.593C210.769 137.593 210.723 137.578 210.684 137.551C210.645 137.525 210.615 137.487 210.597 137.443L205.807 124.988C205.79 124.942 205.788 124.891 205.8 124.844C205.812 124.796 205.839 124.754 205.875 124.721L211.24 120.122C211.286 120.08 211.346 120.056 211.408 120.056C211.47 120.056 211.53 120.08 211.576 120.122C211.618 120.167 211.641 120.225 211.641 120.286C211.641 120.347 211.618 120.406 211.576 120.451L206.334 124.947L211.063 137.265C211.085 137.323 211.084 137.388 211.06 137.445C211.036 137.503 210.99 137.549 210.933 137.573L210.816 137.593Z" fill="white"/>
<path d="M206.019 125.132C205.961 125.132 205.904 125.11 205.862 125.07C205.838 125.048 205.819 125.022 205.806 124.992C205.793 124.963 205.786 124.931 205.786 124.899C205.786 124.865 205.786 121.108 204.103 118.74C203.685 118.131 203.35 117.652 203.07 117.262C202.194 116.016 201.927 115.64 201.769 115.017C201.661 114.289 201.661 113.548 201.769 112.82C201.781 112.76 201.815 112.706 201.864 112.669C201.914 112.632 201.975 112.616 202.036 112.622C202.067 112.626 202.096 112.636 202.123 112.652C202.15 112.668 202.173 112.689 202.191 112.714C202.21 112.738 202.223 112.767 202.231 112.797C202.238 112.827 202.239 112.858 202.235 112.889C202.138 113.558 202.138 114.238 202.235 114.908C202.371 115.441 202.604 115.77 203.466 116.995C203.74 117.385 204.082 117.864 204.5 118.473C206.019 120.656 206.231 123.79 206.265 124.687L215.99 124.31C216.052 124.31 216.112 124.333 216.157 124.375C216.203 124.417 216.231 124.475 216.236 124.536C216.238 124.567 216.234 124.598 216.223 124.627C216.213 124.656 216.196 124.682 216.175 124.705C216.154 124.727 216.128 124.745 216.1 124.757C216.072 124.77 216.041 124.776 216.01 124.776L206.046 125.159L206.019 125.132Z" fill="white"/>
<path d="M238.607 169.436C234.275 169.436 228.773 166.63 228.527 166.507C228.473 166.478 228.432 166.429 228.414 166.37C228.396 166.31 228.402 166.247 228.431 166.192C228.445 166.165 228.464 166.14 228.487 166.12C228.511 166.1 228.538 166.085 228.567 166.075C228.596 166.066 228.627 166.062 228.658 166.064C228.689 166.067 228.719 166.075 228.746 166.09C228.808 166.124 235.062 169.313 239.346 168.936C239.378 168.934 239.409 168.937 239.439 168.947C239.468 168.956 239.496 168.972 239.52 168.992C239.543 169.013 239.562 169.038 239.576 169.066C239.59 169.094 239.598 169.124 239.6 169.155C239.602 169.186 239.599 169.217 239.59 169.246C239.581 169.276 239.566 169.303 239.546 169.326C239.527 169.35 239.502 169.369 239.475 169.383C239.448 169.398 239.418 169.406 239.388 169.409C239.134 169.429 238.874 169.436 238.607 169.436Z" fill="white"/>
<path d="M238.026 173.049H237.971C234.132 172.084 229.821 168.553 229.636 168.403C229.594 168.358 229.571 168.3 229.571 168.238C229.571 168.177 229.594 168.119 229.636 168.074C229.655 168.05 229.679 168.03 229.706 168.016C229.733 168.001 229.762 167.992 229.793 167.989C229.823 167.986 229.854 167.988 229.884 167.997C229.913 168.006 229.94 168.021 229.964 168.04C230.005 168.074 234.378 171.66 238.115 172.591C238.145 172.599 238.172 172.613 238.197 172.631C238.221 172.65 238.242 172.674 238.257 172.7C238.272 172.727 238.282 172.757 238.286 172.787C238.29 172.818 238.287 172.849 238.279 172.878C238.266 172.933 238.233 172.982 238.186 173.013C238.139 173.045 238.082 173.058 238.026 173.049Z" fill="white"/>
<path d="M205.827 121.491C205.79 121.491 205.754 121.482 205.72 121.466C205.687 121.449 205.658 121.425 205.636 121.395C205.618 121.37 205.605 121.341 205.598 121.31C205.592 121.28 205.591 121.248 205.597 121.218C205.603 121.187 205.615 121.158 205.632 121.132C205.649 121.106 205.671 121.084 205.697 121.067C206.621 120.423 208.086 119.185 208.086 118.576C208.086 118.172 207.586 117.693 207.052 117.207C206.462 116.714 205.973 116.109 205.615 115.428C205.266 114.613 204.014 111.417 204.247 110.637C204.256 110.608 204.271 110.581 204.291 110.557C204.311 110.534 204.335 110.515 204.362 110.501C204.39 110.487 204.42 110.478 204.45 110.476C204.481 110.473 204.512 110.477 204.541 110.487C204.601 110.507 204.65 110.55 204.678 110.606C204.706 110.663 204.711 110.728 204.691 110.788C204.548 111.205 205.294 113.525 206.026 115.222C206.361 115.841 206.811 116.389 207.354 116.837C207.99 117.446 208.537 117.967 208.537 118.569C208.537 119.623 206.211 121.258 205.944 121.443C205.91 121.469 205.87 121.485 205.827 121.491V121.491Z" fill="white"/>
<path d="M183.025 122.832C182.976 122.834 182.927 122.82 182.886 122.793C182.845 122.765 182.814 122.725 182.797 122.679C182.78 122.632 182.778 122.581 182.792 122.534C182.806 122.487 182.835 122.445 182.874 122.415L184.791 120.882C186.632 119.417 187.768 115.674 187.781 115.633C187.8 115.574 187.841 115.524 187.896 115.495C187.951 115.465 188.016 115.458 188.075 115.475C188.135 115.494 188.184 115.536 188.214 115.591C188.243 115.646 188.25 115.71 188.233 115.77C188.185 115.927 187.035 119.691 185.085 121.244L183.169 122.777C183.129 122.812 183.078 122.831 183.025 122.832V122.832Z" fill="white"/>
<path d="M228.52 209.197C228.486 209.195 228.452 209.187 228.422 209.171C228.391 209.156 228.364 209.134 228.342 209.108C225.892 206.104 223.68 202.915 221.725 199.568C219.076 194.832 211.46 181.878 211.377 181.775C210.672 180.216 210.148 178.581 209.817 176.902C209.769 176.642 209.735 176.403 209.701 176.218C209.448 174.493 209.338 173.782 207.046 172.304C204.753 170.825 204.609 168.252 204.418 165.494C204.377 164.844 204.329 164.174 204.253 163.51C203.945 160.772 196.678 148.454 191.374 139.503C190.17 137.45 189.075 135.616 188.185 134.09C183.436 125.919 180.151 115.175 180.117 115.065C180.099 115.005 180.106 114.941 180.136 114.886C180.165 114.831 180.215 114.79 180.274 114.771C180.303 114.761 180.334 114.758 180.364 114.761C180.395 114.764 180.425 114.773 180.452 114.788C180.478 114.802 180.502 114.822 180.521 114.847C180.54 114.871 180.554 114.899 180.561 114.928C180.596 115.038 183.867 125.734 188.589 133.85C189.478 135.376 190.573 137.231 191.778 139.263C197.109 148.263 204.404 160.594 204.719 163.455C204.794 164.139 204.842 164.824 204.89 165.467C205.075 168.204 205.232 170.586 207.299 171.913C209.769 173.501 209.892 174.329 210.166 176.143C210.166 176.369 210.235 176.601 210.276 176.861C210.601 178.49 211.11 180.077 211.795 181.59C211.856 181.706 219.48 194.661 222.135 199.383C224.078 202.702 226.274 205.867 228.705 208.848C228.724 208.871 228.739 208.899 228.748 208.928C228.757 208.957 228.759 208.988 228.756 209.019C228.753 209.049 228.744 209.079 228.729 209.106C228.715 209.133 228.695 209.157 228.671 209.176C228.624 209.199 228.571 209.206 228.52 209.197V209.197Z" fill="white"/>
<path d="M175.114 106.832C175.114 106.832 175.552 111.677 177.468 113.21C179.384 114.743 185.133 116.084 192.989 114.579C200.845 113.073 209.468 106.367 210.235 104.04C211.001 101.713 207.1 95.6909 207.1 95.6909C207.1 95.6909 202.57 102.124 189.923 104.232C177.277 106.339 175.114 106.832 175.114 106.832Z" fill="white"/>
<path d="M186.33 115.571C181.697 115.571 178.522 114.497 177.249 113.477C175.244 111.869 174.792 107.072 174.772 106.866C174.765 106.785 174.787 106.703 174.835 106.637C174.882 106.57 174.952 106.523 175.032 106.504C175.121 106.504 177.352 105.949 189.868 103.862C202.187 101.809 206.772 95.5269 206.82 95.4653C206.852 95.421 206.894 95.3849 206.943 95.36C206.992 95.335 207.045 95.3219 207.1 95.3216V95.3216C207.156 95.3228 207.211 95.3378 207.26 95.3653C207.309 95.3927 207.351 95.4318 207.381 95.479C207.791 96.1086 211.35 101.734 210.556 104.122C209.714 106.641 200.893 113.354 193.051 114.887C190.838 115.33 188.587 115.559 186.33 115.571V115.571ZM175.49 107.106C175.62 108.16 176.175 111.732 177.68 112.943C179.391 114.312 184.873 115.79 192.921 114.216C200.832 112.67 209.229 105.956 209.913 103.903C210.454 102.275 208.243 98.1616 207.066 96.2591C205.848 97.7168 200.962 102.713 189.957 104.54C179.815 106.237 176.407 106.88 175.49 107.106V107.106Z" fill="black"/>
<path d="M225.625 59.8659C222.498 57.8128 198.149 38.8428 195.857 38.0079C193.564 37.173 189.013 38.0079 189.013 38.0079C189.013 38.0079 174.902 39.7325 171.946 40.9232C171.665 41.0327 165.307 44.6871 165.102 44.8787C162.81 46.7538 152.784 51.3663 150.088 57.1969C147.029 63.794 173.91 103.513 175.162 106.839C176.414 110.165 182.977 110.986 189.013 110.151C195.049 109.317 200.346 108.098 204.719 103.096C205.512 102.099 206.176 101.007 206.697 99.8452C207.321 98.5467 207.481 97.0728 207.148 95.6707C205.588 89.1695 201.605 70.4253 198.977 58.0318C203.357 60.8581 212.466 66.5998 217.762 68.6255C224.839 71.3628 230.252 69.4604 230.252 67.1678C230.252 64.8752 228.746 61.9463 225.625 59.8659Z" fill="white"/>
<path d="M217.174 63.9104C213.001 63.4986 208.96 62.2239 205.307 60.167C205.307 60.167 210.72 57.6691 210.926 56.4168C211.131 55.1644 203.432 56.2115 204.472 55.794C205.512 55.3766 206.97 54.3364 204.472 54.3364C202.481 54.2054 200.519 53.7859 198.648 53.0909L198.929 58.0113C201.311 59.5511 205.088 61.9395 208.879 64.1294C212.445 66.0041 216.117 67.6699 219.877 69.1182C219.877 69.1182 224.455 64.7453 217.174 63.9104Z" fill="#5546FF"/>
<g style="mix-blend-mode:multiply">
<path d="M188.965 110.144L189.738 110.035C191.408 109.227 194.235 108.721 196.986 108.037C201.146 106.996 196.568 106.996 189.697 103.458C182.827 99.9202 180.117 94.7192 173.875 87.2256C167.634 79.7321 165.136 75.9819 166.389 75.1538C167.641 74.3258 163.891 74.3189 162.433 73.484C160.975 72.6491 164.486 72.656 167.429 69.7406C170.371 66.8253 161.803 70.3634 160.975 70.1581C160.147 69.9528 161.803 67.2428 161.803 67.2428L155.768 73.484L170.337 98.4626L171.172 99.0853L172.13 100.454L174.868 106.339C174.977 106.545 175.052 106.716 175.1 106.832C176.359 110.165 182.929 110.986 188.965 110.144Z" fill="#5546FF"/>
</g>
<path d="M161.372 51.948C165.978 51.2637 178.816 58.5862 178.816 58.5862C171.761 53.7958 165.588 49.3065 161.366 47.2808L153.585 52.7556L153.051 53.2551C153.954 53.0772 157.417 52.5092 161.372 51.948Z" fill="#5546FF"/>
<path opacity="0.5" d="M217.174 63.9104C213.001 63.4986 208.96 62.2239 205.307 60.167C205.307 60.167 210.72 57.6691 210.926 56.4168C211.131 55.1644 203.432 56.2115 204.472 55.794C205.512 55.3766 206.97 54.3364 204.472 54.3364C202.481 54.2054 200.519 53.7859 198.648 53.0909L198.929 58.0113C201.311 59.5511 205.088 61.9395 208.879 64.1294C212.445 66.0041 216.117 67.6699 219.877 69.1182C219.877 69.1182 224.455 64.7453 217.174 63.9104Z" fill="white"/>
<path opacity="0.5" d="M188.965 110.144L189.738 110.035C191.408 109.227 194.235 108.721 196.986 108.037C201.146 106.996 196.568 106.996 189.697 103.458C182.827 99.9202 180.117 94.7192 173.875 87.2256C167.634 79.7321 165.136 75.9819 166.389 75.1538C167.641 74.3258 163.891 74.3189 162.433 73.484C160.975 72.6491 164.486 72.656 167.429 69.7406C170.371 66.8253 161.803 70.3634 160.975 70.1581C160.147 69.9528 161.803 67.2428 161.803 67.2428L155.768 73.484L170.337 98.4626L171.172 99.0853L172.13 100.454L174.868 106.339C174.977 106.545 175.052 106.716 175.1 106.832C176.359 110.165 182.929 110.986 188.965 110.144Z" fill="white"/>
<path opacity="0.5" d="M161.372 51.948C165.978 51.2637 178.816 58.5862 178.816 58.5862C171.761 53.7958 165.588 49.3065 161.366 47.2808L153.585 52.7556L153.051 53.2551C153.954 53.0772 157.417 52.5092 161.372 51.948Z" fill="white"/>
<path d="M184.585 110.795C179.973 110.795 175.819 109.693 174.792 106.955C174.491 106.148 172.466 102.849 169.899 98.7023C158.998 81.0188 147.549 61.7477 149.732 57.0463C151.785 52.6117 157.855 48.9505 161.872 46.5279C162.896 45.9463 163.885 45.3066 164.835 44.6117C165.082 44.4133 171.453 40.7452 171.795 40.6083C174.765 39.4107 188.37 37.7409 188.952 37.6725C189.123 37.6383 193.626 36.8307 195.973 37.6725C197.492 38.2268 207.901 46.1036 216.264 52.4338C220.794 55.8555 224.702 58.8256 225.81 59.5646C229.3 61.8914 230.546 64.9983 230.546 67.1335C230.521 67.5298 230.398 67.9137 230.187 68.2505C229.977 68.5874 229.686 68.8667 229.341 69.0633C227.323 70.432 222.909 70.9453 217.591 68.9128C213.875 67.4893 207.607 63.9787 199.436 58.7297C202.173 71.7665 205.93 89.3268 207.429 95.568C207.782 97.0477 207.615 98.6037 206.957 99.9752C206.422 101.169 205.732 102.288 204.904 103.301C200.332 108.523 194.768 109.672 188.993 110.466C187.533 110.677 186.06 110.786 184.585 110.795V110.795ZM193.071 37.9804C191.725 38.0008 190.382 38.122 189.054 38.3431C188.89 38.3431 174.936 40.0745 172.048 41.2379C171.672 41.409 165.574 44.9197 165.266 45.1455C164.292 45.8615 163.275 46.5174 162.221 47.1096C158.279 49.4911 152.325 53.0908 150.355 57.3747C148.137 62.1652 162.673 85.7134 170.481 98.3806C173.266 102.897 175.107 105.908 175.436 106.75C176.647 109.98 183.271 110.617 188.917 109.837C194.563 109.056 199.997 107.941 204.411 102.897C205.187 101.925 205.835 100.858 206.341 99.7219C206.929 98.4952 207.079 97.1039 206.765 95.7801C205.232 89.402 201.372 71.2327 198.594 58.1412C198.58 58.0743 198.587 58.005 198.612 57.9418C198.638 57.8785 198.682 57.8241 198.738 57.7853C198.793 57.7486 198.859 57.7289 198.926 57.7289C198.993 57.7289 199.058 57.7486 199.114 57.7853C207.586 63.2601 214.06 66.9077 217.838 68.3448C222.888 70.2815 227.145 69.823 228.951 68.5775C229.2 68.4371 229.412 68.24 229.57 68.0021C229.729 67.7643 229.828 67.4925 229.862 67.2088C229.862 65.2515 228.698 62.3841 225.434 60.2079C224.305 59.4552 220.39 56.4919 215.853 53.0565C207.963 47.0891 197.164 38.9111 195.74 38.391C194.879 38.1095 193.977 37.9708 193.071 37.9804V37.9804Z" fill="black"/>
<path d="M153.386 52.9333C153.386 52.9333 150.888 55.6707 149.916 56.9367C144.702 63.6364 128.106 85.1043 127.922 86.8357C127.737 88.5671 128.524 89.7305 132.582 91.2908C136.64 92.8511 163.788 65.6484 163.788 65.6484" fill="white"/>
<g style="mix-blend-mode:multiply" opacity="0.8">
<path d="M153.427 53.0156L153.078 53.2415C152.572 53.8026 151.477 55.0276 150.628 56.0336L138.023 72.5673C138.023 72.5673 137.633 73.0053 137.017 73.7307C132.288 80.0335 128.168 85.7204 127.915 86.7333C127.915 86.7675 127.915 86.8017 127.915 86.8291C127.751 88.4646 128.544 89.7101 132.582 91.2636C133.301 91.5373 134.724 90.9214 136.592 89.7238C135.643 89.533 134.736 89.1712 133.917 88.6563C131.624 87.1986 133.499 85.741 133.499 85.741C133.499 85.741 136.476 86.9317 139.412 87.7324C140.021 87.2739 140.657 86.7812 141.307 86.2611C140.682 85.8514 140.09 85.3938 139.535 84.8924C137.037 82.6067 134.957 80.3141 134.957 80.3141L154.036 53.6863L153.427 53.0156Z" fill="#5546FF"/>
</g>
<path opacity="0.5" d="M153.427 53.0156L153.078 53.2415C152.572 53.8026 151.477 55.0276 150.628 56.0336L138.023 72.5673C138.023 72.5673 137.633 73.0053 137.017 73.7307C132.288 80.0335 128.168 85.7204 127.915 86.7333C127.915 86.7675 127.915 86.8017 127.915 86.8291C127.751 88.4646 128.544 89.7101 132.582 91.2636C133.301 91.5373 134.724 90.9214 136.592 89.7238C135.643 89.533 134.736 89.1712 133.917 88.6563C131.624 87.1986 133.499 85.741 133.499 85.741C133.499 85.741 136.476 86.9317 139.412 87.7324C140.021 87.2739 140.657 86.7812 141.307 86.2611C140.682 85.8514 140.09 85.3938 139.535 84.8924C137.037 82.6067 134.957 80.3141 134.957 80.3141L154.036 53.6863L153.427 53.0156Z" fill="white"/>
<path d="M132.897 91.6878C132.743 91.6897 132.59 91.6642 132.445 91.6126C128.668 90.1549 127.34 88.8752 127.566 86.8222C127.751 85.1181 141.472 67.2499 149.629 56.7521C150.601 55.5066 153.017 52.8445 153.119 52.735C153.148 52.6986 153.185 52.6686 153.226 52.6468C153.267 52.625 153.312 52.6118 153.359 52.6081C153.405 52.6044 153.452 52.6103 153.496 52.6253C153.54 52.6404 153.581 52.6643 153.616 52.6956C153.65 52.7269 153.678 52.7649 153.697 52.8074C153.717 52.8498 153.727 52.8958 153.728 52.9424C153.729 52.989 153.72 53.0353 153.703 53.0785C153.685 53.1217 153.659 53.1608 153.626 53.1935C153.626 53.1935 151.121 55.9309 150.17 57.1764C136.989 74.1344 128.38 85.8025 128.271 86.8974C128.113 88.3551 128.791 89.4911 132.719 91.0035C135.545 92.0916 152.709 76.3038 163.555 65.4296C163.62 65.3651 163.707 65.3289 163.798 65.3289C163.889 65.3289 163.977 65.3651 164.041 65.4296C164.106 65.494 164.142 65.5814 164.142 65.6725C164.142 65.7636 164.106 65.851 164.041 65.9154C161.324 68.5981 138.139 91.6878 132.897 91.6878Z" fill="black"/>
<path d="M208.318 51.688L198.929 58.0113C200.298 57.8197 206.785 55.5203 206.785 55.5203" fill="white"/>
<path d="M198.929 58.3535C198.86 58.3545 198.793 58.334 198.736 58.2947C198.68 58.2554 198.637 58.1994 198.614 58.1345C198.586 58.0633 198.582 57.9843 198.604 57.9108C198.627 57.8373 198.674 57.7737 198.738 57.7307L208.134 51.4074C208.17 51.3816 208.212 51.3635 208.255 51.354C208.299 51.3446 208.344 51.3439 208.388 51.3522C208.432 51.3605 208.474 51.3775 208.512 51.4023C208.549 51.4271 208.581 51.459 208.606 51.4964C208.656 51.5729 208.674 51.6659 208.656 51.7554C208.638 51.845 208.585 51.924 208.51 51.9754L200.811 57.1627C203.172 56.4373 206.628 55.2192 206.676 55.1987C206.767 55.1687 206.866 55.176 206.951 55.219C207.036 55.262 207.101 55.3372 207.131 55.4279C207.161 55.5187 207.154 55.6176 207.111 55.7029C207.068 55.7883 206.993 55.8531 206.902 55.883C206.635 55.972 200.339 58.1961 198.977 58.3877L198.929 58.3535Z" fill="black"/>
<path d="M207.935 55.6709C207.856 55.6693 207.779 55.6406 207.718 55.5896C207.657 55.5386 207.615 55.4682 207.6 55.3903C207.584 55.3014 207.604 55.2098 207.655 55.1354C207.706 55.0611 207.785 55.01 207.874 54.9934L209.981 54.6101C210.071 54.594 210.164 54.6136 210.239 54.6648C210.315 54.7159 210.367 54.7946 210.385 54.8839C210.394 54.9289 210.394 54.9752 210.384 55.0201C210.375 55.065 210.357 55.1075 210.33 55.1452C210.304 55.1829 210.271 55.2149 210.232 55.2393C210.193 55.2638 210.15 55.2802 210.105 55.2876L207.997 55.6709H207.935Z" fill="black"/>
<path d="M138.372 80.1907C136.923 80.1475 135.482 80.4207 134.149 80.9914Z" fill="white"/>
<path d="M134.149 81.3542C134.058 81.3714 133.965 81.3519 133.888 81.2999C133.812 81.248 133.759 81.1678 133.742 81.077C133.725 80.9863 133.744 80.8924 133.796 80.816C133.848 80.7397 133.928 80.6871 134.019 80.6699C135.401 80.0764 136.896 79.7937 138.399 79.8418C138.444 79.8453 138.488 79.8576 138.528 79.878C138.568 79.8985 138.604 79.9267 138.633 79.9611C138.662 79.9954 138.685 80.0352 138.698 80.0782C138.712 80.1211 138.717 80.1664 138.714 80.2113C138.705 80.3015 138.662 80.3848 138.593 80.4435C138.524 80.5023 138.435 80.5319 138.344 80.5261C136.951 80.4857 135.566 80.7496 134.286 81.2994C134.245 81.3278 134.198 81.3466 134.149 81.3542V81.3542Z" fill="black"/>
<path d="M158.833 70.8082C158.833 70.8082 164.11 69.1932 165.506 68.1188Z" fill="white"/>
<path d="M158.833 71.1504C158.743 71.1631 158.651 71.1392 158.578 71.084C158.504 71.0289 158.456 70.9469 158.443 70.8561C158.431 70.7654 158.455 70.6733 158.51 70.6001C158.565 70.527 158.647 70.4787 158.738 70.466C158.786 70.466 163.966 68.8647 165.301 67.8382C165.372 67.783 165.463 67.7585 165.553 67.77C165.643 67.7816 165.724 67.8282 165.78 67.8997C165.833 67.9721 165.856 68.0624 165.845 68.1516C165.834 68.2409 165.788 68.3223 165.718 68.3788C164.281 69.4806 159.155 71.0546 158.936 71.1162C158.905 71.1345 158.87 71.1461 158.833 71.1504V71.1504Z" fill="black"/>
<path d="M166.799 67.5852C166.799 67.5852 167.662 66.8325 167.983 66.8325Z" fill="white"/>
<path d="M166.799 67.9274C166.75 67.9269 166.702 67.9164 166.657 67.8963C166.612 67.8763 166.572 67.8473 166.539 67.811C166.476 67.7459 166.441 67.6588 166.441 67.5681C166.441 67.4774 166.476 67.3903 166.539 67.3251C166.926 66.926 167.413 66.6377 167.949 66.4902C168.04 66.4902 168.127 66.5263 168.191 66.5905C168.255 66.6546 168.291 66.7417 168.291 66.8324C168.289 66.9226 168.253 67.0086 168.189 67.0724C168.125 67.1362 168.039 67.1728 167.949 67.1746C167.596 67.3523 167.273 67.5831 166.991 67.8589C166.936 67.9014 166.869 67.9254 166.799 67.9274V67.9274Z" fill="black"/>
<path d="M198.929 58.3535C198.844 58.3524 198.763 58.3206 198.7 58.264C198.637 58.2073 198.597 58.1297 198.587 58.0456L197.732 49.2517C197.727 49.2068 197.731 49.1614 197.745 49.1182C197.758 49.075 197.779 49.0347 197.808 48.9998C197.836 48.9648 197.871 48.9358 197.911 48.9145C197.951 48.8932 197.995 48.8799 198.04 48.8754C198.084 48.8709 198.13 48.8753 198.173 48.8883C198.216 48.9014 198.257 48.9228 198.292 48.9514C198.326 48.98 198.355 49.0152 198.377 49.055C198.398 49.0948 198.411 49.1384 198.416 49.1833L199.278 57.984C199.283 58.0286 199.279 58.0737 199.266 58.1166C199.253 58.1595 199.231 58.1994 199.202 58.2338C199.174 58.2683 199.138 58.2966 199.098 58.3172C199.059 58.3378 199.015 58.3501 198.97 58.3535H198.929Z" fill="black"/>
<path d="M127.901 86.9246C127.901 86.9246 126.69 91.5576 134.457 93.4806C138.146 94.3908 162.556 100.324 162.556 100.324C162.556 100.324 164.739 95.6431 163.494 95.6431C162.248 95.6431 139.74 80.6765 139.74 80.6765" fill="white"/>
<path d="M131.528 92.4609L159.833 99.6876L160.585 97.8946C160.585 97.8946 149.923 95.7594 143.265 92.4198C136.606 89.0802 136.182 90.1273 133.896 88.6765C131.61 87.2257 133.479 85.7612 133.479 85.7612C133.479 85.7612 139.727 88.259 143.059 88.4643C146.392 88.6696 142.019 87.2188 139.521 84.9263C138.488 83.9819 137.53 83.0306 136.784 82.2505L127.887 86.9177C127.887 86.9177 127.025 90.2778 131.528 92.4609Z" fill="#5546FF"/>
<path opacity="0.5" d="M131.528 92.4609L159.833 99.6876L160.585 97.8946C160.585 97.8946 149.923 95.7594 143.265 92.4198C136.606 89.0802 136.182 90.1273 133.896 88.6765C131.61 87.2257 133.479 85.7612 133.479 85.7612C133.479 85.7612 139.727 88.259 143.059 88.4643C146.392 88.6696 142.019 87.2188 139.521 84.9263C138.488 83.9819 137.53 83.0306 136.784 82.2505L127.887 86.9177C127.887 86.9177 127.025 90.2778 131.528 92.4609Z" fill="white"/>
<path d="M162.556 100.721H162.474C162.474 100.721 138.064 94.7604 134.375 93.8776C131.295 93.118 129.208 91.8246 128.175 90.1069C127.573 89.1552 127.358 88.0094 127.573 86.9041C127.597 86.817 127.654 86.7426 127.732 86.6967C127.809 86.6507 127.902 86.6368 127.99 86.6578C128.077 86.6818 128.151 86.7391 128.196 86.8173C128.24 86.8954 128.253 86.9881 128.23 87.0752V87.0752C128.075 88.0107 128.27 88.9705 128.777 89.7715C129.715 91.3455 131.658 92.5089 134.539 93.1932C137.961 94.0487 159.668 99.3523 162.365 99.9956C163.206 98.1342 163.733 96.3275 163.494 96.047C162.194 96.047 143.34 83.5235 139.576 80.9914C139.501 80.94 139.448 80.861 139.43 80.7714C139.412 80.6819 139.43 80.5889 139.48 80.5124C139.505 80.475 139.537 80.4431 139.574 80.4183C139.612 80.3935 139.654 80.3765 139.698 80.3682C139.742 80.3599 139.787 80.3605 139.831 80.37C139.874 80.3795 139.916 80.3976 139.952 80.4234C148.815 86.3293 162.406 95.1778 163.508 95.3489C163.619 95.3506 163.729 95.3796 163.826 95.4333C163.924 95.4869 164.007 95.5637 164.069 95.6569C164.637 96.5534 163.289 99.6056 162.857 100.523C162.831 100.58 162.788 100.63 162.735 100.665C162.682 100.7 162.62 100.719 162.556 100.721V100.721Z" fill="black"/>
<path d="M163.494 95.6638C163.494 95.6638 171.507 99.414 172.13 100.454C172.753 101.494 174.183 106.901 174.183 108.571C174.183 110.24 173.978 110.233 172.938 110.233C171.898 110.233 169.188 106.278 168.565 105.443C167.942 104.608 166.512 104.608 164.609 103.39C164.079 103.054 163.624 102.613 163.271 102.093C162.917 101.574 162.674 100.989 162.556 100.372L163.494 95.6638Z" fill="white"/>
<path d="M172.965 110.576C172.069 110.576 170.591 108.79 168.647 106.107C168.51 105.915 168.401 105.758 168.319 105.655C167.928 105.266 167.438 104.992 166.902 104.861C166.039 104.555 165.214 104.148 164.445 103.65C163.869 103.288 163.374 102.811 162.99 102.25C162.607 101.688 162.342 101.054 162.214 100.386C162.211 100.352 162.211 100.317 162.214 100.283L163.152 95.5954C163.162 95.545 163.184 95.4975 163.214 95.4561C163.245 95.4147 163.284 95.3806 163.33 95.3559C163.376 95.3324 163.428 95.3202 163.48 95.3202C163.533 95.3202 163.584 95.3324 163.631 95.3559C164.999 95.9855 171.774 99.2019 172.418 100.276C173.061 101.351 174.546 106.853 174.546 108.571C174.546 110.288 174.231 110.576 172.965 110.576ZM162.905 100.358C163.027 100.92 163.26 101.451 163.591 101.921C163.921 102.391 164.342 102.791 164.828 103.096C165.555 103.563 166.333 103.945 167.148 104.232C167.807 104.403 168.403 104.759 168.866 105.258C168.948 105.361 169.064 105.518 169.201 105.717C171.706 109.18 172.623 109.905 172.965 109.905C173.869 109.905 173.869 109.905 173.869 108.584C173.869 106.969 172.445 101.652 171.816 100.639C171.419 99.9547 166.799 97.6279 163.72 96.1703L162.905 100.358Z" fill="black"/>
<path d="M160.072 99.886C160.038 99.8925 160.004 99.8925 159.97 99.886C159.926 99.8729 159.886 99.8511 159.852 99.8221C159.817 99.7931 159.789 99.7574 159.768 99.7171C159.748 99.6768 159.736 99.6329 159.733 99.5878C159.73 99.5428 159.736 99.4975 159.751 99.4549L160.996 95.5884C161.009 95.5441 161.03 95.5029 161.059 95.4671C161.088 95.4313 161.124 95.4017 161.165 95.3801C161.205 95.3585 161.25 95.3454 161.296 95.3414C161.341 95.3374 161.388 95.3427 161.431 95.357C161.475 95.3712 161.515 95.3942 161.55 95.4244C161.585 95.4547 161.613 95.4916 161.633 95.533C161.653 95.5744 161.665 95.6195 161.667 95.6654C161.669 95.7114 161.662 95.7573 161.646 95.8005L160.401 99.6671C160.375 99.7325 160.329 99.7884 160.27 99.8275C160.212 99.8665 160.143 99.887 160.072 99.886V99.886Z" fill="black"/>
<path d="M220.835 66.504C220.835 66.504 218.782 73.5802 217.92 77.741C217.057 81.9018 211.261 98.5587 211.261 98.5587L216.257 101.679C216.257 101.679 227.288 78.8222 229.389 73.8128C231.49 68.8034 230.847 65.0669 228.767 62.9865" fill="white"/>
<path d="M216.257 102.042C216.194 102.041 216.132 102.022 216.079 101.987L211.083 98.8667C211.017 98.8258 210.966 98.7635 210.94 98.6901C210.914 98.6167 210.914 98.5366 210.939 98.4629C210.994 98.2987 216.77 81.7855 217.584 77.7C218.399 73.6144 220.493 66.5041 220.493 66.4288C220.518 66.3381 220.579 66.2611 220.661 66.2149C220.743 66.1687 220.84 66.157 220.931 66.1824C221.022 66.2079 221.099 66.2683 221.145 66.3504C221.191 66.4325 221.203 66.5297 221.177 66.6204C221.177 66.6889 219.09 73.7308 218.269 77.83C217.489 81.7376 212.459 96.232 211.685 98.4356L216.127 101.207C217.495 98.3261 227.152 78.2748 229.068 73.676C230.915 69.2346 230.717 65.4639 228.52 63.2261C228.457 63.1626 228.421 63.0764 228.421 62.9866C228.421 62.8967 228.457 62.8106 228.52 62.747C228.584 62.6835 228.67 62.6478 228.76 62.6478C228.85 62.6478 228.936 62.6835 228.999 62.747C231.408 65.1491 231.661 69.2346 229.684 73.9429C227.631 78.8907 216.681 101.618 216.565 101.85C216.544 101.894 216.515 101.932 216.478 101.963C216.442 101.994 216.399 102.016 216.353 102.028L216.257 102.042Z" fill="black"/>
<path d="M212.206 96.1769C212.582 96.1769 217.324 98.7911 217.324 98.7911Z" fill="black"/>
<path d="M179.384 58.5862C178.235 58.3946 172.096 54.3707 167.881 51.1132C163.665 47.8557 161.366 47.2809 161.366 47.2809L158.491 49.197C158.057 47.7965 158.194 46.2806 158.875 44.9815C160.024 42.8737 164.048 40.7659 168.072 39.233C172.096 37.7 176.695 36.3929 179.576 36.3929C182.457 36.3929 183.217 37.5426 183.217 39.0756C183.217 40.6085 183.217 45.3989 182.259 49.0396C181.301 52.6803 179.384 58.5862 179.384 58.5862Z" fill="white"/>
<g style="mix-blend-mode:multiply">
<path d="M177.578 38.6033C177.578 38.6033 175.805 43.9138 174.033 45.5084C172.664 46.6561 171.183 47.6626 169.612 48.5126C169.612 48.5126 168.551 44.7966 165.896 44.7966C163.241 44.7966 159.169 46.5691 159.169 46.5691C159.169 46.5691 159.169 45.1525 162.529 43.3801L165.896 41.6145L173.684 38.6033H177.578Z" fill="#5546FF"/>
</g>
<path opacity="0.5" d="M177.578 38.6033C177.578 38.6033 175.805 43.9138 174.033 45.5084C172.664 46.6561 171.183 47.6626 169.612 48.5126C169.612 48.5126 168.551 44.7966 165.896 44.7966C163.241 44.7966 159.169 46.5691 159.169 46.5691C159.169 46.5691 159.169 45.1525 162.529 43.3801L165.896 41.6145L173.684 38.6033H177.578Z" fill="white"/>
<path d="M179.384 58.9282H179.323C178.05 58.716 171.747 54.5347 167.689 51.4004C164.165 48.663 161.988 47.8486 161.434 47.6707L158.697 49.4979C158.652 49.5249 158.602 49.5425 158.55 49.5496C158.499 49.5566 158.446 49.553 158.396 49.539C158.346 49.5221 158.302 49.4942 158.265 49.4574C158.228 49.4206 158.2 49.376 158.183 49.3268C157.949 48.5881 157.864 47.8101 157.933 47.0382C158.002 46.2662 158.225 45.5158 158.587 44.8307C159.956 42.2712 165.061 40.0403 167.97 38.9248C170.255 38.0557 175.963 36.03 179.603 36.03C182.279 36.03 183.586 37.0155 183.586 39.0548C183.586 40.6288 183.586 45.4261 182.614 49.1078C181.643 52.7896 179.754 58.6476 179.733 58.6887C179.712 58.7626 179.665 58.8268 179.601 58.8704C179.538 58.9141 179.461 58.9345 179.384 58.9282V58.9282ZM161.366 46.9385H161.448C161.544 46.9385 163.87 47.5681 168.093 50.8324C172.055 53.8914 177.578 57.5321 179.159 58.1549C179.569 56.8683 181.109 51.9958 181.896 48.9025C182.847 45.3097 182.847 40.5809 182.847 39.0275C182.847 37.8709 182.457 36.687 179.549 36.687C177.071 36.687 172.924 37.7272 168.168 39.5407C163.412 41.3542 160.093 43.4004 159.148 45.1318C158.582 46.2072 158.412 47.4477 158.669 48.6356L161.147 46.9864C161.212 46.9458 161.289 46.9288 161.366 46.9385Z" fill="black"/>
<path d="M162.324 34.2644C164.569 36.7403 166.144 39.7483 166.902 43.0035C168.147 48.4166 175.976 54.781 177.851 54.781C179.726 54.781 179.596 45.5013 178.974 42.7982C178.351 40.095 175.853 32.8068 175.853 32.8068C175.853 32.8068 165.889 28.0164 162.324 34.2644Z" fill="white"/>
<path d="M177.879 55.1234C175.867 55.1234 167.86 48.5811 166.594 43.079C165.843 39.8883 164.299 36.9388 162.105 34.5041C162.052 34.4511 162.018 34.3822 162.008 34.308C161.998 34.2339 162.013 34.1585 162.05 34.0935C165.704 27.647 175.922 32.4442 176.024 32.499C176.066 32.5185 176.103 32.5461 176.133 32.5802C176.164 32.6143 176.187 32.6542 176.202 32.6975C176.305 32.9917 178.714 40.0268 179.336 42.7231C179.877 45.0909 180.13 52.8719 178.693 54.6854C178.601 54.8167 178.479 54.9246 178.338 55.0006C178.196 55.0766 178.039 55.1187 177.879 55.1234ZM162.775 34.2167C164.971 36.7027 166.511 39.6969 167.258 42.9284C168.503 48.3005 176.284 54.4391 177.879 54.4391C177.879 54.4391 178.009 54.4391 178.153 54.2543C179.316 52.7966 179.241 45.3578 178.666 42.8737C178.091 40.3895 175.928 34.0798 175.6 33.0533C174.457 32.5469 166.005 29.0088 162.775 34.2167Z" fill="black"/>
<g style="mix-blend-mode:multiply">
<path d="M177.578 38.6033C177.578 38.6033 175.805 43.9138 174.033 45.5084C172.664 46.6561 171.183 47.6626 169.612 48.5126C169.612 48.5126 168.551 44.7966 165.896 44.7966C163.241 44.7966 159.169 46.5691 159.169 46.5691C159.169 46.5691 159.169 45.1525 162.529 43.3801L165.896 41.6145L173.684 38.6033H177.578Z" fill="#5546FF"/>
</g>
<path opacity="0.5" d="M177.578 38.6033C177.578 38.6033 175.805 43.9138 174.033 45.5084C172.664 46.6561 171.183 47.6626 169.612 48.5126C169.612 48.5126 168.551 44.7966 165.896 44.7966C163.241 44.7966 159.169 46.5691 159.169 46.5691C159.169 46.5691 159.169 45.1525 162.529 43.3801L165.896 41.6145L173.684 38.6033H177.578Z" fill="white"/>
<path d="M162.324 34.2647C164.569 36.7406 166.145 39.7486 166.902 43.0038C168.148 48.417 175.977 54.7814 177.852 54.7814C179.727 54.7814 179.597 45.5017 178.974 42.7985C178.351 40.0954 175.853 32.8071 175.853 32.8071C175.853 32.8071 165.889 28.0167 162.324 34.2647Z" fill="white"/>
<path d="M177.879 55.1234C175.867 55.1234 167.86 48.5811 166.594 43.079C165.843 39.8883 164.299 36.9388 162.105 34.5041C162.052 34.4511 162.018 34.3822 162.008 34.3081C161.998 34.2339 162.013 34.1585 162.05 34.0935C165.704 27.647 175.922 32.4443 176.024 32.499C176.066 32.5185 176.103 32.5461 176.133 32.5802C176.164 32.6143 176.187 32.6542 176.202 32.6975C176.305 32.9917 178.714 40.0268 179.336 42.7231C179.877 45.0909 180.13 52.8719 178.693 54.6854C178.601 54.8167 178.479 54.9246 178.338 55.0006C178.196 55.0766 178.039 55.1187 177.879 55.1234ZM162.775 34.2167C164.971 36.7027 166.511 39.697 167.258 42.9284C168.503 48.3005 176.284 54.4391 177.879 54.4391C177.879 54.4391 178.009 54.4391 178.153 54.2543C179.316 52.7967 179.241 45.3578 178.666 42.8737C178.091 40.3895 175.928 34.0798 175.6 33.0533C174.457 32.5469 166.005 29.0089 162.775 34.2167Z" fill="black"/>
<path d="M155.747 24.232C157.215 28.2248 159.031 32.0811 161.174 35.7563C164.335 40.9505 170.44 43.8932 173.827 42.5382C177.215 41.1832 179.521 36.8102 178.618 30.0352C178.419 28.5434 177.119 27.9343 176.702 26.6135C175.203 21.8231 173.677 17.2038 173.15 15.445C172.466 13.1798 167.045 10.9215 161.4 12.5023C155.754 14.0832 154.844 18.8051 155.747 24.232Z" fill="white"/>
<path d="M174.505 20.0848C174.505 20.0848 172.452 21.6109 167.839 20.7281C163.227 19.8453 160.052 20.0438 160.23 21.2619C160.408 22.48 160.763 24.0882 160.763 24.0882C160.763 24.0882 155.227 19.2978 160.243 18.0249C163.857 17.0874 165.944 18.5108 166.827 18.7093C167.709 18.9077 174.505 20.0848 174.505 20.0848Z" fill="#5546FF"/>
<path opacity="0.5" d="M174.505 20.0848C174.505 20.0848 172.452 21.6109 167.839 20.7281C163.227 19.8453 160.052 20.0438 160.23 21.2619C160.408 22.48 160.763 24.0882 160.763 24.0882C160.763 24.0882 155.227 19.2978 160.243 18.0249C163.857 17.0874 165.944 18.5108 166.827 18.7093C167.709 18.9077 174.505 20.0848 174.505 20.0848Z" fill="white"/>
<path d="M171.939 43.2362C168.264 43.2362 163.48 40.2319 160.88 35.9548C158.719 32.2584 156.887 28.3792 155.405 24.362C155.401 24.344 155.401 24.3253 155.405 24.3073C154.276 17.5665 156.206 13.5904 161.297 12.167C167.203 10.5109 172.753 12.9472 173.472 15.3355C173.718 16.1636 174.156 17.6144 174.765 19.4416C175.449 21.4946 176.223 23.9788 177.017 26.5245C177.215 27.031 177.508 27.4954 177.879 27.8932C178.432 28.4742 178.803 29.2046 178.946 29.9942C179.959 37.5972 177.03 41.628 173.951 42.8598C173.31 43.1124 172.627 43.2402 171.939 43.2362V43.2362ZM156.082 24.143C157.541 28.1035 159.34 31.9297 161.461 35.5784C164.644 40.7999 170.659 43.4347 173.704 42.2165C176.544 41.0805 179.241 37.2961 178.276 30.0763C178.15 29.4167 177.839 28.8066 177.379 28.3175C176.947 27.8434 176.614 27.2872 176.401 26.6819C175.607 24.143 174.806 21.652 174.149 19.6058C173.567 17.7991 173.102 16.3415 172.849 15.4998C172.274 13.5973 167.217 11.1952 161.516 12.7624C156.808 14.1174 155.035 17.8265 156.082 24.143Z" fill="black"/>
<path d="M159.819 31.6845C159.819 31.6845 156.199 30.1036 155.973 31.6845C155.747 33.2653 157.342 34.4218 158.909 35.1062C159.299 35.3199 159.745 35.4126 160.189 35.3724C160.632 35.3322 161.054 35.1609 161.4 34.8804" fill="white"/>
<path d="M160.052 35.7084C159.613 35.7029 159.179 35.6074 158.779 35.4278C156.541 34.4698 155.425 33.1353 155.638 31.6708C155.656 31.5034 155.714 31.3429 155.809 31.2034C155.903 31.0638 156.03 30.9494 156.178 30.8701C157.266 30.261 159.682 31.2876 159.956 31.4107C160.033 31.4513 160.092 31.5198 160.12 31.6022C160.148 31.6845 160.144 31.7746 160.108 31.854C160.072 31.9334 160.008 31.9962 159.927 32.0295C159.847 32.0629 159.757 32.0643 159.675 32.0335C158.772 31.6366 157.109 31.137 156.507 31.4655C156.452 31.4954 156.406 31.5387 156.372 31.5914C156.339 31.644 156.319 31.7043 156.315 31.7666C156.096 33.2927 157.93 34.3192 159.052 34.7982C159.382 34.9813 159.758 35.064 160.133 35.036C160.509 35.008 160.868 34.8707 161.167 34.6408C161.233 34.5852 161.317 34.5565 161.403 34.5604C161.49 34.5643 161.571 34.6006 161.632 34.662C161.692 34.7234 161.727 34.8054 161.73 34.8915C161.733 34.9777 161.703 35.0617 161.646 35.1267C161.207 35.5151 160.637 35.7229 160.052 35.7084Z" fill="black"/>
<path d="M174.594 22.7471C174.594 22.7471 170.563 21.789 172.288 27.1611C172.63 28.2218 174.977 29.4605 174.977 29.4605C174.977 29.4605 174.785 31.185 173.827 31.3767" fill="white"/>
<path d="M173.821 31.7186C173.742 31.7174 173.666 31.6897 173.605 31.64C173.545 31.5904 173.502 31.5216 173.485 31.4449C173.476 31.4004 173.476 31.3545 173.485 31.31C173.494 31.2655 173.512 31.2232 173.538 31.1857C173.563 31.1481 173.596 31.116 173.634 31.0911C173.672 31.0663 173.714 31.0493 173.759 31.0411C174.252 30.9385 174.505 30.1241 174.601 29.6724C173.971 29.3166 172.288 28.3038 171.966 27.2909C171.323 25.2926 171.378 23.8692 172.123 23.0617C173.04 22.0694 174.601 22.4321 174.669 22.4458C174.757 22.4669 174.833 22.5219 174.88 22.5989C174.928 22.6758 174.943 22.7684 174.922 22.8564C174.913 22.9004 174.894 22.9419 174.868 22.9787C174.842 23.0154 174.809 23.0465 174.771 23.0701C174.733 23.0938 174.69 23.1094 174.645 23.1162C174.601 23.123 174.555 23.1207 174.512 23.1096C174.512 23.1096 173.266 22.829 172.623 23.527C171.98 24.2251 172.062 25.3611 172.623 27.0788C172.842 27.7631 174.286 28.7281 175.141 29.1797C175.201 29.2136 175.249 29.2639 175.281 29.3246C175.312 29.3853 175.326 29.4538 175.319 29.5219C175.319 29.7272 175.066 31.5065 173.896 31.7392L173.821 31.7186Z" fill="black"/>
<path d="M171.713 35.209C171.713 35.209 168.839 35.7838 167.689 34.4425Z" fill="white"/>
<path d="M170.337 35.7084C169.809 35.7503 169.277 35.6819 168.777 35.5075C168.276 35.3332 167.817 35.0567 167.429 34.6955C167.4 34.6614 167.377 34.6218 167.364 34.5791C167.35 34.5363 167.344 34.4913 167.348 34.4465C167.351 34.4017 167.363 34.358 167.384 34.318C167.404 34.2779 167.432 34.2423 167.466 34.2131C167.501 34.1839 167.54 34.1617 167.583 34.1477C167.626 34.1338 167.671 34.1285 167.715 34.132C167.76 34.1355 167.804 34.1477 167.844 34.1681C167.884 34.1885 167.92 34.2165 167.949 34.2507C168.955 35.4278 171.624 34.935 171.651 34.935C171.695 34.9251 171.74 34.9242 171.784 34.9324C171.828 34.9406 171.87 34.9578 171.907 34.9828C171.945 35.0078 171.976 35.0401 172 35.0778C172.025 35.1155 172.041 35.1577 172.048 35.2019C172.057 35.246 172.057 35.2914 172.049 35.3355C172.04 35.3796 172.023 35.4216 171.998 35.4591C171.974 35.4966 171.942 35.5289 171.904 35.554C171.867 35.5792 171.825 35.5967 171.781 35.6057C171.304 35.6814 170.821 35.7157 170.337 35.7084V35.7084Z" fill="black"/>
<path d="M167.497 26.2029C167.497 26.2029 165.389 25.4364 164.24 26.3945C163.624 26.8228 163.148 27.4225 162.871 28.119" fill="white"/>
<path d="M162.899 28.4545H162.816C162.773 28.4433 162.732 28.4236 162.696 28.3966C162.66 28.3696 162.629 28.3357 162.607 28.2969C162.584 28.2581 162.569 28.2152 162.562 28.1706C162.556 28.126 162.559 28.0806 162.57 28.037C162.856 27.2741 163.361 26.6124 164.021 26.1346C165.307 25.067 167.525 25.854 167.614 25.8882C167.656 25.9027 167.696 25.9257 167.73 25.9558C167.763 25.9859 167.79 26.0225 167.81 26.0634C167.829 26.1043 167.84 26.1487 167.841 26.1939C167.843 26.239 167.835 26.284 167.819 26.3262C167.788 26.4114 167.725 26.481 167.642 26.5195C167.56 26.558 167.466 26.5623 167.381 26.5315C167.381 26.5315 165.444 25.8471 164.459 26.6615C163.916 27.055 163.493 27.59 163.234 28.2081C163.212 28.2797 163.167 28.3424 163.107 28.3867C163.047 28.4311 162.973 28.4549 162.899 28.4545V28.4545Z" fill="black"/>
<path d="M167.443 29.4809C167.716 30.1173 167.662 30.7469 167.319 30.8906C166.977 31.0343 166.484 30.6442 166.211 30.0078C165.937 29.3714 165.999 28.7486 166.341 28.5981C166.683 28.4475 167.176 28.8649 167.443 29.4809Z" fill="black"/>
<path d="M174.334 26.1275C174.608 26.7571 174.546 27.3867 174.211 27.5372C173.875 27.6878 173.369 27.284 173.102 26.6544C172.835 26.0248 172.883 25.3884 173.225 25.2447C173.567 25.101 174.06 25.4979 174.334 26.1275Z" fill="black"/>
<path d="M158.813 32.5947C158.813 32.5947 161.099 30.9317 160.681 29.4741C160.264 28.0164 159.436 28.0164 160.271 27.1884C161.105 26.3603 161.721 25.936 161.516 24.6905C161.311 23.445 157.978 21.3578 159.018 20.1123C160.058 18.8668 159.641 17.3749 168.175 19.4827C176.709 21.5904 182.122 18.2372 179.624 15.1165C177.126 11.9959 175.046 11.5785 175.046 11.5785C175.046 11.5785 179.836 9.52545 175.88 7.41083C171.925 5.29621 162.974 5.3578 157.978 9.28593C152.982 13.2141 154.023 16.5468 154.023 16.5468C154.023 16.5468 151.319 16.9643 151.107 21.1319C150.895 25.2996 158.813 32.5947 158.813 32.5947Z" fill="black"/>
<path d="M172.431 18.6547C170.612 18.5783 168.821 18.1797 167.142 17.4776C165.825 16.9162 164.423 16.5829 162.994 16.4921C159.689 16.4921 159.005 18.3672 158.977 18.4494C158.968 18.4786 158.953 18.5056 158.933 18.5288C158.913 18.552 158.889 18.5709 158.861 18.5844C158.833 18.5978 158.804 18.6055 158.773 18.607C158.742 18.6085 158.712 18.6038 158.683 18.5931C158.654 18.5838 158.627 18.5687 158.603 18.5489C158.58 18.529 158.56 18.5047 158.546 18.4773C158.532 18.45 158.524 18.4201 158.522 18.3895C158.519 18.3588 158.523 18.328 158.532 18.2988C158.567 18.2098 159.333 16.0199 162.994 16.0199C164.478 16.1077 165.934 16.4527 167.299 17.0396C169.427 17.7992 171.638 18.5862 174.416 17.9703C175.922 17.635 176.804 17.0944 177.023 16.3758C177.311 15.4519 176.421 14.487 176.414 14.4733C176.371 14.4297 176.347 14.3707 176.347 14.3091C176.347 14.2475 176.371 14.1884 176.414 14.1448C176.46 14.1025 176.52 14.079 176.582 14.079C176.644 14.079 176.704 14.1025 176.75 14.1448C176.791 14.1927 177.831 15.3219 177.468 16.5058C177.188 17.4023 176.195 18.0456 174.512 18.422C173.829 18.5731 173.131 18.6511 172.431 18.6547V18.6547Z" fill="white"/>
<path d="M157.164 18.0796C157.101 18.0744 157.043 18.045 157.003 17.9976C156.962 17.9503 156.941 17.8889 156.945 17.8264C156.945 17.7785 157.348 13.2619 161.352 12.249C163.713 11.6536 166.443 12.0985 168.64 12.4543C170.009 12.6802 171.234 12.8786 171.747 12.6802C171.803 12.6681 171.862 12.6767 171.913 12.7045C171.963 12.7323 172.002 12.7773 172.022 12.8314C172.042 12.8855 172.042 12.9449 172.021 12.9988C172.001 13.0528 171.962 13.0975 171.911 13.125C171.282 13.3577 170.084 13.166 168.565 12.9197C166.409 12.5638 163.726 12.1327 161.468 12.7007C157.786 13.6382 157.417 17.8196 157.41 17.8606C157.408 17.8912 157.4 17.9211 157.387 17.9487C157.374 17.9763 157.355 18.0009 157.332 18.0213C157.309 18.0416 157.283 18.0573 157.254 18.0673C157.225 18.0773 157.194 18.0815 157.164 18.0796V18.0796Z" fill="white"/>
<path d="M154.515 25.1423C154.469 25.1415 154.424 25.1272 154.385 25.1012C153.771 24.586 153.295 23.9257 152.999 23.1801C152.704 22.4345 152.6 21.6271 152.695 20.8309C152.887 17.8198 155.2 17.7856 155.227 17.7856C155.283 17.7951 155.333 17.824 155.37 17.8672C155.406 17.9104 155.426 17.9652 155.426 18.0217C155.426 18.0782 155.406 18.1329 155.37 18.1761C155.333 18.2193 155.283 18.2483 155.227 18.2578C155.145 18.2578 153.325 18.2988 153.174 20.8583C153.081 21.5744 153.169 22.3022 153.428 22.9761C153.687 23.65 154.11 24.2487 154.659 24.718C154.684 24.7351 154.706 24.7571 154.722 24.7827C154.739 24.8084 154.75 24.8371 154.755 24.8671C154.76 24.8972 154.759 24.928 154.752 24.9576C154.745 24.9872 154.732 25.0152 154.714 25.0396C154.693 25.073 154.664 25.1001 154.629 25.1182C154.594 25.1362 154.555 25.1446 154.515 25.1423Z" fill="white"/>
<path d="M155.932 23.1985C155.887 23.1985 155.843 23.1856 155.806 23.1613C155.768 23.137 155.738 23.1024 155.72 23.0616C155.551 22.7494 155.451 22.4047 155.426 22.0506C155.401 21.6965 155.452 21.3413 155.576 21.0086C155.878 20.3563 156.416 19.8427 157.082 19.5714C157.11 19.5593 157.14 19.5531 157.171 19.5532C157.201 19.5532 157.232 19.5595 157.26 19.5717C157.288 19.5838 157.314 19.6016 157.335 19.6239C157.356 19.6463 157.372 19.6726 157.383 19.7015C157.405 19.7587 157.404 19.8224 157.38 19.8788C157.355 19.9352 157.31 19.9797 157.253 20.0026C156.708 20.2334 156.265 20.654 156.007 21.1865C155.91 21.4598 155.872 21.7505 155.896 22.0395C155.92 22.3285 156.004 22.6092 156.144 22.8631C156.17 22.9204 156.172 22.9854 156.15 23.0443C156.128 23.1032 156.084 23.1512 156.028 23.1779C155.997 23.1913 155.965 23.1983 155.932 23.1985Z" fill="white"/>
<path d="M156.459 26.9079C156.421 26.9071 156.384 26.8974 156.351 26.8795C156.317 26.8617 156.289 26.8362 156.267 26.8052L155.384 25.5734C155.348 25.5226 155.334 25.4594 155.344 25.3978C155.354 25.3362 155.388 25.2812 155.439 25.2449C155.49 25.2086 155.553 25.194 155.615 25.2043C155.676 25.2145 155.731 25.2488 155.768 25.2997L156.65 26.5383C156.685 26.5884 156.699 26.6502 156.689 26.7103C156.679 26.7705 156.645 26.8242 156.596 26.86C156.557 26.8915 156.509 26.9085 156.459 26.9079V26.9079Z" fill="white"/>
<path d="M113.5 76C124.822 76 134 66.8218 134 55.5C134 44.1782 124.822 35 113.5 35C102.178 35 93 44.1782 93 55.5C93 66.8218 102.178 76 113.5 76Z" fill="#5546FF"/>
<path d="M122.059 66L117.598 59.2472H123.998V56.7081H103V59.2647H109.399L104.939 66H108.252L113.488 58.0657L118.724 66H122.059ZM123.995 54.2217V51.6651H117.719L122.127 45H118.795L113.489 53.0402L108.2 45H104.869L109.276 51.6651H103.002V54.2392H124L123.995 54.2217Z" fill="white"/>
<g clip-path="url(#clip0_1942_3706)">
<path d="M151.703 140C152.266 145.688 150.219 149.719 145.562 152.094C149.219 152.969 151.953 154.578 153.766 156.922C155.578 159.266 156.281 162.609 155.875 166.953C155.656 169.172 155.148 171.125 154.352 172.812C153.555 174.5 152.547 175.891 151.328 176.984C150.109 178.078 148.594 178.992 146.781 179.727C144.969 180.461 143.07 181 141.086 181.344C139.102 181.688 136.828 181.922 134.266 182.047V194H127.047V182.234C124.547 182.234 122.641 182.219 121.328 182.188V194H114.109V182.047C113.547 182.047 112.703 182.039 111.578 182.023C110.453 182.008 109.594 182 109 182H99.625L101.078 173.422H106.281C107.844 173.422 108.75 172.625 109 171.031V152.188H109.75C109.562 152.156 109.312 152.141 109 152.141V138.688C108.594 136.562 107.203 135.5 104.828 135.5H99.625V127.812L109.562 127.859C111.562 127.859 113.078 127.844 114.109 127.812V116H121.328V127.578C123.891 127.516 125.797 127.484 127.047 127.484V116H134.266V127.812C136.734 128.031 138.922 128.383 140.828 128.867C142.734 129.352 144.5 130.055 146.125 130.977C147.75 131.898 149.039 133.117 149.992 134.633C150.945 136.148 151.516 137.938 151.703 140ZM141.625 165.547C141.625 164.422 141.391 163.422 140.922 162.547C140.453 161.672 139.875 160.953 139.188 160.391C138.5 159.828 137.602 159.352 136.492 158.961C135.383 158.57 134.359 158.281 133.422 158.094C132.484 157.906 131.328 157.766 129.953 157.672C128.578 157.578 127.5 157.531 126.719 157.531C125.938 157.531 124.93 157.547 123.695 157.578C122.461 157.609 121.719 157.625 121.469 157.625V173.469C121.719 173.469 122.297 173.477 123.203 173.492C124.109 173.508 124.859 173.516 125.453 173.516C126.047 173.516 126.875 173.492 127.938 173.445C129 173.398 129.914 173.336 130.68 173.258C131.445 173.18 132.336 173.047 133.352 172.859C134.367 172.672 135.234 172.453 135.953 172.203C136.672 171.953 137.414 171.625 138.18 171.219C138.945 170.812 139.562 170.344 140.031 169.812C140.5 169.281 140.883 168.656 141.18 167.938C141.477 167.219 141.625 166.422 141.625 165.547ZM138.297 143.234C138.297 142.203 138.102 141.289 137.711 140.492C137.32 139.695 136.844 139.039 136.281 138.523C135.719 138.008 134.969 137.57 134.031 137.211C133.094 136.852 132.234 136.594 131.453 136.438C130.672 136.281 129.711 136.156 128.57 136.062C127.43 135.969 126.523 135.93 125.852 135.945C125.18 135.961 124.336 135.977 123.32 135.992C122.305 136.008 121.688 136.016 121.469 136.016V150.406C121.625 150.406 122.164 150.414 123.086 150.43C124.008 150.445 124.734 150.445 125.266 150.43C125.797 150.414 126.578 150.383 127.609 150.336C128.641 150.289 129.5 150.203 130.188 150.078C130.875 149.953 131.68 149.781 132.602 149.562C133.523 149.344 134.281 149.055 134.875 148.695C135.469 148.336 136.047 147.914 136.609 147.43C137.172 146.945 137.594 146.344 137.875 145.625C138.156 144.906 138.297 144.109 138.297 143.234Z" fill="white"/>
</g>
<defs>
<clipPath id="clip0_1942_3706">
<rect width="84" height="84" fill="white" transform="translate(85 110)"/>
</clipPath>
</defs>
</svg>
