<svg width="254" height="246" viewBox="0 0 254 246" fill="none" xmlns="http://www.w3.org/2000/svg">
<g opacity="0.5">
<path d="M109.351 246C162.673 246 205.899 243.307 205.899 239.985C205.899 236.664 162.673 233.971 109.351 233.971C56.0297 233.971 12.8038 236.664 12.8038 239.985C12.8038 243.307 56.0297 246 109.351 246Z" fill="#989898"/>
<path d="M109.351 246C162.673 246 205.899 243.307 205.899 239.985C205.899 236.664 162.673 233.971 109.351 233.971C56.0297 233.971 12.8038 236.664 12.8038 239.985C12.8038 243.307 56.0297 246 109.351 246Z" fill="#989898"/>
</g>
<path d="M181.903 11.2715H84.8241C78.1218 11.2715 72.6885 16.7048 72.6885 23.4071V228.357C72.6885 235.059 78.1218 240.493 84.8241 240.493H181.903C188.605 240.493 194.038 235.059 194.038 228.357V23.4071C194.038 16.7048 188.605 11.2715 181.903 11.2715Z" fill="#2A2D3C"/>
<path d="M188.642 36.4424H78.0786V215.322H188.642V36.4424Z" fill="white" stroke="#263238" stroke-width="1.33739" stroke-miterlimit="10"/>
<path d="M164.827 204.074H101.906C101.765 204.075 101.625 204.047 101.493 203.994C101.362 203.94 101.243 203.861 101.143 203.761C101.042 203.661 100.963 203.543 100.908 203.412C100.854 203.281 100.826 203.141 100.826 202.999C100.825 202.857 100.852 202.716 100.907 202.585C100.961 202.454 101.04 202.334 101.141 202.234C101.241 202.133 101.361 202.054 101.492 202C101.623 201.946 101.764 201.918 101.906 201.919H164.827C164.968 201.919 165.109 201.947 165.239 202.001C165.37 202.056 165.489 202.135 165.589 202.236C165.688 202.336 165.767 202.455 165.821 202.586C165.875 202.718 165.902 202.858 165.901 202.999C165.901 203.284 165.788 203.558 165.586 203.759C165.385 203.961 165.112 204.074 164.827 204.074Z" fill="#FEBF32"/>
<path d="M174.763 82H101.783C100.277 82 99.0558 83.7032 99.0558 85.8041V97.8046C99.0558 99.9056 100.277 101.609 101.783 101.609H174.763C176.27 101.609 177.491 99.9056 177.491 97.8046V85.8041C177.491 83.7032 176.27 82 174.763 82Z" fill="#FEBF32"/>
<path d="M122.443 95.0283H121.235L123.387 88.9243H124.651L126.803 95.0283H125.595L125.179 93.7723H122.851L122.443 95.0283ZM124.019 90.1803L123.179 92.7643H124.859L124.019 90.1803ZM129.356 95.1163C128.908 95.1163 128.511 95.0177 128.164 94.8203C127.823 94.623 127.556 94.3457 127.364 93.9883C127.172 93.631 127.076 93.2203 127.076 92.7563C127.076 92.3083 127.172 91.9083 127.364 91.5563C127.556 91.2043 127.823 90.9323 128.164 90.7403C128.511 90.543 128.908 90.4443 129.356 90.4443C129.895 90.4443 130.351 90.583 130.724 90.8603C131.103 91.1323 131.348 91.503 131.46 91.9723H130.284C130.215 91.7643 130.1 91.6043 129.94 91.4923C129.78 91.3803 129.586 91.3243 129.356 91.3243C129.004 91.3243 128.719 91.455 128.5 91.7163C128.287 91.9777 128.18 92.3243 128.18 92.7563C128.18 93.2043 128.287 93.5643 128.5 93.8363C128.719 94.103 129.004 94.2363 129.356 94.2363C129.612 94.2363 129.82 94.175 129.98 94.0523C130.14 93.9243 130.25 93.7457 130.308 93.5163H131.476C131.375 94.0123 131.132 94.4043 130.748 94.6923C130.364 94.975 129.9 95.1163 129.356 95.1163ZM134.325 95.1163C133.877 95.1163 133.48 95.0177 133.133 94.8203C132.792 94.623 132.525 94.3457 132.333 93.9883C132.141 93.631 132.045 93.2203 132.045 92.7563C132.045 92.3083 132.141 91.9083 132.333 91.5563C132.525 91.2043 132.792 90.9323 133.133 90.7403C133.48 90.543 133.877 90.4443 134.325 90.4443C134.864 90.4443 135.32 90.583 135.693 90.8603C136.072 91.1323 136.317 91.503 136.429 91.9723H135.253C135.184 91.7643 135.069 91.6043 134.909 91.4923C134.749 91.3803 134.554 91.3243 134.325 91.3243C133.973 91.3243 133.688 91.455 133.469 91.7163C133.256 91.9777 133.149 92.3243 133.149 92.7563C133.149 93.2043 133.256 93.5643 133.469 93.8363C133.688 94.103 133.973 94.2363 134.325 94.2363C134.581 94.2363 134.789 94.175 134.949 94.0523C135.109 93.9243 135.218 93.7457 135.277 93.5163H136.445C136.344 94.0123 136.101 94.4043 135.717 94.6923C135.333 94.975 134.869 95.1163 134.325 95.1163ZM139.31 95.1163C138.862 95.1163 138.465 95.0177 138.118 94.8203C137.771 94.623 137.499 94.3457 137.302 93.9883C137.11 93.631 137.014 93.2203 137.014 92.7563C137.014 92.3083 137.11 91.9083 137.302 91.5563C137.499 91.2043 137.771 90.9323 138.118 90.7403C138.465 90.543 138.862 90.4443 139.31 90.4443C139.758 90.4443 140.155 90.543 140.502 90.7403C140.854 90.9377 141.126 91.2123 141.318 91.5643C141.515 91.911 141.614 92.3083 141.614 92.7563C141.614 93.2203 141.518 93.631 141.326 93.9883C141.134 94.3457 140.862 94.623 140.51 94.8203C140.163 95.0177 139.763 95.1163 139.31 95.1163ZM139.31 94.1883C139.662 94.1883 139.947 94.055 140.166 93.7883C140.385 93.5217 140.494 93.1777 140.494 92.7563C140.494 92.351 140.385 92.0203 140.166 91.7643C139.947 91.503 139.662 91.3723 139.31 91.3723C139.081 91.3723 138.875 91.431 138.694 91.5483C138.513 91.6657 138.371 91.831 138.27 92.0443C138.169 92.2523 138.118 92.4897 138.118 92.7563C138.118 93.183 138.227 93.5297 138.446 93.7963C138.67 94.0577 138.958 94.1883 139.31 94.1883ZM143.985 95.1163C143.291 95.1163 142.825 94.8683 142.585 94.3723C142.51 94.223 142.459 94.0603 142.433 93.8843C142.406 93.703 142.393 93.4497 142.393 93.1243V90.5403H143.473V93.1323C143.473 93.3617 143.489 93.5483 143.521 93.6923C143.558 93.831 143.614 93.943 143.689 94.0283C143.817 94.1617 144.006 94.2283 144.257 94.2283C144.566 94.2283 144.795 94.1377 144.945 93.9563C145.035 93.8497 145.099 93.7083 145.137 93.5323C145.179 93.3563 145.201 93.119 145.201 92.8203V90.5403H146.281V95.0283H145.201V94.4603C145.035 94.6897 144.857 94.8577 144.665 94.9643C144.478 95.0657 144.251 95.1163 143.985 95.1163ZM147.268 95.0283V90.5403H148.348V91.1083C148.519 90.8683 148.703 90.6977 148.9 90.5963C149.097 90.495 149.321 90.4443 149.572 90.4443C150.265 90.4443 150.732 90.695 150.972 91.1963C151.052 91.3723 151.103 91.551 151.124 91.7323C151.145 91.9137 151.156 92.151 151.156 92.4443V95.0283H150.084V92.4283C150.084 91.9963 150.009 91.6977 149.86 91.5323C149.732 91.399 149.543 91.3323 149.292 91.3323C148.988 91.3323 148.761 91.423 148.612 91.6043C148.521 91.711 148.455 91.855 148.412 92.0363C148.369 92.2123 148.348 92.447 148.348 92.7403V95.0283H147.268ZM153.442 95.0283C152.743 95.0283 152.394 94.7003 152.394 94.0443V91.4043H151.73V90.5403H152.394V88.9243H153.474V90.5403H154.338V91.4043H153.474V93.7163C153.474 93.855 153.495 93.959 153.538 94.0283C153.586 94.0977 153.687 94.1323 153.842 94.1323H154.33V95.0283H153.442ZM159.301 90.3323C159.104 90.583 158.861 90.7937 158.573 90.9643C158.285 91.1297 157.973 91.239 157.637 91.2923V90.2283C158.026 90.1483 158.37 89.991 158.669 89.7563C158.968 89.5217 159.192 89.2443 159.341 88.9243H160.453V95.0283H159.301V90.3323Z" fill="#2A2D3C"/>
<path d="M116.069 96.7069C118.777 93.9995 118.777 89.6099 116.069 86.9025C113.362 84.1951 108.972 84.1951 106.265 86.9025C103.558 89.6099 103.558 93.9995 106.265 96.7069C108.972 99.4143 113.362 99.4143 116.069 96.7069Z" fill="white"/>
<path d="M114.619 95.2624L112.579 94.088V93.1177C112.875 92.7604 113.089 92.343 113.206 91.8945C113.276 91.9195 113.35 91.9323 113.425 91.9325C113.678 91.9325 113.839 91.1483 113.866 90.5882C114.16 89.9648 113.759 89.5999 113.759 89.5999C113.759 89.5999 113.925 89.4336 114.036 88.7669C114.146 88.1002 113.647 88.3785 113.259 87.7678C112.87 87.1571 112.592 86.4922 111.316 86.4922C110.965 86.4806 110.618 86.575 110.321 86.7632C110.024 86.9514 109.79 87.2246 109.65 87.5473C109.333 87.5485 109.016 87.5855 108.707 87.6576C108.317 87.7678 108.207 89.0452 108.539 89.5457C108.688 89.8192 108.767 90.1251 108.77 90.4364C108.682 90.328 108.59 90.2991 108.539 90.5448C108.429 91.0995 108.873 91.8765 108.873 91.8765L109.103 91.8114C109.219 92.2907 109.442 92.7374 109.755 93.1177V94.088L107.715 95.2624C107.477 95.4 107.279 95.5977 107.142 95.8359C107.004 96.0741 106.931 96.3442 106.931 96.6193V97.2915C108.144 98.2287 109.634 98.7371 111.167 98.7371C112.7 98.7371 114.19 98.2287 115.403 97.2915V96.6193C115.403 96.3442 115.331 96.0738 115.193 95.8356C115.056 95.5974 114.858 95.3997 114.619 95.2624Z" fill="#263238"/>
<path d="M164.708 109.194H91.7272C90.221 109.194 89 110.897 89 112.998V124.999C89 127.1 90.221 128.803 91.7272 128.803H164.708C166.214 128.803 167.435 127.1 167.435 124.999V112.998C167.435 110.897 166.214 109.194 164.708 109.194Z" fill="#FEBF32"/>
<path d="M112.387 122.224H111.179L113.331 116.12H114.595L116.747 122.224H115.539L115.123 120.968H112.795L112.387 122.224ZM113.963 117.376L113.123 119.96H114.803L113.963 117.376ZM119.3 122.312C118.852 122.312 118.455 122.213 118.108 122.016C117.767 121.818 117.5 121.541 117.308 121.184C117.116 120.826 117.02 120.416 117.02 119.952C117.02 119.504 117.116 119.104 117.308 118.752C117.5 118.4 117.767 118.128 118.108 117.936C118.455 117.738 118.852 117.64 119.3 117.64C119.839 117.64 120.295 117.778 120.668 118.056C121.047 118.328 121.292 118.698 121.404 119.168H120.228C120.159 118.96 120.044 118.8 119.884 118.688C119.724 118.576 119.53 118.52 119.3 118.52C118.948 118.52 118.663 118.65 118.444 118.912C118.231 119.173 118.124 119.52 118.124 119.952C118.124 120.4 118.231 120.76 118.444 121.032C118.663 121.298 118.948 121.432 119.3 121.432C119.556 121.432 119.764 121.37 119.924 121.248C120.084 121.12 120.194 120.941 120.252 120.712H121.42C121.319 121.208 121.076 121.6 120.692 121.888C120.308 122.17 119.844 122.312 119.3 122.312ZM124.269 122.312C123.821 122.312 123.424 122.213 123.077 122.016C122.736 121.818 122.469 121.541 122.277 121.184C122.085 120.826 121.989 120.416 121.989 119.952C121.989 119.504 122.085 119.104 122.277 118.752C122.469 118.4 122.736 118.128 123.077 117.936C123.424 117.738 123.821 117.64 124.269 117.64C124.808 117.64 125.264 117.778 125.637 118.056C126.016 118.328 126.261 118.698 126.373 119.168H125.197C125.128 118.96 125.013 118.8 124.853 118.688C124.693 118.576 124.499 118.52 124.269 118.52C123.917 118.52 123.632 118.65 123.413 118.912C123.2 119.173 123.093 119.52 123.093 119.952C123.093 120.4 123.2 120.76 123.413 121.032C123.632 121.298 123.917 121.432 124.269 121.432C124.525 121.432 124.733 121.37 124.893 121.248C125.053 121.12 125.163 120.941 125.221 120.712H126.389C126.288 121.208 126.045 121.6 125.661 121.888C125.277 122.17 124.813 122.312 124.269 122.312ZM129.254 122.312C128.806 122.312 128.409 122.213 128.062 122.016C127.715 121.818 127.443 121.541 127.246 121.184C127.054 120.826 126.958 120.416 126.958 119.952C126.958 119.504 127.054 119.104 127.246 118.752C127.443 118.4 127.715 118.128 128.062 117.936C128.409 117.738 128.806 117.64 129.254 117.64C129.702 117.64 130.099 117.738 130.446 117.936C130.798 118.133 131.07 118.408 131.262 118.76C131.459 119.106 131.558 119.504 131.558 119.952C131.558 120.416 131.462 120.826 131.27 121.184C131.078 121.541 130.806 121.818 130.454 122.016C130.107 122.213 129.707 122.312 129.254 122.312ZM129.254 121.384C129.606 121.384 129.891 121.25 130.11 120.984C130.329 120.717 130.438 120.373 130.438 119.952C130.438 119.546 130.329 119.216 130.11 118.96C129.891 118.698 129.606 118.568 129.254 118.568C129.025 118.568 128.819 118.626 128.638 118.744C128.457 118.861 128.315 119.026 128.214 119.24C128.113 119.448 128.062 119.685 128.062 119.952C128.062 120.378 128.171 120.725 128.39 120.992C128.614 121.253 128.902 121.384 129.254 121.384ZM133.929 122.312C133.235 122.312 132.769 122.064 132.529 121.568C132.454 121.418 132.403 121.256 132.377 121.08C132.35 120.898 132.337 120.645 132.337 120.32V117.736H133.417V120.328C133.417 120.557 133.433 120.744 133.465 120.888C133.502 121.026 133.558 121.138 133.633 121.224C133.761 121.357 133.95 121.424 134.201 121.424C134.51 121.424 134.739 121.333 134.889 121.152C134.979 121.045 135.043 120.904 135.081 120.728C135.123 120.552 135.145 120.314 135.145 120.016V117.736H136.225V122.224H135.145V121.656C134.979 121.885 134.801 122.053 134.609 122.16C134.422 122.261 134.195 122.312 133.929 122.312ZM137.212 122.224V117.736H138.292V118.304C138.463 118.064 138.647 117.893 138.844 117.792C139.042 117.69 139.266 117.64 139.516 117.64C140.21 117.64 140.676 117.89 140.916 118.392C140.996 118.568 141.047 118.746 141.068 118.928C141.09 119.109 141.1 119.346 141.1 119.64V122.224H140.028V119.624C140.028 119.192 139.954 118.893 139.804 118.728C139.676 118.594 139.487 118.528 139.236 118.528C138.932 118.528 138.706 118.618 138.556 118.8C138.466 118.906 138.399 119.05 138.356 119.232C138.314 119.408 138.292 119.642 138.292 119.936V122.224H137.212ZM143.386 122.224C142.687 122.224 142.338 121.896 142.338 121.24V118.6H141.674V117.736H142.338V116.12H143.418V117.736H144.282V118.6H143.418V120.912C143.418 121.05 143.439 121.154 143.482 121.224C143.53 121.293 143.631 121.328 143.786 121.328H144.274V122.224H143.386ZM147.109 122.224V121.352L149.021 119.672C149.4 119.341 149.68 119.04 149.861 118.768C150.048 118.49 150.141 118.213 150.141 117.936C150.141 117.648 150.064 117.421 149.909 117.256C149.76 117.085 149.528 117 149.213 117C148.53 117 148.17 117.421 148.133 118.264H147.069C147.096 117.538 147.293 116.984 147.661 116.6C148.034 116.21 148.557 116.016 149.229 116.016C149.613 116.016 149.954 116.09 150.253 116.24C150.552 116.384 150.784 116.594 150.949 116.872C151.12 117.144 151.205 117.464 151.205 117.832C151.205 118.306 151.066 118.752 150.789 119.168C150.517 119.578 150.173 119.97 149.757 120.344L148.805 121.192H151.469V122.224H147.109Z" fill="#2A2D3C"/>
<path d="M106.014 123.901C108.721 121.194 108.721 116.804 106.014 114.097C103.306 111.389 98.9166 111.389 96.2092 114.097C93.5018 116.804 93.5018 121.194 96.2092 123.901C98.9166 126.609 103.306 126.609 106.014 123.901Z" fill="white"/>
<path d="M104.563 122.458L102.523 121.283V120.313C102.819 119.956 103.033 119.538 103.15 119.09C103.22 119.115 103.294 119.128 103.369 119.128C103.622 119.128 103.783 118.344 103.81 117.784C104.104 117.16 103.703 116.795 103.703 116.795C103.703 116.795 103.869 116.629 103.98 115.962C104.09 115.296 103.591 115.574 103.203 114.963C102.814 114.352 102.536 113.687 101.26 113.687C100.909 113.676 100.562 113.77 100.265 113.959C99.9679 114.147 99.7342 114.42 99.5945 114.743C99.277 114.744 98.9606 114.781 98.6513 114.853C98.2611 114.963 98.1509 116.24 98.4833 116.741C98.6321 117.014 98.7115 117.32 98.7146 117.632C98.626 117.523 98.5339 117.494 98.4833 117.74C98.3731 118.295 98.8176 119.072 98.8176 119.072L99.047 119.007C99.1626 119.486 99.3857 119.933 99.6993 120.313V121.283L97.6594 122.458C97.4212 122.595 97.2233 122.793 97.0857 123.031C96.948 123.269 96.8755 123.54 96.8752 123.815V124.487C98.0885 125.424 99.5782 125.932 101.111 125.932C102.644 125.932 104.134 125.424 105.347 124.487V123.815C105.348 123.539 105.275 123.269 105.137 123.031C105 122.793 104.802 122.595 104.563 122.458Z" fill="#263238"/>
<path d="M174.763 136.392H101.783C100.277 136.392 99.0558 138.095 99.0558 140.196V152.196C99.0558 154.297 100.277 156 101.783 156H174.763C176.27 156 177.491 154.297 177.491 152.196V140.196C177.491 138.095 176.27 136.392 174.763 136.392Z" fill="#FEBF32"/>
<path d="M122.443 149.419H121.235L123.387 143.315H124.651L126.803 149.419H125.595L125.179 148.163H122.851L122.443 149.419ZM124.019 144.571L123.179 147.155H124.859L124.019 144.571ZM129.356 149.507C128.908 149.507 128.511 149.408 128.164 149.211C127.823 149.014 127.556 148.736 127.364 148.379C127.172 148.022 127.076 147.611 127.076 147.147C127.076 146.699 127.172 146.299 127.364 145.947C127.556 145.595 127.823 145.323 128.164 145.131C128.511 144.934 128.908 144.835 129.356 144.835C129.895 144.835 130.351 144.974 130.724 145.251C131.103 145.523 131.348 145.894 131.46 146.363H130.284C130.215 146.155 130.1 145.995 129.94 145.883C129.78 145.771 129.586 145.715 129.356 145.715C129.004 145.715 128.719 145.846 128.5 146.107C128.287 146.368 128.18 146.715 128.18 147.147C128.18 147.595 128.287 147.955 128.5 148.227C128.719 148.494 129.004 148.627 129.356 148.627C129.612 148.627 129.82 148.566 129.98 148.443C130.14 148.315 130.25 148.136 130.308 147.907H131.476C131.375 148.403 131.132 148.795 130.748 149.083C130.364 149.366 129.9 149.507 129.356 149.507ZM134.325 149.507C133.877 149.507 133.48 149.408 133.133 149.211C132.792 149.014 132.525 148.736 132.333 148.379C132.141 148.022 132.045 147.611 132.045 147.147C132.045 146.699 132.141 146.299 132.333 145.947C132.525 145.595 132.792 145.323 133.133 145.131C133.48 144.934 133.877 144.835 134.325 144.835C134.864 144.835 135.32 144.974 135.693 145.251C136.072 145.523 136.317 145.894 136.429 146.363H135.253C135.184 146.155 135.069 145.995 134.909 145.883C134.749 145.771 134.554 145.715 134.325 145.715C133.973 145.715 133.688 145.846 133.469 146.107C133.256 146.368 133.149 146.715 133.149 147.147C133.149 147.595 133.256 147.955 133.469 148.227C133.688 148.494 133.973 148.627 134.325 148.627C134.581 148.627 134.789 148.566 134.949 148.443C135.109 148.315 135.218 148.136 135.277 147.907H136.445C136.344 148.403 136.101 148.795 135.717 149.083C135.333 149.366 134.869 149.507 134.325 149.507ZM139.31 149.507C138.862 149.507 138.465 149.408 138.118 149.211C137.771 149.014 137.499 148.736 137.302 148.379C137.11 148.022 137.014 147.611 137.014 147.147C137.014 146.699 137.11 146.299 137.302 145.947C137.499 145.595 137.771 145.323 138.118 145.131C138.465 144.934 138.862 144.835 139.31 144.835C139.758 144.835 140.155 144.934 140.502 145.131C140.854 145.328 141.126 145.603 141.318 145.955C141.515 146.302 141.614 146.699 141.614 147.147C141.614 147.611 141.518 148.022 141.326 148.379C141.134 148.736 140.862 149.014 140.51 149.211C140.163 149.408 139.763 149.507 139.31 149.507ZM139.31 148.579C139.662 148.579 139.947 148.446 140.166 148.179C140.385 147.912 140.494 147.568 140.494 147.147C140.494 146.742 140.385 146.411 140.166 146.155C139.947 145.894 139.662 145.763 139.31 145.763C139.081 145.763 138.875 145.822 138.694 145.939C138.513 146.056 138.371 146.222 138.27 146.435C138.169 146.643 138.118 146.88 138.118 147.147C138.118 147.574 138.227 147.92 138.446 148.187C138.67 148.448 138.958 148.579 139.31 148.579ZM143.985 149.507C143.291 149.507 142.825 149.259 142.585 148.763C142.51 148.614 142.459 148.451 142.433 148.275C142.406 148.094 142.393 147.84 142.393 147.515V144.931H143.473V147.523C143.473 147.752 143.489 147.939 143.521 148.083C143.558 148.222 143.614 148.334 143.689 148.419C143.817 148.552 144.006 148.619 144.257 148.619C144.566 148.619 144.795 148.528 144.945 148.347C145.035 148.24 145.099 148.099 145.137 147.923C145.179 147.747 145.201 147.51 145.201 147.211V144.931H146.281V149.419H145.201V148.851C145.035 149.08 144.857 149.248 144.665 149.355C144.478 149.456 144.251 149.507 143.985 149.507ZM147.268 149.419V144.931H148.348V145.499C148.519 145.259 148.703 145.088 148.9 144.987C149.097 144.886 149.321 144.835 149.572 144.835C150.265 144.835 150.732 145.086 150.972 145.587C151.052 145.763 151.103 145.942 151.124 146.123C151.145 146.304 151.156 146.542 151.156 146.835V149.419H150.084V146.819C150.084 146.387 150.009 146.088 149.86 145.923C149.732 145.79 149.543 145.723 149.292 145.723C148.988 145.723 148.761 145.814 148.612 145.995C148.521 146.102 148.455 146.246 148.412 146.427C148.369 146.603 148.348 146.838 148.348 147.131V149.419H147.268ZM153.442 149.419C152.743 149.419 152.394 149.091 152.394 148.435V145.795H151.73V144.931H152.394V143.315H153.474V144.931H154.338V145.795H153.474V148.107C153.474 148.246 153.495 148.35 153.538 148.419C153.586 148.488 153.687 148.523 153.842 148.523H154.33V149.419H153.442ZM159.341 149.531C158.893 149.531 158.498 149.448 158.157 149.283C157.816 149.118 157.546 148.883 157.349 148.579C157.152 148.27 157.042 147.907 157.021 147.491H158.173C158.248 148.195 158.645 148.547 159.365 148.547C159.69 148.547 159.941 148.462 160.117 148.291C160.298 148.12 160.389 147.886 160.389 147.587C160.389 147.283 160.282 147.056 160.069 146.907C159.861 146.758 159.565 146.683 159.181 146.683H158.805V145.747H159.141C159.408 145.747 159.629 145.678 159.805 145.539C159.981 145.395 160.069 145.198 160.069 144.947C160.069 144.712 159.997 144.528 159.853 144.395C159.709 144.262 159.506 144.195 159.245 144.195C158.984 144.195 158.77 144.27 158.605 144.419C158.44 144.563 158.336 144.787 158.293 145.091H157.245C157.261 144.718 157.357 144.39 157.533 144.107C157.709 143.819 157.946 143.598 158.245 143.443C158.544 143.288 158.88 143.211 159.253 143.211C159.632 143.211 159.965 143.283 160.253 143.427C160.546 143.571 160.773 143.768 160.933 144.019C161.098 144.27 161.181 144.552 161.181 144.867C161.181 145.171 161.096 145.438 160.925 145.667C160.76 145.896 160.541 146.04 160.269 146.099C160.669 146.147 160.981 146.312 161.205 146.595C161.434 146.872 161.549 147.208 161.549 147.603C161.549 147.976 161.456 148.31 161.269 148.603C161.082 148.896 160.821 149.126 160.485 149.291C160.154 149.451 159.773 149.531 159.341 149.531Z" fill="#2A2D3C"/>
<path d="M116.069 151.097C118.777 148.39 118.777 144.001 116.069 141.293C113.362 138.586 108.972 138.586 106.265 141.293C103.557 144.001 103.557 148.39 106.265 151.097C108.972 153.805 113.362 153.805 116.069 151.097Z" fill="white"/>
<path d="M114.619 149.653L112.579 148.479V147.508C112.874 147.151 113.088 146.734 113.206 146.285C113.276 146.31 113.35 146.323 113.425 146.323C113.678 146.323 113.838 145.539 113.866 144.979C114.16 144.355 113.759 143.99 113.759 143.99C113.759 143.99 113.925 143.824 114.035 143.158C114.146 142.491 113.647 142.769 113.258 142.158C112.87 141.548 112.592 140.883 111.316 140.883C110.965 140.871 110.618 140.966 110.321 141.154C110.024 141.342 109.79 141.615 109.65 141.938C109.333 141.939 109.016 141.976 108.707 142.048C108.317 142.158 108.207 143.436 108.539 143.936C108.688 144.21 108.767 144.516 108.77 144.827C108.682 144.719 108.59 144.69 108.539 144.935C108.429 145.49 108.873 146.267 108.873 146.267L109.103 146.202C109.218 146.681 109.441 147.128 109.755 147.508V148.479L107.715 149.653C107.477 149.791 107.279 149.988 107.141 150.227C107.004 150.465 106.931 150.735 106.931 151.01V151.682C108.144 152.619 109.634 153.128 111.167 153.128C112.7 153.128 114.19 152.619 115.403 151.682V151.01C115.403 150.735 115.331 150.464 115.193 150.226C115.056 149.988 114.857 149.79 114.619 149.653Z" fill="#263238"/>
<g style="mix-blend-mode:multiply">
<path d="M188.642 36.6787H78.0786V43.6053H188.642V36.6787Z" fill="#FEBF32"/>
</g>
<path d="M145.383 23.9193H121.337C120.903 23.9193 120.487 23.7469 120.18 23.44C119.873 23.1331 119.701 22.7169 119.701 22.2829C119.701 21.8489 119.873 21.4327 120.18 21.1258C120.487 20.8189 120.903 20.6465 121.337 20.6465H145.383C145.817 20.6465 146.234 20.8189 146.54 21.1258C146.847 21.4327 147.02 21.8489 147.02 22.2829C147.02 22.7169 146.847 23.1331 146.54 23.44C146.234 23.7469 145.817 23.9193 145.383 23.9193Z" fill="#FEBF32" stroke="#263238" stroke-width="1.33739" stroke-linecap="round" stroke-linejoin="round"/>
<path d="M139.918 225.428C139.92 224.13 139.536 222.861 138.816 221.782C138.096 220.702 137.071 219.861 135.873 219.364C134.674 218.867 133.355 218.736 132.082 218.989C130.81 219.242 129.64 219.867 128.723 220.784C127.805 221.702 127.181 222.871 126.928 224.143C126.675 225.416 126.805 226.735 127.303 227.934C127.8 229.133 128.641 230.157 129.721 230.877C130.8 231.597 132.069 231.981 133.366 231.979C135.104 231.978 136.769 231.287 137.997 230.059C139.226 228.83 139.917 227.165 139.918 225.428Z" fill="#FEBF32"/>
<path d="M136.689 222.105H130.044V228.751H136.689V222.105Z" fill="#FEBF32" stroke="#263238" stroke-width="1.33739" stroke-linecap="round" stroke-linejoin="round"/>
<path d="M212.526 150.014C212.526 150.014 203.819 127.892 211.57 125.262C219.64 122.52 219.284 137.129 218.972 144.249C218.316 159.464 216.636 162.294 215.38 158.577L212.526 150.014ZM209.909 167.271C212.301 170.394 212.976 167.159 208.66 152.55C206.636 145.68 202.239 131.783 195.494 136.998C189.017 141.995 204.431 160.108 204.431 160.108L209.909 167.271ZM205.287 179.95C207.567 181.974 207.61 179.42 202.195 168.87C199.653 163.93 194.276 153.93 189.872 158.877C185.644 163.649 200.053 175.247 200.053 175.247L205.287 179.95ZM200.29 195.028C202.57 197.058 202.614 194.497 197.199 183.954C194.657 179.014 189.279 169.008 184.876 173.961C180.672 178.745 195.038 190.343 195.038 190.343L200.29 195.028ZM214.718 164.336C211.071 165.76 213.969 167.309 229.202 167.265C236.347 167.265 250.938 166.94 247.827 159.002C244.848 151.376 223.15 161.088 223.15 161.088L214.718 164.336ZM210.565 174.479C206.705 175.147 209.241 177.246 224.181 180.232C231.182 181.637 245.541 184.229 244.073 175.859C242.668 167.79 219.471 172.999 219.471 172.999L210.565 174.479ZM205.918 186.865C202.633 187.339 204.731 189.169 217.291 192.042C223.181 193.391 235.267 195.921 234.218 188.782C233.218 181.912 213.481 185.797 213.481 185.797L205.918 186.865ZM202.389 198.338C199.172 199.156 201.452 200.755 214.256 202.279C220.252 202.991 232.537 204.228 230.745 197.239C229.015 190.531 209.803 196.471 209.803 196.471L202.389 198.338ZM221.214 151.888C219.34 156.085 223.231 155.448 236.46 143.906C242.656 138.491 255.085 127.161 245.241 121.521C235.792 116.1 225.63 142.257 225.63 142.257L221.214 151.888ZM202.876 213.284C200.896 214.44 202.839 214.889 211.92 213.078C216.18 212.235 224.843 210.361 221.913 206.664C219.078 203.104 207.461 210.599 207.461 210.599L202.876 213.284Z" fill="#FEBF32"/>
<path opacity="0.3" d="M212.526 150.014C212.526 150.014 203.819 127.892 211.57 125.262C219.64 122.52 219.284 137.129 218.972 144.249C218.316 159.464 216.636 162.294 215.38 158.577L212.526 150.014ZM209.909 167.271C212.301 170.394 212.976 167.159 208.66 152.55C206.636 145.68 202.239 131.783 195.494 136.998C189.017 141.995 204.431 160.108 204.431 160.108L209.909 167.271ZM205.287 179.95C207.567 181.974 207.61 179.42 202.195 168.87C199.653 163.93 194.276 153.93 189.872 158.877C185.644 163.649 200.053 175.247 200.053 175.247L205.287 179.95ZM200.29 195.028C202.57 197.058 202.614 194.497 197.199 183.954C194.657 179.014 189.279 169.008 184.876 173.961C180.672 178.745 195.038 190.343 195.038 190.343L200.29 195.028ZM214.718 164.336C211.071 165.76 213.969 167.309 229.202 167.265C236.347 167.265 250.938 166.94 247.827 159.002C244.848 151.376 223.15 161.088 223.15 161.088L214.718 164.336ZM210.565 174.479C206.705 175.147 209.241 177.246 224.181 180.232C231.182 181.637 245.541 184.229 244.073 175.859C242.668 167.79 219.471 172.999 219.471 172.999L210.565 174.479ZM205.918 186.865C202.633 187.339 204.731 189.169 217.291 192.042C223.181 193.391 235.267 195.921 234.218 188.782C233.218 181.912 213.481 185.797 213.481 185.797L205.918 186.865ZM202.389 198.338C199.172 199.156 201.452 200.755 214.256 202.279C220.252 202.991 232.537 204.228 230.745 197.239C229.015 190.531 209.803 196.471 209.803 196.471L202.389 198.338ZM221.214 151.888C219.34 156.085 223.231 155.448 236.46 143.906C242.656 138.491 255.085 127.161 245.241 121.521C235.792 116.1 225.63 142.257 225.63 142.257L221.214 151.888ZM202.876 213.284C200.896 214.44 202.839 214.889 211.92 213.078C216.18 212.235 224.843 210.361 221.913 206.664C219.078 203.104 207.461 210.599 207.461 210.599L202.876 213.284Z" fill="white"/>
<path d="M216.367 160.313L214.849 135.061L216.367 160.313ZM211.564 168.645L201.97 146.928L211.564 168.645ZM236.322 162.33L213.331 165.628L236.322 162.33ZM206.592 180.349L194.144 164.379L206.592 180.349ZM208.778 175.453L225.929 176.315L208.778 175.453ZM204.719 187.701L217.835 189L204.719 187.701ZM201.552 195.483L195.038 185.683L201.552 195.483ZM200.802 198.943L216.223 199.087L200.802 198.943ZM197.68 227.874C197.783 227.866 197.879 227.817 197.947 227.739C198.014 227.661 198.049 227.559 198.042 227.455C197.061 212.728 202.757 188.606 211.895 168.807C217.735 156.153 240.626 131.282 240.869 131.033C240.943 130.959 240.984 130.859 240.984 130.755C240.984 130.65 240.943 130.55 240.869 130.477C240.833 130.44 240.79 130.412 240.743 130.392C240.696 130.372 240.646 130.362 240.594 130.362C240.543 130.362 240.493 130.372 240.446 130.392C240.398 130.412 240.356 130.44 240.32 130.477C240.089 130.727 217.104 155.691 211.214 168.457C201.908 188.738 196.287 212.422 197.286 227.505C197.294 227.605 197.338 227.698 197.411 227.766C197.484 227.834 197.58 227.873 197.68 227.874ZM216.361 160.7C216.464 160.694 216.561 160.647 216.63 160.57C216.699 160.493 216.734 160.391 216.729 160.288L215.236 135.024C215.234 134.972 215.221 134.922 215.199 134.875C215.177 134.829 215.146 134.787 215.108 134.753C215.069 134.719 215.024 134.692 214.976 134.675C214.927 134.659 214.876 134.652 214.824 134.655C214.721 134.662 214.624 134.708 214.555 134.786C214.486 134.863 214.451 134.964 214.456 135.067L215.973 160.319C215.978 160.419 216.021 160.512 216.093 160.581C216.165 160.65 216.261 160.688 216.361 160.688V160.7ZM211.701 169.001C211.795 168.958 211.868 168.881 211.906 168.785C211.943 168.69 211.941 168.583 211.901 168.489L202.301 146.772C202.26 146.678 202.183 146.604 202.087 146.566C201.991 146.529 201.884 146.531 201.789 146.572C201.695 146.614 201.621 146.691 201.583 146.787C201.546 146.883 201.548 146.99 201.589 147.084L211.183 168.801C211.213 168.871 211.263 168.93 211.326 168.972C211.389 169.014 211.463 169.037 211.539 169.038C211.604 169.042 211.668 169.029 211.726 169.001H211.701ZM213.363 166.003L236.341 162.718C236.397 162.716 236.451 162.704 236.501 162.68C236.551 162.656 236.596 162.622 236.632 162.58C236.668 162.538 236.695 162.488 236.71 162.435C236.726 162.382 236.73 162.326 236.723 162.271C236.715 162.216 236.696 162.163 236.667 162.116C236.637 162.069 236.598 162.028 236.552 161.998C236.506 161.967 236.454 161.946 236.399 161.936C236.345 161.927 236.289 161.929 236.235 161.943L213.257 165.228C213.154 165.235 213.058 165.282 212.99 165.359C212.922 165.437 212.888 165.538 212.894 165.641C212.901 165.743 212.948 165.839 213.025 165.907C213.103 165.975 213.204 166.009 213.307 166.003H213.363ZM206.811 180.662C206.892 180.598 206.945 180.504 206.958 180.401C206.971 180.298 206.943 180.194 206.88 180.112L194.425 164.11C194.362 164.028 194.268 163.973 194.164 163.96C194.06 163.947 193.956 163.975 193.873 164.039C193.79 164.102 193.736 164.196 193.722 164.3C193.709 164.404 193.737 164.508 193.801 164.591L206.28 180.618C206.316 180.665 206.363 180.702 206.416 180.728C206.469 180.754 206.527 180.768 206.586 180.768C206.679 180.763 206.768 180.726 206.836 180.662H206.811ZM226.273 176.333C226.276 176.23 226.239 176.13 226.169 176.054C226.099 175.978 226.001 175.932 225.898 175.927L208.778 175.059C208.682 175.066 208.592 175.108 208.524 175.177C208.457 175.245 208.417 175.337 208.412 175.433C208.408 175.529 208.439 175.624 208.499 175.699C208.56 175.774 208.646 175.824 208.741 175.84L225.892 176.708C225.995 176.712 226.096 176.674 226.172 176.604C226.248 176.534 226.293 176.437 226.298 176.333H226.273ZM218.197 189.037C218.203 188.986 218.199 188.934 218.184 188.884C218.17 188.835 218.146 188.788 218.113 188.748C218.08 188.708 218.04 188.675 217.994 188.65C217.949 188.626 217.899 188.611 217.847 188.606L204.731 187.314C204.68 187.308 204.629 187.313 204.58 187.328C204.531 187.343 204.485 187.367 204.446 187.4C204.406 187.432 204.374 187.472 204.35 187.518C204.326 187.563 204.311 187.612 204.306 187.663C204.298 187.766 204.329 187.868 204.395 187.947C204.46 188.026 204.554 188.077 204.656 188.088L217.772 189.387H217.81C217.91 189.394 218.01 189.361 218.087 189.296C218.164 189.231 218.212 189.138 218.222 189.037H218.197ZM201.739 195.808C201.826 195.751 201.887 195.661 201.908 195.559C201.929 195.458 201.909 195.352 201.852 195.264L195.369 185.465C195.309 185.38 195.22 185.322 195.118 185.302C195.017 185.283 194.912 185.303 194.825 185.359C194.738 185.416 194.678 185.505 194.657 185.607C194.636 185.709 194.656 185.815 194.713 185.902L201.196 195.702C201.233 195.755 201.282 195.799 201.34 195.83C201.398 195.86 201.462 195.876 201.527 195.877C201.612 195.881 201.695 195.857 201.764 195.808H201.739ZM216.617 199.087C216.615 198.984 216.574 198.886 216.502 198.813C216.43 198.739 216.332 198.697 216.23 198.693L200.809 198.55C200.706 198.55 200.607 198.591 200.535 198.663C200.462 198.736 200.421 198.834 200.421 198.937C200.42 198.989 200.429 199.04 200.447 199.088C200.466 199.136 200.494 199.18 200.531 199.217C200.567 199.254 200.61 199.283 200.658 199.302C200.706 199.322 200.757 199.331 200.809 199.33L216.23 199.474C216.282 199.477 216.335 199.469 216.384 199.45C216.434 199.432 216.479 199.404 216.518 199.368C216.556 199.332 216.587 199.288 216.608 199.24C216.63 199.192 216.641 199.14 216.642 199.087H216.617ZM195.924 222.146C195.956 222.078 198.585 214.833 206.492 213.102C206.594 213.08 206.683 213.018 206.739 212.93C206.795 212.842 206.814 212.736 206.792 212.634C206.767 212.534 206.704 212.448 206.617 212.393C206.53 212.339 206.425 212.32 206.324 212.341C197.986 214.164 195.219 221.815 195.187 221.89C195.155 221.989 195.163 222.096 195.208 222.189C195.254 222.283 195.334 222.355 195.431 222.39H195.556C195.639 222.397 195.722 222.377 195.793 222.333C195.864 222.29 195.919 222.224 195.949 222.146H195.924ZM197.68 227.874C197.783 227.866 197.879 227.817 197.947 227.739C198.014 227.661 198.049 227.559 198.042 227.455C197.061 212.728 202.757 188.606 211.895 168.807C217.735 156.153 240.626 131.282 240.869 131.033C240.943 130.959 240.984 130.859 240.984 130.755C240.984 130.65 240.943 130.55 240.869 130.477C240.833 130.44 240.79 130.412 240.743 130.392C240.696 130.372 240.646 130.362 240.594 130.362C240.543 130.362 240.493 130.372 240.446 130.392C240.398 130.412 240.356 130.44 240.32 130.477C240.089 130.727 217.104 155.691 211.214 168.457C201.908 188.738 196.287 212.422 197.286 227.505C197.294 227.605 197.338 227.698 197.411 227.766C197.484 227.834 197.58 227.873 197.68 227.874ZM216.361 160.7C216.464 160.694 216.561 160.647 216.63 160.57C216.699 160.493 216.734 160.391 216.729 160.288L215.236 135.024C215.234 134.972 215.221 134.922 215.199 134.875C215.177 134.829 215.146 134.787 215.108 134.753C215.069 134.719 215.024 134.692 214.976 134.675C214.927 134.659 214.876 134.652 214.824 134.655C214.721 134.662 214.624 134.708 214.555 134.786C214.486 134.863 214.451 134.964 214.456 135.067L215.973 160.319C215.978 160.419 216.021 160.512 216.093 160.581C216.165 160.65 216.261 160.688 216.361 160.688V160.7ZM211.701 169.001C211.795 168.958 211.868 168.881 211.906 168.785C211.943 168.69 211.941 168.583 211.901 168.489L202.301 146.772C202.26 146.678 202.183 146.604 202.087 146.566C201.991 146.529 201.884 146.531 201.789 146.572C201.695 146.614 201.621 146.691 201.583 146.787C201.546 146.883 201.548 146.99 201.589 147.084L211.183 168.801C211.213 168.871 211.263 168.93 211.326 168.972C211.389 169.014 211.463 169.037 211.539 169.038C211.604 169.042 211.668 169.029 211.726 169.001H211.701ZM213.363 166.003L236.341 162.718C236.397 162.716 236.451 162.704 236.501 162.68C236.551 162.656 236.596 162.622 236.632 162.58C236.668 162.538 236.695 162.488 236.71 162.435C236.726 162.382 236.73 162.326 236.723 162.271C236.715 162.216 236.696 162.163 236.667 162.116C236.637 162.069 236.598 162.028 236.552 161.998C236.506 161.967 236.454 161.946 236.399 161.936C236.345 161.927 236.289 161.929 236.235 161.943L213.257 165.228C213.154 165.235 213.058 165.282 212.99 165.359C212.922 165.437 212.888 165.538 212.894 165.641C212.901 165.743 212.948 165.839 213.025 165.907C213.103 165.975 213.204 166.009 213.307 166.003H213.363ZM206.811 180.662C206.892 180.598 206.945 180.504 206.958 180.401C206.971 180.298 206.943 180.194 206.88 180.112L194.425 164.11C194.394 164.069 194.355 164.035 194.31 164.009C194.265 163.983 194.215 163.967 194.164 163.96C194.113 163.953 194.06 163.957 194.01 163.97C193.961 163.984 193.914 164.007 193.873 164.039C193.832 164.07 193.797 164.109 193.771 164.154C193.746 164.199 193.729 164.249 193.722 164.3C193.716 164.351 193.719 164.404 193.733 164.454C193.746 164.503 193.769 164.55 193.801 164.591L206.28 180.618C206.316 180.665 206.363 180.702 206.416 180.728C206.469 180.754 206.527 180.768 206.586 180.768C206.679 180.763 206.768 180.726 206.836 180.662H206.811ZM226.273 176.333C226.276 176.23 226.239 176.13 226.169 176.054C226.099 175.978 226.001 175.932 225.898 175.927L208.778 175.059C208.682 175.066 208.592 175.108 208.524 175.177C208.457 175.245 208.417 175.337 208.412 175.433C208.408 175.529 208.439 175.624 208.499 175.699C208.56 175.774 208.646 175.824 208.741 175.84L225.892 176.708C225.995 176.712 226.096 176.674 226.172 176.604C226.248 176.534 226.293 176.437 226.298 176.333H226.273ZM218.197 189.037C218.203 188.986 218.199 188.934 218.184 188.884C218.17 188.835 218.146 188.788 218.113 188.748C218.08 188.708 218.04 188.675 217.994 188.65C217.949 188.626 217.899 188.611 217.847 188.606L204.731 187.314C204.68 187.308 204.629 187.313 204.58 187.328C204.531 187.343 204.485 187.367 204.446 187.4C204.406 187.432 204.374 187.472 204.35 187.518C204.326 187.563 204.311 187.612 204.306 187.663C204.298 187.766 204.329 187.868 204.395 187.947C204.46 188.026 204.554 188.077 204.656 188.088L217.772 189.387H217.81C217.91 189.394 218.01 189.361 218.087 189.296C218.164 189.231 218.212 189.138 218.222 189.037H218.197ZM201.739 195.808C201.826 195.751 201.887 195.661 201.908 195.559C201.929 195.458 201.909 195.352 201.852 195.264L195.369 185.465C195.309 185.38 195.22 185.322 195.118 185.302C195.017 185.283 194.912 185.303 194.825 185.359C194.738 185.416 194.678 185.505 194.657 185.607C194.636 185.709 194.656 185.815 194.713 185.902L201.196 195.702C201.233 195.755 201.282 195.799 201.34 195.83C201.398 195.86 201.462 195.876 201.527 195.877C201.612 195.881 201.695 195.857 201.764 195.808H201.739ZM216.617 199.087C216.615 198.984 216.574 198.886 216.502 198.813C216.43 198.739 216.332 198.697 216.23 198.693L200.809 198.55C200.706 198.55 200.607 198.591 200.535 198.663C200.462 198.736 200.421 198.834 200.421 198.937C200.42 198.989 200.429 199.04 200.447 199.088C200.466 199.136 200.494 199.18 200.531 199.217C200.567 199.254 200.61 199.283 200.658 199.302C200.706 199.322 200.757 199.331 200.809 199.33L216.23 199.474C216.282 199.477 216.335 199.469 216.384 199.45C216.434 199.432 216.479 199.404 216.518 199.368C216.556 199.332 216.587 199.288 216.608 199.24C216.63 199.192 216.641 199.14 216.642 199.087H216.617ZM195.924 222.146C195.956 222.078 198.585 214.833 206.492 213.102C206.594 213.08 206.683 213.018 206.739 212.93C206.795 212.842 206.814 212.736 206.792 212.634C206.767 212.534 206.704 212.448 206.617 212.393C206.53 212.339 206.425 212.32 206.324 212.341C197.986 214.164 195.219 221.815 195.187 221.89C195.155 221.989 195.163 222.096 195.208 222.189C195.254 222.283 195.334 222.355 195.431 222.39H195.556C195.639 222.397 195.722 222.377 195.793 222.333C195.864 222.29 195.919 222.224 195.949 222.146H195.924Z" fill="#FEBF32"/>
<path opacity="0.2" d="M216.367 160.313L214.849 135.061L216.367 160.313ZM211.564 168.645L201.97 146.928L211.564 168.645ZM236.322 162.33L213.331 165.628L236.322 162.33ZM206.592 180.349L194.144 164.379L206.592 180.349ZM208.778 175.453L225.929 176.315L208.778 175.453ZM204.719 187.701L217.835 189L204.719 187.701ZM201.552 195.483L195.038 185.683L201.552 195.483ZM200.802 198.943L216.223 199.087L200.802 198.943ZM197.68 227.874C197.783 227.866 197.879 227.817 197.947 227.739C198.014 227.661 198.049 227.559 198.042 227.455C197.061 212.728 202.757 188.606 211.895 168.807C217.735 156.153 240.626 131.282 240.869 131.033C240.943 130.959 240.984 130.859 240.984 130.755C240.984 130.65 240.943 130.55 240.869 130.477C240.833 130.44 240.79 130.412 240.743 130.392C240.696 130.372 240.646 130.362 240.594 130.362C240.543 130.362 240.493 130.372 240.446 130.392C240.398 130.412 240.356 130.44 240.32 130.477C240.089 130.727 217.104 155.691 211.214 168.457C201.908 188.738 196.287 212.422 197.286 227.505C197.294 227.605 197.338 227.698 197.411 227.766C197.484 227.834 197.58 227.873 197.68 227.874ZM216.361 160.7C216.464 160.694 216.561 160.647 216.63 160.57C216.699 160.493 216.734 160.391 216.729 160.288L215.236 135.024C215.234 134.972 215.221 134.922 215.199 134.875C215.177 134.829 215.146 134.787 215.108 134.753C215.069 134.719 215.024 134.692 214.976 134.675C214.927 134.659 214.876 134.652 214.824 134.655C214.721 134.662 214.624 134.708 214.555 134.786C214.486 134.863 214.451 134.964 214.456 135.067L215.973 160.319C215.978 160.419 216.021 160.512 216.093 160.581C216.165 160.65 216.261 160.688 216.361 160.688V160.7ZM211.701 169.001C211.795 168.958 211.868 168.881 211.906 168.785C211.943 168.69 211.941 168.583 211.901 168.489L202.301 146.772C202.26 146.678 202.183 146.604 202.087 146.566C201.991 146.529 201.884 146.531 201.789 146.572C201.695 146.614 201.621 146.691 201.583 146.787C201.546 146.883 201.548 146.99 201.589 147.084L211.183 168.801C211.213 168.871 211.263 168.93 211.326 168.972C211.389 169.014 211.463 169.037 211.539 169.038C211.604 169.042 211.668 169.029 211.726 169.001H211.701ZM213.363 166.003L236.341 162.718C236.397 162.716 236.451 162.704 236.501 162.68C236.551 162.656 236.596 162.622 236.632 162.58C236.668 162.538 236.695 162.488 236.71 162.435C236.726 162.382 236.73 162.326 236.723 162.271C236.715 162.216 236.696 162.163 236.667 162.116C236.637 162.069 236.598 162.028 236.552 161.998C236.506 161.967 236.454 161.946 236.399 161.936C236.345 161.927 236.289 161.929 236.235 161.943L213.257 165.228C213.154 165.235 213.058 165.282 212.99 165.359C212.922 165.437 212.888 165.538 212.894 165.641C212.901 165.743 212.948 165.839 213.025 165.907C213.103 165.975 213.204 166.009 213.307 166.003H213.363ZM206.811 180.662C206.892 180.598 206.945 180.504 206.958 180.401C206.971 180.298 206.943 180.194 206.88 180.112L194.425 164.11C194.362 164.028 194.268 163.973 194.164 163.96C194.06 163.947 193.956 163.975 193.873 164.039C193.79 164.102 193.736 164.196 193.722 164.3C193.709 164.404 193.737 164.508 193.801 164.591L206.28 180.618C206.316 180.665 206.363 180.702 206.416 180.728C206.469 180.754 206.527 180.768 206.586 180.768C206.679 180.763 206.768 180.726 206.836 180.662H206.811ZM226.273 176.333C226.276 176.23 226.239 176.13 226.169 176.054C226.099 175.978 226.001 175.932 225.898 175.927L208.778 175.059C208.682 175.066 208.592 175.108 208.524 175.177C208.457 175.245 208.417 175.337 208.412 175.433C208.408 175.529 208.439 175.624 208.499 175.699C208.56 175.774 208.646 175.824 208.741 175.84L225.892 176.708C225.995 176.712 226.096 176.674 226.172 176.604C226.248 176.534 226.293 176.437 226.298 176.333H226.273ZM218.197 189.037C218.203 188.986 218.199 188.934 218.184 188.884C218.17 188.835 218.146 188.788 218.113 188.748C218.08 188.708 218.04 188.675 217.994 188.65C217.949 188.626 217.899 188.611 217.847 188.606L204.731 187.314C204.68 187.308 204.629 187.313 204.58 187.328C204.531 187.343 204.485 187.367 204.446 187.4C204.406 187.432 204.374 187.472 204.35 187.518C204.326 187.563 204.311 187.612 204.306 187.663C204.298 187.766 204.329 187.868 204.395 187.947C204.46 188.026 204.554 188.077 204.656 188.088L217.772 189.387H217.81C217.91 189.394 218.01 189.361 218.087 189.296C218.164 189.231 218.212 189.138 218.222 189.037H218.197ZM201.739 195.808C201.826 195.751 201.887 195.661 201.908 195.559C201.929 195.458 201.909 195.352 201.852 195.264L195.369 185.465C195.309 185.38 195.22 185.322 195.118 185.302C195.017 185.283 194.912 185.303 194.825 185.359C194.738 185.416 194.678 185.505 194.657 185.607C194.636 185.709 194.656 185.815 194.713 185.902L201.196 195.702C201.233 195.755 201.282 195.799 201.34 195.83C201.398 195.86 201.462 195.876 201.527 195.877C201.612 195.881 201.695 195.857 201.764 195.808H201.739ZM216.617 199.087C216.615 198.984 216.574 198.886 216.502 198.813C216.43 198.739 216.332 198.697 216.23 198.693L200.809 198.55C200.706 198.55 200.607 198.591 200.535 198.663C200.462 198.736 200.421 198.834 200.421 198.937C200.42 198.989 200.429 199.04 200.447 199.088C200.466 199.136 200.494 199.18 200.531 199.217C200.567 199.254 200.61 199.283 200.658 199.302C200.706 199.322 200.757 199.331 200.809 199.33L216.23 199.474C216.282 199.477 216.335 199.469 216.384 199.45C216.434 199.432 216.479 199.404 216.518 199.368C216.556 199.332 216.587 199.288 216.608 199.24C216.63 199.192 216.641 199.14 216.642 199.087H216.617ZM195.924 222.146C195.956 222.078 198.585 214.833 206.492 213.102C206.594 213.08 206.683 213.018 206.739 212.93C206.795 212.842 206.814 212.736 206.792 212.634C206.767 212.534 206.704 212.448 206.617 212.393C206.53 212.339 206.425 212.32 206.324 212.341C197.986 214.164 195.219 221.815 195.187 221.89C195.155 221.989 195.163 222.096 195.208 222.189C195.254 222.283 195.334 222.355 195.431 222.39H195.556C195.639 222.397 195.722 222.377 195.793 222.333C195.864 222.29 195.919 222.224 195.949 222.146H195.924ZM197.68 227.874C197.783 227.866 197.879 227.817 197.947 227.739C198.014 227.661 198.049 227.559 198.042 227.455C197.061 212.728 202.757 188.606 211.895 168.807C217.735 156.153 240.626 131.282 240.869 131.033C240.943 130.959 240.984 130.859 240.984 130.755C240.984 130.65 240.943 130.55 240.869 130.477C240.833 130.44 240.79 130.412 240.743 130.392C240.696 130.372 240.646 130.362 240.594 130.362C240.543 130.362 240.493 130.372 240.446 130.392C240.398 130.412 240.356 130.44 240.32 130.477C240.089 130.727 217.104 155.691 211.214 168.457C201.908 188.738 196.287 212.422 197.286 227.505C197.294 227.605 197.338 227.698 197.411 227.766C197.484 227.834 197.58 227.873 197.68 227.874ZM216.361 160.7C216.464 160.694 216.561 160.647 216.63 160.57C216.699 160.493 216.734 160.391 216.729 160.288L215.236 135.024C215.234 134.972 215.221 134.922 215.199 134.875C215.177 134.829 215.146 134.787 215.108 134.753C215.069 134.719 215.024 134.692 214.976 134.675C214.927 134.659 214.876 134.652 214.824 134.655C214.721 134.662 214.624 134.708 214.555 134.786C214.486 134.863 214.451 134.964 214.456 135.067L215.973 160.319C215.978 160.419 216.021 160.512 216.093 160.581C216.165 160.65 216.261 160.688 216.361 160.688V160.7ZM211.701 169.001C211.795 168.958 211.868 168.881 211.906 168.785C211.943 168.69 211.941 168.583 211.901 168.489L202.301 146.772C202.26 146.678 202.183 146.604 202.087 146.566C201.991 146.529 201.884 146.531 201.789 146.572C201.695 146.614 201.621 146.691 201.583 146.787C201.546 146.883 201.548 146.99 201.589 147.084L211.183 168.801C211.213 168.871 211.263 168.93 211.326 168.972C211.389 169.014 211.463 169.037 211.539 169.038C211.604 169.042 211.668 169.029 211.726 169.001H211.701ZM213.363 166.003L236.341 162.718C236.397 162.716 236.451 162.704 236.501 162.68C236.551 162.656 236.596 162.622 236.632 162.58C236.668 162.538 236.695 162.488 236.71 162.435C236.726 162.382 236.73 162.326 236.723 162.271C236.715 162.216 236.696 162.163 236.667 162.116C236.637 162.069 236.598 162.028 236.552 161.998C236.506 161.967 236.454 161.946 236.399 161.936C236.345 161.927 236.289 161.929 236.235 161.943L213.257 165.228C213.154 165.235 213.058 165.282 212.99 165.359C212.922 165.437 212.888 165.538 212.894 165.641C212.901 165.743 212.948 165.839 213.025 165.907C213.103 165.975 213.204 166.009 213.307 166.003H213.363ZM206.811 180.662C206.892 180.598 206.945 180.504 206.958 180.401C206.971 180.298 206.943 180.194 206.88 180.112L194.425 164.11C194.394 164.069 194.355 164.035 194.31 164.009C194.265 163.983 194.215 163.967 194.164 163.96C194.113 163.953 194.06 163.957 194.01 163.97C193.961 163.984 193.914 164.007 193.873 164.039C193.832 164.07 193.797 164.109 193.771 164.154C193.746 164.199 193.729 164.249 193.722 164.3C193.716 164.351 193.719 164.404 193.733 164.454C193.746 164.503 193.769 164.55 193.801 164.591L206.28 180.618C206.316 180.665 206.363 180.702 206.416 180.728C206.469 180.754 206.527 180.768 206.586 180.768C206.679 180.763 206.768 180.726 206.836 180.662H206.811ZM226.273 176.333C226.276 176.23 226.239 176.13 226.169 176.054C226.099 175.978 226.001 175.932 225.898 175.927L208.778 175.059C208.682 175.066 208.592 175.108 208.524 175.177C208.457 175.245 208.417 175.337 208.412 175.433C208.408 175.529 208.439 175.624 208.499 175.699C208.56 175.774 208.646 175.824 208.741 175.84L225.892 176.708C225.995 176.712 226.096 176.674 226.172 176.604C226.248 176.534 226.293 176.437 226.298 176.333H226.273ZM218.197 189.037C218.203 188.986 218.199 188.934 218.184 188.884C218.17 188.835 218.146 188.788 218.113 188.748C218.08 188.708 218.04 188.675 217.994 188.65C217.949 188.626 217.899 188.611 217.847 188.606L204.731 187.314C204.68 187.308 204.629 187.313 204.58 187.328C204.531 187.343 204.485 187.367 204.446 187.4C204.406 187.432 204.374 187.472 204.35 187.518C204.326 187.563 204.311 187.612 204.306 187.663C204.298 187.766 204.329 187.868 204.395 187.947C204.46 188.026 204.554 188.077 204.656 188.088L217.772 189.387H217.81C217.91 189.394 218.01 189.361 218.087 189.296C218.164 189.231 218.212 189.138 218.222 189.037H218.197ZM201.739 195.808C201.826 195.751 201.887 195.661 201.908 195.559C201.929 195.458 201.909 195.352 201.852 195.264L195.369 185.465C195.309 185.38 195.22 185.322 195.118 185.302C195.017 185.283 194.912 185.303 194.825 185.359C194.738 185.416 194.678 185.505 194.657 185.607C194.636 185.709 194.656 185.815 194.713 185.902L201.196 195.702C201.233 195.755 201.282 195.799 201.34 195.83C201.398 195.86 201.462 195.876 201.527 195.877C201.612 195.881 201.695 195.857 201.764 195.808H201.739ZM216.617 199.087C216.615 198.984 216.574 198.886 216.502 198.813C216.43 198.739 216.332 198.697 216.23 198.693L200.809 198.55C200.706 198.55 200.607 198.591 200.535 198.663C200.462 198.736 200.421 198.834 200.421 198.937C200.42 198.989 200.429 199.04 200.447 199.088C200.466 199.136 200.494 199.18 200.531 199.217C200.567 199.254 200.61 199.283 200.658 199.302C200.706 199.322 200.757 199.331 200.809 199.33L216.23 199.474C216.282 199.477 216.335 199.469 216.384 199.45C216.434 199.432 216.479 199.404 216.518 199.368C216.556 199.332 216.587 199.288 216.608 199.24C216.63 199.192 216.641 199.14 216.642 199.087H216.617ZM195.924 222.146C195.956 222.078 198.585 214.833 206.492 213.102C206.594 213.08 206.683 213.018 206.739 212.93C206.795 212.842 206.814 212.736 206.792 212.634C206.767 212.534 206.704 212.448 206.617 212.393C206.53 212.339 206.425 212.32 206.324 212.341C197.986 214.164 195.219 221.815 195.187 221.89C195.155 221.989 195.163 222.096 195.208 222.189C195.254 222.283 195.334 222.355 195.431 222.39H195.556C195.639 222.397 195.722 222.377 195.793 222.333C195.864 222.29 195.919 222.224 195.949 222.146H195.924Z" fill="black"/>
<path d="M207.879 216.863H190.197V220.523H191.74L194.931 240.491H203.145L206.336 220.523H207.879V216.863Z" fill="#FEBF32"/>
<path opacity="0.3" d="M207.879 216.863H190.197V220.523H191.74L194.931 240.491H203.145L206.336 220.523H207.879V216.863Z" fill="white"/>
<path d="M48.6859 106.188L28.1185 99.4742L26.2884 94.64L22.11 94.5088L14.5276 93.0723L15.4395 94.64L24.9831 101.567L27.3377 102.741L48.8483 113.977L48.6859 106.188Z" fill="white" stroke="#263238" stroke-width="1.00396" stroke-miterlimit="10"/>
<path d="M26.2886 94.639L24.3274 93.4648L20.4113 94.9014L21.0608 95.6821L26.2886 94.639Z" fill="white" stroke="#263238" stroke-width="1.00396" stroke-linejoin="round"/>
<path d="M48.6859 106.188L28.1185 99.4742L26.2884 94.64L22.11 94.5088L14.5276 93.0723L15.4395 94.64L24.9831 101.567L27.3377 102.741L48.8483 113.977L48.6859 106.188Z" fill="white"/>
<mask id="mask0_204_7577" style="mask-type:luminance" maskUnits="userSpaceOnUse" x="14" y="93" width="35" height="21">
<path d="M48.686 106.187L28.1186 99.4723L26.2886 94.638L22.1101 94.5068L14.5277 93.0703L15.4396 94.638L24.9832 101.565L27.3379 102.739L48.8484 113.975L48.686 106.187Z" fill="white"/>
</mask>
<g mask="url(#mask0_204_7577)">
<path opacity="0.5" d="M48.686 106.187L28.1186 99.4723L26.2886 94.638L22.1101 94.5068L14.5277 93.0703L15.4396 94.638L24.9832 101.565L27.3379 102.739L48.8484 113.975L48.686 106.187Z" fill="#FEBF32" stroke="#263238" stroke-width="1.00396" stroke-miterlimit="10"/>
</g>
<path d="M48.6859 106.188L28.1185 99.4742L26.2884 94.64L22.11 94.5088L14.5276 93.0723L15.4395 94.64L24.9831 101.567L27.3377 102.741L48.8483 113.977L48.6859 106.188Z" stroke="#263238" stroke-width="1.00396" stroke-miterlimit="10"/>
<path d="M26.2886 94.639L24.3274 93.4648L20.4113 94.9014L21.0608 95.6821L26.2886 94.639Z" fill="white"/>
<mask id="mask1_204_7577" style="mask-type:luminance" maskUnits="userSpaceOnUse" x="20" y="93" width="7" height="3">
<path d="M26.2886 94.64L24.3274 93.4658L20.4113 94.9023L21.0608 95.6831L26.2886 94.64Z" fill="white"/>
</mask>
<g mask="url(#mask1_204_7577)">
<path opacity="0.5" d="M26.2886 94.64L24.3274 93.4658L20.4113 94.9023L21.0608 95.6831L26.2886 94.64Z" fill="#FEBF32" stroke="#263238" stroke-width="1.00396" stroke-linejoin="round"/>
</g>
<path d="M26.2886 94.639L24.3274 93.4648L20.4113 94.9014L21.0608 95.6821L26.2886 94.639Z" stroke="#263238" stroke-width="1.00396" stroke-linejoin="round"/>
<path d="M53.0518 62.6098C53.0518 62.6098 52.7333 65.4204 53.5265 67.2255C54.3197 69.0305 58.723 75.1451 58.723 75.1451L50.5035 81.7345C50.5035 81.7345 47.0933 74.8641 46.4437 73.7523C45.7942 72.6406 45.0135 67.8563 47.1308 64.4273C49.2481 60.9984 52.2961 60.074 53.0518 62.6098Z" fill="white"/>
<mask id="mask2_204_7577" style="mask-type:luminance" maskUnits="userSpaceOnUse" x="45" y="61" width="14" height="21">
<path d="M53.0518 62.6108C53.0518 62.6108 52.7333 65.4214 53.5265 67.2264C54.3197 69.0315 58.723 75.1461 58.723 75.1461L50.5035 81.7354C50.5035 81.7354 47.0933 74.8651 46.4437 73.7533C45.7942 72.6415 45.0135 67.8573 47.1308 64.4283C49.2481 60.9994 52.2961 60.075 53.0518 62.6108Z" fill="white"/>
</mask>
<g mask="url(#mask2_204_7577)">
<g style="mix-blend-mode:multiply" opacity="0.5">
<path d="M48.8296 71.6436L52.3959 79.0386L50.4972 81.743L46.9121 75.3411L48.8296 71.6436Z" fill="#FEBF32"/>
</g>
</g>
<path d="M53.0518 62.6098C53.0518 62.6098 52.7333 65.4204 53.5265 67.2255C54.3197 69.0305 58.723 75.1451 58.723 75.1451L50.5035 81.7345C50.5035 81.7345 47.0933 74.8641 46.4437 73.7523C45.7942 72.6406 45.0135 67.8563 47.1308 64.4273C49.2481 60.9984 52.2961 60.074 53.0518 62.6098Z" stroke="#263238" stroke-width="1.00396" stroke-miterlimit="10"/>
<path d="M55.6002 57.4647C55.0943 54.3418 51.5154 47.9898 45.838 48.2334C42.153 48.3958 40.4291 49.139 38.8302 50.0447C37.5269 50.8125 36.312 51.7216 35.2076 52.7553C32.4345 56.0843 31.4602 56.9962 31.9973 59.5445C31.9532 60.5609 32.1125 61.5759 32.4657 62.53C33.3152 64.7972 33.896 66.2775 34.633 67.358C34.4082 68.4136 33.8211 71.1992 33.7899 71.8363C33.7586 72.4733 35.6636 72.0299 36.6254 71.7863C38.4117 75.7836 41.6845 78.5568 42.7026 78.8753C44.4764 79.4312 47.2808 76.5144 48.7673 74.2534C50.2538 71.9924 49.1295 69.4504 49.1358 68.4386C49.142 67.4267 52.4773 65.2032 53.714 64.4974C54.9506 63.7917 56.0999 60.5813 55.6002 57.4647Z" fill="white"/>
<mask id="mask3_204_7577" style="mask-type:luminance" maskUnits="userSpaceOnUse" x="31" y="48" width="25" height="31">
<path d="M55.6001 57.4647C55.0942 54.3418 51.5153 47.9898 45.8379 48.2334C42.1529 48.3958 40.429 49.139 38.8301 50.0447C37.5268 50.8125 36.3119 51.7216 35.2075 52.7553C32.4344 56.0843 31.46 56.9962 31.9972 59.5445C31.9531 60.5609 32.1124 61.5759 32.4656 62.53C33.315 64.7972 33.8959 66.2775 34.6329 67.358C34.4081 68.4136 33.821 71.1992 33.7897 71.8363C33.7585 72.4733 35.6635 72.0299 36.6253 71.7863C38.4116 75.7836 41.6844 78.5568 42.7025 78.8753C44.4763 79.4312 47.2807 76.5144 48.7672 74.2534C50.2537 71.9924 49.1294 69.4504 49.1357 68.4386C49.1419 67.4267 52.4772 65.2032 53.7138 64.4974C54.9505 63.7917 56.0997 60.5813 55.6001 57.4647Z" fill="white"/>
</mask>
<g mask="url(#mask3_204_7577)">
<g style="mix-blend-mode:multiply" opacity="0.5">
<path d="M32.0221 59.5436C31.978 60.56 32.1373 61.575 32.4905 62.5291C33.34 64.7963 33.9208 66.2766 34.6578 67.3571C34.433 68.4126 33.8459 71.1983 33.8146 71.8353C33.7834 72.4724 35.6884 72.029 36.6502 71.7854C38.4365 75.7827 41.7093 78.5558 42.7274 78.8744C44.5012 79.4302 47.3056 76.5134 48.7921 74.2525C49.1635 73.688 49.4045 73.0479 49.4979 72.3787C49.4167 72.0852 49.3604 71.904 49.3604 71.904C49.3604 71.904 48.5235 75.1206 46.8621 74.7022C45.2007 74.2837 42.6587 70.9547 41.2409 69.8055C39.8231 68.6562 40.404 67.1447 40.1229 65.4334C39.8418 63.722 35.6447 62.2168 35.3636 61.2362C35.0825 60.2556 36.0631 56.1958 36.0631 56.1958C36.0631 56.1958 37.6558 54.0723 37.3123 54.9467C37.0695 55.7049 36.9814 56.5041 37.0533 57.297C37.1252 58.0898 37.3556 58.8602 37.7308 59.5623C37.994 60.1164 38.4117 60.5826 38.9335 60.905C39.4554 61.2274 40.0592 61.3923 40.6725 61.3799L42.1965 53.8287L38.9799 51.168L35.2324 52.7294C32.4343 56.0834 31.4787 56.9953 32.0221 59.5436Z" fill="#FEBF32"/>
</g>
</g>
<path d="M55.6002 57.4647C55.0943 54.3418 51.5154 47.9898 45.838 48.2334C42.153 48.3958 40.4291 49.139 38.8302 50.0447C37.5269 50.8125 36.312 51.7216 35.2076 52.7553C32.4345 56.0843 31.4602 56.9962 31.9973 59.5445C31.9532 60.5609 32.1125 61.5759 32.4657 62.53C33.3152 64.7972 33.896 66.2775 34.633 67.358C34.4082 68.4136 33.8211 71.1992 33.7899 71.8363C33.7586 72.4733 35.6636 72.0299 36.6254 71.7863C38.4117 75.7836 41.6845 78.5568 42.7026 78.8753C44.4764 79.4312 47.2808 76.5144 48.7673 74.2534C50.2538 71.9924 49.1295 69.4504 49.1358 68.4386C49.142 67.4267 52.4773 65.2032 53.714 64.4974C54.9506 63.7917 56.0999 60.5813 55.6002 57.4647Z" stroke="#263238" stroke-miterlimit="10"/>
<path d="M35.4073 65.4717L36.0319 67.258C36.0319 67.258 37.3748 67.7014 39.0112 65.9151" stroke="#263238" stroke-miterlimit="10" stroke-linecap="round"/>
<path d="M40.0229 73.8161C40.0229 73.8161 41.5095 73.6662 42.1091 71.5801" stroke="#263238" stroke-miterlimit="10" stroke-linecap="round"/>
<path d="M34.3643 63.9776C34.3643 63.9776 34.8077 62.6348 37.4872 62.6348" stroke="#263238" stroke-miterlimit="10" stroke-linecap="round"/>
<path d="M48.0988 45.747C46.1519 45.4671 44.1884 45.3168 42.2215 45.2973C42.2215 45.2973 36.338 41.9059 30.6855 45.5222C25.0331 49.1385 27.75 55.4718 27.75 57.0519C27.75 58.6321 25.9387 58.6384 27.0692 60.6745C28.1997 62.7106 32.0221 61.5864 32.0221 61.5864C32.0625 60.8184 32.2655 60.0678 32.6176 59.3841C32.9696 58.7004 33.4628 58.0992 34.0645 57.6203C36.1007 56.0401 37.7246 55.6966 38.3991 56.1525C38.3991 56.1525 37.9494 59.544 38.624 60.8994C38.624 60.8994 40.8849 62.0299 41.5657 62.0299C42.2465 62.0299 41.1223 62.9855 43.377 63.8349C43.7878 63.9824 44.2272 64.0327 44.6607 63.9818C45.0942 63.9308 45.5099 63.7801 45.8753 63.5413C46.2064 62.1673 46.9309 60.0999 48.28 60.5808C50.2599 61.2866 52.0649 66.1583 49.3855 67.8197C52.6083 68.4068 56.5119 62.7044 56.743 57.5079C56.9741 52.3114 51.4466 46.3341 48.0988 45.747Z" fill="#263238"/>
<path d="M38.499 53.9233C38.499 53.9233 40.1604 53.0302 42.1965 54.9414C44.2327 56.8526 48.1925 59.4071 53.439 58.0018" stroke="white" stroke-width="0.5" stroke-linecap="round" stroke-linejoin="round"/>
<path d="M38.2679 52.3918C38.2679 52.3918 39.4109 50.6055 41.3221 50.6055C43.2334 50.6055 47.6991 53.2849 51.2655 53.2849" stroke="white" stroke-width="0.5" stroke-linecap="round" stroke-linejoin="round"/>
<path d="M36.9689 55.8339C36.9689 55.8339 34.8016 53.1607 32.7655 55.328C30.7293 57.4953 32.0222 59.5439 32.0222 59.5439" stroke="white" stroke-width="0.5" stroke-linecap="round" stroke-linejoin="round"/>
<path d="M28.3059 57.6197C29.5479 56.4997 30.3199 54.9511 30.467 53.2851C30.723 50.4808 34.5517 48.0574 36.9688 50.3559" stroke="white" stroke-width="0.5" stroke-linecap="round" stroke-linejoin="round"/>
<path d="M32.2533 47.4207C32.2533 47.4207 36.082 43.7231 39.2673 48.4387" stroke="white" stroke-width="0.5" stroke-linecap="round" stroke-linejoin="round"/>
<path d="M63.4136 229.218C63.4136 229.218 65.7683 232.878 65.506 235.232L65.2499 237.587C65.2499 237.587 56.612 239.954 54.7819 239.954C52.9519 239.954 43.2647 239.036 43.2647 239.036L42.8462 237.375C42.8169 237.252 42.8307 237.123 42.8853 237.009C42.9399 236.896 43.0319 236.804 43.146 236.75L51.7839 232.722L54.5071 229.742L63.4136 229.218Z" fill="white" stroke="#263238" stroke-width="1.00396" stroke-miterlimit="10"/>
<path d="M56.0935 238.111C58.4357 238.292 62.8827 236.862 65.4622 235.95L65.2811 237.587C65.2811 237.587 56.6119 239.954 54.7819 239.954C52.9519 239.954 43.2646 239.036 43.2646 239.036L42.9648 237.849C44.5138 237.855 52.9956 237.874 56.0935 238.111Z" fill="#FEBF32" stroke="#263238" stroke-width="1.00396" stroke-miterlimit="10"/>
<path d="M51.7964 232.721L39.2236 238.192C39.2236 238.192 38.1493 240.884 39.2236 241.422C40.2978 241.959 63.7196 241.422 63.7196 241.422C63.7196 241.422 65.3373 237.168 62.7827 234.314C60.2282 231.459 51.7964 232.721 51.7964 232.721Z" fill="white" stroke="#263238" stroke-width="1.00396" stroke-miterlimit="10"/>
<path d="M63.7196 241.423C63.7196 241.423 40.2978 241.96 39.2235 241.423C38.7051 241.161 38.6864 240.405 38.8051 239.687H64.1318C64.0491 240.277 63.911 240.858 63.7196 241.423Z" fill="#FEBF32" stroke="#263238" stroke-width="1.00396" stroke-miterlimit="10"/>
<path d="M45.8504 137.655C45.8504 137.655 42.5651 152.214 41.3222 161.32C40.0793 170.427 39.3486 188.671 39.6109 190.763C39.8732 192.856 52.9519 227.913 52.9519 227.913L54.2573 231.036L63.4136 229.206C63.4136 229.206 59.2289 215.865 57.6612 208.539C56.0936 201.212 52.6646 189.177 52.6646 187.084C52.6646 184.992 60.7841 145.031 61.365 142.408C61.9459 139.785 64.5816 135.756 64.5816 135.756L47.0496 135.4L45.8504 137.655Z" fill="#FEBF32" stroke="#263238" stroke-width="1.00396" stroke-miterlimit="10"/>
<path d="M45.8504 137.653C45.8504 137.653 43.9266 150.95 44.7199 160.194C45.5131 169.438 47.2182 189.119 47.2182 192.048C47.2182 194.977 51.9463 212.472 52.2148 217.968C52.6333 225.906 52.0462 229.835 52.0462 229.835L51.7651 232.714C51.7651 232.714 57.2802 233.501 58.4856 233.845C59.8779 234.203 61.3147 234.359 62.7515 234.307C62.7515 234.307 64.7564 225.482 64.7564 217.962C64.7564 210.442 63.0888 194.965 62.2581 188.694C61.4274 182.423 64.0444 158.233 65.5309 153.717C67.0174 149.202 70.2652 139.639 68.0792 134.755C65.8931 129.871 45.8504 137.653 45.8504 137.653Z" fill="#FEBF32" stroke="#263238" stroke-width="1.00396" stroke-miterlimit="10"/>
<path d="M70.5088 132.309L70.309 138.255C70.309 138.255 66.7488 138.96 61.9521 139.791C57.9922 140.478 48.0489 139.61 44.7012 139.285C44.3961 139.258 44.114 139.112 43.9163 138.878C43.7187 138.644 43.6214 138.341 43.6456 138.036L43.9704 132.665L70.5088 132.309Z" fill="#263238"/>
<path d="M56.5932 73.0352C56.5932 73.0352 50.972 79.1123 48.8547 82.891C46.7374 86.6697 45.9004 92.4596 45.1072 97.019C44.314 101.578 46.4625 112.284 45.8567 117.199L43.9392 132.683C43.9392 132.683 43.527 133.732 44.9073 134.881C46.2877 136.03 53.0269 136.449 59.1165 136.755C61.34 136.867 67.9793 135.437 69.0661 135.368C70.3777 135.287 70.4214 133.619 70.4777 132.308C70.74 126.143 71.8517 109.711 72.5825 102.553C74.0877 87.9564 65.8495 73.8658 56.5932 73.0352Z" fill="white" stroke="#263238" stroke-width="1.00396" stroke-miterlimit="10"/>
<g style="mix-blend-mode:multiply">
<path d="M71.8953 110.853C72.1452 107.611 72.395 104.669 72.6136 102.552C72.6761 101.928 72.7135 101.303 72.7448 100.678L57.8111 103.177L44.9822 98.8047C44.9836 101.459 45.1337 104.112 45.4319 106.749L58.0172 110.272L71.8953 110.853Z" fill="#FEBF32"/>
</g>
<g style="mix-blend-mode:multiply">
<path d="M56.0373 73.6475C55.1879 74.5906 53.5015 76.508 51.8964 78.5442L61.3775 88.1815L64.5004 86.9323L56.0373 73.6475Z" fill="#FEBF32"/>
</g>
<path d="M56.5931 73.0352C56.5931 73.0352 50.9719 79.1123 48.8545 82.891C48.2267 84.0394 47.7181 85.2491 47.3368 86.5011L58.6417 73.4411C57.9738 73.2388 57.2876 73.1028 56.5931 73.0352Z" fill="#263238"/>
<g style="mix-blend-mode:multiply">
<path d="M45.5444 94.5576L57.8112 98.5923L72.7074 96.881C72.474 93.1702 71.6495 89.5204 70.2653 86.0695L58.2546 90.885L47.5181 86.0195C46.6402 88.8102 45.9803 91.6647 45.5444 94.5576Z" fill="#FEBF32"/>
</g>
<g style="mix-blend-mode:multiply">
<path d="M66.6613 126.143C60.4397 127.187 54.0558 126.666 48.0863 124.625L45.0946 123.601L44.1639 131.096L47.5741 132.051C54.0571 133.864 60.8329 134.386 67.517 133.588L70.2714 133.257C70.4147 132.953 70.4955 132.624 70.5087 132.288C70.5837 130.621 70.7149 128.197 70.8835 125.418L66.6613 126.143Z" fill="#FEBF32"/>
</g>
<g style="mix-blend-mode:multiply">
<path d="M68.329 115.937C62.1071 116.985 55.7217 116.462 49.7539 114.413L45.944 113.107C46.0385 114.468 46.0197 115.834 45.8878 117.192L45.4443 120.796L49.2418 121.858C55.7222 123.672 62.496 124.196 69.1784 123.401L71.0521 123.176C71.2083 120.677 71.3894 118.017 71.583 115.387L68.329 115.937Z" fill="#FEBF32"/>
</g>
<path d="M9.73173 89.5246L21.8082 99.2344L22.3287 98.587L10.2522 88.8772L9.73173 89.5246Z" fill="#263238"/>
<path d="M62.408 79.7734C62.408 79.7734 66.8362 82.7902 66.9362 89.9166C66.9799 93.0395 66.6551 95.9563 65.9369 101.072C65.2186 106.187 60.7591 122.845 57.2864 124.868C53.8137 126.892 48.4236 123.069 48.4236 123.069L22.3536 105.762L16.0516 100.672L12.9287 94.7759L13.9093 92.9021L21.5979 98.7982L17.4569 94.9695L18.2689 93.9389L19.7679 94.982L24.1399 96.6184L25.0955 102.864L26.4446 103.789L51.3841 112.901C51.3841 112.901 51.0718 99.479 51.3029 96.9119C51.534 94.3449 51.8526 87.893 54.6007 83.2149" fill="white"/>
<mask id="mask4_204_7577" style="mask-type:luminance" maskUnits="userSpaceOnUse" x="12" y="79" width="55" height="47">
<path d="M62.4081 79.7754C62.4081 79.7754 66.8364 82.7921 66.9363 89.9186C66.98 93.0415 66.6552 95.9583 65.937 101.074C65.2187 106.189 60.7592 122.846 57.2865 124.87C53.8139 126.894 48.4237 123.071 48.4237 123.071L22.3537 105.764L16.0517 100.674L12.9288 94.7778L13.9094 92.9041L21.598 98.8001L17.457 94.9714L18.269 93.9409L19.768 94.9839L24.14 96.6203L25.0957 102.866L26.4448 103.791L51.3843 112.903C51.3843 112.903 51.072 99.4809 51.3031 96.9139C51.5342 94.3469 51.8527 87.8949 54.6008 83.2168" fill="white"/>
</mask>
<g mask="url(#mask4_204_7577)">
<g style="mix-blend-mode:multiply" opacity="0.5">
<path d="M51.2093 102.759C51.2093 107.394 51.3655 112.902 51.3655 112.902L26.451 103.827L25.1019 102.903L24.1463 96.6571L19.7742 95.0206L18.2814 93.9589L17.4695 94.9894L21.598 98.7994L13.9094 92.9033L12.9788 94.7458L16.1017 100.642L22.4037 105.763L23.9901 106.819L58.4357 117.918L51.2093 102.759Z" fill="#FEBF32"/>
</g>
</g>
<path d="M62.408 79.7734C62.408 79.7734 66.8362 82.7902 66.9362 89.9166C66.9799 93.0395 66.6551 95.9563 65.9369 101.072C65.2186 106.187 60.7591 122.845 57.2864 124.868C53.8137 126.892 48.4236 123.069 48.4236 123.069L22.3536 105.762L16.0516 100.672L12.9287 94.7759L13.9093 92.9021L21.5979 98.7982L17.4569 94.9695L18.2689 93.9389L19.7679 94.982L24.1399 96.6184L25.0955 102.864L26.4446 103.789L51.3841 112.901C51.3841 112.901 51.0718 99.479 51.3029 96.9119C51.534 94.3449 51.8526 87.893 54.6007 83.2149" stroke="#263238" stroke-width="1.00396" stroke-miterlimit="10"/>
<path d="M51.3842 112.902L60.9028 119.773L63.3699 115.401C63.3699 115.401 65.075 114.058 65.3248 113.046C65.5747 112.034 65.2561 110.391 65.5122 109.38C65.7683 108.368 67.0424 107.418 67.1611 104.97C67.2798 102.522 67.1611 100.479 67.1611 100.479C67.1611 100.479 69.2222 92.0037 68.9974 88.3187C68.7725 84.6337 65.2186 78.1193 62.3706 77.9757C59.5225 77.832 55.8187 78.263 52.9456 82.61C50.0726 86.9571 50.6597 99.6486 50.21 100.442C49.7603 101.235 50.3849 105.151 50.3849 105.151C50.1352 105.337 49.9281 105.575 49.7774 105.847C49.6266 106.119 49.5356 106.421 49.5104 106.731C49.4605 107.749 50.5597 110.254 50.5597 110.254L51.3842 112.902Z" fill="white" stroke="#263238" stroke-width="1.00396" stroke-miterlimit="10"/>
<g style="mix-blend-mode:multiply">
<path d="M50.4597 97.1816C50.4794 98.2715 50.3978 99.3609 50.2162 100.436C49.8164 101.148 50.2724 104.364 50.3723 105.02C55.7261 106.683 61.3873 107.11 66.9299 106.269C67.049 105.835 67.1202 105.389 67.1423 104.939C67.2672 102.497 67.1423 100.448 67.1423 100.448C67.1423 100.448 67.3234 99.6925 67.5733 98.5432C61.833 98.9081 56.0701 98.4496 50.4597 97.1816Z" fill="#FEBF32"/>
</g>
<g style="mix-blend-mode:multiply">
<path d="M52.5584 83.3027C51.6653 85.0953 51.1656 87.7872 50.8783 90.5166C56.5483 92.6805 62.6616 93.4246 68.6851 92.6839C68.9254 91.2395 69.032 89.7759 69.0036 88.3119C68.8955 87.1546 68.622 86.0188 68.1917 84.9391C62.9321 85.0619 57.6785 84.512 52.5584 83.3027Z" fill="#FEBF32"/>
</g>
<path d="M50.5596 110.322L51.3653 112.902L60.8839 119.772L63.351 115.4C63.351 115.4 65.0561 114.057 65.3059 113.045C65.3505 112.869 65.3777 112.69 65.3871 112.508C60.371 112.422 55.3872 111.687 50.5596 110.322Z" fill="#263238"/>
<path d="M57.4489 233.764C57.4489 233.764 57.6612 228.355 58.698 220.448C59.7349 212.541 57.2428 201.311 56.8243 199.437C56.4058 197.564 57.0367 193.404 56.6182 191.942C56.1997 190.481 54.1761 184.248 55.369 177.015C56.562 169.782 57.5301 150.664 57.5301 150.664C57.5301 150.664 54.5258 148.222 53.6452 145.043C52.7645 141.864 53.4391 140.864 53.4391 140.864" stroke="#263238" stroke-width="1.00396" stroke-miterlimit="10"/>
<path d="M58.8416 141.157L57.6862 147.553" stroke="#263238" stroke-width="1.00396" stroke-miterlimit="10"/>
</svg>
