<svg width="274" height="210" viewBox="0 0 239 242" fill="none" xmlns="http://www.w3.org/2000/svg">
<path d="M121.954 42.7073V46.1697" stroke="black" stroke-width="1.10721" stroke-linecap="round" stroke-linejoin="round"/>
<path d="M121.954 49.9084V55.5139" stroke="black" stroke-width="1.10721" stroke-linecap="round" stroke-linejoin="round" stroke-dasharray="7.17 7.17"/>
<path d="M121.954 57.3807V60.843" stroke="black" stroke-width="1.10721" stroke-linecap="round" stroke-linejoin="round"/>
<path d="M177.211 101.323H173.749" stroke="black" stroke-width="1.10721" stroke-linecap="round" stroke-linejoin="round"/>
<path d="M170.01 101.323H164.405" stroke="black" stroke-width="1.10721" stroke-linecap="round" stroke-linejoin="round" stroke-dasharray="7.17 7.17"/>
<path d="M162.538 101.323H159.076" stroke="black" stroke-width="1.10721" stroke-linecap="round" stroke-linejoin="round"/>
<path d="M84.8378 101.323H81.3702" stroke="black" stroke-width="1.10721" stroke-linecap="round" stroke-linejoin="round"/>
<path d="M77.6367 101.323H72.0312" stroke="black" stroke-width="1.10721" stroke-linecap="round" stroke-linejoin="round" stroke-dasharray="7.17 7.17"/>
<path d="M70.1644 101.323H66.6968" stroke="black" stroke-width="1.10721" stroke-linecap="round" stroke-linejoin="round"/>
<path d="M217.409 113.066C217.409 112.823 217.505 112.591 217.677 112.42C217.848 112.249 218.08 112.153 218.322 112.153C218.564 112.153 218.796 112.249 218.967 112.42C219.138 112.591 219.234 112.823 219.234 113.066V115.057C219.234 115.299 219.138 115.532 218.967 115.703C218.796 115.874 218.564 115.97 218.322 115.97C218.08 115.97 217.848 115.874 217.677 115.703C217.505 115.532 217.409 115.299 217.409 115.057V113.066ZM218.009 115.094C218.009 115.365 218.129 115.469 218.322 115.469C218.515 115.469 218.629 115.365 218.629 115.094V113.008C218.629 112.737 218.51 112.633 218.322 112.633C218.134 112.633 218.009 112.737 218.009 113.008V115.094Z" fill="black"/>
<path d="M217.837 118.092C217.987 118.111 218.138 118.071 218.26 117.982C218.382 117.893 218.466 117.761 218.494 117.612H218.901V121.461H218.301V118.546H217.837V118.092Z" fill="black"/>
<path d="M217.409 123.99C217.409 123.748 217.505 123.516 217.677 123.344C217.848 123.173 218.08 123.077 218.322 123.077C218.564 123.077 218.796 123.173 218.967 123.344C219.138 123.516 219.234 123.748 219.234 123.99V125.976C219.234 126.218 219.138 126.451 218.967 126.622C218.796 126.793 218.564 126.889 218.322 126.889C218.08 126.889 217.848 126.793 217.677 126.622C217.505 126.451 217.409 126.218 217.409 125.976V123.99ZM218.009 126.018C218.009 126.289 218.129 126.394 218.322 126.394C218.515 126.394 218.629 126.289 218.629 126.018V123.932C218.629 123.656 218.51 123.557 218.322 123.557C218.134 123.557 218.009 123.656 218.009 123.932V126.018Z" fill="black"/>
<path d="M217.837 129.016C217.987 129.035 218.138 128.996 218.26 128.907C218.382 128.817 218.466 128.685 218.494 128.537H218.901V132.354H218.301V129.439H217.837V129.016Z" fill="black"/>
<path d="M217.409 134.914C217.409 134.672 217.505 134.44 217.677 134.269C217.848 134.098 218.08 134.001 218.322 134.001C218.564 134.001 218.796 134.098 218.967 134.269C219.138 134.44 219.234 134.672 219.234 134.914V136.901C219.234 137.143 219.138 137.375 218.967 137.546C218.796 137.717 218.564 137.813 218.322 137.813C218.08 137.813 217.848 137.717 217.677 137.546C217.505 137.375 217.409 137.143 217.409 136.901V134.914ZM218.009 136.937C218.009 137.213 218.129 137.313 218.322 137.313C218.515 137.313 218.629 137.213 218.629 136.937V134.851C218.629 134.58 218.51 134.476 218.322 134.476C218.134 134.476 218.009 134.58 218.009 134.851V136.937Z" fill="black"/>
<path d="M217.837 139.935C217.987 139.954 218.138 139.915 218.26 139.826C218.382 139.736 218.466 139.604 218.494 139.456H218.901V143.278H218.301V140.363H217.837V139.935Z" fill="black"/>
<path d="M217.409 145.833C217.409 145.591 217.505 145.359 217.677 145.188C217.848 145.017 218.08 144.92 218.322 144.92C218.564 144.92 218.796 145.017 218.967 145.188C219.138 145.359 219.234 145.591 219.234 145.833V147.825C219.234 148.067 219.138 148.299 218.967 148.47C218.796 148.641 218.564 148.737 218.322 148.737C218.08 148.737 217.848 148.641 217.677 148.47C217.505 148.299 217.409 148.067 217.409 147.825V145.833ZM218.009 147.861C218.009 148.133 218.129 148.237 218.322 148.237C218.515 148.237 218.629 148.133 218.629 147.861V145.776C218.629 145.504 218.51 145.4 218.322 145.4C218.134 145.4 218.009 145.504 218.009 145.776V147.861Z" fill="black"/>
<path d="M217.409 151.298C217.409 151.056 217.505 150.824 217.677 150.652C217.848 150.481 218.08 150.385 218.322 150.385C218.564 150.385 218.796 150.481 218.967 150.652C219.138 150.824 219.234 151.056 219.234 151.298V153.269C219.234 153.511 219.138 153.743 218.967 153.914C218.796 154.085 218.564 154.181 218.322 154.181C218.08 154.181 217.848 154.085 217.677 153.914C217.505 153.743 217.409 153.511 217.409 153.269V151.298ZM218.009 153.321C218.009 153.597 218.129 153.696 218.322 153.696C218.515 153.696 218.629 153.597 218.629 153.321V151.235C218.629 150.959 218.51 150.854 218.322 150.854C218.134 150.854 218.009 150.959 218.009 151.235V153.321Z" fill="black"/>
<path d="M217.409 156.757C217.409 156.515 217.505 156.283 217.677 156.112C217.848 155.941 218.08 155.845 218.322 155.845C218.564 155.845 218.796 155.941 218.967 156.112C219.138 156.283 219.234 156.515 219.234 156.757V158.744C219.234 158.986 219.138 159.218 218.967 159.389C218.796 159.56 218.564 159.656 218.322 159.656C218.08 159.656 217.848 159.56 217.677 159.389C217.505 159.218 217.409 158.986 217.409 158.744V156.757ZM218.009 158.786C218.009 159.057 218.129 159.161 218.322 159.161C218.515 159.161 218.629 159.057 218.629 158.786V156.7C218.629 156.429 218.51 156.324 218.322 156.324C218.134 156.324 218.009 156.429 218.009 156.7V158.786Z" fill="black"/>
<path d="M217.837 167.243C217.987 167.262 218.138 167.223 218.26 167.133C218.382 167.044 218.466 166.912 218.494 166.764H218.901V170.586H218.301V167.671H217.837V167.243Z" fill="black"/>
<path d="M217.837 172.708C217.988 172.728 218.141 172.688 218.263 172.598C218.386 172.507 218.468 172.373 218.494 172.223H218.901V176.045H218.301V173.13H217.837V172.708Z" fill="black"/>
<path d="M217.837 178.168C217.987 178.186 218.138 178.147 218.26 178.058C218.382 177.969 218.466 177.836 218.494 177.688H218.901V181.505H218.301V178.595H217.837V178.168Z" fill="black"/>
<path d="M217.409 184.065C217.409 183.823 217.505 183.591 217.677 183.42C217.848 183.249 218.08 183.153 218.322 183.153C218.564 183.153 218.796 183.249 218.967 183.42C219.138 183.591 219.234 183.823 219.234 184.065V186.052C219.234 186.294 219.138 186.526 218.967 186.697C218.796 186.868 218.564 186.964 218.322 186.964C218.08 186.964 217.848 186.868 217.677 186.697C217.505 186.526 217.409 186.294 217.409 186.052V184.065ZM218.009 186.088C218.009 186.365 218.129 186.464 218.322 186.464C218.515 186.464 218.629 186.365 218.629 186.088V184.034C218.629 183.757 218.51 183.653 218.322 183.653C218.134 183.653 218.009 183.757 218.009 184.034V186.088Z" fill="black"/>
<path d="M217.409 189.525C217.409 189.283 217.505 189.05 217.677 188.879C217.848 188.708 218.08 188.612 218.322 188.612C218.564 188.612 218.796 188.708 218.967 188.879C219.138 189.05 219.234 189.283 219.234 189.525V191.511C219.234 191.753 219.138 191.985 218.967 192.157C218.796 192.328 218.564 192.424 218.322 192.424C218.08 192.424 217.848 192.328 217.677 192.157C217.505 191.985 217.409 191.753 217.409 191.511V189.525ZM218.009 191.553C218.009 191.824 218.129 191.928 218.322 191.928C218.515 191.928 218.629 191.824 218.629 191.553V189.467C218.629 189.196 218.51 189.092 218.322 189.092C218.134 189.092 218.009 189.196 218.009 189.467V191.553Z" fill="black"/>
<path d="M217.837 194.551C217.987 194.57 218.138 194.531 218.26 194.441C218.382 194.352 218.466 194.22 218.494 194.072H218.901V197.889H218.301V194.984H217.837V194.551Z" fill="black"/>
<path d="M221.059 107.168C221.21 107.187 221.362 107.148 221.485 107.059C221.608 106.969 221.692 106.837 221.722 106.688H222.123V110.51H221.523V107.596H221.059V107.168Z" fill="black"/>
<path d="M221.059 112.633C221.21 112.651 221.362 112.612 221.485 112.523C221.608 112.434 221.692 112.302 221.722 112.153H222.123V115.97H221.523V113.055H221.059V112.633Z" fill="black"/>
<path d="M220.663 123.99C220.654 123.864 220.67 123.739 220.712 123.62C220.753 123.501 220.818 123.393 220.904 123.3C220.989 123.208 221.093 123.135 221.208 123.084C221.323 123.034 221.447 123.008 221.573 123.008C221.699 123.008 221.823 123.034 221.938 123.084C222.053 123.135 222.157 123.208 222.242 123.3C222.328 123.393 222.393 123.501 222.435 123.62C222.476 123.739 222.492 123.864 222.483 123.99V125.976C222.492 126.102 222.476 126.228 222.435 126.346C222.393 126.465 222.328 126.574 222.242 126.666C222.157 126.758 222.053 126.831 221.938 126.882C221.823 126.932 221.699 126.958 221.573 126.958C221.447 126.958 221.323 126.932 221.208 126.882C221.093 126.831 220.989 126.758 220.904 126.666C220.818 126.574 220.753 126.465 220.712 126.346C220.67 126.228 220.654 126.102 220.663 125.976V123.99ZM221.263 126.018C221.263 126.289 221.383 126.394 221.57 126.394C221.758 126.394 221.883 126.289 221.883 126.018V123.932C221.883 123.656 221.763 123.557 221.57 123.557C221.378 123.557 221.263 123.656 221.263 123.932V126.018Z" fill="black"/>
<path d="M221.059 139.935C221.21 139.954 221.362 139.915 221.485 139.826C221.608 139.737 221.692 139.605 221.722 139.456H222.123V143.278H221.523V140.363H221.059V139.935Z" fill="black"/>
<path d="M220.663 145.833C220.654 145.708 220.67 145.582 220.712 145.463C220.753 145.345 220.818 145.236 220.904 145.144C220.989 145.051 221.093 144.978 221.208 144.928C221.323 144.877 221.447 144.851 221.573 144.851C221.699 144.851 221.823 144.877 221.938 144.928C222.053 144.978 222.157 145.051 222.242 145.144C222.328 145.236 222.393 145.345 222.435 145.463C222.476 145.582 222.492 145.708 222.483 145.833V147.825C222.492 147.95 222.476 148.076 222.435 148.195C222.393 148.313 222.328 148.422 222.242 148.514C222.157 148.606 222.053 148.68 221.938 148.73C221.823 148.78 221.699 148.806 221.573 148.806C221.447 148.806 221.323 148.78 221.208 148.73C221.093 148.68 220.989 148.606 220.904 148.514C220.818 148.422 220.753 148.313 220.712 148.195C220.67 148.076 220.654 147.95 220.663 147.825V145.833ZM221.263 147.861C221.263 148.132 221.383 148.237 221.57 148.237C221.758 148.237 221.883 148.132 221.883 147.861V145.776C221.883 145.504 221.763 145.4 221.57 145.4C221.378 145.4 221.263 145.504 221.263 145.776V147.861Z" fill="black"/>
<path d="M221.059 150.86C221.21 150.878 221.362 150.839 221.485 150.75C221.608 150.661 221.692 150.529 221.722 150.38H222.123V154.202H221.523V151.287H221.059V150.86Z" fill="black"/>
<path d="M221.059 156.319C221.21 156.339 221.363 156.3 221.486 156.211C221.609 156.122 221.694 155.989 221.722 155.839H222.123V159.662H221.523V156.747H221.059V156.319Z" fill="black"/>
<path d="M221.059 161.784C221.21 161.803 221.362 161.763 221.485 161.674C221.608 161.585 221.692 161.453 221.722 161.304H222.123V165.121H221.523V162.206H221.059V161.784Z" fill="black"/>
<path d="M220.663 167.681C220.654 167.556 220.67 167.43 220.712 167.312C220.753 167.193 220.818 167.084 220.904 166.992C220.989 166.9 221.093 166.826 221.208 166.776C221.323 166.726 221.447 166.7 221.573 166.7C221.699 166.7 221.823 166.726 221.938 166.776C222.053 166.826 222.157 166.9 222.242 166.992C222.328 167.084 222.393 167.193 222.435 167.312C222.476 167.43 222.492 167.556 222.483 167.681V169.668C222.492 169.793 222.476 169.919 222.435 170.038C222.393 170.156 222.328 170.265 222.242 170.357C222.157 170.45 222.053 170.523 221.938 170.573C221.823 170.624 221.699 170.65 221.573 170.65C221.447 170.65 221.323 170.624 221.208 170.573C221.093 170.523 220.989 170.45 220.904 170.357C220.818 170.265 220.753 170.156 220.712 170.038C220.67 169.919 220.654 169.793 220.663 169.668V167.681ZM221.263 169.705C221.263 169.981 221.383 170.08 221.57 170.08C221.758 170.08 221.883 169.981 221.883 169.705V167.645C221.883 167.369 221.763 167.264 221.57 167.264C221.378 167.264 221.263 167.369 221.263 167.645V169.705Z" fill="black"/>
<path d="M220.663 173.141C220.654 173.016 220.67 172.89 220.712 172.771C220.753 172.652 220.818 172.544 220.904 172.452C220.989 172.359 221.093 172.286 221.208 172.236C221.323 172.185 221.447 172.159 221.573 172.159C221.699 172.159 221.823 172.185 221.938 172.236C222.053 172.286 222.157 172.359 222.242 172.452C222.328 172.544 222.393 172.652 222.435 172.771C222.476 172.89 222.492 173.016 222.483 173.141V175.128C222.492 175.253 222.476 175.379 222.435 175.497C222.393 175.616 222.328 175.725 222.242 175.817C222.157 175.909 222.053 175.983 221.938 176.033C221.823 176.083 221.699 176.109 221.573 176.109C221.447 176.109 221.323 176.083 221.208 176.033C221.093 175.983 220.989 175.909 220.904 175.817C220.818 175.725 220.753 175.616 220.712 175.497C220.67 175.379 220.654 175.253 220.663 175.128V173.141ZM221.263 175.169C221.263 175.44 221.383 175.545 221.57 175.545C221.758 175.545 221.883 175.44 221.883 175.169V173.084C221.883 172.812 221.763 172.708 221.57 172.708C221.378 172.708 221.263 172.812 221.263 173.084V175.169Z" fill="black"/>
<path d="M214.588 139.935C214.739 139.954 214.891 139.915 215.014 139.826C215.137 139.737 215.221 139.605 215.251 139.456H215.652V143.278H215.052V140.363H214.588V139.935Z" fill="black"/>
<path d="M214.166 145.833C214.166 145.591 214.262 145.359 214.433 145.188C214.604 145.017 214.836 144.92 215.078 144.92C215.32 144.92 215.553 145.017 215.724 145.188C215.895 145.359 215.991 145.591 215.991 145.833V147.825C215.991 148.067 215.895 148.299 215.724 148.47C215.553 148.641 215.32 148.737 215.078 148.737C214.836 148.737 214.604 148.641 214.433 148.47C214.262 148.299 214.166 148.067 214.166 147.825V145.833ZM214.766 147.861C214.766 148.133 214.886 148.237 215.078 148.237C215.271 148.237 215.391 148.133 215.391 147.861V145.776C215.391 145.504 215.271 145.4 215.078 145.4C214.886 145.4 214.766 145.504 214.766 145.776V147.861Z" fill="black"/>
<path d="M214.166 151.298C214.166 151.056 214.262 150.824 214.433 150.652C214.604 150.481 214.836 150.385 215.078 150.385C215.32 150.385 215.553 150.481 215.724 150.652C215.895 150.824 215.991 151.056 215.991 151.298V153.269C215.991 153.511 215.895 153.743 215.724 153.914C215.553 154.085 215.32 154.181 215.078 154.181C214.836 154.181 214.604 154.085 214.433 153.914C214.262 153.743 214.166 153.511 214.166 153.269V151.298ZM214.766 153.321C214.766 153.597 214.886 153.696 215.078 153.696C215.271 153.696 215.391 153.597 215.391 153.321V151.235C215.391 150.959 215.271 150.854 215.078 150.854C214.886 150.854 214.766 150.959 214.766 151.235V153.321Z" fill="black"/>
<path d="M214.588 156.319C214.739 156.339 214.892 156.3 215.015 156.211C215.138 156.122 215.223 155.989 215.251 155.839H215.652V159.662H215.052V156.747H214.588V156.319Z" fill="black"/>
<path d="M214.588 167.243C214.739 167.262 214.891 167.223 215.014 167.134C215.137 167.045 215.221 166.913 215.251 166.764H215.652V170.586H215.052V167.671H214.588V167.243Z" fill="black"/>
<path d="M214.588 172.708C214.74 172.727 214.892 172.687 215.015 172.597C215.138 172.507 215.223 172.373 215.251 172.223H215.652V176.045H215.052V173.13H214.588V172.708Z" fill="black"/>
<path d="M214.588 178.168C214.739 178.186 214.891 178.147 215.014 178.058C215.137 177.969 215.221 177.837 215.251 177.688H215.652V181.505H215.052V178.595H214.588V178.168Z" fill="black"/>
<path d="M210.923 123.99C210.913 123.864 210.93 123.739 210.971 123.62C211.012 123.501 211.078 123.393 211.163 123.3C211.249 123.208 211.352 123.135 211.467 123.084C211.583 123.034 211.707 123.008 211.833 123.008C211.958 123.008 212.082 123.034 212.198 123.084C212.313 123.135 212.416 123.208 212.502 123.3C212.587 123.393 212.653 123.501 212.694 123.62C212.735 123.739 212.752 123.864 212.742 123.99V125.976C212.752 126.102 212.735 126.228 212.694 126.346C212.653 126.465 212.587 126.574 212.502 126.666C212.416 126.758 212.313 126.831 212.198 126.882C212.082 126.932 211.958 126.958 211.833 126.958C211.707 126.958 211.583 126.932 211.467 126.882C211.352 126.831 211.249 126.758 211.163 126.666C211.078 126.574 211.012 126.465 210.971 126.346C210.93 126.228 210.913 126.102 210.923 125.976V123.99ZM211.522 126.018C211.522 126.289 211.642 126.394 211.83 126.394C212.018 126.394 212.143 126.289 212.143 126.018V123.932C212.143 123.656 212.023 123.557 211.83 123.557C211.637 123.557 211.522 123.656 211.522 123.932V126.018Z" fill="black"/>
<path d="M210.923 134.914C210.913 134.789 210.93 134.663 210.971 134.544C211.012 134.426 211.078 134.317 211.163 134.225C211.249 134.132 211.352 134.059 211.467 134.009C211.583 133.958 211.707 133.932 211.833 133.932C211.958 133.932 212.082 133.958 212.198 134.009C212.313 134.059 212.416 134.132 212.502 134.225C212.587 134.317 212.653 134.426 212.694 134.544C212.735 134.663 212.752 134.789 212.742 134.914V136.901C212.752 137.026 212.735 137.152 212.694 137.27C212.653 137.389 212.587 137.498 212.502 137.59C212.416 137.682 212.313 137.756 212.198 137.806C212.082 137.856 211.958 137.882 211.833 137.882C211.707 137.882 211.583 137.856 211.467 137.806C211.352 137.756 211.249 137.682 211.163 137.59C211.078 137.498 211.012 137.389 210.971 137.27C210.93 137.152 210.913 137.026 210.923 136.901V134.914ZM211.522 136.937C211.522 137.214 211.642 137.313 211.83 137.313C212.018 137.313 212.143 137.214 212.143 136.937V134.851C212.143 134.58 212.023 134.476 211.83 134.476C211.637 134.476 211.522 134.58 211.522 134.851V136.937Z" fill="black"/>
<path d="M211.34 150.86C211.49 150.878 211.642 150.839 211.765 150.75C211.888 150.661 211.973 150.529 212.002 150.38H212.403V154.202H211.804V151.287H211.34V150.86Z" fill="black"/>
<path d="M211.34 156.319C211.491 156.339 211.643 156.3 211.766 156.211C211.89 156.122 211.974 155.989 212.002 155.839H212.403V159.662H211.804V156.747H211.34V156.319Z" fill="black"/>
<path d="M211.34 172.708C211.491 172.727 211.644 172.687 211.767 172.597C211.89 172.507 211.974 172.373 212.002 172.223H212.403V176.045H211.804V173.13H211.34V172.708Z" fill="black"/>
<path d="M210.923 178.606C210.913 178.48 210.93 178.354 210.971 178.236C211.012 178.117 211.078 178.008 211.163 177.916C211.249 177.824 211.352 177.751 211.467 177.7C211.583 177.65 211.707 177.624 211.833 177.624C211.958 177.624 212.082 177.65 212.198 177.7C212.313 177.751 212.416 177.824 212.502 177.916C212.587 178.008 212.653 178.117 212.694 178.236C212.735 178.354 212.752 178.48 212.742 178.606V180.592C212.752 180.718 212.735 180.843 212.694 180.962C212.653 181.081 212.587 181.189 212.502 181.282C212.416 181.374 212.313 181.447 212.198 181.498C212.082 181.548 211.958 181.574 211.833 181.574C211.707 181.574 211.583 181.548 211.467 181.498C211.352 181.447 211.249 181.374 211.163 181.282C211.078 181.189 211.012 181.081 210.971 180.962C210.93 180.843 210.913 180.718 210.923 180.592V178.606ZM211.522 180.629C211.522 180.9 211.642 181.004 211.83 181.004C212.018 181.004 212.143 180.9 212.143 180.629V178.543C212.143 178.272 212.023 178.168 211.83 178.168C211.637 178.168 211.522 178.272 211.522 178.543V180.629Z" fill="black"/>
<path d="M211.34 183.627C211.49 183.646 211.642 183.607 211.765 183.518C211.888 183.429 211.973 183.296 212.002 183.147H212.403V186.97H211.804V184.034H211.34V183.627Z" fill="black"/>
<path d="M76.4791 129.804C76.4791 129.562 76.5753 129.33 76.7464 129.159C76.9175 128.987 77.1496 128.891 77.3917 128.891C77.6337 128.891 77.8658 128.987 78.0369 129.159C78.208 129.33 78.3042 129.562 78.3042 129.804V131.79C78.3042 132.033 78.208 132.265 78.0369 132.436C77.8658 132.607 77.6337 132.703 77.3917 132.703C77.1496 132.703 76.9175 132.607 76.7464 132.436C76.5753 132.265 76.4791 132.033 76.4791 131.79V129.804ZM77.0788 131.827C77.0788 132.103 77.1987 132.208 77.3917 132.208C77.5846 132.208 77.6993 132.103 77.6993 131.827V129.741C77.6993 129.465 77.5794 129.361 77.3917 129.361C77.2039 129.361 77.0788 129.465 77.0788 129.741V131.827Z" fill="black"/>
<path d="M76.4791 135.279C76.4791 135.037 76.5753 134.805 76.7464 134.634C76.9175 134.463 77.1496 134.366 77.3917 134.366C77.6337 134.366 77.8658 134.463 78.0369 134.634C78.208 134.805 78.3042 135.037 78.3042 135.279V137.266C78.3042 137.508 78.208 137.74 78.0369 137.911C77.8658 138.082 77.6337 138.178 77.3917 138.178C77.1496 138.178 76.9175 138.082 76.7464 137.911C76.5753 137.74 76.4791 137.508 76.4791 137.266V135.279ZM77.0788 137.307C77.0788 137.579 77.1987 137.683 77.3917 137.683C77.5846 137.683 77.6993 137.579 77.6993 137.307V135.222C77.6993 134.95 77.5794 134.846 77.3917 134.846C77.2039 134.846 77.0788 134.95 77.0788 135.222V137.307Z" fill="black"/>
<path d="M76.9014 140.306C77.0514 140.324 77.2028 140.285 77.3249 140.196C77.4469 140.107 77.5304 139.974 77.5585 139.826H77.9652V143.648H77.3655V140.754H76.9014V140.306Z" fill="black"/>
<path d="M76.4791 146.203C76.4791 145.961 76.5753 145.729 76.7464 145.558C76.9175 145.387 77.1496 145.291 77.3917 145.291C77.6337 145.291 77.8658 145.387 78.0369 145.558C78.208 145.729 78.3042 145.961 78.3042 146.203V148.19C78.3042 148.432 78.208 148.664 78.0369 148.835C77.8658 149.006 77.6337 149.102 77.3917 149.102C77.1496 149.102 76.9175 149.006 76.7464 148.835C76.5753 148.664 76.4791 148.432 76.4791 148.19V146.203ZM77.0788 148.226C77.0788 148.503 77.1987 148.607 77.3917 148.607C77.5846 148.607 77.6993 148.503 77.6993 148.226V146.167C77.6993 145.89 77.5794 145.786 77.3917 145.786C77.2039 145.786 77.0788 145.89 77.0788 146.167V148.226Z" fill="black"/>
<path d="M76.9014 151.23C77.0514 151.248 77.2028 151.209 77.3249 151.12C77.4469 151.031 77.5304 150.899 77.5585 150.75H77.9652V154.567H77.3655V151.652H76.9014V151.23Z" fill="black"/>
<path d="M76.4791 157.127C76.4791 156.885 76.5753 156.653 76.7464 156.482C76.9175 156.311 77.1496 156.215 77.3917 156.215C77.6337 156.215 77.8658 156.311 78.0369 156.482C78.208 156.653 78.3042 156.885 78.3042 157.127V159.114C78.3042 159.356 78.208 159.588 78.0369 159.759C77.8658 159.93 77.6337 160.027 77.3917 160.027C77.1496 160.027 76.9175 159.93 76.7464 159.759C76.5753 159.588 76.4791 159.356 76.4791 159.114V157.127ZM77.0788 159.151C77.0788 159.422 77.1987 159.526 77.3917 159.526C77.5846 159.526 77.6993 159.422 77.6993 159.151V157.065C77.6993 156.794 77.5794 156.689 77.3917 156.689C77.2039 156.689 77.0788 156.794 77.0788 157.065V159.151Z" fill="black"/>
<path d="M76.9014 162.133C77.0514 162.152 77.2028 162.112 77.3249 162.023C77.4469 161.934 77.5304 161.802 77.5585 161.653H77.9652V165.476H77.3655V162.561H76.9014V162.133Z" fill="black"/>
<path d="M76.4791 168.046C76.4791 167.804 76.5753 167.572 76.7464 167.401C76.9175 167.23 77.1496 167.134 77.3917 167.134C77.6337 167.134 77.8658 167.23 78.0369 167.401C78.208 167.572 78.3042 167.804 78.3042 168.046V170.033C78.3042 170.275 78.208 170.507 78.0369 170.678C77.8658 170.849 77.6337 170.946 77.3917 170.946C77.1496 170.946 76.9175 170.849 76.7464 170.678C76.5753 170.507 76.4791 170.275 76.4791 170.033V168.046ZM77.0788 170.075C77.0788 170.346 77.1987 170.45 77.3917 170.45C77.5846 170.45 77.6993 170.346 77.6993 170.075V167.989C77.6993 167.718 77.5794 167.614 77.3917 167.614C77.2039 167.614 77.0788 167.718 77.0788 167.989V170.075Z" fill="black"/>
<path d="M76.4791 173.511C76.4791 173.269 76.5753 173.037 76.7464 172.866C76.9175 172.695 77.1496 172.599 77.3917 172.599C77.6337 172.599 77.8658 172.695 78.0369 172.866C78.208 173.037 78.3042 173.269 78.3042 173.511V175.498C78.3042 175.74 78.208 175.972 78.0369 176.143C77.8658 176.314 77.6337 176.41 77.3917 176.41C77.1496 176.41 76.9175 176.314 76.7464 176.143C76.5753 175.972 76.4791 175.74 76.4791 175.498V173.511ZM77.0788 175.534C77.0788 175.805 77.1987 175.91 77.3917 175.91C77.5846 175.91 77.6993 175.805 77.6993 175.534V173.449C77.6993 173.177 77.5794 173.073 77.3917 173.073C77.2039 173.073 77.0788 173.177 77.0788 173.449V175.534Z" fill="black"/>
<path d="M76.4791 178.971C76.4791 178.729 76.5753 178.496 76.7464 178.325C76.9175 178.154 77.1496 178.058 77.3917 178.058C77.6337 178.058 77.8658 178.154 78.0369 178.325C78.208 178.496 78.3042 178.729 78.3042 178.971V180.957C78.3042 181.199 78.208 181.431 78.0369 181.603C77.8658 181.774 77.6337 181.87 77.3917 181.87C77.1496 181.87 76.9175 181.774 76.7464 181.603C76.5753 181.431 76.4791 181.199 76.4791 180.957V178.971ZM77.0788 180.994C77.0788 181.27 77.1987 181.374 77.3917 181.374C77.5846 181.374 77.6993 181.27 77.6993 180.994V178.934C77.6993 178.658 77.5794 178.559 77.3917 178.559C77.2039 178.559 77.0788 178.658 77.0788 178.934V180.994Z" fill="black"/>
<path d="M76.9014 183.997C77.0514 184.016 77.2028 183.977 77.3249 183.887C77.4469 183.798 77.5304 183.666 77.5585 183.518H77.9652V187.335H77.3655V184.42H76.9014V183.997Z" fill="black"/>
<path d="M76.9014 189.457C77.0514 189.475 77.2028 189.436 77.3249 189.347C77.4469 189.258 77.5304 189.126 77.5585 188.977H77.9652V192.799H77.3655V189.884H76.9014V189.457Z" fill="black"/>
<path d="M76.9014 194.916C77.0514 194.935 77.2028 194.896 77.3249 194.806C77.4469 194.717 77.5304 194.585 77.5585 194.437H77.9652V198.259H77.3655V195.344H76.9014V194.916Z" fill="black"/>
<path d="M76.9014 200.381C77.0514 200.4 77.2028 200.36 77.3249 200.271C77.4469 200.182 77.5304 200.05 77.5585 199.901H77.9652V203.718H77.3655V200.803H76.9014V200.381Z" fill="black"/>
<path d="M77.0787 208.302C77.0787 208.578 77.1987 208.677 77.3916 208.677C77.5845 208.677 77.6993 208.578 77.6993 208.302V206.216C77.6993 205.945 77.5793 205.841 77.3916 205.841C77.2039 205.841 77.0787 205.945 77.0787 206.216V208.302Z" fill="black"/>
<path d="M80.1448 151.23C80.2954 151.249 80.4475 151.209 80.5704 151.12C80.6933 151.031 80.7779 150.899 80.8071 150.75H81.2086V154.567H80.6089V151.652H80.1448V151.23Z" fill="black"/>
<path d="M80.1448 156.689C80.2954 156.708 80.4475 156.669 80.5704 156.58C80.6933 156.491 80.7779 156.359 80.8071 156.21H81.2086V160.047H80.6089V157.133H80.1448V156.689Z" fill="black"/>
<path d="M79.7486 168.046C79.7391 167.921 79.7556 167.795 79.797 167.677C79.8384 167.558 79.9039 167.449 79.9893 167.357C80.0747 167.265 80.1783 167.191 80.2934 167.141C80.4086 167.091 80.5329 167.065 80.6585 167.065C80.7841 167.065 80.9084 167.091 81.0236 167.141C81.1387 167.191 81.2423 167.265 81.3277 167.357C81.4131 167.449 81.4786 167.558 81.52 167.677C81.5614 167.795 81.5779 167.921 81.5684 168.046V170.033C81.5779 170.158 81.5614 170.284 81.52 170.403C81.4786 170.521 81.4131 170.63 81.3277 170.722C81.2423 170.815 81.1387 170.888 81.0236 170.938C80.9084 170.989 80.7841 171.015 80.6585 171.015C80.5329 171.015 80.4086 170.989 80.2934 170.938C80.1783 170.888 80.0747 170.815 79.9893 170.722C79.9039 170.63 79.8384 170.521 79.797 170.403C79.7556 170.284 79.7391 170.158 79.7486 170.033V168.046ZM80.3482 170.075C80.3482 170.346 80.4682 170.45 80.6559 170.45C80.8436 170.45 80.9688 170.346 80.9688 170.075V167.989C80.9688 167.718 80.8488 167.614 80.6559 167.614C80.463 167.614 80.3482 167.718 80.3482 167.989V170.075Z" fill="black"/>
<path d="M80.1448 173.084C80.2954 173.102 80.4475 173.063 80.5704 172.974C80.6933 172.885 80.7779 172.753 80.8071 172.604H81.2086V176.426H80.6089V173.501H80.1448V173.084Z" fill="black"/>
<path d="M79.7486 178.971C79.7391 178.845 79.7556 178.719 79.797 178.601C79.8384 178.482 79.9039 178.373 79.9893 178.281C80.0747 178.189 80.1783 178.116 80.2934 178.065C80.4086 178.015 80.5329 177.989 80.6585 177.989C80.7841 177.989 80.9084 178.015 81.0236 178.065C81.1387 178.116 81.2423 178.189 81.3277 178.281C81.4131 178.373 81.4786 178.482 81.52 178.601C81.5614 178.719 81.5779 178.845 81.5684 178.971V180.957C81.5779 181.083 81.5614 181.208 81.52 181.327C81.4786 181.446 81.4131 181.554 81.3277 181.647C81.2423 181.739 81.1387 181.812 81.0236 181.863C80.9084 181.913 80.7841 181.939 80.6585 181.939C80.5329 181.939 80.4086 181.913 80.2934 181.863C80.1783 181.812 80.0747 181.739 79.9893 181.647C79.9039 181.554 79.8384 181.446 79.797 181.327C79.7556 181.208 79.7391 181.083 79.7486 180.957V178.971ZM80.3482 180.994C80.3482 181.27 80.4682 181.374 80.6559 181.374C80.8436 181.374 80.9688 181.27 80.9688 180.994V178.934C80.9688 178.658 80.8488 178.559 80.6559 178.559C80.463 178.559 80.3482 178.658 80.3482 178.934V180.994Z" fill="black"/>
<path d="M80.3273 191.918C80.3273 192.189 80.4473 192.293 80.635 192.293C80.8227 192.293 80.9478 192.189 80.9478 191.918V189.832C80.9478 189.561 80.8279 189.457 80.635 189.457C80.442 189.457 80.3273 189.561 80.3273 189.832V191.918Z" fill="black"/>
<path d="M80.1449 194.916C80.2893 194.932 80.4345 194.894 80.5534 194.811C80.6723 194.728 80.7569 194.604 80.7914 194.463H81.193V198.285H80.5933V195.37H80.1292L80.1449 194.916Z" fill="black"/>
<path d="M80.1448 200.381C80.2954 200.4 80.4475 200.361 80.5704 200.272C80.6933 200.183 80.7779 200.05 80.8071 199.901H81.2086V203.718H80.6089V200.803H80.1448V200.381Z" fill="black"/>
<path d="M79.7486 217.198C79.7391 217.072 79.7556 216.946 79.797 216.828C79.8384 216.709 79.9039 216.6 79.9893 216.508C80.0747 216.416 80.1783 216.343 80.2934 216.292C80.4086 216.242 80.5329 216.216 80.6585 216.216C80.7841 216.216 80.9084 216.242 81.0236 216.292C81.1387 216.343 81.2423 216.416 81.3277 216.508C81.4131 216.6 81.4786 216.709 81.52 216.828C81.5614 216.946 81.5779 217.072 81.5684 217.198V219.189C81.5779 219.315 81.5614 219.441 81.52 219.559C81.4786 219.678 81.4131 219.787 81.3277 219.879C81.2423 219.971 81.1387 220.044 81.0236 220.095C80.9084 220.145 80.7841 220.171 80.6585 220.171C80.5329 220.171 80.4086 220.145 80.2934 220.095C80.1783 220.044 80.0747 219.971 79.9893 219.879C79.9039 219.787 79.8384 219.678 79.797 219.559C79.7556 219.441 79.7391 219.315 79.7486 219.189V217.198ZM80.3482 219.226C80.3482 219.497 80.4682 219.601 80.6559 219.601C80.8436 219.601 80.9688 219.497 80.9688 219.226V217.14C80.9688 216.869 80.8488 216.765 80.6559 216.765C80.463 216.765 80.3482 216.869 80.3482 217.14V219.226Z" fill="black"/>
<path d="M73.2305 146.203C73.2305 145.961 73.3266 145.729 73.4977 145.558C73.6689 145.387 73.901 145.291 74.143 145.291C74.385 145.291 74.6171 145.387 74.7882 145.558C74.9594 145.729 75.0555 145.961 75.0555 146.203V148.19C75.0555 148.432 74.9594 148.664 74.7882 148.835C74.6171 149.006 74.385 149.102 74.143 149.102C73.901 149.102 73.6689 149.006 73.4977 148.835C73.3266 148.664 73.2305 148.432 73.2305 148.19V146.203ZM73.8301 148.226C73.8301 148.503 73.9501 148.607 74.143 148.607C74.3359 148.607 74.4559 148.503 74.4559 148.226V146.167C74.4559 145.89 74.3359 145.786 74.143 145.786C73.9501 145.786 73.8301 145.89 73.8301 146.167V148.226Z" fill="black"/>
<path d="M73.6529 151.23C73.8035 151.249 73.9556 151.209 74.0785 151.12C74.2014 151.031 74.2859 150.899 74.3151 150.75H74.7166V154.567H74.117V151.652H73.6529V151.23Z" fill="black"/>
<path d="M73.6529 156.689C73.8035 156.708 73.9556 156.669 74.0785 156.58C74.2014 156.491 74.2859 156.359 74.3151 156.21H74.7166V160.047H74.117V157.133H73.6529V156.689Z" fill="black"/>
<path d="M73.2305 162.587C73.2305 162.345 73.3266 162.113 73.4977 161.942C73.6689 161.77 73.901 161.674 74.143 161.674C74.385 161.674 74.6171 161.77 74.7882 161.942C74.9594 162.113 75.0555 162.345 75.0555 162.587V164.574C75.0555 164.816 74.9594 165.048 74.7882 165.219C74.6171 165.39 74.385 165.486 74.143 165.486C73.901 165.486 73.6689 165.39 73.4977 165.219C73.3266 165.048 73.2305 164.816 73.2305 164.574V162.587ZM73.8301 164.61C73.8301 164.886 73.9501 164.991 74.143 164.991C74.3359 164.991 74.4559 164.886 74.4559 164.61V162.55C74.4559 162.274 74.3359 162.17 74.143 162.17C73.9501 162.17 73.8301 162.274 73.8301 162.55V164.61Z" fill="black"/>
<path d="M73.2305 173.511C73.2305 173.269 73.3266 173.037 73.4977 172.866C73.6689 172.695 73.901 172.599 74.143 172.599C74.385 172.599 74.6171 172.695 74.7882 172.866C74.9594 173.037 75.0555 173.269 75.0555 173.511V175.498C75.0555 175.74 74.9594 175.972 74.7882 176.143C74.6171 176.314 74.385 176.41 74.143 176.41C73.901 176.41 73.6689 176.314 73.4977 176.143C73.3266 175.972 73.2305 175.74 73.2305 175.498V173.511ZM73.8301 175.534C73.8301 175.805 73.9501 175.91 74.143 175.91C74.3359 175.91 74.4559 175.805 74.4559 175.534V173.449C74.4559 173.177 74.3359 173.073 74.143 173.073C73.9501 173.073 73.8301 173.177 73.8301 173.449V175.534Z" fill="black"/>
<path d="M73.2305 178.971C73.2305 178.729 73.3266 178.496 73.4977 178.325C73.6689 178.154 73.901 178.058 74.143 178.058C74.385 178.058 74.6171 178.154 74.7882 178.325C74.9594 178.496 75.0555 178.729 75.0555 178.971V180.957C75.0555 181.199 74.9594 181.431 74.7882 181.603C74.6171 181.774 74.385 181.87 74.143 181.87C73.901 181.87 73.6689 181.774 73.4977 181.603C73.3266 181.431 73.2305 181.199 73.2305 180.957V178.971ZM73.8301 180.994C73.8301 181.27 73.9501 181.374 74.143 181.374C74.3359 181.374 74.4559 181.27 74.4559 180.994V178.934C74.4559 178.658 74.3359 178.559 74.143 178.559C73.9501 178.559 73.8301 178.658 73.8301 178.934V180.994Z" fill="black"/>
<path d="M73.6529 183.997C73.8035 184.016 73.9556 183.977 74.0785 183.888C74.2014 183.799 74.2859 183.667 74.3151 183.518H74.7166V187.335H74.117V184.42H73.6529V183.997Z" fill="black"/>
<path d="M73.2305 189.895C73.2305 189.653 73.3266 189.421 73.4977 189.25C73.6689 189.078 73.901 188.982 74.143 188.982C74.385 188.982 74.6171 189.078 74.7882 189.25C74.9594 189.421 75.0555 189.653 75.0555 189.895V191.882C75.0555 192.124 74.9594 192.356 74.7882 192.527C74.6171 192.698 74.385 192.794 74.143 192.794C73.901 192.794 73.6689 192.698 73.4977 192.527C73.3266 192.356 73.2305 192.124 73.2305 191.882V189.895ZM73.8301 191.918C73.8301 192.189 73.9501 192.293 74.143 192.293C74.3359 192.293 74.4559 192.189 74.4559 191.918V189.832C74.4559 189.561 74.3359 189.457 74.143 189.457C73.9501 189.457 73.8301 189.561 73.8301 189.832V191.918Z" fill="black"/>
<path d="M73.6529 194.916C73.8035 194.935 73.9556 194.896 74.0785 194.807C74.2014 194.718 74.2859 194.586 74.3151 194.437H74.7166V198.259H74.117V195.344H73.6529V194.916Z" fill="black"/>
<path d="M69.9871 135.279C69.9776 135.154 69.9941 135.028 70.0355 134.909C70.0769 134.791 70.1424 134.682 70.2278 134.59C70.3133 134.497 70.4168 134.424 70.5319 134.374C70.6471 134.323 70.7714 134.297 70.897 134.297C71.0227 134.297 71.147 134.323 71.2621 134.374C71.3773 134.424 71.4808 134.497 71.5662 134.59C71.6516 134.682 71.7171 134.791 71.7585 134.909C71.8 135.028 71.8164 135.154 71.8069 135.279V137.266C71.8164 137.391 71.8 137.517 71.7585 137.635C71.7171 137.754 71.6516 137.863 71.5662 137.955C71.4808 138.047 71.3773 138.121 71.2621 138.171C71.147 138.221 71.0227 138.247 70.897 138.247C70.7714 138.247 70.6471 138.221 70.5319 138.171C70.4168 138.121 70.3133 138.047 70.2278 137.955C70.1424 137.863 70.0769 137.754 70.0355 137.635C69.9941 137.517 69.9776 137.391 69.9871 137.266V135.279ZM70.5868 137.307C70.5868 137.579 70.7067 137.683 70.8944 137.683C71.0821 137.683 71.2073 137.579 71.2073 137.307V135.222C71.2073 134.95 71.0874 134.846 70.8944 134.846C70.7015 134.846 70.5868 134.95 70.5868 135.222V137.307Z" fill="black"/>
<path d="M70.4043 145.765C70.5549 145.784 70.707 145.745 70.8299 145.656C70.9528 145.567 71.0373 145.434 71.0665 145.285H71.468V149.097H70.884V146.182H70.4199L70.4043 145.765Z" fill="black"/>
<path d="M70.4043 156.689C70.5549 156.708 70.707 156.669 70.8299 156.58C70.9528 156.491 71.0373 156.359 71.0665 156.21H71.468V160.047H70.884V157.133H70.4199L70.4043 156.689Z" fill="black"/>
<path d="M69.9871 162.587C69.9776 162.462 69.9941 162.336 70.0355 162.217C70.0769 162.098 70.1424 161.99 70.2278 161.898C70.3133 161.805 70.4168 161.732 70.5319 161.682C70.6471 161.631 70.7714 161.605 70.897 161.605C71.0227 161.605 71.147 161.631 71.2621 161.682C71.3773 161.732 71.4808 161.805 71.5662 161.898C71.6516 161.99 71.7171 162.098 71.7585 162.217C71.8 162.336 71.8164 162.462 71.8069 162.587V164.574C71.8164 164.699 71.8 164.825 71.7585 164.943C71.7171 165.062 71.6516 165.171 71.5662 165.263C71.4808 165.355 71.3773 165.429 71.2621 165.479C71.147 165.529 71.0227 165.555 70.897 165.555C70.7714 165.555 70.6471 165.529 70.5319 165.479C70.4168 165.429 70.3133 165.355 70.2278 165.263C70.1424 165.171 70.0769 165.062 70.0355 164.943C69.9941 164.825 69.9776 164.699 69.9871 164.574V162.587ZM70.5868 164.615C70.5868 164.886 70.7067 164.991 70.8944 164.991C71.0821 164.991 71.2073 164.886 71.2073 164.615V162.53C71.2073 162.253 71.0874 162.154 70.8944 162.154C70.7015 162.154 70.5868 162.253 70.5868 162.53V164.615Z" fill="black"/>
<path d="M70.4043 178.533C70.5549 178.551 70.707 178.512 70.8299 178.423C70.9528 178.334 71.0373 178.202 71.0665 178.053H71.468V181.875H70.884V178.96H70.4199L70.4043 178.533Z" fill="black"/>
<path d="M70.4043 183.997C70.5549 184.016 70.707 183.977 70.8299 183.888C70.9528 183.799 71.0373 183.667 71.0665 183.518H71.468V187.335H70.884V184.42H70.4199L70.4043 183.997Z" fill="black"/>
<path d="M70.4043 189.457C70.5549 189.475 70.707 189.436 70.8299 189.347C70.9528 189.258 71.0373 189.126 71.0665 188.977H71.468V192.799H70.884V189.884H70.4199L70.4043 189.457Z" fill="black"/>
<path d="M172.101 3.93282C172.101 3.6908 172.197 3.4587 172.368 3.28757C172.54 3.11643 172.772 3.02029 173.014 3.02029C173.256 3.02029 173.488 3.11643 173.659 3.28757C173.83 3.4587 173.926 3.6908 173.926 3.93282V5.91951C173.926 6.16153 173.83 6.39363 173.659 6.56476C173.488 6.7359 173.256 6.83204 173.014 6.83204C172.772 6.83204 172.54 6.7359 172.368 6.56476C172.197 6.39363 172.101 6.16153 172.101 5.91951V3.93282ZM172.701 5.95602C172.701 6.22717 172.821 6.33145 173.014 6.33145C173.207 6.33145 173.321 6.22717 173.321 5.95602V3.87025C173.321 3.5991 173.201 3.49481 173.014 3.49481C172.826 3.49481 172.701 3.5991 172.701 3.87025V5.95602Z" fill="black"/>
<path d="M172.101 9.39232C172.101 9.15031 172.197 8.9182 172.368 8.74707C172.54 8.57594 172.772 8.4798 173.014 8.4798C173.256 8.4798 173.488 8.57594 173.659 8.74707C173.83 8.9182 173.926 9.15031 173.926 9.39232V11.379C173.926 11.621 173.83 11.8531 173.659 12.0243C173.488 12.1954 173.256 12.2915 173.014 12.2915C172.772 12.2915 172.54 12.1954 172.368 12.0243C172.197 11.8531 172.101 11.621 172.101 11.379V9.39232ZM172.701 11.4364C172.701 11.7127 172.821 11.817 173.014 11.817C173.207 11.817 173.321 11.7127 173.321 11.4364V9.35061C173.321 9.07424 173.201 8.96995 173.014 8.96995C172.826 8.96995 172.701 9.07424 172.701 9.35061V11.4364Z" fill="black"/>
<path d="M172.524 25.338C172.674 25.3566 172.825 25.3173 172.947 25.2282C173.069 25.1391 173.153 25.0068 173.181 24.8583H173.608V28.6805H173.009V25.7656H172.544L172.524 25.338Z" fill="black"/>
<path d="M172.524 30.8027C172.674 30.8213 172.825 30.782 172.947 30.6929C173.069 30.6038 173.153 30.4715 173.181 30.323H173.608V34.14H173.009V31.2512H172.544L172.524 30.8027Z" fill="black"/>
<path d="M172.101 47.6193C172.101 47.3772 172.197 47.1451 172.368 46.974C172.54 46.8029 172.772 46.7067 173.014 46.7067C173.256 46.7067 173.488 46.8029 173.659 46.974C173.83 47.1451 173.926 47.3772 173.926 47.6193V49.6059C173.926 49.848 173.83 50.0801 173.659 50.2512C173.488 50.4223 173.256 50.5185 173.014 50.5185C172.772 50.5185 172.54 50.4223 172.368 50.2512C172.197 50.0801 172.101 49.848 172.101 49.6059V47.6193ZM172.701 49.6477C172.701 49.9188 172.821 50.0231 173.014 50.0231C173.207 50.0231 173.321 49.9188 173.321 49.6477V47.5619C173.321 47.2907 173.201 47.1865 173.014 47.1865C172.826 47.1865 172.701 47.2907 172.701 47.5619V49.6477Z" fill="black"/>
<path d="M172.101 58.5435C172.101 58.3015 172.197 58.0694 172.368 57.8982C172.54 57.7271 172.772 57.631 173.014 57.631C173.256 57.631 173.488 57.7271 173.659 57.8982C173.83 58.0694 173.926 58.3015 173.926 58.5435V60.5302C173.926 60.7722 173.83 61.0043 173.659 61.1754C173.488 61.3466 173.256 61.4427 173.014 61.4427C172.772 61.4427 172.54 61.3466 172.368 61.1754C172.197 61.0043 172.101 60.7722 172.101 60.5302V58.5435ZM172.701 60.5667C172.701 60.8431 172.821 60.9473 173.014 60.9473C173.207 60.9473 173.321 60.8431 173.321 60.5667V58.507C173.321 58.2306 173.201 58.1316 173.014 58.1316C172.826 58.1316 172.701 58.2306 172.701 58.507V60.5667Z" fill="black"/>
<path d="M162.361 14.8518C162.361 14.6098 162.457 14.3777 162.628 14.2066C162.799 14.0354 163.031 13.9393 163.273 13.9393C163.515 13.9393 163.747 14.0354 163.919 14.2066C164.09 14.3777 164.186 14.6098 164.186 14.8518V16.8385C164.186 17.0805 164.09 17.3126 163.919 17.4838C163.747 17.6549 163.515 17.751 163.273 17.751C163.031 17.751 162.799 17.6549 162.628 17.4838C162.457 17.3126 162.361 17.0805 162.361 16.8385V14.8518ZM162.96 16.8802C162.96 17.1514 163.08 17.2557 163.273 17.2557C163.466 17.2557 163.581 17.1514 163.581 16.8802V14.7945C163.581 14.5233 163.461 14.419 163.273 14.419C163.086 14.419 162.96 14.5233 162.96 14.7945V16.8802Z" fill="black"/>
<path d="M162.361 20.3009C162.361 20.0589 162.457 19.8268 162.628 19.6557C162.799 19.4845 163.031 19.3884 163.273 19.3884C163.515 19.3884 163.747 19.4845 163.919 19.6557C164.09 19.8268 164.186 20.0589 164.186 20.3009V22.2876C164.186 22.5296 164.09 22.7617 163.919 22.9329C163.747 23.104 163.515 23.2001 163.273 23.2001C163.031 23.2001 162.799 23.104 162.628 22.9329C162.457 22.7617 162.361 22.5296 162.361 22.2876V20.3009ZM162.96 22.3241C162.96 22.5953 163.08 22.6995 163.273 22.6995C163.466 22.6995 163.581 22.5953 163.581 22.3241V20.3009C163.581 20.0298 163.461 19.9255 163.273 19.9255C163.086 19.9255 162.96 20.0298 162.96 20.3009V22.3241Z" fill="black"/>
<path d="M162.361 25.776C162.361 25.534 162.457 25.3019 162.628 25.1308C162.799 24.9597 163.031 24.8635 163.273 24.8635C163.515 24.8635 163.747 24.9597 163.919 25.1308C164.09 25.3019 164.186 25.534 164.186 25.776V27.7627C164.186 28.0048 164.09 28.2369 163.919 28.408C163.747 28.5791 163.515 28.6753 163.273 28.6753C163.031 28.6753 162.799 28.5791 162.628 28.408C162.457 28.2369 162.361 28.0048 162.361 27.7627V25.776ZM162.96 27.7992C162.96 28.0756 163.08 28.1799 163.273 28.1799C163.466 28.1799 163.581 28.0756 163.581 27.7992V25.7395C163.581 25.4632 163.461 25.3589 163.273 25.3589C163.086 25.3589 162.96 25.4632 162.96 25.7395V27.7992Z" fill="black"/>
<path d="M162.783 30.8027C162.933 30.8213 163.084 30.782 163.206 30.6929C163.328 30.6038 163.412 30.4715 163.44 30.323H163.847V34.14H163.247V31.2512H162.783V30.8027Z" fill="black"/>
<path d="M162.783 41.7218C162.933 41.7403 163.084 41.701 163.206 41.6119C163.328 41.5228 163.412 41.3905 163.44 41.242H163.847V45.0642H163.247V42.1493H162.783V41.7218Z" fill="black"/>
<path d="M162.783 47.1865C162.933 47.205 163.084 47.1657 163.206 47.0766C163.328 46.9875 163.412 46.8552 163.44 46.7067H163.847V50.5445H163.247V47.6297H162.783V47.1865Z" fill="black"/>
<path d="M162.361 58.5435C162.361 58.3015 162.457 58.0694 162.628 57.8982C162.799 57.7271 163.031 57.631 163.273 57.631C163.515 57.631 163.747 57.7271 163.919 57.8982C164.09 58.0694 164.186 58.3015 164.186 58.5435V60.5302C164.186 60.7722 164.09 61.0043 163.919 61.1754C163.747 61.3466 163.515 61.4427 163.273 61.4427C163.031 61.4427 162.799 61.3466 162.628 61.1754C162.457 61.0043 162.361 60.7722 162.361 60.5302V58.5435ZM162.96 60.5667C162.96 60.8431 163.08 60.9473 163.273 60.9473C163.466 60.9473 163.581 60.8431 163.581 60.5667V58.507C163.581 58.2306 163.461 58.1316 163.273 58.1316C163.086 58.1316 162.96 58.2306 162.96 58.507V60.5667Z" fill="black"/>
<path d="M162.783 63.5806C162.933 63.5991 163.084 63.5599 163.206 63.4707C163.328 63.3816 163.412 63.2494 163.44 63.1009H163.847V66.9178H163.247V64.003H162.783V63.5806Z" fill="black"/>
<path d="M168.853 3.93282C168.853 3.6908 168.949 3.4587 169.12 3.28757C169.291 3.11643 169.523 3.02029 169.765 3.02029C170.007 3.02029 170.239 3.11643 170.41 3.28757C170.582 3.4587 170.678 3.6908 170.678 3.93282V5.91951C170.678 6.16153 170.582 6.39363 170.41 6.56476C170.239 6.7359 170.007 6.83204 169.765 6.83204C169.523 6.83204 169.291 6.7359 169.12 6.56476C168.949 6.39363 168.853 6.16153 168.853 5.91951V3.93282ZM169.437 5.95602C169.437 6.22717 169.557 6.33145 169.744 6.33145C169.932 6.33145 170.057 6.22717 170.057 5.95602V3.87025C170.057 3.5991 169.937 3.49481 169.744 3.49481C169.551 3.49481 169.437 3.5991 169.437 3.87025V5.95602Z" fill="black"/>
<path d="M169.275 8.95432C169.426 8.97299 169.578 8.93387 169.701 8.84484C169.823 8.75582 169.908 8.62351 169.937 8.47459H170.339V12.2968H169.739V9.3819H169.275V8.95432Z" fill="black"/>
<path d="M168.853 14.8518C168.853 14.6098 168.949 14.3777 169.12 14.2066C169.291 14.0354 169.523 13.9393 169.765 13.9393C170.007 13.9393 170.239 14.0354 170.41 14.2066C170.582 14.3777 170.678 14.6098 170.678 14.8518V16.8385C170.678 17.0805 170.582 17.3126 170.41 17.4838C170.239 17.6549 170.007 17.751 169.765 17.751C169.523 17.751 169.291 17.6549 169.12 17.4838C168.949 17.3126 168.853 17.0805 168.853 16.8385V14.8518ZM169.437 16.8802C169.437 17.1514 169.557 17.2557 169.744 17.2557C169.932 17.2557 170.057 17.1514 170.057 16.8802V14.7945C170.057 14.5233 169.937 14.419 169.744 14.419C169.551 14.419 169.437 14.5233 169.437 14.7945V16.8802Z" fill="black"/>
<path d="M169.275 19.8785C169.426 19.8972 169.578 19.8581 169.701 19.7691C169.823 19.68 169.908 19.5477 169.937 19.3988H170.339V23.221H169.739V20.3009H169.275V19.8785Z" fill="black"/>
<path d="M169.275 25.338C169.426 25.3567 169.578 25.3176 169.701 25.2286C169.823 25.1395 169.908 25.0072 169.937 24.8583H170.339V28.6805H169.739V25.7656H169.275V25.338Z" fill="black"/>
<path d="M169.275 30.8027C169.426 30.8214 169.578 30.7823 169.701 30.6933C169.823 30.6042 169.908 30.4719 169.937 30.323H170.339V34.14H169.739V31.2512H169.275V30.8027Z" fill="black"/>
<path d="M168.853 36.7003C168.853 36.4582 168.949 36.2261 169.12 36.055C169.291 35.8839 169.523 35.7877 169.765 35.7877C170.007 35.7877 170.239 35.8839 170.41 36.055C170.582 36.2261 170.678 36.4582 170.678 36.7003V38.687C170.678 38.929 170.582 39.1611 170.41 39.3322C170.239 39.5033 170.007 39.5995 169.765 39.5995C169.523 39.5995 169.291 39.5033 169.12 39.3322C168.949 39.1611 168.853 38.929 168.853 38.687V36.7003ZM169.437 38.7235C169.437 38.9946 169.557 39.0989 169.744 39.0989C169.932 39.0989 170.057 38.9946 170.057 38.7235V36.6377C170.057 36.3665 169.937 36.2622 169.744 36.2622C169.551 36.2622 169.437 36.3665 169.437 36.6377V38.7235Z" fill="black"/>
<path d="M168.853 42.1598C168.853 41.9177 168.949 41.6856 169.12 41.5145C169.291 41.3434 169.523 41.2472 169.765 41.2472C170.007 41.2472 170.239 41.3434 170.41 41.5145C170.582 41.6856 170.678 41.9177 170.678 42.1598V44.1465C170.678 44.3885 170.582 44.6206 170.41 44.7917C170.239 44.9628 170.007 45.059 169.765 45.059C169.523 45.059 169.291 44.9628 169.12 44.7917C168.949 44.6206 168.853 44.3885 168.853 44.1465V42.1598ZM169.437 44.183C169.437 44.4593 169.557 44.5636 169.744 44.5636C169.932 44.5636 170.057 44.4593 170.057 44.183V42.0972C170.057 41.8208 169.937 41.7218 169.744 41.7218C169.551 41.7218 169.437 41.8208 169.437 42.0972V44.183Z" fill="black"/>
<path d="M166.026 8.95432C166.177 8.97299 166.329 8.93387 166.452 8.84484C166.575 8.75582 166.659 8.62351 166.689 8.47459H167.09V12.2968H166.49V9.3819H166.026V8.95432Z" fill="black"/>
<path d="M165.609 14.8518C165.6 14.7265 165.616 14.6006 165.658 14.482C165.699 14.3634 165.765 14.2546 165.85 14.1625C165.935 14.0703 166.039 13.9968 166.154 13.9466C166.269 13.8963 166.394 13.8704 166.519 13.8704C166.645 13.8704 166.769 13.8963 166.884 13.9466C166.999 13.9968 167.103 14.0703 167.188 14.1625C167.274 14.2546 167.339 14.3634 167.381 14.482C167.422 14.6006 167.439 14.7265 167.429 14.8518V16.8385C167.439 16.9638 167.422 17.0897 167.381 17.2083C167.339 17.3269 167.274 17.4357 167.188 17.5278C167.103 17.62 166.999 17.6935 166.884 17.7438C166.769 17.794 166.645 17.82 166.519 17.82C166.394 17.82 166.269 17.794 166.154 17.7438C166.039 17.6935 165.935 17.62 165.85 17.5278C165.765 17.4357 165.699 17.3269 165.658 17.2083C165.616 17.0897 165.6 16.9638 165.609 16.8385V14.8518ZM166.209 16.8802C166.209 17.1514 166.329 17.2557 166.517 17.2557C166.704 17.2557 166.829 17.1514 166.829 16.8802V14.7945C166.829 14.5233 166.709 14.419 166.517 14.419C166.324 14.419 166.209 14.5233 166.209 14.7945V16.8802Z" fill="black"/>
<path d="M165.609 20.3009C165.6 20.1756 165.616 20.0497 165.658 19.9311C165.699 19.8125 165.765 19.7037 165.85 19.6116C165.935 19.5194 166.039 19.4459 166.154 19.3957C166.269 19.3454 166.394 19.3194 166.519 19.3194C166.645 19.3194 166.769 19.3454 166.884 19.3957C166.999 19.4459 167.103 19.5194 167.188 19.6116C167.274 19.7037 167.339 19.8125 167.381 19.9311C167.422 20.0497 167.439 20.1756 167.429 20.3009V22.2876C167.439 22.4129 167.422 22.5388 167.381 22.6574C167.339 22.776 167.274 22.8848 167.188 22.9769C167.103 23.0691 166.999 23.1426 166.884 23.1928C166.769 23.2431 166.645 23.269 166.519 23.269C166.394 23.269 166.269 23.2431 166.154 23.1928C166.039 23.1426 165.935 23.0691 165.85 22.9769C165.765 22.8848 165.699 22.776 165.658 22.6574C165.616 22.5388 165.6 22.4129 165.609 22.2876V20.3009ZM166.209 22.3241C166.209 22.5952 166.329 22.6995 166.517 22.6995C166.704 22.6995 166.829 22.5952 166.829 22.3241V20.3009C166.829 20.0297 166.709 19.9255 166.517 19.9255C166.324 19.9255 166.209 20.0297 166.209 20.3009V22.3241Z" fill="black"/>
<path d="M166.026 25.338C166.177 25.3567 166.329 25.3176 166.452 25.2286C166.575 25.1395 166.659 25.0072 166.689 24.8583H167.09V28.6805H166.49V25.7656H166.026V25.338Z" fill="black"/>
<path d="M166.026 36.2623C166.177 36.2809 166.329 36.2418 166.452 36.1528C166.575 36.0638 166.659 35.9314 166.689 35.7825H167.09V39.5943H166.49V36.6898H166.026V36.2623Z" fill="black"/>
<path d="M166.026 41.7218C166.177 41.7404 166.329 41.7013 166.452 41.6123C166.575 41.5233 166.659 41.391 166.689 41.242H167.09V45.0642H166.49V42.1493H166.026V41.7218Z" fill="black"/>
<path d="M166.026 47.1865C166.177 47.2051 166.329 47.166 166.452 47.077C166.575 46.988 166.659 46.8556 166.689 46.7067H167.09V50.5445H166.49V47.6297H166.026V47.1865Z" fill="black"/>
<path d="M19.2612 64.3993C19.2612 64.1573 19.3574 63.9252 19.5285 63.754C19.6996 63.5829 19.9317 63.4868 20.1738 63.4868C20.4158 63.4868 20.6479 63.5829 20.819 63.754C20.9901 63.9252 21.0863 64.1573 21.0863 64.3993V66.3912C21.0863 66.6332 20.9901 66.8653 20.819 67.0364C20.6479 67.2076 20.4158 67.3037 20.1738 67.3037C19.9317 67.3037 19.6996 67.2076 19.5285 67.0364C19.3574 66.8653 19.2612 66.6332 19.2612 66.3912V64.3993ZM19.8609 66.4277C19.8609 66.6988 19.9808 66.8031 20.1738 66.8031C20.3667 66.8031 20.4814 66.6988 20.4814 66.4277V64.3419C20.4814 64.0708 20.3615 63.9665 20.1738 63.9665C19.986 63.9665 19.8609 64.0708 19.8609 64.3419V66.4277Z" fill="black"/>
<path d="M19.2612 69.864C19.2612 69.622 19.3574 69.3899 19.5285 69.2187C19.6996 69.0476 19.9317 68.9515 20.1738 68.9515C20.4158 68.9515 20.6479 69.0476 20.819 69.2187C20.9901 69.3899 21.0863 69.622 21.0863 69.864V71.8507C21.0863 72.0927 20.9901 72.3248 20.819 72.4959C20.6479 72.6671 20.4158 72.7632 20.1738 72.7632C19.9317 72.7632 19.6996 72.6671 19.5285 72.4959C19.3574 72.3248 19.2612 72.0927 19.2612 71.8507V69.864ZM19.8609 71.8872C19.8609 72.1636 19.9808 72.2626 20.1738 72.2626C20.3667 72.2626 20.4814 72.1636 20.4814 71.8872V69.8014C20.4814 69.5303 20.3615 69.426 20.1738 69.426C19.986 69.426 19.8609 69.5303 19.8609 69.8014V71.8872Z" fill="black"/>
<path d="M19.6784 74.8855C19.8284 74.904 19.9798 74.8647 20.1018 74.7756C20.2238 74.6865 20.3074 74.5543 20.3354 74.4058H20.7421V78.2279H20.1425V75.3131H19.6784V74.8855Z" fill="black"/>
<path d="M19.2612 80.7882C19.2612 80.5462 19.3574 80.3141 19.5285 80.143C19.6996 79.9718 19.9317 79.8757 20.1738 79.8757C20.4158 79.8757 20.6479 79.9718 20.819 80.143C20.9901 80.3141 21.0863 80.5462 21.0863 80.7882V82.7801C21.0863 83.0222 20.9901 83.2543 20.819 83.4254C20.6479 83.5965 20.4158 83.6927 20.1738 83.6927C19.9317 83.6927 19.6996 83.5965 19.5285 83.4254C19.3574 83.2543 19.2612 83.0222 19.2612 82.7801V80.7882ZM19.8609 82.8166C19.8609 83.0878 19.9808 83.1921 20.1738 83.1921C20.3667 83.1921 20.4814 83.0878 20.4814 82.8166V80.7309C20.4814 80.4597 20.3615 80.3554 20.1738 80.3554C19.986 80.3554 19.8609 80.4597 19.8609 80.7309V82.8166Z" fill="black"/>
<path d="M19.6784 85.8097C19.8284 85.8282 19.9798 85.7889 20.1018 85.6998C20.2238 85.6107 20.3074 85.4785 20.3354 85.33H20.7421V89.1313H20.1425V86.2164H19.6784V85.8097Z" fill="black"/>
<path d="M19.2612 91.7072C19.2612 91.4652 19.3574 91.2331 19.5285 91.062C19.6996 90.8908 19.9317 90.7947 20.1738 90.7947C20.4158 90.7947 20.6479 90.8908 20.819 91.062C20.9901 91.2331 21.0863 91.4652 21.0863 91.7072V93.6939C21.0863 93.9359 20.9901 94.168 20.819 94.3392C20.6479 94.5103 20.4158 94.6064 20.1738 94.6064C19.9317 94.6064 19.6996 94.5103 19.5285 94.3392C19.3574 94.168 19.2612 93.9359 19.2612 93.6939V91.7072ZM19.8609 93.7356C19.8609 94.0068 19.9808 94.1111 20.1738 94.1111C20.3667 94.1111 20.4814 94.0068 20.4814 93.7356V91.6499C20.4814 91.3735 20.3615 91.2744 20.1738 91.2744C19.986 91.2744 19.8609 91.3735 19.8609 91.6499V93.7356Z" fill="black"/>
<path d="M19.6784 96.7339C19.8284 96.7525 19.9798 96.7132 20.1018 96.6241C20.2238 96.5349 20.3074 96.4027 20.3354 96.2542H20.7421V100.082H20.1425V97.1667H19.6784V96.7339Z" fill="black"/>
<path d="M19.2612 102.631C19.2612 102.389 19.3574 102.157 19.5285 101.986C19.6996 101.815 19.9317 101.719 20.1738 101.719C20.4158 101.719 20.6479 101.815 20.819 101.986C20.9901 102.157 21.0863 102.389 21.0863 102.631V104.618C21.0863 104.86 20.9901 105.092 20.819 105.263C20.6479 105.435 20.4158 105.531 20.1738 105.531C19.9317 105.531 19.6996 105.435 19.5285 105.263C19.3574 105.092 19.2612 104.86 19.2612 104.618V102.631ZM19.8609 104.655C19.8609 104.931 19.9808 105.03 20.1738 105.03C20.3667 105.03 20.4814 104.931 20.4814 104.655V102.569C20.4814 102.298 20.3615 102.193 20.1738 102.193C19.986 102.193 19.8609 102.298 19.8609 102.569V104.655Z" fill="black"/>
<path d="M19.2612 108.091C19.2612 107.849 19.3574 107.617 19.5285 107.446C19.6996 107.275 19.9317 107.178 20.1738 107.178C20.4158 107.178 20.6479 107.275 20.819 107.446C20.9901 107.617 21.0863 107.849 21.0863 108.091V110.078C21.0863 110.32 20.9901 110.552 20.819 110.723C20.6479 110.894 20.4158 110.99 20.1738 110.99C19.9317 110.99 19.6996 110.894 19.5285 110.723C19.3574 110.552 19.2612 110.32 19.2612 110.078V108.091ZM19.8609 110.119C19.8609 110.39 19.9808 110.495 20.1738 110.495C20.3667 110.495 20.4814 110.39 20.4814 110.119V108.034C20.4814 107.762 20.3615 107.658 20.1738 107.658C19.986 107.658 19.8609 107.762 19.8609 108.034V110.119Z" fill="black"/>
<path d="M19.2612 113.556C19.2612 113.314 19.3574 113.082 19.5285 112.91C19.6996 112.739 19.9317 112.643 20.1738 112.643C20.4158 112.643 20.6479 112.739 20.819 112.91C20.9901 113.082 21.0863 113.314 21.0863 113.556V115.542C21.0863 115.784 20.9901 116.016 20.819 116.188C20.6479 116.359 20.4158 116.455 20.1738 116.455C19.9317 116.455 19.6996 116.359 19.5285 116.188C19.3574 116.016 19.2612 115.784 19.2612 115.542V113.556ZM19.8609 115.579C19.8609 115.85 19.9808 115.954 20.1738 115.954C20.3667 115.954 20.4814 115.85 20.4814 115.579V113.493C20.4814 113.222 20.3615 113.118 20.1738 113.118C19.986 113.118 19.8609 113.222 19.8609 113.493V115.579Z" fill="black"/>
<path d="M19.6784 124.037C19.8286 124.056 19.9806 124.018 20.103 123.928C20.2253 123.839 20.3085 123.706 20.3354 123.557H20.7421V127.379H20.1425V124.464H19.6784V124.037Z" fill="black"/>
<path d="M22.9113 85.8097C23.0619 85.8284 23.214 85.7892 23.3369 85.7002C23.4598 85.6112 23.5444 85.4789 23.5735 85.33H23.9751V89.1313H23.3858V86.2164H22.9113V85.8097Z" fill="black"/>
<path d="M22.9113 91.2692C23.0619 91.2879 23.214 91.2488 23.3369 91.1597C23.4598 91.0707 23.5444 90.9384 23.5735 90.7895H23.9751V94.6116H23.3858V91.6968H22.9113V91.2692Z" fill="black"/>
<path d="M22.5046 97.1667C22.4951 97.0414 22.5116 96.9155 22.553 96.7969C22.5944 96.6783 22.6599 96.5695 22.7453 96.4774C22.8307 96.3852 22.9343 96.3117 23.0494 96.2615C23.1646 96.2112 23.2889 96.1853 23.4145 96.1853C23.5402 96.1853 23.6644 96.2112 23.7796 96.2615C23.8947 96.3117 23.9983 96.3852 24.0837 96.4774C24.1691 96.5695 24.2346 96.6783 24.276 96.7969C24.3174 96.9155 24.3339 97.0414 24.3244 97.1667V99.1586C24.3339 99.2839 24.3174 99.4098 24.276 99.5284C24.2346 99.647 24.1691 99.7558 24.0837 99.848C23.9983 99.9401 23.8947 100.014 23.7796 100.064C23.6644 100.114 23.5402 100.14 23.4145 100.14C23.2889 100.14 23.1646 100.114 23.0494 100.064C22.9343 100.014 22.8307 99.9401 22.7453 99.848C22.6599 99.7558 22.5944 99.647 22.553 99.5284C22.5116 99.4098 22.4951 99.2839 22.5046 99.1586V97.1667ZM23.1042 99.1951C23.1042 99.4663 23.2242 99.5706 23.4119 99.5706C23.5996 99.5706 23.7248 99.4663 23.7248 99.1951V97.1094C23.7248 96.8382 23.6048 96.7339 23.4119 96.7339C23.219 96.7339 23.1042 96.8382 23.1042 97.1094V99.1951Z" fill="black"/>
<path d="M22.5046 102.631C22.4951 102.506 22.5116 102.38 22.553 102.262C22.5944 102.143 22.6599 102.034 22.7453 101.942C22.8307 101.85 22.9343 101.776 23.0494 101.726C23.1646 101.676 23.2889 101.65 23.4145 101.65C23.5402 101.65 23.6644 101.676 23.7796 101.726C23.8947 101.776 23.9983 101.85 24.0837 101.942C24.1691 102.034 24.2346 102.143 24.276 102.262C24.3174 102.38 24.3339 102.506 24.3244 102.631V104.618C24.3339 104.743 24.3174 104.869 24.276 104.988C24.2346 105.107 24.1691 105.215 24.0837 105.307C23.9983 105.4 23.8947 105.473 23.7796 105.523C23.6644 105.574 23.5402 105.6 23.4145 105.6C23.2889 105.6 23.1646 105.574 23.0494 105.523C22.9343 105.473 22.8307 105.4 22.7453 105.307C22.6599 105.215 22.5944 105.107 22.553 104.988C22.5116 104.869 22.4951 104.743 22.5046 104.618V102.631ZM23.1042 104.655C23.1042 104.931 23.2242 105.03 23.4119 105.03C23.5996 105.03 23.7248 104.931 23.7248 104.655V102.569C23.7248 102.298 23.6048 102.193 23.4119 102.193C23.219 102.193 23.1042 102.298 23.1042 102.569V104.655Z" fill="black"/>
<path d="M22.9113 107.653C23.0621 107.673 23.2148 107.634 23.338 107.545C23.4612 107.456 23.5455 107.323 23.5735 107.173H23.9751V110.995H23.3858V108.081H22.9113V107.653Z" fill="black"/>
<path d="M22.9113 118.577C23.0619 118.596 23.214 118.557 23.3369 118.468C23.4598 118.379 23.5444 118.246 23.5735 118.097H23.9751V121.92H23.3858V119.005H22.9113V118.577Z" fill="black"/>
<path d="M16.0074 80.7882C16.0074 80.5462 16.1036 80.3141 16.2747 80.143C16.4458 79.9718 16.6779 79.8757 16.9199 79.8757C17.162 79.8757 17.3941 79.9718 17.5652 80.143C17.7363 80.3141 17.8325 80.5462 17.8325 80.7882V82.7801C17.8325 83.0222 17.7363 83.2543 17.5652 83.4254C17.3941 83.5965 17.162 83.6927 16.9199 83.6927C16.6779 83.6927 16.4458 83.5965 16.2747 83.4254C16.1036 83.2543 16.0074 83.0222 16.0074 82.7801V80.7882ZM16.6123 82.8166C16.6123 83.0878 16.7322 83.1921 16.9199 83.1921C17.1077 83.1921 17.2328 83.0878 17.2328 82.8166V80.7309C17.2328 80.4597 17.1129 80.3554 16.9199 80.3554C16.727 80.3554 16.6123 80.4597 16.6123 80.7309V82.8166Z" fill="black"/>
<path d="M16.4298 85.8097C16.5804 85.8284 16.7325 85.7892 16.8553 85.7002C16.9782 85.6112 17.0628 85.4789 17.092 85.33H17.4935V89.1313H16.8939V86.2164H16.4298V85.8097Z" fill="black"/>
<path d="M16.4298 91.2692C16.5804 91.2879 16.7325 91.2488 16.8553 91.1597C16.9782 91.0707 17.0628 90.9384 17.092 90.7895H17.4935V94.6116H16.8939V91.6968H16.4298V91.2692Z" fill="black"/>
<path d="M16.0074 97.1667C16.0074 96.9247 16.1036 96.6926 16.2747 96.5215C16.4458 96.3503 16.6779 96.2542 16.9199 96.2542C17.162 96.2542 17.3941 96.3503 17.5652 96.5215C17.7363 96.6926 17.8325 96.9247 17.8325 97.1667V99.1586C17.8325 99.4007 17.7363 99.6328 17.5652 99.8039C17.3941 99.975 17.162 100.071 16.9199 100.071C16.6779 100.071 16.4458 99.975 16.2747 99.8039C16.1036 99.6328 16.0074 99.4007 16.0074 99.1586V97.1667ZM16.6123 99.1951C16.6123 99.4663 16.7322 99.5706 16.9199 99.5706C17.1077 99.5706 17.2328 99.4663 17.2328 99.1951V97.1094C17.2328 96.8382 17.1129 96.7339 16.9199 96.7339C16.727 96.7339 16.6123 96.8382 16.6123 97.1094V99.1951Z" fill="black"/>
<path d="M16.4298 102.193C16.5804 102.212 16.7325 102.173 16.8553 102.084C16.9782 101.995 17.0628 101.863 17.092 101.714H17.4935V105.536H16.8939V102.621H16.4298V102.193Z" fill="black"/>
<path d="M16.0074 108.091C16.0074 107.849 16.1036 107.617 16.2747 107.446C16.4458 107.275 16.6779 107.178 16.9199 107.178C17.162 107.178 17.3941 107.275 17.5652 107.446C17.7363 107.617 17.8325 107.849 17.8325 108.091V110.078C17.8325 110.32 17.7363 110.552 17.5652 110.723C17.3941 110.894 17.162 110.99 16.9199 110.99C16.6779 110.99 16.4458 110.894 16.2747 110.723C16.1036 110.552 16.0074 110.32 16.0074 110.078V108.091ZM16.6123 110.119C16.6123 110.39 16.7322 110.495 16.9199 110.495C17.1077 110.495 17.2328 110.39 17.2328 110.119V108.034C17.2328 107.762 17.1129 107.658 16.9199 107.658C16.727 107.658 16.6123 107.762 16.6123 108.034V110.119Z" fill="black"/>
<path d="M12.7641 69.864C12.7546 69.7387 12.771 69.6128 12.8125 69.4942C12.8539 69.3756 12.9194 69.2668 13.0048 69.1747C13.0902 69.0825 13.1937 69.009 13.3089 68.9588C13.424 68.9085 13.5483 68.8825 13.674 68.8825C13.7996 68.8825 13.9239 68.9085 14.039 68.9588C14.1542 69.009 14.2577 69.0825 14.3431 69.1747C14.4286 69.2668 14.494 69.3756 14.5355 69.4942C14.5769 69.6128 14.5934 69.7387 14.5839 69.864V71.8507C14.5934 71.976 14.5769 72.1019 14.5355 72.2205C14.494 72.3391 14.4286 72.4479 14.3431 72.54C14.2577 72.6322 14.1542 72.7057 14.039 72.7559C13.9239 72.8062 13.7996 72.8321 13.674 72.8321C13.5483 72.8321 13.424 72.8062 13.3089 72.7559C13.1937 72.7057 13.0902 72.6322 13.0048 72.54C12.9194 72.4479 12.8539 72.3391 12.8125 72.2205C12.771 72.1019 12.7546 71.976 12.7641 71.8507V69.864ZM13.3637 71.8872C13.3637 72.1636 13.4836 72.2626 13.6714 72.2626C13.8591 72.2626 13.9842 72.1636 13.9842 71.8872V69.8014C13.9842 69.5251 13.8643 69.4208 13.6714 69.4208C13.4784 69.4208 13.3637 69.5251 13.3637 69.8014V71.8872Z" fill="black"/>
<path d="M13.1812 80.3502C13.3318 80.3689 13.4839 80.3297 13.6068 80.2407C13.7296 80.1517 13.8142 80.0194 13.8434 79.8705H14.2449V83.6874H13.6453V80.7882H13.1812V80.3502Z" fill="black"/>
<path d="M12.7641 86.2477C12.7546 86.1224 12.771 85.9965 12.8125 85.8779C12.8539 85.7593 12.9194 85.6505 13.0048 85.5584C13.0902 85.4663 13.1937 85.3927 13.3089 85.3425C13.424 85.2922 13.5483 85.2663 13.674 85.2663C13.7996 85.2663 13.9239 85.2922 14.039 85.3425C14.1542 85.3927 14.2577 85.4663 14.3431 85.5584C14.4286 85.6505 14.494 85.7593 14.5355 85.8779C14.5769 85.9965 14.5934 86.1224 14.5839 86.2477V88.2344C14.5934 88.3597 14.5769 88.4856 14.5355 88.6042C14.494 88.7228 14.4286 88.8316 14.3431 88.9238C14.2577 89.0159 14.1542 89.0894 14.039 89.1397C13.9239 89.1899 13.7996 89.2159 13.674 89.2159C13.5483 89.2159 13.424 89.1899 13.3089 89.1397C13.1937 89.0894 13.0902 89.0159 13.0048 88.9238C12.9194 88.8316 12.8539 88.7228 12.8125 88.6042C12.771 88.4856 12.7546 88.3597 12.7641 88.2344V86.2477ZM13.3637 88.2709C13.3637 88.5473 13.4836 88.6464 13.6714 88.6464C13.8591 88.6464 13.9842 88.5473 13.9842 88.2709V86.2112C13.9842 85.9349 13.8643 85.8306 13.6714 85.8306C13.4784 85.8306 13.3637 85.9349 13.3637 86.2112V88.2709Z" fill="black"/>
<path d="M12.7641 97.1719C12.7546 97.0467 12.771 96.9208 12.8125 96.8021C12.8539 96.6835 12.9194 96.5747 13.0048 96.4826C13.0902 96.3905 13.1937 96.317 13.3089 96.2667C13.424 96.2164 13.5483 96.1905 13.674 96.1905C13.7996 96.1905 13.9239 96.2164 14.039 96.2667C14.1542 96.317 14.2577 96.3905 14.3431 96.4826C14.4286 96.5747 14.494 96.6835 14.5355 96.8021C14.5769 96.9208 14.5934 97.0467 14.5839 97.1719V99.1586C14.5934 99.2839 14.5769 99.4098 14.5355 99.5284C14.494 99.647 14.4286 99.7558 14.3431 99.848C14.2577 99.9401 14.1542 100.014 14.039 100.064C13.9239 100.114 13.7996 100.14 13.674 100.14C13.5483 100.14 13.424 100.114 13.3089 100.064C13.1937 100.014 13.0902 99.9401 13.0048 99.848C12.9194 99.7558 12.8539 99.647 12.8125 99.5284C12.771 99.4098 12.7546 99.2839 12.7641 99.1586V97.1719ZM13.3637 99.1951C13.3637 99.4663 13.4836 99.5706 13.6714 99.5706C13.8591 99.5706 13.9842 99.4663 13.9842 99.1951V97.1094C13.9842 96.8382 13.8643 96.7339 13.6714 96.7339C13.4784 96.7339 13.3637 96.8382 13.3637 97.1094V99.1951Z" fill="black"/>
<path d="M12.7641 102.631C12.7546 102.506 12.771 102.38 12.8125 102.262C12.8539 102.143 12.9194 102.034 13.0048 101.942C13.0902 101.85 13.1937 101.776 13.3089 101.726C13.424 101.676 13.5483 101.65 13.674 101.65C13.7996 101.65 13.9239 101.676 14.039 101.726C14.1542 101.776 14.2577 101.85 14.3431 101.942C14.4286 102.034 14.494 102.143 14.5355 102.262C14.5769 102.38 14.5934 102.506 14.5839 102.631V104.618C14.5934 104.743 14.5769 104.869 14.5355 104.988C14.494 105.107 14.4286 105.215 14.3431 105.307C14.2577 105.4 14.1542 105.473 14.039 105.523C13.9239 105.574 13.7996 105.6 13.674 105.6C13.5483 105.6 13.424 105.574 13.3089 105.523C13.1937 105.473 13.0902 105.4 13.0048 105.307C12.9194 105.215 12.8539 105.107 12.8125 104.988C12.771 104.869 12.7546 104.743 12.7641 104.618V102.631ZM13.3637 104.655C13.3637 104.931 13.4836 105.035 13.6714 105.035C13.8591 105.035 13.9842 104.931 13.9842 104.655V102.569C13.9842 102.293 13.8643 102.188 13.6714 102.188C13.4784 102.188 13.3637 102.293 13.3637 102.569V104.655Z" fill="black"/>
<path d="M12.7641 108.091C12.7546 107.966 12.771 107.84 12.8125 107.721C12.8539 107.603 12.9194 107.494 13.0048 107.402C13.0902 107.309 13.1937 107.236 13.3089 107.186C13.424 107.135 13.5483 107.109 13.674 107.109C13.7996 107.109 13.9239 107.135 14.039 107.186C14.1542 107.236 14.2577 107.309 14.3431 107.402C14.4286 107.494 14.494 107.603 14.5355 107.721C14.5769 107.84 14.5934 107.966 14.5839 108.091V110.078C14.5934 110.203 14.5769 110.329 14.5355 110.447C14.494 110.566 14.4286 110.675 14.3431 110.767C14.2577 110.859 14.1542 110.933 14.039 110.983C13.9239 111.033 13.7996 111.059 13.674 111.059C13.5483 111.059 13.424 111.033 13.3089 110.983C13.1937 110.933 13.0902 110.859 13.0048 110.767C12.9194 110.675 12.8539 110.566 12.8125 110.447C12.771 110.329 12.7546 110.203 12.7641 110.078V108.091ZM13.3637 110.119C13.3637 110.391 13.4836 110.495 13.6714 110.495C13.8591 110.495 13.9842 110.391 13.9842 110.119V108.034C13.9842 107.762 13.8643 107.658 13.6714 107.658C13.4784 107.658 13.3637 107.762 13.3637 108.034V110.119Z" fill="black"/>
<path d="M13.1812 124.068C13.3325 124.086 13.4853 124.047 13.6083 123.957C13.7313 123.866 13.8154 123.733 13.8434 123.583H14.2449V127.405H13.6453V124.49H13.1812V124.068Z" fill="black"/>
<path d="M196.098 120.736C179.057 113.837 177.821 90.1116 177.821 90.1116H181.472V87.2749C190.122 87.2749 196.098 81.9093 196.098 81.9093C196.098 81.9093 202.074 87.2749 210.724 87.2749V90.1116H214.375C214.375 90.1116 213.133 113.837 196.098 120.736Z" stroke="black" stroke-width="1.10721" stroke-linecap="round" stroke-linejoin="round"/>
<path d="M196.098 117.602C184.934 112.388 181.701 98.5381 180.809 92.5728H184.146V89.5902C188.437 89.0604 192.537 87.5043 196.098 85.0536C199.661 87.5042 203.763 89.0603 208.055 89.5902V92.5728H211.381C210.479 98.5172 207.226 112.388 196.098 117.602Z" stroke="black" stroke-width="1.10721" stroke-linecap="round" stroke-linejoin="round"/>
<path d="M202.115 97.9802H190.075C189.686 97.9802 189.371 98.2953 189.371 98.6841V105.917C189.371 106.305 189.686 106.62 190.075 106.62H202.115C202.504 106.62 202.819 106.305 202.819 105.917V98.6841C202.819 98.2953 202.504 97.9802 202.115 97.9802Z" fill="black"/>
<path d="M196.338 90.6956C195.684 90.6638 195.03 90.7652 194.416 90.9934C193.803 91.2217 193.242 91.5722 192.767 92.0236C192.293 92.475 191.915 93.018 191.657 93.6197C191.398 94.2214 191.265 94.8693 191.264 95.5241V96.0456C191.264 96.0901 191.273 96.1342 191.29 96.1753C191.307 96.2164 191.332 96.2538 191.363 96.2853C191.395 96.3167 191.432 96.3417 191.473 96.3587C191.515 96.3758 191.559 96.3845 191.603 96.3845H192.823C192.868 96.3845 192.912 96.3758 192.953 96.3587C192.994 96.3417 193.031 96.3167 193.063 96.2853C193.094 96.2538 193.119 96.2164 193.136 96.1753C193.153 96.1342 193.162 96.0901 193.162 96.0456V95.6441C193.153 94.8884 193.429 94.157 193.935 93.5962C194.442 93.0355 195.142 92.6867 195.895 92.6197C196.295 92.5933 196.697 92.6494 197.075 92.7844C197.453 92.9194 197.799 93.1305 198.093 93.4047C198.386 93.6789 198.62 94.0103 198.78 94.3784C198.94 94.7465 199.023 95.1436 199.023 95.545V96.0665C199.023 96.1563 199.059 96.2426 199.123 96.3061C199.186 96.3697 199.272 96.4054 199.362 96.4054H200.582C200.672 96.4054 200.758 96.3697 200.822 96.3061C200.886 96.2426 200.921 96.1563 200.921 96.0665V95.7014C200.944 94.4386 200.482 93.2151 199.629 92.2836C198.776 91.352 197.598 90.7836 196.338 90.6956Z" fill="black"/>
<path d="M197.36 101.333C197.36 101.108 197.3 100.886 197.186 100.692C197.072 100.497 196.908 100.337 196.711 100.227C196.515 100.118 196.292 100.063 196.067 100.069C195.841 100.074 195.622 100.14 195.43 100.259C195.239 100.379 195.083 100.547 194.979 100.747C194.875 100.947 194.826 101.171 194.838 101.396C194.85 101.621 194.921 101.839 195.046 102.027C195.17 102.215 195.343 102.366 195.545 102.465L195.086 104.493H197.104L196.645 102.465C196.858 102.361 197.038 102.201 197.164 102.001C197.29 101.801 197.358 101.57 197.36 101.333Z" fill="white" stroke="black" stroke-width="1.10721" stroke-linecap="round" stroke-linejoin="round"/>
<path d="M142.259 12.0204H101.086C100.13 12.0204 99.3547 12.7955 99.3547 13.7516V36.9349C99.3547 37.891 100.13 38.6661 101.086 38.6661H142.259C143.215 38.6661 143.99 37.891 143.99 36.9349V13.7516C143.99 12.7955 143.215 12.0204 142.259 12.0204Z" stroke="black" stroke-width="1.10721" stroke-linecap="round" stroke-linejoin="round"/>
<path d="M103.511 34.943H116.427C116.758 34.943 117.026 34.6745 117.026 34.3433V16.3483C117.026 16.0172 116.758 15.7487 116.427 15.7487H103.511C103.179 15.7487 102.911 16.0172 102.911 16.3483V34.3433C102.911 34.6745 103.179 34.943 103.511 34.943Z" stroke="black" stroke-width="1.10721" stroke-linecap="round" stroke-linejoin="round"/>
<path d="M109.992 34.9378H103.547C103.378 34.9378 103.217 34.8708 103.097 34.7514C102.978 34.6321 102.911 34.4703 102.911 34.3016V29.8694C102.911 29.8694 106.514 29.7129 107.119 28.9464C107.724 28.1799 107.056 26.9806 107.056 26.9806C106.837 26.7094 106.785 24.7853 106.785 24.7853L106.566 24.7279C106.353 24.6758 106.045 23.0802 106.045 22.4805C106.044 22.3078 106.093 22.1385 106.186 21.9926C106.278 21.8466 106.41 21.7301 106.566 21.6566C106.566 21.6566 106.045 17.7667 109.971 17.7667C113.898 17.7667 113.371 21.6566 113.371 21.6566C113.527 21.7301 113.66 21.8466 113.752 21.9926C113.844 22.1385 113.893 22.3078 113.893 22.4805C113.893 23.0802 113.611 24.6758 113.371 24.7279L113.152 24.7853C113.152 24.7853 113.1 26.7094 112.881 26.9806C112.881 26.9806 112.208 28.1799 112.818 28.9464C113.429 29.7129 117.026 29.8694 117.026 29.8694V34.3016C117.027 34.3853 117.011 34.4684 116.979 34.5459C116.948 34.6234 116.901 34.6938 116.842 34.753C116.782 34.8122 116.712 34.859 116.635 34.8908C116.557 34.9225 116.474 34.9385 116.39 34.9378H109.992Z" fill="black"/>
<path d="M139.516 35.0316H130.746C130.571 35.0317 130.404 34.9635 130.279 34.8417C130.154 34.7199 130.082 34.5541 130.078 34.3798C130.078 34.2028 130.148 34.033 130.274 33.9079C130.399 33.7827 130.569 33.7124 130.746 33.7124H139.516C139.693 33.7124 139.863 33.7827 139.988 33.9079C140.113 34.033 140.184 34.2028 140.184 34.3798C140.18 34.5541 140.107 34.7199 139.983 34.8417C139.858 34.9635 139.691 35.0317 139.516 35.0316Z" fill="black"/>
<path d="M139.516 16.9897H121.334C121.157 16.9897 120.987 16.9194 120.862 16.7942C120.736 16.6691 120.666 16.4993 120.666 16.3223C120.666 16.1453 120.736 15.9755 120.862 15.8503C120.987 15.7252 121.157 15.6548 121.334 15.6548H139.516C139.693 15.6548 139.863 15.7252 139.988 15.8503C140.113 15.9755 140.184 16.1453 140.184 16.3223C140.184 16.4993 140.113 16.6691 139.988 16.7942C139.863 16.9194 139.693 16.9897 139.516 16.9897Z" fill="black"/>
<path d="M131.762 21.5002H121.334C121.245 21.5002 121.157 21.4826 121.076 21.4484C120.994 21.4142 120.92 21.3641 120.858 21.301C120.796 21.2379 120.747 21.1631 120.714 21.0809C120.681 20.9988 120.665 20.9108 120.666 20.8223C120.666 20.6453 120.736 20.4755 120.862 20.3504C120.987 20.2252 121.157 20.1549 121.334 20.1549H131.762C131.937 20.159 132.102 20.2311 132.224 20.3558C132.346 20.4805 132.414 20.648 132.414 20.8223C132.417 20.9985 132.35 21.1686 132.228 21.2955C132.106 21.4225 131.939 21.4961 131.762 21.5002Z" fill="black"/>
<path d="M128.441 26.0367H121.334C121.157 26.0367 120.987 25.9664 120.862 25.8413C120.736 25.7161 120.666 25.5463 120.666 25.3693C120.666 25.1923 120.736 25.0225 120.862 24.8973C120.987 24.7722 121.157 24.7019 121.334 24.7019H128.441C128.618 24.7019 128.788 24.7722 128.913 24.8973C129.038 25.0225 129.108 25.1923 129.108 25.3693C129.108 25.5463 129.038 25.7161 128.913 25.8413C128.788 25.9664 128.618 26.0367 128.441 26.0367Z" fill="black"/>
<path d="M131.762 30.5212H121.334C121.157 30.5212 120.987 30.4508 120.862 30.3257C120.736 30.2005 120.666 30.0307 120.666 29.8537C120.663 29.7643 120.679 29.6753 120.711 29.5919C120.743 29.5085 120.792 29.4324 120.854 29.3682C120.916 29.304 120.991 29.253 121.073 29.2181C121.156 29.1833 121.244 29.1654 121.334 29.1654H131.762C131.851 29.1674 131.937 29.1869 132.018 29.2226C132.098 29.2584 132.171 29.3098 132.232 29.3737C132.292 29.4377 132.34 29.5131 132.371 29.5955C132.402 29.6779 132.417 29.7656 132.414 29.8537C132.414 30.028 132.346 30.1955 132.224 30.3202C132.102 30.4449 131.937 30.5171 131.762 30.5212Z" fill="black"/>
<path d="M57.4099 82.9678V108.623L50.506 115.527H32.1721V82.9678H57.4099Z" stroke="black" stroke-width="1.10721" stroke-linecap="round" stroke-linejoin="round"/>
<path d="M57.4099 108.623L50.506 115.527V108.623H57.4099Z" fill="black" stroke="black" stroke-width="1.10721" stroke-linecap="round" stroke-linejoin="round"/>
<path d="M38.3199 87.1185H53.5513" stroke="black" stroke-width="1.10721" stroke-linecap="round" stroke-linejoin="round"/>
<path d="M36.0256 89.9864H53.5513" stroke="black" stroke-width="1.10721" stroke-linecap="round" stroke-linejoin="round"/>
<path d="M36.0256 92.8544H53.5513" stroke="black" stroke-width="1.10721" stroke-linecap="round" stroke-linejoin="round"/>
<path d="M36.0256 95.7223H53.5513" stroke="black" stroke-width="1.10721" stroke-linecap="round" stroke-linejoin="round"/>
<path d="M36.0256 98.5902H53.5513" stroke="black" stroke-width="1.10721" stroke-linecap="round" stroke-linejoin="round"/>
<path d="M36.0256 101.458H53.5513" stroke="black" stroke-width="1.10721" stroke-linecap="round" stroke-linejoin="round"/>
<path d="M36.0256 104.321H53.5513" stroke="black" stroke-width="1.10721" stroke-linecap="round" stroke-linejoin="round"/>
<path d="M36.0256 107.189H51.2621" stroke="black" stroke-width="1.10721" stroke-linecap="round" stroke-linejoin="round"/>
<path d="M58.6093 87.1185H61.5554V112.773L54.6567 119.677H36.3228V116.643" stroke="black" stroke-width="1.10721" stroke-linecap="round" stroke-linejoin="round"/>
<path d="M61.5554 112.773L54.6567 119.677V112.773H61.5554Z" fill="black" stroke="black" stroke-width="1.10721" stroke-linecap="round" stroke-linejoin="round"/>
<path d="M152.219 65.1293H91.1264C89.9054 65.1293 88.9155 66.1192 88.9155 67.3402V135.305C88.9155 136.526 89.9054 137.516 91.1264 137.516H152.219C153.44 137.516 154.43 136.526 154.43 135.305V67.3402C154.43 66.1192 153.44 65.1293 152.219 65.1293Z" fill="#5546FF" stroke="black" stroke-width="1.10721" stroke-linecap="round" stroke-linejoin="round"/>
<g opacity="0.5">
<path opacity="0.5" d="M153.11 89.2617H90.2347" stroke="white" stroke-width="1.10721" stroke-linecap="round" stroke-linejoin="round"/>
<path opacity="0.5" d="M153.11 97.3023H90.2347" stroke="white" stroke-width="1.10721" stroke-linecap="round" stroke-linejoin="round"/>
<path opacity="0.5" d="M153.11 105.343H90.2347" stroke="white" stroke-width="1.10721" stroke-linecap="round" stroke-linejoin="round"/>
<path opacity="0.5" d="M153.11 113.384H90.2347" stroke="white" stroke-width="1.10721" stroke-linecap="round" stroke-linejoin="round"/>
<path opacity="0.5" d="M153.11 121.424H90.2347" stroke="white" stroke-width="1.10721" stroke-linecap="round" stroke-linejoin="round"/>
<path opacity="0.5" d="M153.11 129.47H90.2347" stroke="white" stroke-width="1.10721" stroke-linecap="round" stroke-linejoin="round"/>
<path opacity="0.5" d="M153.11 81.2158H90.2347" stroke="white" stroke-width="1.10721" stroke-linecap="round" stroke-linejoin="round"/>
<path opacity="0.5" d="M153.11 73.1752H90.2347" stroke="white" stroke-width="1.10721" stroke-linecap="round" stroke-linejoin="round"/>
<path opacity="0.5" d="M138.087 136.223V66.4173" stroke="white" stroke-width="1.10721" stroke-linecap="round" stroke-linejoin="round"/>
<path opacity="0.5" d="M129.88 136.223V66.4173" stroke="white" stroke-width="1.10721" stroke-linecap="round" stroke-linejoin="round"/>
<path opacity="0.5" d="M121.672 136.223V66.4173" stroke="white" stroke-width="1.10721" stroke-linecap="round" stroke-linejoin="round"/>
<path opacity="0.5" d="M113.465 136.223V66.4173" stroke="white" stroke-width="1.10721" stroke-linecap="round" stroke-linejoin="round"/>
<path opacity="0.5" d="M105.257 136.223V66.4173" stroke="white" stroke-width="1.10721" stroke-linecap="round" stroke-linejoin="round"/>
<path opacity="0.5" d="M97.0552 136.223V66.4173" stroke="white" stroke-width="1.10721" stroke-linecap="round" stroke-linejoin="round"/>
<path opacity="0.5" d="M146.295 136.223V66.4173" stroke="white" stroke-width="1.10721" stroke-linecap="round" stroke-linejoin="round"/>
</g>
<path d="M119.378 123.374C120.08 119.746 121.04 116.172 122.251 112.68C122.496 111.976 122.773 111.267 123.075 110.51C123.79 108.685 125.255 104.957 124.702 103.846C124.647 103.728 124.561 103.627 124.454 103.553C124.347 103.478 124.222 103.434 124.092 103.424C124.064 103.423 124.036 103.427 124.01 103.437C123.984 103.447 123.961 103.462 123.941 103.481C122.314 104.811 121.266 108.498 120.504 111.188L120.249 112.096C119.239 115.713 118.524 119.407 118.111 123.14" stroke="white" stroke-width="1.10721" stroke-linecap="round" stroke-linejoin="round"/>
<path d="M121.792 123.547C122.467 120.131 123.378 116.766 124.52 113.477C124.749 112.805 125.041 112.101 125.317 111.36C126.459 108.456 127.878 104.858 126.856 102.798C126.602 102.285 126.212 101.851 125.728 101.544C125.244 101.236 124.686 101.068 124.113 101.057C123.508 101.051 122.92 101.26 122.455 101.646C120.249 103.445 119.133 107.382 118.236 110.542L117.981 111.444C116.971 115.03 116.251 118.692 115.827 122.394" stroke="white" stroke-width="1.10721" stroke-linecap="round" stroke-linejoin="round"/>
<path d="M124.264 123.312C124.9 120.24 125.734 117.213 126.762 114.249C128.003 110.709 130.798 105.385 128.983 101.735C127.497 98.7467 123.607 97.636 120.953 99.8052C117.918 102.277 116.714 107.236 115.692 110.787C114.727 114.206 114.018 117.692 113.569 121.216" stroke="white" stroke-width="1.10721" stroke-linecap="round" stroke-linejoin="round"/>
<path d="M126.861 122.592C127.428 120.034 128.145 117.511 129.009 115.037C129.213 114.447 129.473 113.79 129.75 113.086C131.231 109.316 133.076 104.618 131.111 100.666C130.462 99.3612 129.464 98.2617 128.229 97.4887C126.994 96.7157 125.57 96.2993 124.113 96.2855C122.413 96.2802 120.764 96.8685 119.451 97.9489C116.083 100.697 114.758 105.437 113.658 109.238L113.408 110.119C112.529 113.215 111.862 116.366 111.411 119.552" stroke="white" stroke-width="1.10721" stroke-linecap="round" stroke-linejoin="round"/>
<path d="M129.635 121.221C130.12 119.312 130.652 117.545 131.251 115.824C131.45 115.266 131.695 114.635 131.955 113.973C133.52 109.968 135.673 104.503 133.238 99.6123C132.393 97.911 131.093 96.4772 129.482 95.4702C127.871 94.4632 126.013 93.9223 124.113 93.9077C121.865 93.8997 119.684 94.6782 117.949 96.1082C113.997 99.3307 112.542 104.451 111.369 108.592L111.119 109.468C110.383 112.052 109.793 114.675 109.351 117.326" stroke="white" stroke-width="1.10721" stroke-linecap="round" stroke-linejoin="round"/>
<path d="M132.498 118.9C133.019 115.083 136.096 110.557 136.398 105.265C136.674 100.415 135.079 97.3075 133.947 95.7484C133.678 95.3642 133.507 94.9202 133.449 94.4549C133.391 93.9896 133.448 93.5172 133.614 93.0786C134.37 90.8566 134.344 88.4427 133.541 86.2373" stroke="white" stroke-width="1.10721" stroke-linecap="round" stroke-linejoin="round"/>
<path d="M125.27 79.1092C129.286 81.6225 131.893 85.5803 132.096 90.6956C132.164 92.5311 130.673 93.1621 128.806 92.5937C124.9 91.4048 115.593 88.3596 109.919 104.31C108.832 107.62 108.03 111.017 107.521 114.463" stroke="white" stroke-width="1.10721" stroke-linecap="round" stroke-linejoin="round"/>
<path d="M117.292 79.3699C119.798 79.336 122.274 79.916 124.504 81.0594C128.316 83.1086 130.714 87.9268 129.489 89.1522C128.128 90.5131 125.599 87.228 117.866 90.3984C114.148 91.921 111.51 95.0236 109.716 98.5485C108.907 100.159 108.223 101.829 107.672 103.544C106.953 105.75 106.361 107.996 105.899 110.271" stroke="white" stroke-width="1.10721" stroke-linecap="round" stroke-linejoin="round"/>
<path d="M112.897 82.3108C114.258 81.9519 115.66 81.7644 117.068 81.7529C123.894 81.5965 126.454 85.2361 125.703 86.1591C125.072 86.936 123.67 86.498 121.745 86.7327C116.192 87.4158 111.802 90.5757 108.845 95.2478C107.387 97.6137 106.224 100.149 105.383 102.798C105.226 103.273 105.075 103.753 104.929 104.232" stroke="white" stroke-width="1.10721" stroke-linecap="round" stroke-linejoin="round"/>
<path d="M109.679 86.2373C111.954 84.3999 114.819 83.4512 117.741 83.5675C118.606 83.5675 120.744 83.8491 121.031 84.6678C121.412 85.7419 117.939 84.2819 112.907 87.6348C106.457 91.9367 105.675 96.0143 105.675 96.0143" stroke="white" stroke-width="1.10721" stroke-linecap="round" stroke-linejoin="round"/>
<path d="M135.235 116.012C135.235 116.012 138.734 108.456 138.364 102.616C138.134 98.8562 136.278 96.4993 135.986 94.8254C135.694 93.1516 136.508 92.7397 136.289 91.2066" stroke="white" stroke-width="1.10721" stroke-linecap="round" stroke-linejoin="round"/>
<path d="M93.3269 80.4441V69.7754H103.996" stroke="black" stroke-width="1.10721" stroke-linecap="round" stroke-linejoin="round"/>
<path d="M103.996 132.87H93.3269V122.201" stroke="black" stroke-width="1.10721" stroke-linecap="round" stroke-linejoin="round"/>
<path d="M150.023 80.4441V69.7754H139.355" stroke="black" stroke-width="1.10721" stroke-linecap="round" stroke-linejoin="round"/>
<path d="M139.355 132.87H150.023V122.201" stroke="black" stroke-width="1.10721" stroke-linecap="round" stroke-linejoin="round"/>
<path d="M195.342 230.963C192.557 226.791 189.637 222.39 187.239 218.745C184.173 214.099 181.962 210.705 181.962 210.705C180.788 205.214 179.125 203.06 177.451 198.55C175.777 194.039 177.159 190.019 177.853 184.434C178.546 178.85 177.451 173.646 176.867 170.116C176.283 166.585 176.966 163.253 176.867 162.471C176.768 161.689 173.436 157.57 172.174 154.53C171.602 153.174 170.804 151.925 169.812 150.838C168.717 149.584 167.346 148.601 165.807 147.965C165.166 147.713 164.498 147.538 163.815 147.443C162.251 147.219 160.989 147.469 159.727 147.469C157.96 147.469 154.237 144.435 151.786 143.95C151.331 143.859 150.871 143.795 150.409 143.757C148.381 143.564 146.238 143.757 143.865 143.944C141.493 144.132 138.734 141.885 136.513 141.181H136.476C135.985 141.009 135.46 140.952 134.943 141.014C132.592 141.405 128.164 141.796 128.164 141.796C128.164 141.796 127.773 138.761 127.575 134.642C127.539 133.927 127.487 133.239 127.424 132.556C127.195 130.011 126.83 127.738 126.772 125.657C126.772 125.136 126.772 124.578 126.772 124.057C126.965 121.126 126.876 118.842 126.772 114.337C126.772 114.186 126.772 114.024 126.772 113.862C126.772 112.46 126.772 111.12 126.689 109.91C126.527 106.974 125.875 104.805 122.955 104.356C120.405 103.965 118.643 105.238 117.564 109.456C116.484 113.675 115.702 113.377 115.41 119.551C115.118 125.725 113.736 129.657 113.934 132.791C114.132 135.925 113.444 142.005 113.444 142.005C112.271 141.415 111.192 141.906 110.988 142.396C110.785 142.886 109.919 147.694 109.226 151.125C108.621 154.175 105.842 156.996 104.819 159.098V159.144C104.71 159.371 104.619 159.607 104.548 159.848C103.959 162.007 104.256 166.627 104.256 172.499C104.256 178.37 102.786 184.46 104.256 188.377C104.569 189.174 105.008 189.917 105.555 190.577C107.813 193.367 111.958 195.791 115.728 200.239C120.421 205.829 123.769 209.949 126.903 211.815C129.15 213.14 130.136 214.224 130.553 215.653C130.716 216.273 130.802 216.91 130.808 217.551C130.85 218.803 131.528 219.757 132.675 221.342C134.465 223.767 136.035 226.346 137.368 229.049C138.625 231.568 140.549 236.349 142.582 241.647L195.342 230.963Z" fill="white"/>
<path opacity="0.4" d="M126.757 124.031C126.725 124.553 126.72 125.074 126.757 125.632C123.007 124.923 115.77 126.774 115.66 128.985C115.535 131.681 115.207 138.053 116.578 139.539C117.949 141.025 120.89 141.974 120.89 141.974C120.674 141.991 120.458 142.019 120.244 142.058H120.171C119.232 142.255 118.377 142.736 117.72 143.434C114.852 146.375 114.732 152.893 115.671 156.032C119.597 169.068 113.241 179.383 110.978 178.131C108.715 176.88 108.532 165.674 109.215 163.051C109.628 161.521 109.83 159.942 109.815 158.358C108.814 158.024 106.712 158.509 104.783 159.109V159.062C105.826 156.976 108.584 154.14 109.189 151.089C109.883 147.658 110.754 142.85 110.952 142.36C111.15 141.87 112.234 141.38 113.408 141.969C113.408 141.969 114.096 135.894 113.898 132.755C113.7 129.616 115.076 125.695 115.374 119.516C115.671 113.337 116.448 113.639 117.527 109.421C118.606 105.202 120.369 103.93 122.919 104.321C125.839 104.769 126.491 106.928 126.652 109.874C126.324 109.563 125.976 109.274 125.609 109.009C124.686 108.291 123.526 107.949 122.361 108.049C121.01 108.237 119.827 109.614 119.076 111.032C117.996 113.118 117.819 115.355 119.336 114.588C121.057 113.728 124.608 114.015 126.772 114.301C126.861 118.801 126.95 121.101 126.757 124.031Z" fill="#5546FF"/>
<path opacity="0.4" d="M130.761 217.536C130.755 216.896 130.67 216.258 130.506 215.638C130.094 214.21 129.108 213.125 126.856 211.801C123.727 209.934 120.385 205.814 115.681 200.225C111.911 195.756 107.766 193.352 105.508 190.562C108.35 192.101 112.208 191.308 113.423 193.743C115.191 197.258 123.492 202.608 123.492 202.608C131.596 210.627 130.761 217.536 130.761 217.536Z" fill="#5546FF"/>
<path opacity="0.4" d="M136.429 141.161C135.475 140.968 132.889 147.345 132.644 149.608C131.992 155.474 135.001 173.558 131.131 173.151C129.531 172.984 127.653 164.537 127.544 160.6C127.195 148.644 127.674 143.674 127.674 143.674C127.674 143.674 126.819 137.052 127.393 132.541C127.455 133.219 127.507 133.908 127.544 134.627C127.742 138.747 128.133 141.781 128.133 141.781C128.133 141.781 132.545 141.39 134.912 140.999C135.423 140.938 135.942 140.993 136.429 141.161Z" fill="#5546FF"/>
<path opacity="0.4" d="M150.362 143.752C148.277 143.94 146.191 145.979 144.475 146.36C142.389 146.803 138.557 142.105 136.466 141.187C138.687 141.891 141.472 144.102 143.818 143.951C146.165 143.799 148.334 143.559 150.362 143.752Z" fill="#5546FF"/>
<path opacity="0.4" d="M163.789 147.439C162.756 148.733 161.924 150.177 161.323 151.72C159.644 157.148 161.229 177.688 158.523 174.325C154.998 169.955 158.679 154.797 156.109 149.009C155.295 147.157 152.391 144.196 151.76 143.945C154.211 144.43 157.934 147.465 159.701 147.465C160.963 147.465 162.23 147.215 163.789 147.439Z" fill="#5546FF"/>
<path opacity="0.4" d="M187.228 218.741C184.48 215.644 181.602 212.692 179.719 211.587C175.136 208.886 173.822 206.091 173.426 201.434C173.029 196.778 174.213 196.877 175.584 192.273C176.956 187.668 174.406 181.974 174.604 183.205C174.802 184.435 172.638 192.956 171.048 193.378C169.457 193.8 168.92 188.054 168.722 183.372C168.524 178.689 171.074 156.882 170.36 152.606C170.263 151.986 170.069 151.384 169.786 150.823C170.778 151.911 171.576 153.159 172.148 154.515C173.426 157.555 176.758 161.674 176.841 162.457C176.925 163.239 176.252 166.576 176.841 170.101C177.43 173.626 178.51 178.825 177.827 184.42C177.144 190.015 175.741 194.025 177.425 198.535C179.109 203.046 180.762 205.199 181.936 210.69C181.951 210.7 184.162 214.095 187.228 218.741Z" fill="#5546FF"/>
<path opacity="0.4" d="M145.841 155.354C146.884 156.45 147.541 170.8 148.131 174.33C148.72 177.86 146.889 186.323 145.841 183.747C144.793 181.171 141.597 150.891 145.841 155.354Z" fill="#5546FF"/>
<path d="M141.8 239.62C140.069 235.146 138.468 231.23 137.373 229.035C136.041 226.331 134.47 223.752 132.68 221.328C131.533 219.763 130.855 218.788 130.813 217.537C130.808 216.896 130.722 216.258 130.558 215.639V215.639C130.146 214.21 129.16 213.125 126.908 211.801C123.779 209.934 120.437 205.815 115.733 200.225C111.963 195.756 107.818 193.352 105.56 190.563C105.013 189.903 104.575 189.16 104.262 188.362C102.791 184.446 104.262 178.361 104.262 172.484C104.262 166.607 103.964 161.993 104.554 159.834C104.625 159.592 104.715 159.357 104.825 159.13V159.083C105.868 156.997 108.626 154.161 109.231 151.11C109.924 147.679 110.795 142.871 110.993 142.381C111.192 141.891 112.276 141.401 113.449 141.99C113.449 141.99 114.138 135.915 113.94 132.776C113.741 129.637 115.118 125.716 115.415 119.537C115.712 113.358 116.489 113.66 117.569 109.442C118.648 105.223 120.411 103.951 122.96 104.342C125.881 104.79 126.532 106.949 126.694 109.895C126.762 111.105 126.751 112.445 126.777 113.848C126.777 114.01 126.777 114.171 126.777 114.322C126.871 118.812 126.96 121.101 126.777 124.042C126.746 124.564 126.741 125.085 126.777 125.643C126.835 127.729 127.2 129.997 127.429 132.542C127.492 133.22 127.544 133.908 127.58 134.627C127.779 138.747 128.17 141.782 128.17 141.782C128.17 141.782 132.581 141.391 134.948 140.999C135.466 140.938 135.99 140.995 136.481 141.166H136.518C138.739 141.87 141.524 144.081 143.87 143.93C146.217 143.779 148.386 143.549 150.414 143.742C150.877 143.781 151.336 143.845 151.791 143.935C154.242 144.42 157.965 147.455 159.733 147.455C160.995 147.455 162.262 147.205 163.821 147.429C164.503 147.523 165.172 147.698 165.813 147.95C167.351 148.586 168.722 149.57 169.817 150.823C170.809 151.911 171.608 153.159 172.179 154.515C173.457 157.555 176.789 161.675 176.872 162.457C176.956 163.239 176.283 166.576 176.872 170.101C177.462 173.626 178.541 178.825 177.858 184.42C177.175 190.015 175.772 194.025 177.456 198.535C179.141 203.046 180.794 205.199 181.967 210.69C181.967 210.69 184.178 214.085 187.244 218.731C189.371 221.959 191.906 225.796 194.398 229.525" stroke="black" stroke-width="1.10721" stroke-linecap="round" stroke-linejoin="round"/>
<path d="M113.423 141.974C113.423 146.292 113.032 151.647 112.38 153.874C111.729 156.1 112.167 163.546 110.967 166.68" stroke="black" stroke-width="1.10721" stroke-linecap="round" stroke-linejoin="round"/>
<path d="M115.65 145.374C115.65 145.374 118.653 141.974 120.864 141.974C123.075 141.974 125.312 143.413 127.643 143.674C129.974 143.935 132.446 142.198 134.703 141.781" stroke="black" stroke-width="1.10721" stroke-linecap="round" stroke-linejoin="round"/>
<path d="M117.345 129.642C117.345 129.642 121.401 128.161 123.492 129.642" stroke="black" stroke-width="1.10721" stroke-linecap="round" stroke-linejoin="round"/>
<path d="M120.421 127.718C120.421 127.718 121.662 127.379 123.492 128.266" stroke="black" stroke-width="1.10721" stroke-linecap="round" stroke-linejoin="round"/>
<path d="M119.336 117.289C120.71 116.983 122.134 116.983 123.508 117.289" stroke="black" stroke-width="1.10721" stroke-linecap="round" stroke-linejoin="round"/>
<path d="M104.778 159.062C104.778 159.062 107.385 157.795 108.428 157.664" stroke="black" stroke-width="1.10721" stroke-linecap="round" stroke-linejoin="round"/>
<path d="M111.666 163.077C111.666 163.077 110.102 165.507 109.81 166.68" stroke="black" stroke-width="1.10721" stroke-linecap="round" stroke-linejoin="round"/>
<path d="M119.336 106.683C119.336 106.683 118.711 111.673 119.336 112.116C119.962 112.56 124.796 112.982 125.192 112.116C125.589 111.251 125.656 107.596 125.656 107.596C125.656 107.596 122.762 102.626 119.336 106.683Z" stroke="black" stroke-width="1.10721" stroke-linecap="round" stroke-linejoin="round"/>
<path d="M109.21 151.094C109.21 151.094 113.22 149.071 113.314 146.177C113.408 143.283 112.229 143.314 110.738 143.299" stroke="black" stroke-width="1.10721" stroke-linecap="round" stroke-linejoin="round"/>
<path d="M171.726 157.664C171.856 162.238 170.553 175.571 170.417 177.531C170.281 179.492 170.417 184.503 170.417 184.503" stroke="black" stroke-width="1.10721" stroke-linecap="round" stroke-linejoin="round"/>
<path d="M143.099 147.194C147.411 153.451 143.099 151.094 145.841 181.062" stroke="black" stroke-width="1.10721" stroke-linecap="round" stroke-linejoin="round"/>
<path d="M181.951 210.7C181.951 210.7 178.129 207.728 177.472 206.007" stroke="black" stroke-width="1.10721" stroke-linecap="round" stroke-linejoin="round"/>
<path d="M128.587 209.292C129.734 211.196 130.459 215.367 130.501 215.623" stroke="black" stroke-width="1.10721" stroke-linecap="round" stroke-linejoin="round"/>
</svg>
