<svg width="8" height="14" viewBox="0 0 8 14" fill="none" xmlns="http://www.w3.org/2000/svg">
    <path d="M6.75435 13.5031C6.65564 13.5036 6.5578 13.4847 6.46642 13.4474C6.37504 13.4101 6.29193 13.3551 6.22185 13.2856L0.221849 7.28557C0.151552 7.21585 0.0957569 7.1329 0.0576804 7.0415C0.0196039 6.95011 0 6.85208 0 6.75307C0 6.65406 0.0196039 6.55603 0.0576804 6.46464C0.0957569 6.37324 0.151552 6.29029 0.221849 6.22057L6.22185 0.220569C6.36308 0.079341 6.55462 0 6.75435 0C6.95407 0 7.14562 0.079341 7.28685 0.220569C7.42808 0.361797 7.50742 0.553343 7.50742 0.753069C7.50742 0.952795 7.42808 1.14434 7.28685 1.28557L1.81185 6.75307L7.28685 12.2206C7.35714 12.2903 7.41294 12.3732 7.45102 12.4646C7.48909 12.556 7.5087 12.6541 7.5087 12.7531C7.5087 12.8521 7.48909 12.9501 7.45102 13.0415C7.41294 13.1329 7.35714 13.2158 7.28685 13.2856C7.21677 13.3551 7.13366 13.4101 7.04228 13.4474C6.9509 13.4847 6.85305 13.5036 6.75435 13.5031Z" fill="#000000"/>
</svg>
