<svg width="9" height="9" viewBox="0 0 9 9" fill="none" xmlns="http://www.w3.org/2000/svg">
<path d="M8.49805 7.88868L8.49805 4.13867C8.49805 4.03922 8.45854 3.94384 8.38821 3.87351C8.31789 3.80318 8.2225 3.76367 8.12305 3.76367C8.02359 3.76367 7.92821 3.80318 7.85788 3.87351C7.78755 3.94384 7.74805 4.03922 7.74805 4.13867L7.74805 6.98343L1.52829 0.763672L4.37304 0.763672C4.4725 0.763672 4.56788 0.724163 4.63821 0.653837C4.70853 0.583511 4.74804 0.488128 4.74804 0.388672C4.74804 0.289216 4.70853 0.193833 4.63821 0.123507C4.56788 0.0531805 4.4725 0.0136717 4.37304 0.0136717L0.623035 0.0136715C0.523579 0.0136715 0.428196 0.0531803 0.357869 0.123507C0.287543 0.193833 0.248034 0.289215 0.248034 0.388672L0.248034 4.13867C0.248034 4.23813 0.287543 4.33351 0.357869 4.40384C0.428196 4.47417 0.523578 4.51367 0.623035 4.51367C0.722491 4.51367 0.817874 4.47417 0.888201 4.40384C0.958527 4.33351 0.998035 4.23813 0.998035 4.13867L0.998035 1.29392L7.21779 7.51368L4.37304 7.51368C4.27358 7.51368 4.1782 7.55318 4.10788 7.62351C4.03755 7.69384 3.99804 7.78922 3.99804 7.88868C3.99804 7.98813 4.03755 8.08351 4.10787 8.15384C4.1782 8.22417 4.27358 8.26368 4.37304 8.26368L8.12305 8.26368C8.2225 8.26368 8.31789 8.22417 8.38821 8.15384C8.45854 8.08352 8.49805 7.98813 8.49805 7.88868Z" fill="#000000"/>
</svg>
