<svg width="24" height="24" viewBox="0 0 24 24" fill="none" xmlns="http://www.w3.org/2000/svg">
<g clip-path="url(#clip0_17_22644)">
<path d="M18.1095 2.97999C18.011 2.98035 17.9141 2.95541 17.8284 2.90758C15.7371 1.79126 13.3969 1.2067 11.0193 1.2067C8.64173 1.2067 6.30157 1.79126 4.21027 2.90758C4.13966 2.94562 4.06217 2.96958 3.98218 2.97806C3.90218 2.98654 3.8213 2.97937 3.74411 2.95699C3.66691 2.93462 3.59491 2.89747 3.53227 2.84764C3.46962 2.79782 3.41757 2.73629 3.37902 2.6666C3.34047 2.59691 3.31616 2.52044 3.30756 2.44149C3.29897 2.36255 3.30621 2.28269 3.32888 2.2065C3.35155 2.13032 3.38923 2.05929 3.43971 1.99747C3.4902 1.93565 3.55254 1.88425 3.62316 1.8462C5.89074 0.63657 8.42739 0.00214666 11.005 5.4381e-06C13.5827 -0.00213578 16.1204 0.628074 18.3901 1.83394C18.5096 1.89829 18.6042 1.99977 18.6594 2.12261C18.7145 2.24546 18.727 2.38282 18.695 2.5134C18.6629 2.64398 18.5882 2.76047 18.4822 2.84483C18.3762 2.92919 18.245 2.9767 18.1089 2.97999H18.1095ZM0.616409 9.31373C0.489739 9.31304 0.366075 9.27524 0.26122 9.2051C0.194916 9.15952 0.138454 9.10141 0.0951138 9.03411C0.0517731 8.96681 0.0224314 8.89165 0.00877312 8.81306C-0.0048852 8.73447 -0.00257648 8.654 0.0155648 8.57629C0.033706 8.49859 0.0673485 8.42519 0.114477 8.36042C1.2943 6.6968 2.86793 5.3427 4.69862 4.41579C6.65486 3.44985 8.81183 2.94593 10.9992 2.9438C13.1867 2.94167 15.3446 3.44139 17.3028 4.40352C19.1296 5.32563 20.7026 6.67118 21.8869 8.3248C21.9811 8.45602 22.0187 8.61879 21.9912 8.7773C21.9638 8.93581 21.8737 9.0771 21.7407 9.17005C21.6078 9.263 21.4429 9.3 21.2822 9.27294C21.1216 9.24589 20.9785 9.15698 20.8843 9.02576C19.8139 7.53043 18.3923 6.3134 16.7411 5.47891C14.9554 4.60294 12.988 4.14812 10.9939 4.15025C8.99979 4.15237 7.03345 4.61139 5.24969 5.49117C3.59368 6.33457 2.16797 7.55944 1.09341 9.06199C1.04392 9.14217 0.973558 9.20778 0.889664 9.25205C0.805771 9.29632 0.711462 9.31763 0.616409 9.31373ZM8.25701 23.8749C8.17687 23.876 8.09741 23.8605 8.02371 23.8294C7.95001 23.7983 7.88368 23.7524 7.82907 23.6945C6.83778 22.7735 6.00745 21.6972 5.37157 20.5092C4.49882 18.9002 4.05713 17.0978 4.08839 15.2731C4.08839 11.6894 7.19338 8.77049 11.0075 8.77049C14.8216 8.77049 17.9267 11.6912 17.9267 15.2731C17.9267 15.4331 17.8622 15.5865 17.7475 15.6997C17.6329 15.8129 17.4774 15.8764 17.3152 15.8764C17.153 15.8764 16.9976 15.8129 16.8829 15.6997C16.7682 15.5865 16.7038 15.4331 16.7038 15.2731C16.6572 13.8261 16.0316 12.4563 14.9638 11.4636C13.8961 10.4709 12.4732 9.93628 11.0069 9.97672C7.86518 9.97672 5.31002 12.353 5.31002 15.2731C5.27957 16.8919 5.6711 18.4914 6.44704 19.918C7.03632 21.0056 7.80008 21.9919 8.70866 22.8387C8.82058 22.9539 8.88307 23.1073 8.88307 23.2669C8.88307 23.4265 8.82058 23.5799 8.70866 23.695C8.58641 23.809 8.42517 23.8734 8.25701 23.8755V23.8749ZM17.0222 21.643C15.678 21.6754 14.3561 21.3007 13.2342 20.5693C12.3475 19.9885 11.6186 19.202 11.1114 18.2786C10.6041 17.3553 10.3339 16.3233 10.3245 15.2731C10.3245 15.1131 10.3889 14.9597 10.5035 14.8466C10.6181 14.7335 10.7735 14.6699 10.9356 14.6699C11.0977 14.6699 11.2531 14.7335 11.3677 14.8466C11.4823 14.9597 11.5467 15.1131 11.5467 15.2731C11.5539 16.1261 11.7741 16.9643 12.1878 17.7134C12.6015 18.4624 13.1959 19.0993 13.9184 19.5676C14.8399 20.1608 15.9239 20.4597 17.0234 20.4239C17.4498 20.417 17.8749 20.3765 18.2948 20.303C18.4541 20.2787 18.6167 20.3172 18.7475 20.4102C18.8783 20.5032 18.9669 20.6432 18.994 20.8C19.0212 20.9568 18.9849 21.1179 18.8928 21.2485C18.8008 21.3791 18.6603 21.4687 18.5019 21.4981C18.0144 21.5897 17.5197 21.6384 17.0234 21.6436L17.0222 21.643ZM14.5653 24.1285C14.5115 24.1263 14.4582 24.1182 14.4061 24.1045C12.681 23.6938 11.1061 22.8162 9.85869 21.5706C9.01433 20.7478 8.34482 19.767 7.8894 18.6856C7.43398 17.6042 7.20176 16.4441 7.2064 15.2731C7.25183 14.3177 7.66834 13.4164 8.36944 12.7562C9.07053 12.096 10.0024 11.7277 10.9714 11.7277C11.9405 11.7277 12.8723 12.096 13.5734 12.7562C14.2745 13.4164 14.691 14.3177 14.7364 15.2731C14.7804 15.909 15.0674 16.5047 15.5394 16.9398C16.0114 17.375 16.6332 17.617 17.2791 17.617C17.925 17.617 18.5468 17.375 19.0188 16.9398C19.4908 16.5047 19.7779 15.909 19.8219 15.2731C19.8219 10.725 15.8492 7.03272 10.959 7.03272C9.28546 7.01372 7.64017 7.45956 6.21114 8.31935C4.7821 9.17913 3.6269 10.4182 2.87738 11.895C2.38294 12.9533 2.13634 14.1079 2.15587 15.2731C2.15242 16.7624 2.43024 18.2394 2.97506 19.6283C3.00466 19.7019 3.0189 19.7806 3.01697 19.8597C3.01504 19.9389 2.99694 20.0168 2.96379 20.0889C2.93064 20.161 2.88314 20.2258 2.82406 20.2793C2.76497 20.3328 2.69548 20.3741 2.61987 20.4005C2.54523 20.4283 2.46581 20.4413 2.38607 20.4387C2.30632 20.4362 2.22787 20.4181 2.15522 20.3856C2.08258 20.353 2.01718 20.3066 1.96274 20.249C1.90831 20.1914 1.86593 20.1238 1.83804 20.0501C1.24888 18.5245 0.946385 16.9057 0.945443 15.2731C0.923777 13.9255 1.20687 12.59 1.7741 11.364C2.62267 9.68214 3.93362 8.2698 5.55712 7.28849C7.18061 6.30718 9.05111 5.7965 10.9548 5.81479C16.5185 5.81479 21.0406 10.0497 21.0406 15.2614C20.9951 16.2167 20.5786 17.118 19.8775 17.7782C19.1764 18.4384 18.2446 18.8067 17.2756 18.8067C16.3066 18.8067 15.3747 18.4384 14.6736 17.7782C13.9725 17.118 13.556 16.2167 13.5106 15.2614C13.4645 14.6268 13.1767 14.0331 12.7049 13.5996C12.2331 13.1662 11.6124 12.9252 10.9678 12.9252C10.3232 12.9252 9.70261 13.1662 9.23082 13.5996C8.75903 14.0331 8.47118 14.6268 8.42514 15.2614C8.41998 16.2728 8.61952 17.2751 9.01204 18.2095C9.40456 19.1438 9.98214 19.9914 10.711 20.7025C11.8045 21.802 13.1898 22.5753 14.708 22.9339C14.7852 22.9544 14.8575 22.9896 14.9208 23.0377C14.9841 23.0858 15.0371 23.1458 15.0768 23.2142C15.1166 23.2826 15.1423 23.358 15.1524 23.4362C15.1625 23.5144 15.157 23.5939 15.1359 23.6699C15.1066 23.7986 15.0344 23.9137 14.9308 23.997C14.8272 24.0803 14.6983 24.1267 14.5647 24.129L14.5653 24.1285Z" fill="url(#paint0_linear_17_22644)"/>
</g>
<defs>
<linearGradient id="paint0_linear_17_22644" x1="11" y1="0" x2="11" y2="24.129" gradientUnits="userSpaceOnUse">
<stop stop-color="#8CDCFF"/>
<stop offset="0.270833" stop-color="#5EEF77"/>
<stop offset="0.786458" stop-color="#FEBF32"/>
<stop offset="1" stop-color="#FFB76A"/>
</linearGradient>
<clipPath id="clip0_17_22644">
<rect width="24" height="24" fill="white"/>
</clipPath>
</defs>
</svg>
