<svg width="30" height="30" viewBox="0 0 30 30" fill="none" xmlns="http://www.w3.org/2000/svg">
<mask id="mask0_1180:3713" style="mask-type:alpha" maskUnits="userSpaceOnUse" x="0" y="0" width="30" height="30">
<path d="M30 15C30 6.71573 23.2843 0 15 0C6.71573 0 0 6.71573 0 15C0 23.2843 6.71573 30 15 30C23.2843 30 30 23.2843 30 15Z" fill="white"/>
</mask>
<g mask="url(#mask0_1180:3713)">
<path d="M29.25 0H0.75C0.335786 0 0 0.335786 0 0.75V29.25C0 29.6642 0.335786 30 0.75 30H29.25C29.6642 30 30 29.6642 30 29.25V0.75C30 0.335786 29.6642 0 29.25 0Z" fill="#467DFF"/>
<g filter="url(#filter0_f_1180:3713)">
<path d="M3.14186 7.18722L-7.51826 10.2782L-15.2903 18.9099L12.4104 43.8517L26.0308 28.7248L23.1543 21.0285L5.89437 18.9506L3.14186 7.18722Z" fill="#F97760"/>
</g>
<g style="mix-blend-mode:overlay" filter="url(#filter1_f_1180:3713)">
<path d="M13.3184 10.9362L-1.46502 18.6912L-0.606649 40.018L31.1131 50.9432L39.1913 20.8465L27.3681 19.2158L30.5702 31.3993L14.4671 41.2895L13.3179 10.9361L13.3184 10.9362Z" fill="#CE1836"/>
</g>
</g>
<defs>
<filter id="filter0_f_1180:3713" x="-34.8903" y="-12.413" width="80.5211" height="75.8646" filterUnits="userSpaceOnUse" color-interpolation-filters="sRGB">
<feFlood flood-opacity="0" result="BackgroundImageFix"/>
<feBlend mode="normal" in="SourceGraphic" in2="BackgroundImageFix" result="shape"/>
<feGaussianBlur stdDeviation="9.8" result="effect1_foregroundBlur_1180:3713"/>
</filter>
<filter id="filter1_f_1180:3713" x="-21.065" y="-8.66397" width="79.8563" height="79.2073" filterUnits="userSpaceOnUse" color-interpolation-filters="sRGB">
<feFlood flood-opacity="0" result="BackgroundImageFix"/>
<feBlend mode="normal" in="SourceGraphic" in2="BackgroundImageFix" result="shape"/>
<feGaussianBlur stdDeviation="9.8" result="effect1_foregroundBlur_1180:3713"/>
</filter>
</defs>
</svg>
