<svg width="69" height="66" viewBox="0 0 69 66" fill="none" xmlns="http://www.w3.org/2000/svg">
<path d="M37.4839 49.6016C39.2861 49.6016 40.7471 48.1406 40.7471 46.3384C40.7471 44.5362 39.2861 43.0752 37.4839 43.0752C35.6817 43.0752 34.2207 44.5362 34.2207 46.3384C34.2207 48.1406 35.6817 49.6016 37.4839 49.6016Z" fill="#EBEBEB"/>
<path d="M38.6702 44.4025C38.6779 44.5592 38.6355 44.7144 38.549 44.8454C38.4612 44.9801 38.3385 45.0885 38.194 45.159C38.0454 45.2339 37.8735 45.2481 37.7146 45.1988C37.5634 45.1519 37.4339 45.0524 37.3496 44.9184C37.4662 45.0021 37.5999 45.0587 37.7411 45.0843C37.8075 45.0968 37.8755 45.0968 37.9419 45.0843C38.0079 45.0747 38.0719 45.054 38.131 45.0229C38.1625 45.008 38.1924 44.9914 38.2222 44.9748C38.2521 44.9582 38.282 44.9367 38.3085 44.9151C38.3635 44.8728 38.4141 44.825 38.4595 44.7724C38.5525 44.6636 38.624 44.538 38.6702 44.4025Z" fill="#C7C7C7"/>
<path d="M37.4961 44.5896C37.4821 44.4809 37.5061 44.3707 37.5641 44.2778C37.6233 44.1816 37.7084 44.1039 37.8096 44.0538C37.9159 44.0011 38.0386 43.9921 38.1514 44.0289C38.2563 44.065 38.3435 44.1398 38.3953 44.2379C38.3126 44.1869 38.2207 44.1525 38.1248 44.1367C38.0382 44.1272 37.9507 44.1427 37.8727 44.1815C37.7013 44.2668 37.5673 44.412 37.4961 44.5896Z" fill="#C7C7C7"/>
<path d="M37.4834 47.8712C37.5235 47.9708 37.5264 48.0815 37.4917 48.1831C37.4562 48.2878 37.3904 48.3797 37.3026 48.4469C37.2575 48.4821 37.2057 48.5079 37.1505 48.5228C37.0952 48.5376 37.0375 48.5411 36.9808 48.5331C36.8741 48.5191 36.7766 48.4659 36.707 48.3838C36.7968 48.4136 36.8913 48.4265 36.9857 48.422C37.0696 48.4162 37.1499 48.3856 37.2163 48.3341C37.2841 48.2805 37.3404 48.2139 37.3822 48.1383C37.4316 48.056 37.4658 47.9656 37.4834 47.8712Z" fill="#C7C7C7"/>
<path d="M36.8056 48.2429C36.7877 48.2096 36.7766 48.1732 36.7729 48.1356C36.7692 48.098 36.773 48.06 36.784 48.0239C36.8059 47.9478 36.8519 47.8808 36.9151 47.8331C36.9478 47.8074 36.9855 47.7889 37.0257 47.7786C37.066 47.7683 37.108 47.7665 37.149 47.7734C37.1863 47.7802 37.2218 47.7944 37.2534 47.8152C37.285 47.836 37.3122 47.863 37.3332 47.8945C37.2703 47.8821 37.206 47.8793 37.1424 47.8862C37.0908 47.8928 37.042 47.9135 37.0014 47.9459C36.9057 48.0211 36.837 48.1253 36.8056 48.2429Z" fill="#C7C7C7"/>
<path d="M36.3059 44.9365C36.3347 44.9633 36.3577 44.9956 36.3737 45.0316C36.3897 45.0675 36.3982 45.1063 36.3988 45.1456C36.3994 45.1882 36.3915 45.2306 36.3755 45.2702C36.3596 45.3098 36.3359 45.3458 36.3059 45.3762C36.2752 45.4074 36.2376 45.4311 36.1961 45.4452C36.1547 45.4593 36.1104 45.4635 36.067 45.4574C35.9891 45.4501 35.9162 45.4154 35.8613 45.3596C35.9296 45.3615 35.9979 45.357 36.0654 45.3463C36.1179 45.3379 36.1665 45.3136 36.2047 45.2766C36.244 45.2368 36.2725 45.1877 36.2877 45.1339C36.3045 45.0696 36.3106 45.0029 36.3059 44.9365Z" fill="#C7C7C7"/>
<path d="M35.9018 45.2532C35.8781 45.237 35.8584 45.2156 35.8443 45.1905C35.8302 45.1655 35.8221 45.1376 35.8205 45.1089C35.8193 45.0783 35.8244 45.0477 35.8355 45.0192C35.8466 44.9906 35.8636 44.9647 35.8852 44.943C35.9079 44.9199 35.936 44.9026 35.9669 44.8928C35.9979 44.8829 36.0308 44.8808 36.0627 44.8866C36.0907 44.8904 36.1176 44.8999 36.1419 44.9145C36.1661 44.929 36.1872 44.9483 36.2037 44.9712C36.1572 44.9767 36.1112 44.9856 36.066 44.9978C36.0356 45.0054 36.008 45.0215 35.9864 45.0442C35.9624 45.0676 35.9437 45.0959 35.9316 45.1272C35.916 45.1676 35.906 45.2101 35.9018 45.2532Z" fill="#C7C7C7"/>
<path d="M38.5743 48.3756C38.5554 48.4102 38.5296 48.4405 38.4985 48.4648C38.4674 48.489 38.4316 48.5067 38.3934 48.5166C38.3525 48.529 38.3094 48.5329 38.2669 48.528C38.2244 48.5232 38.1834 48.5097 38.1463 48.4884C38.1084 48.4663 38.0762 48.4358 38.052 48.3993C38.0278 48.3627 38.0124 48.3211 38.0069 48.2777C37.9966 48.1999 38.013 48.121 38.0534 48.0537C38.0671 48.1206 38.0882 48.1856 38.1164 48.2478C38.1361 48.2972 38.1717 48.3387 38.2176 48.3656C38.2652 48.3946 38.3195 48.4106 38.3752 48.412C38.4432 48.4114 38.5105 48.399 38.5743 48.3756Z" fill="#C7C7C7"/>
<path d="M38.168 48.0619C38.1777 48.0349 38.1935 48.0105 38.2142 47.9907C38.235 47.9708 38.26 47.956 38.2874 47.9475C38.3175 47.9376 38.3493 47.9343 38.3808 47.9377C38.4123 47.9411 38.4427 47.9513 38.4699 47.9674C38.4989 47.9846 38.5232 48.0088 38.5406 48.0378C38.558 48.0667 38.5679 48.0995 38.5694 48.1333C38.5723 48.1614 38.5696 48.1899 38.5613 48.2169C38.553 48.244 38.5394 48.2691 38.5213 48.2909C38.5036 48.2473 38.4837 48.2047 38.4616 48.1631C38.4463 48.1357 38.424 48.1128 38.3969 48.0968C38.368 48.0805 38.3366 48.0693 38.304 48.0636C38.259 48.0567 38.2132 48.0561 38.168 48.0619Z" fill="#C7C7C7"/>
<path d="M39.6939 46.0796C39.7004 46.1589 39.6754 46.2376 39.6242 46.2986C39.5673 46.363 39.4876 46.4029 39.4019 46.4097C39.3581 46.4122 39.3142 46.4046 39.2737 46.3877C39.2332 46.3707 39.197 46.3448 39.168 46.3118C39.1156 46.2536 39.0846 46.1793 39.0801 46.1012C39.1309 46.1482 39.1865 46.1899 39.246 46.2256C39.2907 46.2549 39.3435 46.2694 39.3969 46.267C39.4524 46.2632 39.506 46.2456 39.5529 46.2156C39.6069 46.1781 39.6545 46.1322 39.6939 46.0796Z" fill="#C7C7C7"/>
<path d="M39.1788 46.0479C39.1707 46.0195 39.1697 45.9896 39.1758 45.9607C39.1818 45.9318 39.1948 45.9048 39.2136 45.882C39.2334 45.8566 39.2585 45.8358 39.2871 45.8212C39.3158 45.8066 39.3473 45.7985 39.3795 45.7974C39.4112 45.7961 39.4428 45.8023 39.4716 45.8156C39.5005 45.8289 39.5258 45.8488 39.5454 45.8737C39.5636 45.8951 39.5772 45.92 39.5855 45.9468C39.5937 45.9736 39.5965 46.0018 39.5935 46.0297C39.5552 46.0025 39.5147 45.9787 39.4724 45.9583C39.4449 45.944 39.4138 45.9377 39.3828 45.9401C39.3494 45.9417 39.3166 45.9502 39.2866 45.965C39.2473 45.988 39.2111 46.0158 39.1788 46.0479Z" fill="#C7C7C7"/>
<path d="M35.3697 46.8196C35.3733 46.8586 35.3689 46.898 35.357 46.9353C35.345 46.9727 35.3256 47.0072 35.3 47.0369C35.2724 47.0695 35.2384 47.0961 35.2002 47.1152C35.162 47.1343 35.1203 47.1455 35.0777 47.1481C35.0338 47.1509 34.9899 47.1435 34.9493 47.1265C34.9087 47.1095 34.8726 47.0834 34.8438 47.0502C34.7919 46.9923 34.7609 46.9187 34.7559 46.8411C34.8071 46.8878 34.8626 46.9295 34.9218 46.9656C34.9666 46.9945 35.0195 47.0084 35.0727 47.0054C35.128 47.0021 35.1817 46.985 35.2287 46.9556C35.2827 46.9181 35.3303 46.8722 35.3697 46.8196Z" fill="#C7C7C7"/>
<path d="M34.8581 46.7862C34.8504 46.7578 34.8495 46.7279 34.8555 46.6991C34.8616 46.6702 34.8744 46.6432 34.893 46.6203C34.913 46.5952 34.9382 46.5747 34.9668 46.5601C34.9954 46.5455 35.0268 46.5372 35.0589 46.5357C35.0904 46.5343 35.1219 46.5404 35.1507 46.5533C35.1795 46.5663 35.2049 46.5858 35.2248 46.6104C35.2428 46.6319 35.2563 46.6567 35.2645 46.6835C35.2728 46.7103 35.2756 46.7384 35.2729 46.7663C35.2342 46.7403 35.1937 46.717 35.1518 46.6966C35.1244 46.6817 35.0933 46.6748 35.0622 46.6767C35.0294 46.6789 34.9973 46.6874 34.9676 46.7016C34.9274 46.7246 34.8905 46.753 34.8581 46.7862Z" fill="#C7C7C7"/>
<g opacity="0.4">
<path opacity="0.4" d="M13.4078 49.8735C13.4895 50.3478 13.5234 50.8291 13.509 51.3102C13.4726 52.1876 13.322 53.0564 13.061 53.8949C12.8354 54.7125 12.5475 55.5117 12.2 56.2855C11.8469 57.0628 11.4013 57.7947 10.8729 58.4654C10.3207 59.163 9.67797 59.7839 8.96172 60.3118C8.15879 60.8743 7.23573 61.2418 6.26589 61.3851C5.75177 61.462 5.22991 61.4726 4.71309 61.4167C4.21389 61.3609 3.72608 61.2294 3.26646 61.0268C2.85874 60.8436 2.47715 60.6071 2.13173 60.3234C1.8227 60.0649 1.52963 59.7879 1.25413 59.4939C1.11152 59.34 0.983253 59.1734 0.870908 58.9962C0.765155 58.8103 0.674719 58.6162 0.600496 58.4156C0.461317 58.0012 0.364599 57.5738 0.311834 57.1398C0.188173 56.2377 0.178141 55.3237 0.281972 54.4191C0.380593 53.5505 0.663382 52.7129 1.11146 51.9622C1.545 51.2507 2.11705 50.6335 2.79366 50.1473C3.492 49.6736 4.24372 49.2838 5.03327 48.986C5.81962 48.6741 6.58109 48.3805 7.3044 48.0387C8.02772 47.697 8.7278 47.3171 9.60872 47.0433C9.84387 46.9689 10.0855 46.9167 10.3304 46.8874C10.6159 46.849 10.9055 46.8535 11.1897 46.9007C11.571 46.9742 11.9266 47.1457 12.2216 47.3983C12.2949 47.4626 12.3647 47.5307 12.4306 47.6024C12.492 47.6721 12.5534 47.7434 12.6115 47.8181C12.7133 47.956 12.8048 48.1013 12.8852 48.2527C12.9597 48.3914 13.0262 48.5344 13.0843 48.6807C13.134 48.8135 13.1904 48.9594 13.2253 49.0872L13.2833 49.2879L13.3315 49.482C13.363 49.623 13.3845 49.7458 13.4078 49.8735Z" fill="#EBEBEB"/>
</g>
<g opacity="0.4">
<path opacity="0.4" d="M60.2673 22.0244C64.1676 18.9951 68.0911 19.584 68.0911 19.584C68.0911 19.584 68.1093 23.5523 64.5492 26.9747C61.5448 29.863 58.693 29.6988 57.7092 28.564C56.7254 27.4293 56.9759 24.5792 60.2673 22.0244Z" fill="#EBEBEB"/>
<path opacity="0.4" d="M59.8351 23.9835C62.307 22.0625 64.7938 22.4374 64.7938 22.4374C64.7938 22.4374 64.8054 24.9507 62.5492 27.1223C60.6447 28.9472 58.8347 28.8493 58.2126 28.1293C57.5905 27.4093 57.7481 25.6027 59.8351 23.9835Z" fill="white"/>
</g>
<path d="M61.6273 25.0205L61.332 24.7849C61.3118 24.7689 61.295 24.7491 61.2825 24.7266C61.27 24.7041 61.262 24.6793 61.2591 24.6537C61.2562 24.6281 61.2583 24.6022 61.2654 24.5775C61.2725 24.5527 61.2844 24.5296 61.3005 24.5095C61.3166 24.4894 61.3365 24.4728 61.359 24.4604C61.3816 24.448 61.4064 24.4403 61.432 24.4375C61.4575 24.4347 61.4834 24.437 61.5081 24.4442C61.5328 24.4515 61.5558 24.4635 61.5758 24.4796L61.8711 24.7152C61.8911 24.7312 61.9078 24.7509 61.9201 24.7734C61.9325 24.7958 61.9402 24.8204 61.943 24.8459C61.9458 24.8713 61.9435 24.897 61.9363 24.9216C61.9291 24.9461 61.9171 24.969 61.901 24.9889C61.8852 25.0091 61.8655 25.0259 61.8431 25.0383C61.8208 25.0508 61.7961 25.0588 61.7707 25.0617C61.7453 25.0646 61.7195 25.0625 61.6949 25.0554C61.6703 25.0483 61.6473 25.0365 61.6273 25.0205Z" fill="#EBEBEB"/>
<path d="M58.2961 28.0581L58.0903 27.7413C58.0621 27.6979 58.0521 27.6451 58.0627 27.5944C58.0733 27.5438 58.1035 27.4993 58.1468 27.4709C58.1683 27.4566 58.1924 27.4468 58.2178 27.4419C58.2432 27.437 58.2692 27.4372 58.2945 27.4424C58.3198 27.4477 58.3438 27.4579 58.3652 27.4724C58.3865 27.487 58.4047 27.5056 58.4188 27.5273L58.6245 27.8441C58.6526 27.8877 58.6623 27.9407 58.6514 27.9914C58.6405 28.042 58.61 28.0864 58.5665 28.1146C58.5231 28.1428 58.4703 28.1527 58.4196 28.1422C58.3689 28.1316 58.3245 28.1014 58.2961 28.0581Z" fill="#EBEBEB"/>
<path d="M60.2409 24.4185H60.0369C60.0112 24.4176 59.9859 24.4117 59.9625 24.4011C59.939 24.3904 59.9179 24.3753 59.9004 24.3565C59.8828 24.3377 59.8691 24.3156 59.8601 24.2915C59.8511 24.2674 59.8469 24.2418 59.8478 24.2161C59.8486 24.1904 59.8545 24.1651 59.8652 24.1417C59.8758 24.1182 59.891 24.0971 59.9098 24.0796C59.9286 24.062 59.9506 24.0483 59.9747 24.0393C59.9988 24.0303 60.0245 24.0261 60.0502 24.027H60.2526C60.2782 24.0276 60.3035 24.0333 60.3269 24.0438C60.3503 24.0542 60.3714 24.0692 60.389 24.0879C60.4066 24.1066 60.4203 24.1285 60.4293 24.1525C60.4384 24.1765 60.4426 24.2021 60.4417 24.2277C60.441 24.2534 60.4353 24.2787 60.4249 24.3023C60.4145 24.3258 60.3995 24.347 60.3808 24.3647C60.3622 24.3824 60.3403 24.3963 60.3163 24.4055C60.2922 24.4147 60.2667 24.4192 60.2409 24.4185Z" fill="#EBEBEB"/>
<path d="M62.1173 26.8719V26.6695C62.1179 26.6438 62.1237 26.6186 62.1341 26.5952C62.1446 26.5717 62.1596 26.5506 62.1782 26.5331C62.1969 26.5155 62.2189 26.5018 62.2429 26.4927C62.2669 26.4837 62.2924 26.4795 62.318 26.4803C62.3437 26.481 62.3691 26.4867 62.3926 26.4971C62.4161 26.5076 62.4373 26.5225 62.455 26.5412C62.4727 26.5598 62.4866 26.5818 62.4958 26.6058C62.5051 26.6298 62.5095 26.6554 62.5088 26.6811V26.8851C62.5082 26.9108 62.5025 26.936 62.492 26.9594C62.4815 26.9828 62.4665 27.004 62.4479 27.0215C62.4292 27.0391 62.4073 27.0528 62.3833 27.0619C62.3593 27.0709 62.3337 27.0751 62.3081 27.0743C62.2822 27.0736 62.2568 27.0679 62.2331 27.0573C62.2095 27.0468 62.1882 27.0317 62.1705 27.0128C62.1528 26.994 62.1389 26.9719 62.1298 26.9477C62.1207 26.9235 62.1164 26.8977 62.1173 26.8719Z" fill="#EBEBEB"/>
<path d="M57.794 26.9318L57.7708 26.731C57.765 26.6804 57.7791 26.6295 57.81 26.589C57.8409 26.5485 57.8863 26.5215 57.9367 26.5137C57.9886 26.5081 58.0406 26.5233 58.0813 26.556C58.122 26.5886 58.1482 26.636 58.154 26.6879L58.1756 26.8886C58.1817 26.9392 58.1678 26.9901 58.1367 27.0304C58.1057 27.0707 58.0601 27.0973 58.0097 27.1043C57.9842 27.1073 57.9583 27.1052 57.9336 27.0981C57.9089 27.0911 57.8859 27.0791 57.8658 27.0631C57.8457 27.047 57.8291 27.0272 57.8167 27.0046C57.8044 26.9821 57.7967 26.9573 57.794 26.9318Z" fill="#EBEBEB"/>
<path d="M61.0893 28.7002L60.9001 28.7748C60.8762 28.7842 60.8506 28.7888 60.8249 28.7883C60.7991 28.7878 60.7737 28.7822 60.7502 28.7719C60.7266 28.7615 60.7053 28.7467 60.6875 28.7281C60.6696 28.7095 60.6557 28.6876 60.6463 28.6637C60.6369 28.6397 60.6323 28.6141 60.6329 28.5884C60.6334 28.5627 60.6389 28.5373 60.6492 28.5137C60.6596 28.4901 60.6744 28.4688 60.693 28.451C60.7116 28.4332 60.7335 28.4192 60.7575 28.4098L60.9466 28.3368C60.9948 28.3178 61.0485 28.3186 61.0961 28.3391C61.1437 28.3597 61.1812 28.3982 61.2004 28.4463C61.21 28.4703 61.2148 28.4959 61.2144 28.5217C61.214 28.5475 61.2085 28.5729 61.1981 28.5966C61.1878 28.6202 61.1728 28.6415 61.1541 28.6593C61.1354 28.6771 61.1134 28.691 61.0893 28.7002Z" fill="#EBEBEB"/>
<path d="M60.407 28.7188C61.6463 28.5804 62.5388 27.4636 62.4005 26.2244C62.2621 24.9851 61.1453 24.0926 59.906 24.2309C58.6668 24.3693 57.7743 25.4861 57.9126 26.7254C58.051 27.9647 59.1678 28.8571 60.407 28.7188Z" fill="#EBEBEB"/>
<path d="M59.1895 25.2396C59.1954 25.3483 59.2367 25.452 59.3072 25.5349C59.3775 25.621 59.4698 25.6864 59.5743 25.724C59.6821 25.7635 59.8009 25.7599 59.9061 25.7141C60.0061 25.6699 60.0872 25.5917 60.1351 25.4934C60.0621 25.5616 59.9748 25.6126 59.8796 25.6428C59.8349 25.6558 59.7883 25.6609 59.7419 25.6577C59.6954 25.6563 59.6495 25.6473 59.6059 25.6311L59.5395 25.6046C59.5179 25.593 59.4964 25.583 59.4765 25.5698C59.4355 25.5449 59.3972 25.516 59.362 25.4835C59.2887 25.4146 59.23 25.3317 59.1895 25.2396Z" fill="#C7C7C7"/>
<path d="M60.0106 25.2795C60.0117 25.2031 59.9866 25.1287 59.9392 25.0688C59.8914 25.0072 59.8269 24.9605 59.7534 24.9344C59.6798 24.9063 59.5982 24.9079 59.5258 24.9389C59.4533 24.9698 59.3958 25.0277 59.3652 25.1003C59.4183 25.0586 59.4792 25.0281 59.5444 25.0107C59.6027 24.9965 59.6639 25 59.7203 25.0207C59.8461 25.0674 59.9498 25.1598 60.0106 25.2795Z" fill="#C7C7C7"/>
<path d="M60.9453 26.7341C60.9249 26.8058 60.9313 26.8826 60.9636 26.9498C60.9946 27.0195 61.0469 27.0775 61.1129 27.1157C61.1463 27.1368 61.1838 27.1507 61.2229 27.1567C61.262 27.1627 61.3019 27.1606 61.3401 27.1505C61.4127 27.1326 61.476 27.0882 61.5177 27.0261C61.458 27.0536 61.394 27.0705 61.3285 27.0759C61.27 27.0775 61.2124 27.062 61.1626 27.0311C61.1101 27.0009 61.0644 26.9603 61.0283 26.9116C60.9899 26.8581 60.9618 26.7979 60.9453 26.7341Z" fill="#C7C7C7"/>
<path d="M61.437 26.9367C61.4473 26.9129 61.4526 26.8872 61.4526 26.8612C61.4526 26.8353 61.4473 26.8096 61.437 26.7857C61.4165 26.735 61.3797 26.6924 61.3325 26.6646C61.308 26.6495 61.2805 26.6397 61.252 26.6357C61.2234 26.6317 61.1944 26.6336 61.1666 26.6414C61.1414 26.6489 61.1179 26.6614 61.0977 26.6782C61.0774 26.6951 61.0608 26.7158 61.0488 26.7393C61.0912 26.7255 61.1354 26.7182 61.1799 26.7177C61.2157 26.7196 61.2505 26.7304 61.2811 26.7493C61.3521 26.7931 61.4068 26.8589 61.437 26.9367Z" fill="#C7C7C7"/>
<path d="M61.6916 26.1454C61.6738 26.166 61.6604 26.19 61.6521 26.216C61.6439 26.2419 61.6409 26.2692 61.6435 26.2964C61.6462 26.3257 61.6548 26.3542 61.6687 26.3801C61.6827 26.4061 61.7017 26.4289 61.7248 26.4473C61.7478 26.4657 61.7747 26.4786 61.8034 26.4852C61.8321 26.4918 61.8619 26.4919 61.8907 26.4855C61.9432 26.474 61.9901 26.4447 62.0234 26.4025C61.977 26.4064 61.9304 26.4064 61.884 26.4025C61.8464 26.4018 61.8101 26.3884 61.7812 26.3644C61.7515 26.3402 61.7286 26.3088 61.7148 26.2731C61.7002 26.2321 61.6923 26.1889 61.6916 26.1454Z" fill="#C7C7C7"/>
<path d="M61.9965 26.3312C62.012 26.3188 62.0241 26.3027 62.0319 26.2845C62.0398 26.2663 62.043 26.2464 62.0413 26.2267C62.0405 26.2047 62.0349 26.1833 62.0249 26.1638C62.0148 26.1443 62.0006 26.1272 61.9832 26.1139C61.966 26.0995 61.9455 26.0896 61.9235 26.0849C61.9015 26.0803 61.8788 26.0811 61.8572 26.0873C61.8383 26.0922 61.8206 26.1009 61.8051 26.1129C61.7897 26.1248 61.7769 26.1399 61.7676 26.157C61.7998 26.1576 61.832 26.1604 61.8638 26.1653C61.885 26.1685 61.9049 26.1771 61.9219 26.1902C61.9401 26.2048 61.9553 26.2228 61.9667 26.2433C61.9804 26.2711 61.9904 26.3007 61.9965 26.3312Z" fill="#C7C7C7"/>
<path d="M58.543 25.8251C58.5434 25.8525 58.5493 25.8796 58.5604 25.9047C58.5716 25.9298 58.5876 25.9524 58.6077 25.9711C58.6298 25.9917 58.656 26.0075 58.6845 26.0175C58.7131 26.0275 58.7434 26.0315 58.7736 26.0292C58.8038 26.0278 58.8333 26.0195 58.8598 26.0048C58.8863 25.9901 58.909 25.9695 58.9262 25.9445C58.9572 25.9005 58.9724 25.8473 58.9693 25.7936C58.9391 25.8291 58.9058 25.8619 58.8698 25.8915C58.8406 25.9143 58.8055 25.9281 58.7686 25.9313C58.7302 25.9332 58.6919 25.9252 58.6574 25.908C58.6151 25.8868 58.5764 25.8587 58.543 25.8251Z" fill="#C7C7C7"/>
<path d="M58.8921 25.7603C58.8948 25.7407 58.8929 25.7208 58.8865 25.7021C58.8802 25.6834 58.8696 25.6664 58.8556 25.6525C58.8404 25.6368 58.822 25.6246 58.8017 25.6166C58.7814 25.6086 58.7596 25.605 58.7378 25.606C58.7169 25.6072 58.6965 25.6129 58.678 25.6228C58.6595 25.6326 58.6433 25.6464 58.6307 25.6632C58.6181 25.6799 58.6092 25.6992 58.6048 25.7197C58.6004 25.7402 58.6005 25.7614 58.6051 25.7819C58.635 25.7586 58.6582 25.7387 58.6814 25.7238C58.7002 25.7129 58.7212 25.7061 58.7428 25.7039C58.766 25.7029 58.7892 25.7069 58.8108 25.7155C58.8399 25.7265 58.8672 25.7416 58.8921 25.7603Z" fill="#C7C7C7"/>
<path d="M59.9723 27.2087C59.8875 27.2585 59.7899 27.2821 59.6917 27.2764C59.5936 27.2708 59.4993 27.2362 59.4208 27.177C59.3423 27.1178 59.283 27.0367 59.2506 26.9439C59.2181 26.8511 59.2139 26.7508 59.2384 26.6555C59.2629 26.5603 59.315 26.4745 59.3882 26.4089C59.4615 26.3433 59.5525 26.3008 59.6498 26.2869C59.7471 26.2729 59.8464 26.2882 59.9351 26.3306C60.0238 26.373 60.0979 26.4407 60.1482 26.5253C60.1817 26.5816 60.2037 26.6441 60.213 26.709C60.2223 26.7739 60.2187 26.84 60.2023 26.9036C60.186 26.9671 60.1573 27.0267 60.1178 27.0791C60.0783 27.1315 60.0289 27.1755 59.9723 27.2087Z" fill="#DBDBDB"/>
<path d="M59.4599 26.57C59.3986 26.6061 59.3466 26.6562 59.3083 26.7161C59.27 26.7761 59.2463 26.8442 59.2392 26.915C59.2167 26.8346 59.2147 26.7499 59.2335 26.6685C59.2523 26.5871 59.2912 26.5118 59.3468 26.4494C59.4024 26.3871 59.4727 26.3397 59.5514 26.3117C59.63 26.2837 59.7145 26.2759 59.797 26.2891C59.8794 26.3023 59.9572 26.336 60.0232 26.3871C60.0893 26.4383 60.1413 26.5052 60.1747 26.5818C60.208 26.6583 60.2216 26.7421 60.2141 26.8252C60.2066 26.9084 60.1783 26.9884 60.1318 27.0577C60.1494 26.9728 60.1422 26.8846 60.1111 26.8036C60.0801 26.7226 60.0264 26.6522 59.9565 26.6009C59.8866 26.5495 59.8034 26.5193 59.7169 26.5138C59.6303 26.5083 59.544 26.5278 59.4682 26.57H59.4599Z" fill="#C7C7C7"/>
<path d="M59.0488 26.9381C59.0615 27.0701 59.1142 27.1951 59.1998 27.2964C59.2882 27.4003 59.4028 27.4788 59.5316 27.5237C59.6616 27.5751 59.8063 27.5751 59.9364 27.5237C60.0552 27.4666 60.1515 27.3714 60.2101 27.2533C60.1233 27.3418 60.0162 27.4078 59.8982 27.4458C59.8701 27.4547 59.8412 27.4614 59.812 27.4657C59.7827 27.469 59.7532 27.469 59.724 27.4657C59.6673 27.4639 59.6112 27.4527 59.5581 27.4325L59.4752 27.3993C59.4486 27.3844 59.4221 27.3728 59.3972 27.3562C59.3453 27.3249 59.2969 27.2882 59.2529 27.2467C59.1652 27.1583 59.0959 27.0534 59.0488 26.9381Z" fill="#C7C7C7"/>
<path d="M58.5202 27.1872C58.4971 27.1953 58.4727 27.1989 58.4482 27.1976C58.4237 27.1963 58.3998 27.1902 58.3777 27.1796C58.3556 27.1691 58.3357 27.1543 58.3194 27.1361C58.303 27.1179 58.2903 27.0966 58.2822 27.0735C58.274 27.0504 58.2705 27.0259 58.2717 27.0015C58.273 26.977 58.2791 26.9531 58.2897 26.9309C58.3002 26.9088 58.315 26.889 58.3332 26.8726C58.3514 26.8563 58.3727 26.8436 58.3958 26.8355C58.4425 26.8199 58.4933 26.8232 58.5376 26.8446C58.5819 26.866 58.6161 26.9037 58.633 26.9499C58.6495 26.9963 58.6469 27.0474 58.6257 27.0919C58.6046 27.1364 58.5666 27.1706 58.5202 27.1872Z" fill="#DBDBDB"/>
<path d="M58.3847 26.9216C58.3597 26.9304 58.3371 26.9451 58.3189 26.9645C58.3008 26.9838 58.2875 27.0072 58.2802 27.0328C58.2761 26.9916 58.2859 26.9502 58.3082 26.9152C58.3305 26.8803 58.3639 26.8539 58.403 26.8403C58.4497 26.8248 58.5005 26.8281 58.5448 26.8495C58.5891 26.8709 58.6233 26.9086 58.6402 26.9548C58.652 26.9881 58.654 27.024 58.646 27.0584C58.6381 27.0927 58.6206 27.1241 58.5954 27.1489C58.6111 27.1095 58.6111 27.0656 58.5954 27.0261C58.5885 27.0054 58.5776 26.9863 58.5632 26.9698C58.5489 26.9533 58.5314 26.9398 58.5118 26.9301C58.4922 26.9204 58.4709 26.9146 58.4491 26.9132C58.4273 26.9117 58.4054 26.9146 58.3847 26.9216Z" fill="#C7C7C7"/>
<path d="M58.1979 27.0229C58.1904 27.0725 58.1992 27.1231 58.2228 27.1673C58.2479 27.2125 58.2845 27.2503 58.329 27.2768C58.3747 27.3046 58.4294 27.3135 58.4816 27.3017C58.531 27.2902 58.5746 27.2613 58.6044 27.2204C58.5647 27.2436 58.5206 27.2582 58.475 27.2635C58.4325 27.2663 58.3902 27.2559 58.3539 27.2336C58.3149 27.211 58.281 27.1806 58.2542 27.1443C58.2274 27.1081 58.2082 27.0668 58.1979 27.0229Z" fill="#C7C7C7"/>
<path d="M59.9271 28.2489C59.8753 28.2577 59.8221 28.251 59.7741 28.2295C59.7262 28.208 59.6857 28.1728 59.6578 28.1283C59.6299 28.0838 59.6158 28.032 59.6173 27.9795C59.6188 27.927 59.6359 27.8761 59.6664 27.8333C59.6969 27.7905 59.7394 27.7577 59.7885 27.7391C59.8376 27.7204 59.8911 27.7168 59.9423 27.7286C59.9935 27.7404 60.0401 27.7672 60.076 27.8055C60.112 27.8437 60.1358 27.8918 60.1445 27.9437C60.1504 27.978 60.1495 28.0132 60.1417 28.0471C60.134 28.0811 60.1196 28.1132 60.0994 28.1416C60.0792 28.17 60.0536 28.1941 60.024 28.2125C59.9944 28.2309 59.9615 28.2433 59.9271 28.2489Z" fill="#DBDBDB"/>
<path d="M59.7953 27.8324C59.7581 27.8387 59.7229 27.8537 59.6927 27.8762C59.6624 27.8987 59.6379 27.928 59.6211 27.9618C59.6252 27.8967 59.6533 27.8355 59.6999 27.7899C59.7465 27.7443 59.8084 27.7176 59.8735 27.7149C59.9386 27.7123 60.0025 27.7338 60.0527 27.7754C60.1029 27.817 60.1359 27.8757 60.1453 27.9402C60.1536 27.9898 60.1477 28.0407 60.1283 28.0871C60.109 28.1334 60.0769 28.1734 60.0358 28.2024C60.0672 28.1531 60.0801 28.0943 60.0723 28.0365C60.0679 28.0047 60.0571 27.9742 60.0407 27.9466C60.0243 27.9191 60.0026 27.8951 59.9768 27.8761C59.9509 27.8571 59.9216 27.8434 59.8904 27.8359C59.8593 27.8284 59.8269 27.8272 59.7953 27.8324Z" fill="#C7C7C7"/>
<path d="M59.5195 27.9354C59.5015 28.0033 59.5044 28.075 59.5278 28.1411C59.5505 28.2088 59.5912 28.269 59.6456 28.3153C59.7014 28.3632 59.7728 28.3891 59.8463 28.3883C59.9172 28.3853 59.985 28.3584 60.0387 28.312C59.9791 28.3399 59.9137 28.353 59.848 28.3502C59.7865 28.3444 59.7285 28.3194 59.6821 28.2788C59.633 28.2374 59.5934 28.1859 59.5659 28.1279C59.5371 28.0677 59.5212 28.0021 59.5195 27.9354Z" fill="#C7C7C7"/>
<path d="M60.8184 25.5713C60.8675 25.6481 60.9388 25.7083 61.0229 25.7436C61.107 25.779 61.1999 25.788 61.2892 25.7693C61.3785 25.7506 61.46 25.7052 61.5229 25.6391C61.5858 25.5731 61.6271 25.4894 61.6413 25.3993C61.6556 25.3092 61.642 25.2168 61.6025 25.1346C61.563 25.0524 61.4994 24.9841 61.4202 24.9388C61.341 24.8936 61.2499 24.8735 61.159 24.8813C61.0681 24.889 60.9817 24.9243 60.9113 24.9823C60.8212 25.0483 60.7609 25.1473 60.7435 25.2576C60.726 25.368 60.753 25.4807 60.8184 25.5713Z" fill="#DBDBDB"/>
<path d="M61.4348 25.1831C61.4716 25.229 61.4961 25.2836 61.506 25.3416C61.5158 25.3997 61.5108 25.4593 61.4912 25.5148C61.5512 25.444 61.5854 25.3548 61.5881 25.262C61.5908 25.1691 61.5619 25.0781 61.5061 25.0039C61.4294 24.9231 61.3239 24.8757 61.2124 24.8719C61.101 24.8682 60.9926 24.9085 60.9106 24.984C60.8467 25.0344 60.7977 25.101 60.7685 25.1769C60.7393 25.2528 60.7311 25.3351 60.7447 25.4153C60.7649 25.3175 60.8182 25.2296 60.8956 25.1665C60.9696 25.0976 61.0677 25.0607 61.1686 25.0638C61.2696 25.0669 61.3653 25.1098 61.4348 25.1831Z" fill="#C7C7C7"/>
<path d="M60.6383 25.2876C60.5876 25.391 60.5798 25.5103 60.6167 25.6194C60.636 25.6752 60.6671 25.7261 60.708 25.7687C60.747 25.8133 60.7953 25.849 60.8494 25.8734C60.9035 25.8977 60.9622 25.9101 61.0215 25.9097C61.0777 25.9109 61.1337 25.9031 61.1874 25.8865C61.2933 25.8544 61.3899 25.7975 61.4694 25.7206C61.3733 25.7605 61.2732 25.79 61.1708 25.8085C61.0755 25.8255 60.9773 25.8157 60.8871 25.7803C60.8446 25.7598 60.8055 25.733 60.771 25.7007C60.735 25.6692 60.7057 25.6309 60.6847 25.5879C60.6425 25.4938 60.6264 25.39 60.6383 25.2876Z" fill="#C7C7C7"/>
<path d="M3.99188 47.6042L5.26929 46.3268C5.35677 46.2398 5.42619 46.1364 5.47356 46.0225C5.52094 45.9086 5.54532 45.7865 5.54532 45.6632C5.54532 45.5398 5.52094 45.4177 5.47356 45.3038C5.42619 45.1899 5.35677 45.0865 5.26929 44.9996C5.18222 44.9123 5.07879 44.8431 4.96492 44.7958C4.85106 44.7486 4.72898 44.7242 4.6057 44.7242C4.48242 44.7242 4.36035 44.7486 4.24648 44.7958C4.13261 44.8431 4.02918 44.9123 3.94211 44.9996L2.6647 46.277C2.57723 46.3639 2.5078 46.4673 2.46043 46.5812C2.41306 46.6951 2.38867 46.8172 2.38867 46.9406C2.38867 47.0639 2.41306 47.186 2.46043 47.2999C2.5078 47.4138 2.57723 47.5172 2.6647 47.6042C2.75177 47.6915 2.8552 47.7607 2.96907 47.8079C3.08294 47.8552 3.20501 47.8795 3.32829 47.8795C3.45157 47.8795 3.57365 47.8552 3.68751 47.8079C3.80138 47.7607 3.90481 47.6915 3.99188 47.6042Z" fill="#EBEBEB"/>
<path d="M21.44 60.2672L22.2512 58.653C22.3626 58.431 22.3813 58.1738 22.3032 57.9381C22.2251 57.7023 22.0567 57.5071 21.8348 57.3955C21.7249 57.3401 21.6052 57.307 21.4825 57.2979C21.3598 57.2889 21.2365 57.3042 21.1197 57.3428C21.0029 57.3815 20.8949 57.4429 20.8018 57.5233C20.7087 57.6038 20.6324 57.7019 20.5773 57.8119L19.7661 59.4261C19.7107 59.5359 19.6776 59.6557 19.6685 59.7784C19.6595 59.9011 19.6748 60.0244 19.7134 60.1412C19.7521 60.258 19.8135 60.366 19.8939 60.4591C19.9744 60.5521 20.0725 60.6284 20.1825 60.6836C20.2924 60.7389 20.4121 60.7721 20.5348 60.7811C20.6575 60.7901 20.7808 60.7749 20.8976 60.7362C21.0144 60.6975 21.1224 60.6362 21.2155 60.5557C21.3086 60.4752 21.3849 60.3772 21.44 60.2672Z" fill="#EBEBEB"/>
<path d="M10.2572 43.9975L11.2177 43.8598C11.4636 43.8245 11.6854 43.693 11.8344 43.4942C11.9834 43.2955 12.0474 43.0457 12.0124 42.7997C11.9951 42.6779 11.9539 42.5606 11.8913 42.4547C11.8286 42.3488 11.7457 42.2563 11.6472 42.1825C11.5487 42.1087 11.4367 42.055 11.3174 42.0246C11.1982 41.9941 11.0741 41.9875 10.9523 42.0051L9.99175 42.1428C9.8699 42.1601 9.75266 42.2012 9.64674 42.2639C9.54082 42.3265 9.44831 42.4095 9.37449 42.508C9.30068 42.6064 9.24701 42.7185 9.21657 42.8377C9.18613 42.957 9.17952 43.0811 9.1971 43.2029C9.23243 43.4488 9.36392 43.6706 9.56269 43.8196C9.76146 43.9686 10.0113 44.0326 10.2572 43.9975Z" fill="#EBEBEB"/>
<path d="M2.63125 56.6738L2.49355 55.7132C2.47627 55.5914 2.43512 55.4742 2.37245 55.3682C2.30979 55.2623 2.22685 55.1698 2.12837 55.096C2.0299 55.0222 1.91784 54.9685 1.79859 54.9381C1.67935 54.9076 1.55527 54.901 1.43347 54.9186C1.31184 54.9359 1.19481 54.977 1.08909 55.0396C0.983375 55.1021 0.891041 55.185 0.817379 55.2833C0.743717 55.3816 0.690175 55.4935 0.65982 55.6125C0.629465 55.7316 0.622893 55.8554 0.64048 55.977L0.776516 56.9392C0.812256 57.1849 0.943852 57.4065 1.14252 57.5554C1.34118 57.7043 1.59074 57.7685 1.8366 57.7339C2.08249 57.6985 2.30431 57.5671 2.45331 57.3683C2.60231 57.1695 2.66631 56.9197 2.63125 56.6738Z" fill="#EBEBEB"/>
<path d="M23.2324 55.2271V53.1003C23.2324 52.9024 23.072 52.7419 22.8741 52.7419H21.7178C21.5199 52.7419 21.3594 52.9024 21.3594 53.1003V55.2271C21.3594 55.425 21.5199 55.5854 21.7178 55.5854H22.8741C23.072 55.5854 23.2324 55.425 23.2324 55.2271Z" fill="#EBEBEB"/>
<path d="M8.51856 64.8159L9.45588 65.0664C9.57472 65.0982 9.69868 65.1063 9.82065 65.0902C9.94262 65.074 10.0602 65.034 10.1667 64.9724C10.2732 64.9107 10.3664 64.8287 10.4412 64.731C10.5159 64.6332 10.5706 64.5217 10.6022 64.4028C10.6341 64.2839 10.6422 64.1598 10.6261 64.0377C10.6099 63.9156 10.5699 63.7979 10.5083 63.6913C10.4467 63.5847 10.3646 63.4913 10.2669 63.4164C10.1692 63.3415 10.0576 63.2866 9.93864 63.2548L9.00132 63.0043C8.88237 62.9725 8.75831 62.9644 8.63622 62.9805C8.51414 62.9966 8.39643 63.0366 8.28982 63.0982C8.18321 63.1599 8.08978 63.2419 8.01488 63.3396C7.93999 63.4374 7.88508 63.5489 7.85331 63.6679C7.78996 63.9083 7.82438 64.1641 7.94904 64.3792C8.0737 64.5943 8.27846 64.7513 8.51856 64.8159Z" fill="#EBEBEB"/>
<path d="M11.7616 64.5639C17.7299 64.5639 22.5682 59.7256 22.5682 53.7574C22.5682 47.7891 17.7299 42.9508 11.7616 42.9508C5.79333 42.9508 0.955078 47.7891 0.955078 53.7574C0.955078 59.7256 5.79333 64.5639 11.7616 64.5639Z" fill="#EBEBEB"/>
<path d="M15.694 47.3472C15.7211 47.8662 15.581 48.3803 15.2941 48.8137C15.0044 49.2603 14.5983 49.6194 14.1196 49.8522C13.6273 50.0994 13.0588 50.1475 12.532 49.9866C12.0328 49.8284 11.6052 49.4995 11.3242 49.0576C11.7084 49.342 12.1509 49.5375 12.6199 49.6299C12.8394 49.6689 13.064 49.6689 13.2835 49.6299C13.5024 49.5961 13.7147 49.5278 13.9122 49.4275C14.0134 49.3778 14.1163 49.323 14.2158 49.2616C14.3153 49.2002 14.4082 49.1372 14.4962 49.0642C14.6788 48.9258 14.8457 48.7678 14.9939 48.5931C15.306 48.2272 15.5438 47.804 15.694 47.3472Z" fill="#C7C7C7"/>
<path d="M11.8085 47.969C11.7606 47.6087 11.8404 47.243 12.0341 46.9355C12.2284 46.6159 12.5106 46.359 12.847 46.1956C13.0204 46.1084 13.2094 46.0563 13.403 46.0424C13.5966 46.0284 13.791 46.0529 13.9751 46.1143C14.3228 46.2325 14.612 46.4795 14.783 46.8044C14.5095 46.6354 14.2049 46.5226 13.8872 46.4727C13.6022 46.439 13.3136 46.4904 13.0577 46.6203C12.4889 46.8999 12.0438 47.3805 11.8085 47.969Z" fill="#C7C7C7"/>
<path d="M8.14846 55.3914C8.28165 55.7202 8.29108 56.0863 8.175 56.4216C8.06128 56.7699 7.84359 57.075 7.55123 57.2959C7.40212 57.4123 7.2312 57.4976 7.04856 57.5469C6.86593 57.5962 6.67527 57.6084 6.48783 57.5829C6.13491 57.5342 5.81238 57.3569 5.58203 57.0852C5.87924 57.1833 6.19168 57.2271 6.50442 57.2146C6.78128 57.1946 7.04586 57.0923 7.26423 56.9209C7.49618 56.7457 7.69124 56.5264 7.83823 56.2756C7.99269 56.0013 8.0977 55.702 8.14846 55.3914Z" fill="#C7C7C7"/>
<path d="M5.91096 56.6174C5.85132 56.5077 5.81415 56.3873 5.80162 56.2631C5.78909 56.1389 5.80144 56.0134 5.83796 55.8941C5.90998 55.6416 6.06263 55.4196 6.27261 55.262C6.38021 55.177 6.50453 55.1156 6.63745 55.0818C6.77038 55.0481 6.90892 55.0428 7.04404 55.0662C7.16797 55.0876 7.28628 55.1339 7.39179 55.2023C7.4973 55.2708 7.58782 55.3599 7.65786 55.4644C7.45028 55.4238 7.23782 55.4143 7.02745 55.4362C6.85616 55.4611 6.69434 55.5303 6.55796 55.6369C6.24067 55.884 6.01335 56.2285 5.91096 56.6174Z" fill="#C7C7C7"/>
<path d="M4.27483 52.9858C4.37027 53.0751 4.44677 53.1826 4.49978 53.302C4.55279 53.4214 4.58123 53.5503 4.5834 53.6809C4.58585 53.8222 4.55996 53.9625 4.50724 54.0936C4.45452 54.2247 4.37606 54.3439 4.27649 54.4441C4.17422 54.5469 4.04964 54.6248 3.9124 54.6717C3.77517 54.7186 3.62897 54.7332 3.48516 54.7145C3.22743 54.6857 2.98765 54.5684 2.80664 54.3827C3.02965 54.3912 3.25296 54.3784 3.47355 54.3445C3.64866 54.3185 3.81086 54.2371 3.9364 54.1123C4.06559 53.9812 4.15973 53.8198 4.21013 53.6428C4.26811 53.4289 4.28998 53.2069 4.27483 52.9858Z" fill="#C7C7C7"/>
<path d="M2.93435 54.0362C2.85577 53.9826 2.79063 53.9116 2.74401 53.8288C2.69739 53.7459 2.67055 53.6533 2.66559 53.5584C2.65885 53.454 2.67445 53.3494 2.71135 53.2516C2.74826 53.1538 2.80562 53.0649 2.8796 52.991C2.95586 52.9142 3.04951 52.857 3.1526 52.824C3.25569 52.7911 3.3652 52.7835 3.47185 52.8019C3.56372 52.8157 3.65194 52.8475 3.73139 52.8957C3.81085 52.9438 3.87995 53.0072 3.93471 53.0823C3.7814 53.103 3.62957 53.1335 3.48015 53.1735C3.38003 53.1987 3.28878 53.2509 3.21637 53.3245C3.13881 53.403 3.07738 53.496 3.03554 53.5982C2.98117 53.7386 2.94709 53.8861 2.93435 54.0362Z" fill="#C7C7C7"/>
<path d="M19.0833 49.7856C19.0958 49.9157 19.0817 50.0469 19.0417 50.1712C19.0018 50.2956 18.9369 50.4105 18.8511 50.509C18.7593 50.6162 18.647 50.704 18.5207 50.7672C18.3945 50.8305 18.257 50.8679 18.1161 50.8772C17.9714 50.8861 17.8265 50.8615 17.6927 50.8054C17.5589 50.7493 17.4399 50.6632 17.3447 50.5537C17.1705 50.3624 17.0675 50.117 17.0527 49.8586C17.2167 50.0129 17.395 50.1513 17.5853 50.2717C17.7332 50.3671 17.9071 50.4141 18.083 50.4061C18.266 50.3945 18.4434 50.3375 18.5989 50.2402C18.784 50.1161 18.9477 49.9625 19.0833 49.7856Z" fill="#C7C7C7"/>
<path d="M17.3816 49.6812C17.3586 49.5889 17.3572 49.4924 17.3777 49.3995C17.3981 49.3065 17.4398 49.2196 17.4994 49.1454C17.5637 49.0631 17.6447 48.9955 17.7371 48.9469C17.8294 48.8983 17.9311 48.8698 18.0352 48.8633C18.1431 48.8557 18.2511 48.8746 18.35 48.9182C18.4489 48.9619 18.5356 49.029 18.6026 49.1138C18.6634 49.1847 18.7095 49.2669 18.738 49.3558C18.7665 49.4447 18.7768 49.5385 18.7685 49.6314C18.6404 49.5436 18.5062 49.4649 18.367 49.3959C18.2757 49.3481 18.1728 49.3269 18.0701 49.3345C17.96 49.3411 17.8524 49.3693 17.7532 49.4174C17.6175 49.4873 17.4923 49.5761 17.3816 49.6812Z" fill="#C7C7C7"/>
<path d="M13.0243 57.1282C13.4563 57.3237 13.9366 57.3865 14.4044 57.3086C14.8722 57.2308 15.3063 57.0157 15.6517 56.6907C15.997 56.3658 16.2381 55.9456 16.3443 55.4834C16.4505 55.0213 16.4171 54.538 16.2482 54.0948C16.0794 53.6517 15.7827 53.2687 15.3959 52.9944C15.009 52.7201 14.5495 52.5669 14.0754 52.5542C13.6014 52.5415 13.1342 52.6699 12.7333 52.923C12.3323 53.1762 12.0155 53.5427 11.8232 53.9762C11.565 54.5535 11.5465 55.2097 11.7717 55.8006C11.9969 56.3916 12.4474 56.8691 13.0243 57.1282Z" fill="#DBDBDB"/>
<path d="M15.1167 53.8153C15.4277 53.9542 15.7014 54.1647 15.9154 54.4297C16.1293 54.6947 16.2775 55.0066 16.3477 55.3399C16.4126 54.9447 16.3769 54.5395 16.2439 54.1617C16.1109 53.784 15.8848 53.4458 15.5866 53.1784C15.2884 52.9111 14.9276 52.7232 14.5376 52.6321C14.1476 52.541 13.7409 52.5496 13.3551 52.6571C12.9693 52.7647 12.6168 52.9677 12.3302 53.2474C12.0436 53.5272 11.832 53.8746 11.7151 54.2577C11.5982 54.6408 11.5797 55.0471 11.6613 55.4392C11.7429 55.8313 11.922 56.1966 12.182 56.5012C12.0473 56.102 12.0316 55.6722 12.1369 55.2642C12.2422 54.8563 12.4639 54.4877 12.775 54.2036C13.086 53.9194 13.4731 53.7318 13.8889 53.6638C14.3047 53.5957 14.7313 53.6501 15.1167 53.8203V53.8153Z" fill="#C7C7C7"/>
<path d="M17.2993 55.3434C17.3116 55.9785 17.1273 56.602 16.7717 57.1284C16.4118 57.6675 15.9147 58.101 15.3317 58.3843C14.7359 58.6852 14.0478 58.7481 13.4073 58.5601C12.7958 58.3724 12.266 57.9829 11.9043 57.4553C12.369 57.8249 12.9139 58.0806 13.4953 58.2018C13.6342 58.2249 13.7743 58.2399 13.915 58.2466C14.0539 58.248 14.1927 58.2369 14.3297 58.2134C14.6062 58.1717 14.8744 58.0866 15.1244 57.9612C15.2521 57.8965 15.3798 57.8285 15.5026 57.7555C15.6254 57.6825 15.7448 57.6012 15.8543 57.5083C16.0833 57.3336 16.2914 57.1332 16.4748 56.9111C16.8541 56.4505 17.1347 55.9169 17.2993 55.3434Z" fill="#C7C7C7"/>
<path d="M19.9155 56.2525C20.0878 56.2936 20.2684 56.2826 20.4344 56.2209C20.6004 56.1593 20.7444 56.0497 20.848 55.9061C20.9517 55.7625 21.0104 55.5914 21.0167 55.4144C21.0229 55.2374 20.9765 55.0625 20.8833 54.912C20.79 54.7614 20.6542 54.6419 20.493 54.5686C20.3317 54.4954 20.1524 54.4716 19.9776 54.5004C19.8029 54.5292 19.6407 54.6093 19.5115 54.7304C19.3823 54.8515 19.2919 55.0083 19.2519 55.1808C19.1982 55.4109 19.2378 55.6529 19.3622 55.8538C19.4866 56.0547 19.6856 56.1981 19.9155 56.2525Z" fill="#DBDBDB"/>
<path d="M20.4475 54.8887C20.5712 54.9178 20.6863 54.9756 20.7834 55.0575C20.8805 55.1393 20.957 55.2429 21.0066 55.3599C21.0024 55.2105 20.9607 55.0647 20.8853 54.9357C20.8098 54.8067 20.7031 54.6989 20.575 54.622C20.4468 54.5452 20.3014 54.5019 20.1521 54.4961C20.0028 54.4904 19.8545 54.5223 19.7208 54.589C19.5871 54.6557 19.4724 54.755 19.3872 54.8777C19.302 55.0005 19.2491 55.1427 19.2334 55.2913C19.2177 55.4398 19.2397 55.59 19.2974 55.7278C19.355 55.8656 19.4465 55.9867 19.5633 56.0799C19.4619 55.9036 19.4317 55.6954 19.4787 55.4976C19.5265 55.2884 19.6554 55.1068 19.8371 54.9927C20.0188 54.8785 20.2383 54.8411 20.4475 54.8887Z" fill="#C7C7C7"/>
<path d="M21.3522 55.2902C21.4145 55.5227 21.3987 55.7692 21.3074 55.9919C21.2166 56.221 21.0638 56.4204 20.8661 56.5676C20.6639 56.723 20.4098 56.7948 20.1561 56.7683C19.9149 56.7405 19.6917 56.6268 19.5273 56.4481C19.7273 56.5393 19.9447 56.5857 20.1644 56.5842C20.3682 56.5771 20.5644 56.5056 20.7251 56.3801C20.897 56.2494 21.041 56.0856 21.1487 55.8984C21.2564 55.7113 21.3256 55.5045 21.3522 55.2902Z" fill="#C7C7C7"/>
<path d="M13.7866 62.0354C14.0375 62.0502 14.287 61.9901 14.5037 61.8629C14.7204 61.7357 14.8944 61.547 15.0037 61.3208C15.1131 61.0946 15.1528 60.841 15.1179 60.5922C15.083 60.3433 14.975 60.1105 14.8076 59.9231C14.6402 59.7357 14.421 59.6022 14.1777 59.5395C13.9344 59.4768 13.6779 59.4878 13.4409 59.571C13.2038 59.6542 12.9967 59.8059 12.8459 60.0069C12.6951 60.2078 12.6074 60.4491 12.5938 60.7C12.5844 60.866 12.6078 61.0322 12.6627 61.1892C12.7175 61.3462 12.8028 61.4908 12.9135 61.6148C13.0243 61.7389 13.1584 61.8398 13.3082 61.912C13.458 61.9842 13.6206 62.0261 13.7866 62.0354Z" fill="#DBDBDB"/>
<path d="M14.1937 59.9983C14.3741 60.0077 14.5496 60.0599 14.706 60.1505C14.8623 60.241 14.9949 60.3674 15.0928 60.5192C15.0505 60.3109 14.9564 60.1167 14.8191 59.9544C14.6819 59.7922 14.5059 59.6671 14.3076 59.5909C14.1092 59.5146 13.8948 59.4896 13.6842 59.5182C13.4736 59.5467 13.2736 59.6279 13.1027 59.7542C12.9318 59.8805 12.7955 60.0478 12.7063 60.2408C12.6172 60.4337 12.5782 60.646 12.5929 60.858C12.6075 61.07 12.6754 61.2749 12.7902 61.4538C12.905 61.6326 13.063 61.7796 13.2497 61.8812C13.0641 61.6595 12.9704 61.3752 12.9876 61.0866C12.9952 60.9359 13.0325 60.7882 13.0973 60.6519C13.162 60.5157 13.253 60.3935 13.365 60.2924C13.477 60.1913 13.6079 60.1133 13.7501 60.0629C13.8922 60.0124 14.043 59.9904 14.1937 59.9983Z" fill="#C7C7C7"/>
<path d="M15.5624 60.3401C15.6851 60.6527 15.7099 60.9952 15.6338 61.3222C15.5579 61.6563 15.3948 61.9643 15.161 62.2147C14.9231 62.4746 14.5962 62.6357 14.2452 62.666C13.908 62.6886 13.5729 62.5982 13.293 62.4088C13.5924 62.5069 13.9108 62.5325 14.222 62.4835C14.5174 62.4273 14.7864 62.2765 14.9884 62.0538C15.1986 61.8303 15.3587 61.5644 15.4579 61.2741C15.5572 60.9734 15.5928 60.6553 15.5624 60.3401Z" fill="#C7C7C7"/>
<path d="M8.13123 49.7941C7.55888 50.6683 6.29474 50.8541 5.31097 50.2088C4.3272 49.5635 3.9838 48.3308 4.5578 47.4566C5.13181 46.5823 6.39262 46.3965 7.37805 47.0418C8.36348 47.6872 8.70191 48.9198 8.13123 49.7941Z" fill="#DBDBDB"/>
<path d="M4.98974 48.2762C4.84137 48.5127 4.75507 48.7828 4.73883 49.0614C4.72259 49.3401 4.77694 49.6184 4.89684 49.8705C4.23325 49.1903 4.06735 48.1966 4.55509 47.455C5.12578 46.5824 6.38992 46.3966 7.37534 47.0419C7.70603 47.246 7.97571 47.5352 8.15611 47.8793C8.3365 48.2235 8.42094 48.6098 8.40059 48.9979C8.25282 48.5437 7.95202 48.155 7.54954 47.898C6.65701 47.314 5.509 47.4816 4.98974 48.2762Z" fill="#C7C7C7"/>
<path d="M8.82976 48.3506C8.97678 48.5759 9.07756 48.8281 9.12626 49.0927C9.17496 49.3573 9.1706 49.6289 9.11344 49.8918C9.05089 50.1658 8.92915 50.4229 8.75676 50.6449C8.58578 50.8697 8.37627 51.0624 8.13797 51.214C7.89092 51.3525 7.62038 51.4442 7.34 51.4844C7.06889 51.5183 6.79418 51.5105 6.52544 51.4612C6.00591 51.3703 5.51529 51.1577 5.09375 50.8407C5.57319 50.9802 6.06679 51.0653 6.56526 51.0945C7.02583 51.1282 7.48642 51.0292 7.89244 50.8092C8.08599 50.6914 8.25865 50.5422 8.4034 50.3679C8.55494 50.197 8.67361 49.9996 8.75344 49.7856C8.90958 49.3232 8.93598 48.8269 8.82976 48.3506Z" fill="#C7C7C7"/>
<path d="M57.1816 47.4713L58.0957 47.6389L58.2998 48.6028L58.5038 47.6389L59.4179 47.4697L58.5072 47.2474L58.2998 46.3383L58.0908 47.2474L57.1816 47.4713Z" fill="#C7C7C7"/>
<path d="M19.4766 42.2689L20.3907 42.4381L20.5947 43.4019L20.7988 42.4381L21.7129 42.2689L20.8037 42.0466L20.5947 41.1375L20.3873 42.0466L19.4766 42.2689Z" fill="#C7C7C7"/>
<path d="M47.8496 31.9717L48.7637 32.1409L48.9678 33.1031L49.1718 32.1409L50.0859 31.9717L49.1768 31.7477L48.9678 30.8386L48.7604 31.7477L47.8496 31.9717Z" fill="#C7C7C7"/>
<path d="M65.8691 41.7993L66.3801 41.8939L66.4946 42.433L66.609 41.8939L67.1184 41.7993L66.6107 41.6749L66.4946 41.1672L66.3784 41.6749L65.8691 41.7993Z" fill="#C7C7C7"/>
<path d="M27.1113 62.2877L27.6206 62.3823L27.7351 62.9214L27.8496 62.3823L28.3605 62.2877L27.8512 62.1633L27.7351 61.6556L27.619 62.1633L27.1113 62.2877Z" fill="#C7C7C7"/>
<path d="M64.6191 17.5635L65.1301 17.6581L65.2446 18.1956L65.3574 17.6581L65.8683 17.5619L65.3607 17.4391L65.2446 16.9298L65.1268 17.4391L64.6191 17.5635Z" fill="#C7C7C7"/>
<path d="M4.36719 29.1447L4.87815 29.2393L4.99262 29.7768L5.10543 29.2393L5.61639 29.1447L5.10875 29.0203L4.99262 28.511L4.87649 29.0203L4.36719 29.1447Z" fill="#C7C7C7"/>
<path d="M7.10938 56.5494L7.62034 56.6439L7.73481 57.1814L7.84762 56.6439L8.35858 56.5494L7.85093 56.425L7.73481 55.9156L7.61702 56.425L7.10938 56.5494Z" fill="#C7C7C7"/>
<path d="M62.6504 31.2018L63.1614 31.2964L63.2742 31.8339L63.3886 31.2964L63.8996 31.2018L63.392 31.0774L63.2742 30.5681L63.158 31.0774L62.6504 31.2018Z" fill="#C7C7C7"/>
<path d="M41.1055 48.6028L41.6164 48.6973L41.7309 49.2365L41.8454 48.6973L42.3563 48.6028L41.847 48.4783L41.7309 47.9707L41.6148 48.4783L41.1055 48.6028Z" fill="#C7C7C7"/>
<path d="M22.5176 5.36676L23.0285 5.46132L23.143 5.99883L23.2575 5.46132L23.7668 5.36676L23.2591 5.24234L23.143 4.73303L23.0269 5.24234L22.5176 5.36676Z" fill="#C7C7C7"/>
<path d="M42.5137 46.6469L43.0246 46.7415L43.1391 47.2806L43.2536 46.7415L43.7645 46.6469L43.2552 46.5225L43.1391 46.0132L43.023 46.5225L42.5137 46.6469Z" fill="#C7C7C7"/>
<path d="M25.9012 63.4521C25.9378 63.456 25.9718 63.4733 25.9964 63.5008C26.0211 63.5282 26.0348 63.5637 26.0348 63.6006C26.0348 63.6375 26.0211 63.6731 25.9964 63.7005C25.9718 63.7279 25.9378 63.7452 25.9012 63.7491C25.8645 63.7452 25.8306 63.7279 25.8059 63.7005C25.7812 63.6731 25.7676 63.6375 25.7676 63.6006C25.7676 63.5637 25.7812 63.5282 25.8059 63.5008C25.8306 63.4733 25.8645 63.456 25.9012 63.4521Z" fill="#C7C7C7"/>
<path d="M52.3133 35.6829C52.35 35.6867 52.3839 35.7041 52.4086 35.7315C52.4332 35.7589 52.4469 35.7945 52.4469 35.8313C52.4469 35.8682 52.4332 35.9038 52.4086 35.9312C52.3839 35.9586 52.35 35.9759 52.3133 35.9798C52.2766 35.9759 52.2427 35.9586 52.218 35.9312C52.1933 35.9038 52.1797 35.8682 52.1797 35.8313C52.1797 35.7945 52.1933 35.7589 52.218 35.7315C52.2427 35.7041 52.2766 35.6867 52.3133 35.6829Z" fill="#C7C7C7"/>
<path d="M39.6789 48.1564C39.7181 48.1564 39.7556 48.172 39.7833 48.1997C39.811 48.2274 39.8265 48.2649 39.8265 48.3041C39.8265 48.3432 39.811 48.3808 39.7833 48.4085C39.7556 48.4362 39.7181 48.4517 39.6789 48.4517C39.6397 48.4517 39.6022 48.4362 39.5745 48.4085C39.5468 48.3808 39.5313 48.3432 39.5312 48.3041C39.5313 48.2649 39.5468 48.2274 39.5745 48.1997C39.6022 48.172 39.6397 48.1564 39.6789 48.1564Z" fill="#C7C7C7"/>
<path d="M17.7199 62.3425C17.7591 62.3425 17.7966 62.3581 17.8243 62.3858C17.852 62.4135 17.8676 62.451 17.8676 62.4902C17.8676 62.5293 17.852 62.5669 17.8243 62.5946C17.7966 62.6223 17.7591 62.6378 17.7199 62.6378C17.6808 62.6378 17.6432 62.6223 17.6155 62.5946C17.5878 62.5669 17.5723 62.5293 17.5723 62.4902C17.5723 62.451 17.5878 62.4135 17.6155 62.3858C17.6432 62.3581 17.6808 62.3425 17.7199 62.3425Z" fill="#C7C7C7"/>
<path d="M67.1473 64.3033C67.1839 64.3072 67.2179 64.3245 67.2425 64.352C67.2672 64.3794 67.2809 64.4149 67.2809 64.4518C67.2809 64.4887 67.2672 64.5243 67.2425 64.5517C67.2179 64.5791 67.1839 64.5964 67.1473 64.6003C67.1106 64.5964 67.0767 64.5791 67.052 64.5517C67.0273 64.5243 67.0137 64.4887 67.0137 64.4518C67.0137 64.4149 67.0273 64.3794 67.052 64.352C67.0767 64.3245 67.1106 64.3072 67.1473 64.3033Z" fill="#C7C7C7"/>
<path d="M59.3566 37.6238C59.3958 37.6238 59.4333 37.6393 59.461 37.667C59.4887 37.6947 59.5043 37.7323 59.5043 37.7714C59.5043 37.8106 59.4887 37.8481 59.461 37.8758C59.4333 37.9035 59.3958 37.9191 59.3566 37.9191C59.3175 37.9191 59.2799 37.9035 59.2522 37.8758C59.2245 37.8481 59.209 37.8106 59.209 37.7714C59.209 37.7323 59.2245 37.6947 59.2522 37.667C59.2799 37.6393 59.3175 37.6238 59.3566 37.6238Z" fill="#C7C7C7"/>
<path d="M29.6084 60.7896C29.6361 60.7896 29.6627 60.8006 29.6823 60.8202C29.7019 60.8398 29.7129 60.8663 29.7129 60.8941C29.7129 60.9218 29.7019 60.9484 29.6823 60.968C29.6627 60.9876 29.6361 60.9986 29.6084 60.9986C29.5807 60.9986 29.5541 60.9876 29.5345 60.968C29.5149 60.9484 29.5039 60.9218 29.5039 60.8941C29.5039 60.8663 29.5149 60.8398 29.5345 60.8202C29.5541 60.8006 29.5807 60.7896 29.6084 60.7896Z" fill="#C7C7C7"/>
<path d="M8.69058 6.40356C8.71625 6.40679 8.73985 6.41928 8.75696 6.43867C8.77407 6.45807 8.78351 6.48304 8.78351 6.50891C8.78351 6.53477 8.77407 6.55975 8.75696 6.57915C8.73985 6.59854 8.71625 6.61103 8.69058 6.61425C8.66492 6.61103 8.64132 6.59854 8.62421 6.57915C8.6071 6.55975 8.59766 6.53477 8.59766 6.50891C8.59766 6.48304 8.6071 6.45807 8.62421 6.43867C8.64132 6.41928 8.66492 6.40679 8.69058 6.40356Z" fill="#C7C7C7"/>
<path d="M49.0948 40.0691C49.1225 40.0691 49.1491 40.0801 49.1687 40.0997C49.1883 40.1193 49.1993 40.1459 49.1993 40.1736C49.1993 40.2013 49.1883 40.2279 49.1687 40.2475C49.1491 40.2671 49.1225 40.2781 49.0948 40.2781C49.067 40.2781 49.0404 40.2671 49.0208 40.2475C49.0012 40.2279 48.9902 40.2013 48.9902 40.1736C48.9902 40.1459 49.0012 40.1193 49.0208 40.0997C49.0404 40.0801 49.067 40.0691 49.0948 40.0691Z" fill="#C7C7C7"/>
<path d="M44.0303 49.1321C44.058 49.1321 44.0846 49.1431 44.1042 49.1627C44.1238 49.1823 44.1348 49.2089 44.1348 49.2366C44.1348 49.2643 44.1238 49.2909 44.1042 49.3105C44.0846 49.3301 44.058 49.3411 44.0303 49.3411C44.0026 49.3411 43.976 49.3301 43.9564 49.3105C43.9368 49.2909 43.9258 49.2643 43.9258 49.2366C43.9258 49.2089 43.9368 49.1823 43.9564 49.1627C43.976 49.1431 44.0026 49.1321 44.0303 49.1321Z" fill="#C7C7C7"/>
<path d="M35.7433 47.3654C35.769 47.3686 35.7926 47.3811 35.8097 47.4005C35.8268 47.4199 35.8363 47.4448 35.8363 47.4707C35.8363 47.4966 35.8268 47.5215 35.8097 47.5409C35.7926 47.5603 35.769 47.5728 35.7433 47.576C35.7177 47.5728 35.6941 47.5603 35.6769 47.5409C35.6598 47.5215 35.6504 47.4966 35.6504 47.4707C35.6504 47.4448 35.6598 47.4199 35.6769 47.4005C35.6941 47.3811 35.7177 47.3686 35.7433 47.3654Z" fill="#C7C7C7"/>
<path d="M45.5395 38.1663C45.6148 38.1663 45.6869 38.1961 45.7401 38.2494C45.7933 38.3026 45.8232 38.3747 45.8232 38.4499C45.8232 38.5252 45.7933 38.5973 45.7401 38.6505C45.6869 38.7037 45.6148 38.7336 45.5395 38.7336C45.4643 38.7336 45.3922 38.7037 45.3389 38.6505C45.2857 38.5973 45.2559 38.5252 45.2559 38.4499C45.2559 38.3747 45.2857 38.3026 45.3389 38.2494C45.3922 38.1961 45.4643 38.1663 45.5395 38.1663Z" fill="#C7C7C7"/>
<path d="M31.0098 9.49758L31.9239 9.6668L32.1279 10.629L32.332 9.6668L33.2461 9.49758L32.3353 9.27528L32.1279 8.3645L31.9189 9.27528L31.0098 9.49758Z" fill="#C7C7C7"/>
<path d="M34.4922 1.15778L35.0032 1.25234L35.1176 1.78984L35.2321 1.25234L35.7414 1.15778L35.2337 1.03335L35.1176 0.524048L35.0015 1.03335L34.4922 1.15778Z" fill="#C7C7C7"/>
<path d="M3.53046 14.9772C3.56962 14.9772 3.60717 14.9927 3.63486 15.0204C3.66255 15.0481 3.67811 15.0857 3.67811 15.1248C3.67811 15.164 3.66255 15.2015 3.63486 15.2292C3.60717 15.2569 3.56962 15.2725 3.53046 15.2725C3.4913 15.2725 3.45375 15.2569 3.42606 15.2292C3.39837 15.2015 3.38281 15.164 3.38281 15.1248C3.38281 15.0857 3.39837 15.0481 3.42606 15.0204C3.45375 14.9927 3.4913 14.9772 3.53046 14.9772Z" fill="#C7C7C7"/>
<path d="M5.85625 54.2449C5.89292 54.2488 5.92686 54.2661 5.95153 54.2935C5.97619 54.3209 5.98984 54.3565 5.98984 54.3933C5.98984 54.4302 5.97619 54.4658 5.95153 54.4932C5.92686 54.5206 5.89292 54.5379 5.85625 54.5418C5.81958 54.5379 5.78564 54.5206 5.76097 54.4932C5.7363 54.4658 5.72266 54.4302 5.72266 54.3933C5.72266 54.3565 5.7363 54.3209 5.76097 54.2935C5.78564 54.2661 5.81958 54.2488 5.85625 54.2449Z" fill="#C7C7C7"/>
<path d="M1.84648 61.5942C1.88315 61.5981 1.91709 61.6154 1.94176 61.6429C1.96643 61.6703 1.98007 61.7058 1.98007 61.7427C1.98007 61.7796 1.96643 61.8152 1.94176 61.8426C1.91709 61.87 1.88315 61.8873 1.84648 61.8912C1.80981 61.8873 1.77587 61.87 1.7512 61.8426C1.72654 61.8152 1.71289 61.7796 1.71289 61.7427C1.71289 61.7058 1.72654 61.6703 1.7512 61.6429C1.77587 61.6154 1.80981 61.5981 1.84648 61.5942Z" fill="#C7C7C7"/>
<path d="M9.42851 27.3895C9.46519 27.3934 9.49913 27.4107 9.52379 27.4381C9.54846 27.4656 9.5621 27.5011 9.5621 27.538C9.5621 27.5749 9.54846 27.6105 9.52379 27.6379C9.49913 27.6653 9.46519 27.6826 9.42851 27.6865C9.39184 27.6826 9.3579 27.6653 9.33324 27.6379C9.30857 27.6105 9.29492 27.5749 9.29492 27.538C9.29492 27.5011 9.30857 27.4656 9.33324 27.4381C9.3579 27.4107 9.39184 27.3934 9.42851 27.3895Z" fill="#C7C7C7"/>
<path d="M1.84648 1.83301C1.88315 1.83689 1.91709 1.85421 1.94176 1.88162C1.96643 1.90904 1.98007 1.94461 1.98007 1.98149C1.98007 2.01836 1.96643 2.05394 1.94176 2.08135C1.91709 2.10877 1.88315 2.12608 1.84648 2.12996C1.80981 2.12608 1.77587 2.10877 1.7512 2.08135C1.72654 2.05394 1.71289 2.01836 1.71289 1.98149C1.71289 1.94461 1.72654 1.90904 1.7512 1.88162C1.77587 1.85421 1.80981 1.83689 1.84648 1.83301Z" fill="#C7C7C7"/>
<path d="M15.2882 47.1862C15.3139 47.1894 15.3375 47.2019 15.3546 47.2213C15.3717 47.2407 15.3812 47.2656 15.3812 47.2915C15.3812 47.3174 15.3717 47.3423 15.3546 47.3617C15.3375 47.3811 15.3139 47.3936 15.2882 47.3969C15.2626 47.3936 15.239 47.3811 15.2219 47.3617C15.2048 47.3423 15.1953 47.3174 15.1953 47.2915C15.1953 47.2656 15.2048 47.2407 15.2219 47.2213C15.239 47.2019 15.2626 47.1894 15.2882 47.1862Z" fill="#C7C7C7"/>
<path d="M37.3838 60.6122C37.4115 60.6122 37.4381 60.6232 37.4577 60.6428C37.4773 60.6624 37.4883 60.689 37.4883 60.7167C37.4883 60.7444 37.4773 60.771 37.4577 60.7906C37.4381 60.8102 37.4115 60.8212 37.3838 60.8212C37.3561 60.8212 37.3295 60.8102 37.3099 60.7906C37.2903 60.771 37.2793 60.7444 37.2793 60.7167C37.2793 60.689 37.2903 60.6624 37.3099 60.6428C37.3295 60.6232 37.3561 60.6122 37.3838 60.6122Z" fill="#C7C7C7"/>
<path d="M52.9367 12.6927C52.9623 12.696 52.9859 12.7085 53.0031 12.7279C53.0202 12.7473 53.0296 12.7722 53.0296 12.7981C53.0296 12.824 53.0202 12.8489 53.0031 12.8683C52.9859 12.8877 52.9623 12.9002 52.9367 12.9034C52.911 12.9002 52.8874 12.8877 52.8703 12.8683C52.8532 12.8489 52.8437 12.824 52.8438 12.7981C52.8437 12.7722 52.8532 12.7473 52.8703 12.7279C52.8874 12.7085 52.911 12.696 52.9367 12.6927Z" fill="#C7C7C7"/>
<path d="M34.0147 6.27917C34.0424 6.27917 34.069 6.29019 34.0886 6.30979C34.1082 6.32939 34.1192 6.35597 34.1192 6.38369C34.1192 6.41141 34.1082 6.43799 34.0886 6.45759C34.069 6.47719 34.0424 6.48821 34.0147 6.48821C33.987 6.48821 33.9604 6.47719 33.9408 6.45759C33.9212 6.43799 33.9102 6.41141 33.9102 6.38369C33.9102 6.35597 33.9212 6.32939 33.9408 6.30979C33.9604 6.29019 33.987 6.27917 34.0147 6.27917Z" fill="#C7C7C7"/>
<path d="M27.7349 43.4648C27.8101 43.4648 27.8822 43.4947 27.9354 43.5479C27.9887 43.6011 28.0185 43.6733 28.0185 43.7485C28.0185 43.8238 27.9887 43.8959 27.9354 43.9491C27.8822 44.0023 27.8101 44.0322 27.7349 44.0322C27.6596 44.0322 27.5875 44.0023 27.5343 43.9491C27.4811 43.8959 27.4512 43.8238 27.4512 43.7485C27.4512 43.6733 27.4811 43.6011 27.5343 43.5479C27.5875 43.4947 27.6596 43.4648 27.7349 43.4648Z" fill="#C7C7C7"/>
<path d="M65.121 22.0195C65.1927 22.025 65.2597 22.0574 65.3086 22.1101C65.3575 22.1629 65.3846 22.2321 65.3846 22.304C65.3846 22.376 65.3575 22.4452 65.3086 22.498C65.2597 22.5507 65.1927 22.5831 65.121 22.5886C65.0493 22.5831 64.9823 22.5507 64.9334 22.498C64.8846 22.4452 64.8574 22.376 64.8574 22.304C64.8574 22.2321 64.8846 22.1629 64.9334 22.1101C64.9823 22.0574 65.0493 22.025 65.121 22.0195Z" fill="#C7C7C7"/>
<path d="M7.03759 46.9022C7.11283 46.9022 7.18498 46.9321 7.23819 46.9853C7.29139 47.0385 7.32127 47.1107 7.32127 47.1859C7.32127 47.2611 7.29139 47.3333 7.23819 47.3865C7.18498 47.4397 7.11283 47.4696 7.03759 47.4696C6.96235 47.4696 6.8902 47.4397 6.837 47.3865C6.78379 47.3333 6.75391 47.2611 6.75391 47.1859C6.75391 47.1107 6.78379 47.0385 6.837 46.9853C6.8902 46.9321 6.96235 46.9022 7.03759 46.9022Z" fill="#C7C7C7"/>
<path d="M30.8789 35.9797L31.3899 36.0742L31.5043 36.6117L31.6188 36.0742L32.1298 35.9797L31.6205 35.8553L31.5043 35.3459L31.3882 35.8553L30.8789 35.9797Z" fill="#C7C7C7"/>
<path d="M41.7305 61.7386L42.2414 61.8331L42.3559 62.3707L42.4687 61.8331L42.9797 61.7369L42.472 61.6142L42.3559 61.1049L42.2381 61.6142L41.7305 61.7386Z" fill="#C7C7C7"/>
<path d="M43.991 55.1042C44.0277 55.1081 44.0616 55.1254 44.0863 55.1529C44.111 55.1803 44.1246 55.2158 44.1246 55.2527C44.1246 55.2896 44.111 55.3252 44.0863 55.3526C44.0616 55.38 44.0277 55.3973 43.991 55.4012C43.9543 55.3973 43.9204 55.38 43.8957 55.3526C43.8711 55.3252 43.8574 55.2896 43.8574 55.2527C43.8574 55.2158 43.8711 55.1803 43.8957 55.1529C43.9204 55.1254 43.9543 55.1081 43.991 55.1042Z" fill="#C7C7C7"/>
<path d="M49.7605 51.1659C49.7972 51.1698 49.8312 51.1871 49.8558 51.2145C49.8805 51.2419 49.8941 51.2775 49.8941 51.3144C49.8941 51.3512 49.8805 51.3868 49.8558 51.4142C49.8312 51.4416 49.7972 51.459 49.7605 51.4628C49.7239 51.459 49.6899 51.4416 49.6653 51.4142C49.6406 51.3868 49.627 51.3512 49.627 51.3144C49.627 51.2775 49.6406 51.2419 49.6653 51.2145C49.6899 51.1871 49.7239 51.1698 49.7605 51.1659Z" fill="#C7C7C7"/>
<path d="M31.5059 57.9661L32.0168 58.0607L32.1313 58.5999L32.2458 58.0607L32.7567 57.9661L32.2474 57.8417L32.1313 57.3324L32.0152 57.8417L31.5059 57.9661Z" fill="#C7C7C7"/>
<path d="M52.5301 10.2788C52.5667 10.2827 52.6007 10.3 52.6254 10.3274C52.65 10.3548 52.6637 10.3904 52.6637 10.4273C52.6637 10.4642 52.65 10.4997 52.6254 10.5272C52.6007 10.5546 52.5667 10.5719 52.5301 10.5758C52.4934 10.5719 52.4595 10.5546 52.4348 10.5272C52.4101 10.4997 52.3965 10.4642 52.3965 10.4273C52.3965 10.3904 52.4101 10.3548 52.4348 10.3274C52.4595 10.3 52.4934 10.2827 52.5301 10.2788Z" fill="#C7C7C7"/>
<path d="M56.0928 51.6404C56.1205 51.6404 56.1471 51.6514 56.1667 51.671C56.1863 51.6906 56.1973 51.7172 56.1973 51.7449C56.1973 51.7726 56.1863 51.7992 56.1667 51.8188C56.1471 51.8384 56.1205 51.8494 56.0928 51.8494C56.0651 51.8494 56.0385 51.8384 56.0189 51.8188C55.9993 51.7992 55.9883 51.7726 55.9883 51.7449C55.9883 51.7172 55.9993 51.6906 56.0189 51.671C56.0385 51.6514 56.0651 51.6404 56.0928 51.6404Z" fill="#C7C7C7"/>
<path d="M11.5234 33.8264L12.0344 33.9209L12.1472 34.4584L12.2617 33.9209L12.7726 33.8264L12.265 33.7019L12.1472 33.1926L12.0311 33.7019L11.5234 33.8264Z" fill="#C7C7C7"/>
<path d="M5.6164 41.9735C5.65556 41.9735 5.69311 41.9891 5.7208 42.0168C5.74849 42.0444 5.76405 42.082 5.76405 42.1212C5.76405 42.1603 5.74849 42.1979 5.7208 42.2256C5.69311 42.2533 5.65556 42.2688 5.6164 42.2688C5.57724 42.2688 5.53968 42.2533 5.512 42.2256C5.48431 42.1979 5.46875 42.1603 5.46875 42.1212C5.46875 42.082 5.48431 42.0444 5.512 42.0168C5.53968 41.9891 5.57724 41.9735 5.6164 41.9735Z" fill="#C7C7C7"/>
<path d="M26.0344 31.0691C26.0735 31.0691 26.1111 31.0846 26.1388 31.1123C26.1665 31.14 26.182 31.1776 26.182 31.2167C26.182 31.2559 26.1665 31.2935 26.1388 31.3211C26.1111 31.3488 26.0735 31.3644 26.0344 31.3644C25.9952 31.3644 25.9577 31.3488 25.93 31.3211C25.9023 31.2935 25.8867 31.2559 25.8867 31.2167C25.8867 31.1776 25.9023 31.14 25.93 31.1123C25.9577 31.0846 25.9952 31.0691 26.0344 31.0691Z" fill="#C7C7C7"/>
<path d="M8.69058 16.1102C8.71625 16.1135 8.73985 16.1259 8.75696 16.1453C8.77407 16.1647 8.78351 16.1897 8.78351 16.2156C8.78351 16.2414 8.77407 16.2664 8.75696 16.2858C8.73985 16.3052 8.71625 16.3177 8.69058 16.3209C8.66492 16.3177 8.64132 16.3052 8.62421 16.2858C8.6071 16.2664 8.59766 16.2414 8.59766 16.2156C8.59766 16.1897 8.6071 16.1647 8.62421 16.1453C8.64132 16.1259 8.66492 16.1135 8.69058 16.1102Z" fill="#C7C7C7"/>
<path d="M7.35204 15.1429C7.42728 15.1429 7.49944 15.1728 7.55264 15.226C7.60584 15.2792 7.63573 15.3514 7.63573 15.4266C7.63573 15.5019 7.60584 15.574 7.55264 15.6272C7.49944 15.6804 7.42728 15.7103 7.35204 15.7103C7.27681 15.7103 7.20465 15.6804 7.15145 15.6272C7.09825 15.574 7.06836 15.5019 7.06836 15.4266C7.06836 15.3514 7.09825 15.2792 7.15145 15.226C7.20465 15.1728 7.27681 15.1429 7.35204 15.1429Z" fill="#C7C7C7"/>
<path d="M65.395 2.61597C65.4702 2.61597 65.5424 2.64585 65.5956 2.69906C65.6488 2.75226 65.6787 2.82441 65.6787 2.89965C65.6787 2.97489 65.6488 3.04704 65.5956 3.10025C65.5424 3.15345 65.4702 3.18334 65.395 3.18334C65.3198 3.18334 65.2476 3.15345 65.1944 3.10025C65.1412 3.04704 65.1113 2.97489 65.1113 2.89965C65.1113 2.82441 65.1412 2.75226 65.1944 2.69906C65.2476 2.64585 65.3198 2.61597 65.395 2.61597Z" fill="#C7C7C7"/>
<path d="M58.2754 59.8472C60.4471 57.7978 60.5463 54.376 58.4969 52.2043C56.4476 50.0326 53.0257 49.9334 50.8541 51.9828C48.6824 54.0321 48.5832 57.454 50.6326 59.6257C52.6819 61.7973 56.1037 61.8965 58.2754 59.8472Z" fill="#455A64"/>
<path d="M49.5321 57.903C49.9992 57.4268 50.5383 57.0271 51.1297 56.7185C52.1599 56.1611 55.0233 55.4129 56.314 54.6249C58.1289 53.5183 58.2815 52.4682 58.2284 51.9407C57.7157 51.4707 57.1177 51.1035 56.4666 50.859C56.3754 51.4148 56.0054 53.155 52.9546 54.5087C51.3785 55.2105 49.8025 54.9534 49.2584 54.8671C49.0555 55.8843 49.1505 56.9385 49.5321 57.903Z" fill="#37474F"/>
<path d="M51.9688 60.6635C53.0573 61.2568 54.3164 61.4587 55.5359 61.2356C56.7554 61.0125 57.8614 60.3778 58.6693 59.4375C58.3512 59.2953 58.0169 59.1923 57.674 59.1306C56.1958 58.895 54.6563 59.7178 54.1005 60.0911C53.4812 60.5307 52.7249 60.7337 51.9688 60.6635Z" fill="#37474F"/>
<path d="M49.918 58.686L49.9959 58.8121L50.0689 58.9232C50.1253 59.0079 50.1817 59.0891 50.2348 59.1704C50.2879 59.2517 50.346 59.3131 50.4007 59.3811L50.4654 59.4574L50.5401 59.542C50.565 59.5702 50.5899 59.5985 50.6164 59.625L50.7093 59.7212L50.8022 59.8141L50.8851 59.8921C50.9465 59.9485 51.0096 60.0032 51.0726 60.058C51.416 60.1326 51.8623 60.058 52.4977 59.7395C53.4466 59.2766 54.4271 58.268 56.2635 57.4351C57.3985 56.9312 58.6504 56.7499 59.8818 56.9109C60.0874 55.8132 59.9471 54.6788 59.4803 53.6643C59.1352 53.6792 58.0386 53.9264 55.8305 56.0665C55.1458 56.7503 54.3926 57.3618 53.5826 57.8914C51.6499 59.1107 50.4571 58.8868 49.9512 58.686H49.918Z" fill="#37474F"/>
<path d="M54.8192 52.8018C54.9354 53.0125 55.2771 53.0473 55.584 52.8798C55.8909 52.7122 56.0436 52.4037 55.9291 52.193C55.8146 51.9823 55.4712 51.9491 55.1643 52.1167C54.8574 52.2842 54.7048 52.5828 54.8192 52.8018Z" fill="#263238"/>
<path d="M56.3797 53.0391C56.4444 53.1569 56.6468 53.1718 56.831 53.0706C57.0151 52.9694 57.1097 52.7919 57.045 52.6741C56.9803 52.5563 56.7779 52.5397 56.5937 52.6409C56.4096 52.7421 56.315 52.9196 56.3797 53.0391Z" fill="#263238"/>
<path d="M52.8069 60.0315C52.9065 60.2123 53.2034 60.2389 53.4705 60.0912C53.7376 59.9436 53.8753 59.6798 53.7774 59.4989C53.6795 59.3181 53.3809 59.2932 53.1138 59.4392C52.8467 59.5852 52.709 59.8523 52.8069 60.0315Z" fill="#263238"/>
<path d="M53.8143 60.1277C53.827 60.1828 53.8568 60.2326 53.8993 60.2699C53.9418 60.3072 53.995 60.3303 54.0513 60.3358C54.1077 60.3413 54.1643 60.329 54.2133 60.3007C54.2623 60.2723 54.3011 60.2293 54.3243 60.1776C54.3475 60.126 54.354 60.0684 54.3427 60.013C54.3315 59.9575 54.3031 59.907 54.2616 59.8685C54.2202 59.83 54.1676 59.8055 54.1115 59.7984C54.0553 59.7913 53.9984 59.802 53.9486 59.8291C53.8922 59.852 53.8467 59.8959 53.8217 59.9515C53.7967 60.0071 53.794 60.0702 53.8143 60.1277Z" fill="#263238"/>
<path d="M53.9307 59.6134C53.955 59.6425 53.9894 59.6612 54.027 59.6658C54.0646 59.6704 54.1025 59.6606 54.1331 59.6383C54.2144 59.5935 54.2542 59.5106 54.2227 59.4542C54.1981 59.425 54.1634 59.4062 54.1256 59.4016C54.0877 59.397 54.0495 59.4069 54.0187 59.4293C53.939 59.4741 53.8992 59.557 53.9307 59.6134Z" fill="#263238"/>
<path d="M57.2895 59.2933C57.3774 59.4591 57.6213 59.489 57.8369 59.3712C58.0526 59.2534 58.1538 59.0278 58.0659 58.8735C57.978 58.7192 57.7341 58.6778 57.5184 58.7956C57.3028 58.9133 57.2016 59.1323 57.2895 59.2933Z" fill="#263238"/>
<path d="M57.0895 58.5715C57.1058 58.6116 57.134 58.6459 57.1702 58.6697C57.2064 58.6935 57.249 58.7057 57.2923 58.7048C57.3356 58.7039 57.3776 58.6898 57.4128 58.6645C57.448 58.6392 57.4746 58.6038 57.4892 58.563C57.5038 58.5222 57.5057 58.4779 57.4946 58.436C57.4835 58.3942 57.4599 58.3566 57.427 58.3284C57.3941 58.3002 57.3535 58.2826 57.3104 58.2781C57.2673 58.2735 57.2238 58.2821 57.1857 58.3027C57.1374 58.3257 57.1002 58.3669 57.0822 58.4173C57.0641 58.4676 57.0668 58.5231 57.0895 58.5715Z" fill="#263238"/>
<path d="M50.2416 59.1704C53.5928 58.4609 56.8557 57.3849 59.9715 55.962C62.3936 54.8239 63.8884 53.734 63.686 53.1185C63.4836 52.503 61.667 52.4947 59.1072 52.9874C59.1769 53.0953 59.2416 53.2048 59.3046 53.3192C59.3278 53.3624 59.3494 53.4055 59.3726 53.447C60.7346 53.2728 61.6371 53.3524 61.7599 53.7273C61.8827 54.1023 61.1826 54.7227 59.9466 55.3996C58.3845 56.2199 56.7529 56.9005 55.0709 57.4335C53.3969 58.0017 51.6759 58.4209 49.9281 58.686C48.5362 58.8701 47.6055 58.7922 47.4861 58.4123C47.3666 58.0324 48.0418 57.4418 49.2346 56.7765C49.2048 56.5953 49.1849 56.4125 49.1749 56.2291C46.7561 57.3638 45.2398 58.4919 45.4489 59.1057C45.6579 59.7195 47.5508 59.7129 50.2416 59.1704Z" fill="#263238"/>
<path d="M50.5451 59.5405C52.1605 59.1943 53.7569 58.7646 55.3279 58.2531C56.8929 57.7523 58.4311 57.1715 59.9365 56.5129C63.3009 55.0198 65.4493 53.4985 65.1689 52.6259C64.8886 51.7533 62.3022 51.7715 58.7587 52.5098C58.8101 52.5745 58.8615 52.6408 58.9113 52.7088C61.8875 52.1382 64.0209 52.1697 64.2615 52.9179C64.502 53.6661 62.7568 54.965 59.9581 56.2557C58.43 56.9488 56.8629 57.5525 55.2649 58.064C53.6616 58.5861 52.0292 59.0137 50.3759 59.3447C47.3648 59.9287 45.2015 59.9005 44.9593 59.1457C44.7171 58.3908 46.4192 57.1333 49.1532 55.8609C49.1532 55.7763 49.1532 55.695 49.1632 55.6071C45.8684 57.0753 43.7748 58.5766 44.0519 59.4393C44.3289 60.302 46.96 60.2937 50.5451 59.5405Z" fill="#37474F"/>
<path d="M32.1685 30.4976C33.8359 29.9283 34.7261 28.1152 34.1568 26.4478C33.5876 24.7804 31.7744 23.8901 30.107 24.4594C28.4396 25.0286 27.5494 26.8418 28.1186 28.5092C28.6879 30.1766 30.501 31.0669 32.1685 30.4976Z" fill="#EBEBEB"/>
<path d="M34.1951 28.4031C33.8979 28.1454 33.562 27.936 33.1997 27.7827C32.5676 27.504 30.8473 27.1987 30.0477 26.7956C28.9279 26.2315 28.7885 25.6227 28.7951 25.3025C29.0736 25.0014 29.4077 24.7569 29.7789 24.5825C29.8585 24.9044 30.1588 25.9097 32.0185 26.5733C32.9791 26.9051 33.8981 26.6861 34.21 26.6098C34.3776 27.1966 34.3724 27.8192 34.1951 28.4031Z" fill="#DBDBDB"/>
<path d="M32.8924 30.1434C32.2807 30.5452 31.5495 30.7245 30.8213 30.6514C30.0932 30.5784 29.4122 30.2573 28.8926 29.7419C29.0733 29.643 29.2655 29.5666 29.4649 29.5147C30.3226 29.3056 31.2666 29.7154 31.6116 29.9095C31.9969 30.138 32.4512 30.221 32.8924 30.1434Z" fill="#DBDBDB"/>
<path d="M33.9992 28.8827L33.9594 28.959C33.9478 28.9839 33.9345 29.0055 33.9212 29.0287C33.8925 29.0818 33.8626 29.1332 33.8316 29.183C33.8034 29.2278 33.7736 29.2709 33.7437 29.314L33.7089 29.3621L33.6674 29.4103L33.6259 29.4633C33.6104 29.4833 33.5938 29.5032 33.5761 29.5231C33.5585 29.543 33.5419 29.5629 33.5264 29.5828L33.4799 29.6326C33.4467 29.6691 33.4136 29.7039 33.3787 29.7387C33.1813 29.8001 32.9142 29.7736 32.526 29.6193C31.9454 29.392 31.3216 28.8445 30.2035 28.4431C29.514 28.2015 28.7714 28.1539 28.0567 28.3054C27.8838 27.6698 27.9128 26.9961 28.1397 26.3777C28.3421 26.3694 28.999 26.4623 30.3959 27.6169C30.8315 27.9851 31.3034 28.3081 31.8044 28.5808C33.0005 29.2062 33.6906 29.0204 33.9793 28.8761H33.9992V28.8827Z" fill="#DBDBDB"/>
<path d="M30.9702 30.082C31.0266 29.9526 31.2257 29.9161 31.4148 29.9974C31.6039 30.0787 31.7101 30.2512 31.6537 30.3806C31.5973 30.51 31.3982 30.5465 31.2091 30.4669C31.02 30.3872 30.9138 30.2131 30.9702 30.082Z" fill="#C7C7C7"/>
<path d="M31.8745 29.8548C31.906 29.7818 32.0238 29.7635 32.1382 29.8133C32.2527 29.863 32.3174 29.9609 32.2859 30.0339C32.2544 30.1069 32.1349 30.1268 32.0221 30.0771C31.9093 30.0273 31.8446 29.9294 31.8745 29.8548Z" fill="#C7C7C7"/>
<path d="M29.4021 25.9363C29.4502 25.8268 29.6228 25.7936 29.7886 25.8666C29.9545 25.9396 30.0491 26.0872 29.9993 26.1984C29.9496 26.3095 29.7787 26.3411 29.6128 26.2681C29.4469 26.1951 29.3573 26.0474 29.4021 25.9363Z" fill="#C7C7C7"/>
<path d="M29.9864 25.8269C30.0056 25.7964 30.0359 25.7746 30.071 25.7662C30.106 25.7578 30.143 25.7635 30.1738 25.7821C30.2078 25.7925 30.2364 25.8155 30.254 25.8463C30.2716 25.8771 30.2767 25.9135 30.2684 25.948C30.2448 25.9711 30.2149 25.9867 30.1824 25.9927C30.1499 25.9987 30.1163 25.9949 30.086 25.9817C30.0557 25.9685 30.03 25.9466 30.0123 25.9187C29.9945 25.8908 29.9855 25.8583 29.9864 25.8252V25.8269Z" fill="#C7C7C7"/>
<path d="M30.0824 26.122C30.0952 26.1037 30.1145 26.0909 30.1363 26.0862C30.1582 26.0816 30.1811 26.0855 30.2002 26.0971C30.2499 26.1187 30.2765 26.1651 30.2616 26.2C30.2493 26.2189 30.2301 26.2323 30.2081 26.2373C30.1861 26.2423 30.163 26.2384 30.1438 26.2265C30.1221 26.2203 30.1036 26.206 30.0922 26.1865C30.0808 26.1671 30.0773 26.144 30.0824 26.122Z" fill="#C7C7C7"/>
<path d="M32.0733 26.1304C32.0801 26.0739 32.1045 26.0208 32.143 25.9788C32.1815 25.9369 32.2323 25.908 32.2881 25.8964C32.3439 25.8848 32.4019 25.8911 32.454 25.9142C32.5061 25.9374 32.5495 25.9763 32.5783 26.0255C32.6071 26.0747 32.6197 26.1317 32.6143 26.1884C32.609 26.2451 32.5859 26.2987 32.5485 26.3417C32.511 26.3846 32.461 26.4147 32.4055 26.4277C32.35 26.4407 32.2919 26.436 32.2392 26.4141C32.1801 26.3978 32.1296 26.359 32.0986 26.306C32.0676 26.253 32.0586 26.19 32.0733 26.1304Z" fill="#C7C7C7"/>
<path d="M31.9964 26.5651C32.0109 26.5362 32.036 26.514 32.0664 26.5031C32.0968 26.4921 32.1302 26.4933 32.1598 26.5062C32.1894 26.5192 32.2128 26.5431 32.2254 26.5728C32.2379 26.6026 32.2385 26.6361 32.227 26.6663C32.2125 26.6952 32.1875 26.7174 32.1571 26.7283C32.1267 26.7393 32.0933 26.7382 32.0637 26.7252C32.0341 26.7122 32.0106 26.6884 31.9981 26.6586C31.9856 26.6288 31.985 26.5953 31.9964 26.5651Z" fill="#C7C7C7"/>
<path d="M9.9289 8.25491C11.5646 7.60003 12.3597 5.74316 11.7048 4.10749C11.0499 2.47182 9.19302 1.67674 7.55735 2.33162C5.92168 2.98651 5.12659 4.84337 5.78148 6.47904C6.43636 8.11471 8.29322 8.9098 9.9289 8.25491Z" fill="#FEBF32"/>
<path opacity="0.1" d="M9.9289 8.25491C11.5646 7.60003 12.3597 5.74316 11.7048 4.10749C11.0499 2.47182 9.19302 1.67674 7.55735 2.33162C5.92168 2.98651 5.12659 4.84337 5.78148 6.47904C6.43636 8.11471 8.29322 8.9098 9.9289 8.25491Z" fill="black"/>
<g opacity="0.1">
<path opacity="0.1" d="M11.795 6.22093C11.4976 5.96346 11.1617 5.75411 10.7996 5.60048C10.1659 5.32177 8.45051 5.02315 7.64923 4.61505C6.52942 4.04934 6.39007 3.4405 6.3967 3.12197C6.67545 2.82042 7.01012 2.57589 7.38213 2.40198C7.46176 2.72382 7.76038 3.72916 9.62009 4.39274C10.5806 4.72454 11.4997 4.5039 11.8116 4.42758C11.9786 5.01453 11.9728 5.63718 11.795 6.22093Z" fill="black"/>
<path opacity="0.1" d="M10.4939 7.96109C9.88185 8.36203 9.1507 8.54075 8.42269 8.46737C7.69467 8.394 7.0139 8.07298 6.49414 7.55796C6.67499 7.45925 6.86719 7.38293 7.06649 7.33068C7.92417 7.12165 8.86979 7.53307 9.22315 7.72551C9.60527 7.9526 10.0558 8.03612 10.4939 7.96109Z" fill="black"/>
<path opacity="0.1" d="M11.6045 6.7004C11.5925 6.72705 11.5792 6.75307 11.5647 6.77837C11.5531 6.8016 11.5414 6.82483 11.5282 6.84805C11.4983 6.89948 11.4684 6.95091 11.4369 7.00068C11.4054 7.05045 11.3805 7.09026 11.349 7.13339L11.3142 7.17985C11.3018 7.19823 11.2885 7.21595 11.2743 7.23293L11.2345 7.28602L11.1848 7.3474L11.1333 7.40547L11.0885 7.45689C11.0554 7.49339 11.0205 7.52823 10.9857 7.56141C10.7866 7.62113 10.5212 7.59459 10.1313 7.44196C9.55233 7.21468 8.9269 6.66722 7.80875 6.26409C7.11968 6.02342 6.3779 5.9758 5.6637 6.1264C5.48913 5.48939 5.51754 4.81379 5.74499 4.1937C5.94905 4.1854 6.60434 4.2783 8.00285 5.43295C8.43746 5.80246 8.90951 6.1255 9.41132 6.39681C10.6091 7.03054 11.2976 6.84805 11.5862 6.69874H11.6045V6.7004Z" fill="black"/>
</g>
<g opacity="0.1">
<path opacity="0.1" d="M8.57539 7.90169C8.6318 7.77063 8.83088 7.73579 9.02 7.81542C9.20912 7.89505 9.31695 8.06924 9.26055 8.19864C9.20414 8.32804 9.00341 8.36454 8.81594 8.28491C8.62848 8.20528 8.51899 8.03109 8.57539 7.90169Z" fill="black"/>
<path opacity="0.1" d="M9.47626 7.67766C9.50778 7.60466 9.62556 7.58476 9.73837 7.63453C9.85118 7.6843 9.91754 7.78383 9.88602 7.85683C9.8545 7.92982 9.73671 7.94807 9.62225 7.89996C9.50778 7.85185 9.44639 7.74734 9.47626 7.67766Z" fill="black"/>
<path opacity="0.1" d="M7.00308 3.75571C7.05119 3.64456 7.22373 3.61304 7.38962 3.68438C7.55552 3.75571 7.65008 3.90502 7.60197 4.01617C7.55386 4.12732 7.37967 4.15884 7.21377 4.08585C7.04788 4.01285 6.95995 3.86189 7.00308 3.75571Z" fill="black"/>
<path opacity="0.1" d="M7.59221 3.64466C7.61167 3.61448 7.64202 3.59297 7.67695 3.58463C7.71188 3.57628 7.74868 3.58174 7.77968 3.59987C7.79818 3.60243 7.81584 3.60923 7.83128 3.61975C7.84672 3.63028 7.85951 3.64422 7.86866 3.66051C7.87781 3.6768 7.88307 3.69498 7.88402 3.71364C7.88498 3.73229 7.8816 3.75092 7.87416 3.76805C7.86673 3.78519 7.85542 3.80037 7.84114 3.81241C7.82686 3.82445 7.80999 3.83303 7.79184 3.83747C7.77369 3.8419 7.75477 3.84208 7.73654 3.83799C7.71831 3.8339 7.70128 3.82564 7.68677 3.81387C7.65237 3.8031 7.62339 3.77956 7.60581 3.74809C7.58822 3.71662 7.58336 3.67961 7.59221 3.64466Z" fill="black"/>
<path opacity="0.1" d="M7.68564 3.94167C7.69817 3.92304 7.71735 3.90992 7.73925 3.90498C7.76115 3.90005 7.78411 3.90368 7.80342 3.91513C7.85319 3.93835 7.88139 3.98314 7.86646 4.01964C7.85343 4.03768 7.83415 4.05022 7.81237 4.05482C7.7906 4.05942 7.76789 4.05575 7.74868 4.04453C7.69891 4.02794 7.67071 3.97651 7.68564 3.94167Z" fill="black"/>
<path opacity="0.1" d="M9.67722 3.94842C9.68453 3.89244 9.70917 3.84015 9.7477 3.79888C9.78623 3.75762 9.83671 3.72945 9.89206 3.71832C9.9474 3.70719 10.0048 3.71366 10.0563 3.73683C10.1078 3.76 10.1508 3.7987 10.1791 3.84751C10.2075 3.89632 10.2199 3.95278 10.2146 4.00898C10.2092 4.06519 10.1864 4.11831 10.1494 4.16091C10.1123 4.2035 10.0629 4.23343 10.0079 4.2465C9.95302 4.25956 9.89538 4.25511 9.84312 4.23376C9.78359 4.21742 9.73287 4.17837 9.70184 4.125C9.67082 4.07164 9.66198 4.00823 9.67722 3.94842Z" fill="black"/>
<path opacity="0.1" d="M9.59996 4.38298C9.61445 4.35411 9.63948 4.3319 9.66988 4.32095C9.70027 4.30999 9.73371 4.31112 9.7633 4.32411C9.79288 4.33709 9.81635 4.36093 9.82887 4.39072C9.84138 4.4205 9.84199 4.45396 9.83055 4.48418C9.81605 4.51305 9.79102 4.53525 9.76063 4.54621C9.73024 4.55716 9.6968 4.55603 9.66721 4.54305C9.63763 4.53007 9.61416 4.50622 9.60164 4.47644C9.58913 4.44665 9.58852 4.4132 9.59996 4.38298Z" fill="black"/>
</g>
<path d="M31.7815 11.4669C31.6637 11.3259 24.8387 8.16058 18.6574 12.877C12.9754 17.2136 11.0029 25.3641 11.7577 25.5599C12.6817 25.7988 15.2133 21.9101 20.0725 19.7717C21.7961 19.0136 24.5384 19.7717 24.5384 19.7717L31.7815 11.4669Z" fill="#FEBF32"/>
<path opacity="0.1" d="M24.5431 19.77C23.7294 19.563 22.8943 19.4516 22.0547 19.4382C23.1264 17.1952 25.1271 13.0113 26.4261 10.3005C29.4836 10.3287 31.7232 11.3888 31.7912 11.4618L24.5431 19.77Z" fill="black"/>
<path d="M43.0256 24.7269C43.1451 24.8663 45.1524 32.1177 39.487 37.443C34.2795 42.3402 25.9166 42.9524 25.8469 42.176C25.7623 41.2254 30.0143 39.364 32.9175 34.9197C33.9461 33.3436 33.6491 30.5134 33.6491 30.5134L43.0256 24.7269Z" fill="#FEBF32"/>
<path opacity="0.1" d="M43.2882 30.248L33.5566 33.0799C33.6867 32.2308 33.7151 31.3692 33.6412 30.5134L43.0178 24.7269C43.0924 24.8066 43.7859 27.2104 43.2882 30.248Z" fill="black"/>
<path d="M27.1345 33.5909L20.4688 25.729C20.4688 25.729 23.9526 16.4072 32.2076 10.1463C36.3335 7.02243 41.1661 4.68494 45.5076 3.13878C51.4882 0.995385 56.4917 0.378247 57.2664 1.28736C58.0412 2.19648 56.6028 7.03736 53.5205 12.5899C51.2825 16.6063 48.1836 20.9993 44.4276 24.5594C36.8992 31.6864 27.1345 33.5909 27.1345 33.5909Z" fill="#C7C7C7"/>
<path d="M43.3295 21.1933C42.4329 21.9543 41.3308 22.4322 40.1626 22.5666C38.9944 22.701 37.8125 22.4859 36.7666 21.9485C35.7207 21.411 34.8576 20.5755 34.2867 19.5474C33.7157 18.5194 33.4626 17.3451 33.5592 16.1732C33.6558 15.0012 34.0978 13.8842 34.8294 12.9636C35.5609 12.0429 36.5491 11.3599 37.6689 11.001C38.7888 10.6421 39.9899 10.6234 41.1203 10.9473C42.2508 11.2711 43.2598 11.923 44.0196 12.8205C45.0371 14.0229 45.5359 15.5799 45.4065 17.1497C45.2771 18.7195 44.5301 20.1738 43.3295 21.1933Z" fill="#A6A6A6"/>
<path d="M43.6532 20.6408C42.7565 21.401 41.6544 21.8783 40.4865 22.0122C39.3185 22.1461 38.137 21.9307 37.0915 21.3932C36.0459 20.8556 35.1833 20.0201 34.6126 18.9923C34.0419 17.9645 33.7888 16.7905 33.8853 15.6188C33.9818 14.4472 34.4236 13.3304 35.1548 12.4098C35.886 11.4893 36.8738 10.8062 37.9932 10.447C39.1126 10.0878 40.3134 10.0686 41.4437 10.3918C42.574 10.7151 43.5831 11.3662 44.3433 12.263C45.3624 13.4657 45.8621 15.0238 45.7327 16.5948C45.6033 18.1658 44.8553 19.6211 43.6532 20.6408Z" fill="#FEBF32"/>
<path d="M42.4765 19.2492C41.8551 19.7775 41.091 20.1096 40.2808 20.2035C39.4706 20.2974 38.6507 20.1489 37.9249 19.7767C37.1992 19.4045 36.6001 18.8254 36.2036 18.1127C35.8071 17.3999 35.6309 16.5856 35.6973 15.7726C35.7637 14.9597 36.0698 14.1848 36.5768 13.5459C37.0838 12.9069 37.7689 12.4328 38.5454 12.1833C39.322 11.9339 40.1551 11.9204 40.9393 12.1446C41.7235 12.3688 42.4236 12.8206 42.951 13.4428C43.6572 14.276 44.004 15.3555 43.915 16.4441C43.826 17.5328 43.3087 18.5417 42.4765 19.2492Z" fill="white"/>
<path d="M42.48 19.2491C42.091 19.5803 41.6438 19.8363 41.1611 20.0039L37.8432 19.7335C37.3942 19.4901 36.9947 19.1649 36.6653 18.7746C36.4234 18.4913 36.2219 18.1758 36.0664 17.8373L43.2166 18.4196C43.0101 18.7285 42.7623 19.0075 42.48 19.2491Z" fill="#EBEBEB"/>
<path d="M43.3103 13.9288L36.7109 13.3913C36.8438 13.2386 36.988 13.0961 37.1423 12.965C37.9753 12.2583 39.0549 11.9113 40.1437 12.0003C41.2325 12.0892 42.2414 12.6069 42.9487 13.4394C43.0815 13.5932 43.2024 13.7568 43.3103 13.9288Z" fill="#EBEBEB"/>
<path d="M43.6677 17.5652L35.771 16.9199C35.7448 16.7988 35.7254 16.6764 35.7129 16.5532L43.7821 17.2168C43.7506 17.3296 43.7108 17.4474 43.6677 17.5652Z" fill="#EBEBEB"/>
<path d="M53.5206 12.59L45.5078 3.13381C51.4884 0.995394 56.4919 0.378256 57.2666 1.28737C58.0414 2.19649 56.6097 7.03737 53.5206 12.59Z" fill="#FEBF32"/>
<path d="M47.8627 3.93675C47.8104 3.98128 47.7462 4.00931 47.678 4.01728C47.6098 4.02525 47.5408 4.01281 47.4797 3.98153C47.4186 3.95025 47.3682 3.90155 47.3348 3.84158C47.3014 3.78162 47.2866 3.71309 47.2922 3.64469C47.2977 3.57628 47.3235 3.51107 47.3662 3.45731C47.4089 3.40356 47.4665 3.36368 47.5319 3.34273C47.5972 3.32177 47.6674 3.32069 47.7333 3.33961C47.7993 3.35853 47.8582 3.39661 47.9025 3.44902C47.9617 3.51905 47.9908 3.60969 47.9833 3.70111C47.9759 3.79252 47.9325 3.87725 47.8627 3.93675Z" fill="white"/>
<path d="M49.2886 5.61892C49.254 5.64936 49.2137 5.67259 49.17 5.68726C49.1263 5.70193 49.0801 5.70774 49.0342 5.70436C48.9882 5.70097 48.9434 5.68846 48.9023 5.66755C48.8612 5.64664 48.8247 5.61775 48.795 5.58257C48.7652 5.54739 48.7427 5.50663 48.7289 5.46267C48.7151 5.41871 48.7101 5.37243 48.7144 5.32654C48.7186 5.28065 48.732 5.23607 48.7537 5.19541C48.7754 5.15474 48.8049 5.11881 48.8407 5.08971C48.9111 5.03236 49.0012 5.00494 49.0916 5.01332C49.1821 5.02171 49.2656 5.06524 49.3243 5.13456C49.3829 5.20389 49.4121 5.29346 49.4054 5.38403C49.3987 5.4746 49.3568 5.55894 49.2886 5.61892Z" fill="white"/>
<path d="M50.7141 7.29945C50.6614 7.34241 50.5972 7.36891 50.5295 7.37565C50.4618 7.38238 50.3936 7.36906 50.3335 7.33733C50.2733 7.30561 50.2238 7.25689 50.1911 7.19723C50.1584 7.13757 50.144 7.06962 50.1496 7.00183C50.1553 6.93404 50.1807 6.86941 50.2229 6.81599C50.265 6.76256 50.3219 6.72271 50.3865 6.70138C50.4511 6.68005 50.5205 6.6782 50.5861 6.69605C50.6518 6.71389 50.7107 6.75066 50.7556 6.80176C50.7866 6.83667 50.8102 6.87752 50.8249 6.92182C50.8397 6.96612 50.8453 7.01295 50.8414 7.05948C50.8375 7.10601 50.8243 7.15127 50.8024 7.19251C50.7805 7.23376 50.7505 7.27014 50.7141 7.29945Z" fill="white"/>
<path d="M52.1409 8.9817C52.0883 9.02486 52.0242 9.05159 51.9565 9.05857C51.8888 9.06554 51.8206 9.05245 51.7603 9.02093C51.7 8.98941 51.6503 8.94085 51.6174 8.8813C51.5845 8.82175 51.5699 8.75383 51.5753 8.68602C51.5807 8.6182 51.606 8.55348 51.6479 8.49992C51.6899 8.44635 51.7467 8.4063 51.8112 8.38477C51.8757 8.36324 51.9452 8.36116 52.0109 8.37881C52.0766 8.39646 52.1356 8.43304 52.1807 8.48401C52.2116 8.51893 52.2351 8.55971 52.2498 8.60392C52.2646 8.64813 52.2703 8.69486 52.2666 8.74132C52.2628 8.78778 52.2498 8.83301 52.2282 8.87431C52.2066 8.91561 52.1769 8.95214 52.1409 8.9817Z" fill="white"/>
<path d="M53.5748 10.664C53.5225 10.7083 53.4582 10.7361 53.3901 10.7439C53.322 10.7517 53.2532 10.7392 53.1922 10.7079C53.1312 10.6766 53.0809 10.6279 53.0476 10.568C53.0143 10.5081 52.9995 10.4397 53.005 10.3713C53.0106 10.303 53.0363 10.2379 53.0788 10.1842C53.1214 10.1305 53.1789 10.0905 53.2441 10.0695C53.3094 10.0484 53.3794 10.0472 53.4453 10.0659C53.5112 10.0846 53.5701 10.1224 53.6146 10.1746C53.6441 10.2093 53.6666 10.2496 53.6806 10.293C53.6946 10.3364 53.6999 10.3821 53.6962 10.4276C53.6925 10.473 53.6799 10.5173 53.659 10.5579C53.6382 10.5985 53.6096 10.6345 53.5748 10.664Z" fill="white"/>
<path d="M22.384 25.5448C22.3136 25.6022 22.2235 25.6296 22.1331 25.6212C22.0426 25.6128 21.9591 25.5693 21.9004 25.5C21.8418 25.4307 21.8126 25.3411 21.8193 25.2505C21.826 25.1599 21.8679 25.0756 21.9361 25.0156C21.9707 24.9852 22.011 24.962 22.0547 24.9473C22.0984 24.9326 22.1446 24.9268 22.1906 24.9302C22.2365 24.9336 22.2813 24.9461 22.3224 24.967C22.3635 24.9879 22.4 25.0168 22.4297 25.052C22.4595 25.0872 22.482 25.1279 22.4958 25.1719C22.5097 25.2158 22.5146 25.2621 22.5103 25.308C22.5061 25.3539 22.4927 25.3985 22.471 25.4391C22.4493 25.4798 22.4198 25.5157 22.384 25.5448Z" fill="#A6A6A6"/>
<path d="M23.8186 27.2271C23.766 27.2702 23.7019 27.2969 23.6342 27.3039C23.5666 27.3109 23.4983 27.2978 23.438 27.2663C23.3777 27.2348 23.3281 27.1862 23.2952 27.1267C23.2623 27.0671 23.2476 26.9992 23.2531 26.9314C23.2585 26.8636 23.2837 26.7988 23.3257 26.7453C23.3676 26.6917 23.4244 26.6517 23.4889 26.6301C23.5535 26.6086 23.6229 26.6065 23.6886 26.6242C23.7543 26.6418 23.8134 26.6784 23.8584 26.7294C23.8893 26.7643 23.9128 26.8051 23.9276 26.8493C23.9423 26.8935 23.948 26.9402 23.9443 26.9867C23.9406 27.0331 23.9275 27.0784 23.9059 27.1197C23.8844 27.161 23.8547 27.1975 23.8186 27.2271Z" fill="#A6A6A6"/>
<path d="M25.2447 28.9124C25.1924 28.9567 25.1281 28.9845 25.06 28.9923C24.992 29.0001 24.9231 28.9876 24.8621 28.9563C24.8012 28.925 24.7508 28.8763 24.7175 28.8164C24.6842 28.7565 24.6694 28.6881 24.675 28.6198C24.6805 28.5514 24.7062 28.4863 24.7488 28.4326C24.7913 28.3789 24.8488 28.339 24.9141 28.3179C24.9793 28.2969 25.0493 28.2956 25.1152 28.3143C25.1811 28.333 25.24 28.3709 25.2845 28.423C25.3141 28.4577 25.3365 28.498 25.3505 28.5414C25.3645 28.5848 25.3698 28.6305 25.3661 28.676C25.3624 28.7214 25.3498 28.7657 25.329 28.8063C25.3081 28.8469 25.2795 28.8829 25.2447 28.9124Z" fill="#A6A6A6"/>
<path d="M26.6702 30.59C26.6176 30.6331 26.5535 30.6599 26.4858 30.6668C26.4181 30.6738 26.3499 30.6607 26.2896 30.6292C26.2293 30.5977 26.1796 30.5491 26.1467 30.4896C26.1138 30.43 26.0992 30.3621 26.1046 30.2943C26.11 30.2265 26.1353 30.1618 26.1772 30.1082C26.2192 30.0546 26.276 30.0146 26.3405 29.993C26.405 29.9715 26.4745 29.9694 26.5402 29.9871C26.6059 30.0047 26.6649 30.0413 26.71 30.0923C26.7409 30.1272 26.7644 30.168 26.7791 30.2122C26.7939 30.2564 26.7996 30.3031 26.7959 30.3496C26.7921 30.3961 26.7791 30.4413 26.7575 30.4826C26.7359 30.5239 26.7062 30.5604 26.6702 30.59Z" fill="#A6A6A6"/>
<path d="M28.0931 32.2703C28.0403 32.3133 27.9761 32.3398 27.9084 32.3465C27.8407 32.3533 27.7725 32.3399 27.7124 32.3082C27.6522 32.2765 27.6027 32.2278 27.57 32.1681C27.5373 32.1085 27.5229 32.0405 27.5285 31.9727C27.5342 31.9049 27.5597 31.8403 27.6018 31.7869C27.6439 31.7335 27.7008 31.6936 27.7654 31.6723C27.83 31.6509 27.8994 31.6491 27.965 31.6669C28.0307 31.6848 28.0896 31.7215 28.1345 31.7726C28.1655 31.8076 28.1891 31.8484 28.2039 31.8927C28.2186 31.937 28.2242 31.9838 28.2203 32.0304C28.2165 32.0769 28.2032 32.1222 28.1813 32.1634C28.1594 32.2046 28.1294 32.241 28.0931 32.2703Z" fill="#A6A6A6"/>
<path opacity="0.2" d="M56.8915 1.05343C52.2762 1.38523 44.2833 4.17894 35.874 10.775C29.6595 15.6474 25.1255 24.1745 23.012 28.7284L20.4688 25.729C20.4688 25.729 23.9526 16.4072 32.2076 10.1463C36.3335 7.02241 41.1661 4.68492 45.5076 3.13876C50.8678 1.21601 55.4416 0.519242 56.8915 1.05343Z" fill="white"/>
<path d="M24.1562 34.8716L18.7363 28.4779L20.8449 26.1736L26.7741 33.1678L24.1562 34.8716Z" fill="#FEBF32"/>
<path opacity="0.1" d="M26.7764 33.1679L25.5007 33.9973L20.041 27.0545L20.8473 26.1753L26.7764 33.1679Z" fill="black"/>
<path d="M53.4366 13.4444L50.9597 13.2785L49.7951 15.6375L49.9013 13.0097L47.6484 11.9679L50.1502 11.9928L51.2882 9.77472L51.2285 12.2665L53.4366 13.4444Z" fill="#FCFCFC"/>
<path d="M52.8287 4.29512L51.4435 4.20388L50.7932 5.52276L50.8529 4.05291L49.5938 3.47061L50.9923 3.48388L51.6277 2.24463L51.5945 3.63817L52.8287 4.29512Z" fill="#FCFCFC"/>
<path d="M41.6276 32.418L40.244 32.3251L39.5937 33.644L39.6517 32.1758L38.3926 31.5935L39.7911 31.6068L40.4281 30.3676L40.3933 31.7611L41.6276 32.418Z" fill="#FCFCFC"/>
<path d="M16.9889 20.1833L15.6037 20.0904L14.9533 21.4093L15.0131 19.9411L13.7539 19.3588L15.1524 19.3721L15.7878 18.1328L15.7546 19.5247L16.9889 20.1833Z" fill="#FCFCFC"/>
<path opacity="0.6" d="M22.9663 33.445C20.4529 35.1388 18.2349 37.3005 16.6157 39.8835C14.9544 42.4795 14.0157 45.4718 13.8966 48.5516C13.8568 50.1128 14.0475 51.6713 14.4624 53.1768C14.8893 54.7103 15.5352 56.1742 16.3801 57.5233C17.2453 58.8965 18.2829 60.1532 19.4675 61.2627C20.6731 62.3905 21.9918 63.3912 23.4026 64.2488C21.8809 63.5534 20.4354 62.7022 19.0892 61.7089C17.7269 60.6992 16.5002 59.5183 15.4395 58.1952C13.2407 55.4573 11.9005 52.1304 11.5874 48.6329C11.2755 45.0976 12.022 41.4694 13.5682 38.2328C15.1143 34.9961 17.4253 32.1211 20.156 29.772L22.9663 33.445Z" fill="#FEBF32"/>
<path d="M18.6688 37.2987L17.68 37.4812L17.4594 38.523L17.2387 37.4812L16.25 37.297L17.2354 37.0565L17.4594 36.0727L17.685 37.0565L18.6688 37.2987Z" fill="white"/>
<path d="M15.0318 56.8131L14.4793 56.916L14.3565 57.4983L14.2321 56.916L13.6797 56.8131L14.2305 56.6788L14.3565 56.1296L14.4826 56.6788L15.0318 56.8131Z" fill="white"/>
<path d="M14.7329 51.7583L14.1805 51.8595L14.0577 52.4434L13.935 51.8595L13.3809 51.7583L13.9316 51.6239L14.0577 51.0731L14.1838 51.6239L14.7329 51.7583Z" fill="white"/>
<path d="M17.938 34.0487L17.3856 34.1516L17.2611 34.7339L17.1384 34.1516L16.5859 34.0487L17.1367 33.9144L17.2611 33.3652L17.3872 33.9144L17.938 34.0487Z" fill="white"/>
<path d="M16.3372 58.074C16.3021 58.0835 16.2711 58.1044 16.2489 58.1333C16.2268 58.1622 16.2148 58.1976 16.2148 58.2341C16.2148 58.2705 16.2268 58.3059 16.2489 58.3348C16.2711 58.3638 16.3021 58.3846 16.3372 58.3942C16.3724 58.3846 16.4034 58.3638 16.4255 58.3348C16.4476 58.3059 16.4596 58.2705 16.4596 58.2341C16.4596 58.1976 16.4476 58.1622 16.4255 58.1333C16.4034 58.1044 16.3724 58.0835 16.3372 58.074Z" fill="white"/>
<path d="M20.9075 33.269C20.8724 33.2786 20.8414 33.2994 20.8193 33.3284C20.7971 33.3573 20.7852 33.3927 20.7852 33.4291C20.7852 33.4656 20.7971 33.501 20.8193 33.5299C20.8414 33.5588 20.8724 33.5797 20.9075 33.5892C20.9427 33.5797 20.9737 33.5588 20.9958 33.5299C21.018 33.501 21.0299 33.4656 21.0299 33.4291C21.0299 33.3927 21.018 33.3573 20.9958 33.3284C20.9737 33.2994 20.9427 33.2786 20.9075 33.269Z" fill="white"/>
<path d="M12.2845 47.5544C12.2494 47.564 12.2183 47.5848 12.1962 47.6138C12.1741 47.6427 12.1621 47.6781 12.1621 47.7145C12.1621 47.751 12.1741 47.7864 12.1962 47.8153C12.2183 47.8442 12.2494 47.8651 12.2845 47.8746C12.3196 47.8651 12.3507 47.8442 12.3728 47.8153C12.3949 47.7864 12.4069 47.751 12.4069 47.7145C12.4069 47.6781 12.3949 47.6427 12.3728 47.6138C12.3507 47.5848 12.3196 47.564 12.2845 47.5544Z" fill="white"/>
<path d="M16.0519 57.2395C16.0241 57.2429 15.9985 57.2563 15.98 57.2772C15.9614 57.2982 15.9512 57.3252 15.9512 57.3531C15.9512 57.3811 15.9614 57.4081 15.98 57.4291C15.9985 57.45 16.0241 57.4634 16.0519 57.4668C16.0797 57.4634 16.1052 57.45 16.1238 57.4291C16.1424 57.4081 16.1526 57.3811 16.1526 57.3531C16.1526 57.3252 16.1424 57.2982 16.1238 57.2772C16.1052 57.2563 16.0797 57.2429 16.0519 57.2395Z" fill="white"/>
<path d="M12.228 41.957C12.1981 41.957 12.1694 41.9689 12.1483 41.9901C12.1271 42.0112 12.1152 42.0399 12.1152 42.0698C12.1152 42.0998 12.1271 42.1285 12.1483 42.1496C12.1694 42.1708 12.1981 42.1826 12.228 42.1826C12.258 42.1826 12.2867 42.1708 12.3078 42.1496C12.329 42.1285 12.3409 42.0998 12.3409 42.0698C12.3409 42.0399 12.329 42.0112 12.3078 41.9901C12.2867 41.9689 12.258 41.957 12.228 41.957Z" fill="white"/>
<path d="M13.3797 53.5468C13.302 53.5525 13.2293 53.5874 13.1763 53.6444C13.1232 53.7015 13.0938 53.7766 13.0938 53.8545C13.0938 53.9324 13.1232 54.0075 13.1763 54.0645C13.2293 54.1216 13.302 54.1565 13.3797 54.1622C13.4574 54.1565 13.5301 54.1216 13.5831 54.0645C13.6362 54.0075 13.6657 53.9324 13.6657 53.8545C13.6657 53.7766 13.6362 53.7015 13.5831 53.6444C13.5301 53.5874 13.4574 53.5525 13.3797 53.5468Z" fill="white"/>
<path d="M13.6761 40.9153C13.5947 40.9153 13.5166 40.9476 13.459 41.0052C13.4015 41.0627 13.3691 41.1408 13.3691 41.2222C13.3691 41.3036 13.4015 41.3817 13.459 41.4392C13.5166 41.4968 13.5947 41.5291 13.6761 41.5291C13.7574 41.5291 13.8355 41.4968 13.8931 41.4392C13.9506 41.3817 13.983 41.3036 13.983 41.2222C13.983 41.1408 13.9506 41.0627 13.8931 41.0052C13.8355 40.9476 13.7574 40.9153 13.6761 40.9153Z" fill="white"/>
</svg>
