<svg width="18" height="18" viewBox="0 0 18 18" fill="none" xmlns="http://www.w3.org/2000/svg">
<path d="M17.1291 1.0828C17.0178 0.981413 16.8853 0.906029 16.7413 0.862096C16.5973 0.818162 16.4453 0.806778 16.2964 0.828766C14.2972 1.0451 12.3471 1.58864 10.5242 2.43764C9.48859 3.01288 8.53852 3.73018 7.70164 4.56869C7.57193 4.70435 7.39516 4.78516 7.20769 4.79449C6.03897 4.9023 4.90268 5.23791 3.86293 5.78239C3.09114 6.17311 2.38232 6.67738 1.76011 7.27836C1.62816 7.41951 1.53736 7.59408 1.49756 7.78315C1.45775 7.97222 1.47046 8.16858 1.5343 8.35094C1.59528 8.53211 1.70545 8.69274 1.8525 8.81487C1.99955 8.93699 2.17768 9.0158 2.36697 9.04247L3.77826 9.24006C3.76994 9.38516 3.79201 9.5304 3.84304 9.66649C3.89407 9.80258 3.97295 9.92652 4.07463 10.0304L8.20971 14.1655C8.3132 14.2668 8.43746 14.3446 8.5739 14.3933C8.71034 14.442 8.85572 14.4606 9.00003 14.4477L9.19761 15.859C9.22457 16.0519 9.30493 16.2334 9.42962 16.3831C9.55432 16.5327 9.71837 16.6445 9.90326 16.7058H10.242C10.3791 16.7078 10.5152 16.6813 10.6416 16.6278C10.7679 16.5744 10.8818 16.4952 10.9758 16.3953C12.3936 14.9408 13.266 13.0415 13.4456 11.0183C13.4606 10.8253 13.546 10.6445 13.6855 10.5102C14.5967 9.55771 15.3796 8.49021 16.0141 7.33481C16.9039 5.63903 17.3871 3.75954 17.4254 1.84489C17.429 1.70456 17.4047 1.56491 17.3538 1.43407C17.3029 1.30323 17.2265 1.18383 17.1291 1.0828ZM14.9133 6.72796C14.3449 7.78988 13.6325 8.7682 12.7964 9.63522C12.4463 9.98218 12.2312 10.4425 12.1895 10.9336C12.1047 11.8439 11.8611 12.7323 11.4698 13.5586C11.1742 14.1501 10.8094 14.7043 10.3831 15.2098L10.1573 13.5304C10.1364 13.3981 10.0811 13.2737 9.99685 13.1697C9.91261 13.0656 9.80245 12.9856 9.67745 12.9376L9.21172 12.8247L8.92947 13.0788L5.13309 9.31062L5.40124 8.92957L5.06253 8.15336L3.00205 7.85699C3.43386 7.4837 3.90745 7.16167 4.41334 6.89731C5.29184 6.44068 6.25023 6.15795 7.23592 6.06465C7.72706 6.02303 8.18734 5.8079 8.5343 5.4578C9.30748 4.68188 10.1808 4.01266 11.1311 3.46788C12.7273 2.73929 14.427 2.26318 16.1694 2.05659C16.1091 3.69311 15.6797 5.29484 14.9133 6.74207V6.72796Z" fill="#5546FF"/>
<path d="M1.76012 13.8406C1.36988 14.759 1.03988 15.7019 0.77222 16.6632C0.751494 16.7337 0.750145 16.8085 0.768317 16.8798C0.786488 16.951 0.823509 17.016 0.875489 17.068C0.927469 17.12 0.992489 17.157 1.06372 17.1752C1.13495 17.1933 1.20976 17.192 1.28028 17.1713C2.41088 16.8854 3.51189 16.4932 4.56859 15.9999C4.869 15.8706 5.13346 15.6701 5.33922 15.4159C5.54498 15.1616 5.68586 14.8612 5.74974 14.5404C5.81361 14.2197 5.79857 13.8882 5.7059 13.5745C5.61324 13.2608 5.44572 12.9744 5.21778 12.7398C3.98996 11.5261 2.38109 12.514 1.76012 13.8406Z" fill="#5546FF"/>
</svg>
