<svg width="18" height="16" viewBox="0 0 18 16" fill="none" xmlns="http://www.w3.org/2000/svg">
<path d="M1.125 15.3127C1.04562 15.3132 0.967041 15.2969 0.894424 15.2648C0.821807 15.2328 0.756797 15.1857 0.703666 15.1267C0.650536 15.0678 0.610489 14.9982 0.586159 14.9226C0.561828 14.8471 0.553764 14.7672 0.562497 14.6883L0.995622 10.7508C1.01104 10.625 1.06852 10.508 1.15875 10.419L10.3612 1.21647C10.5284 1.04894 10.727 0.916033 10.9456 0.825349C11.1643 0.734666 11.3986 0.687988 11.6353 0.687988C11.872 0.687988 12.1063 0.734666 12.325 0.825349C12.5436 0.916033 12.7422 1.04894 12.9094 1.21647L14.6587 2.96584C14.8263 3.13303 14.9592 3.33162 15.0499 3.55024C15.1405 3.76886 15.1872 4.00322 15.1872 4.2399C15.1872 4.47659 15.1405 4.71095 15.0499 4.92957C14.9592 5.14819 14.8263 5.34678 14.6587 5.51397L5.46187 14.7108C5.37279 14.8011 5.25584 14.8585 5.13 14.874L1.1925 15.3071L1.125 15.3127ZM2.09812 11.0658L1.76062 14.1146L4.80937 13.7771L13.8656 4.72084C13.9285 4.65813 13.9785 4.58362 14.0125 4.50157C14.0466 4.41952 14.0642 4.33156 14.0642 4.24272C14.0642 4.15388 14.0466 4.06591 14.0125 3.98387C13.9785 3.90182 13.9285 3.8273 13.8656 3.76459L12.1106 2.00959C12.0479 1.94666 11.9734 1.89673 11.8913 1.86267C11.8093 1.8286 11.7213 1.81106 11.6325 1.81106C11.5437 1.81106 11.4557 1.8286 11.3736 1.86267C11.2916 1.89673 11.2171 1.94666 11.1544 2.00959L2.09812 11.0658Z" fill="#5546FF"/>
<path d="M12.9375 6.99349C12.8635 6.99392 12.7901 6.97973 12.7216 6.95174C12.653 6.92375 12.5907 6.8825 12.5381 6.83037L9.045 3.32599C8.99256 3.27355 8.95095 3.21128 8.92257 3.14276C8.89419 3.07423 8.87958 3.00079 8.87958 2.92662C8.87958 2.85245 8.89419 2.779 8.92257 2.71048C8.95095 2.64195 8.99256 2.57969 9.045 2.52724C9.09745 2.4748 9.15971 2.43319 9.22824 2.40481C9.29676 2.37643 9.37021 2.36182 9.44438 2.36182C9.51855 2.36182 9.59199 2.37643 9.66052 2.40481C9.72904 2.43319 9.79131 2.4748 9.84375 2.52724L13.3481 6.03162C13.4009 6.08391 13.4427 6.14612 13.4713 6.21467C13.4998 6.28322 13.5145 6.35674 13.5145 6.43099C13.5145 6.50525 13.4998 6.57877 13.4713 6.64732C13.4427 6.71586 13.4009 6.77808 13.3481 6.83037C13.2942 6.88387 13.2301 6.9259 13.1595 6.95394C13.0889 6.98197 13.0134 6.99543 12.9375 6.99349Z" fill="#5546FF"/>
<path d="M9.0479 6.0334L4.6687 10.4126L5.4642 11.2081L9.8434 6.82889L9.0479 6.0334Z" fill="#5546FF"/>
<path d="M16.875 15.3125H7.875C7.72582 15.3125 7.58274 15.2532 7.47725 15.1477C7.37176 15.0423 7.3125 14.8992 7.3125 14.75C7.3125 14.6008 7.37176 14.4577 7.47725 14.3523C7.58274 14.2468 7.72582 14.1875 7.875 14.1875H16.875C17.0242 14.1875 17.1673 14.2468 17.2727 14.3523C17.3782 14.4577 17.4375 14.6008 17.4375 14.75C17.4375 14.8992 17.3782 15.0423 17.2727 15.1477C17.1673 15.2532 17.0242 15.3125 16.875 15.3125Z" fill="#5546FF"/>
</svg>
