<svg width="8" height="8" viewBox="0 0 8 8" fill="none" xmlns="http://www.w3.org/2000/svg">
<path d="M7.61173 0.394233C7.5587 0.341093 7.49571 0.298933 7.42637 0.270167C7.35703 0.241401 7.28269 0.226595 7.20762 0.226595C7.13254 0.226595 7.05821 0.241401 6.98887 0.270167C6.91952 0.298933 6.85653 0.341093 6.80351 0.394233L4.00016 3.19181L1.19681 0.388458C1.14374 0.335389 1.08073 0.293293 1.0114 0.264572C0.942059 0.235852 0.867743 0.221069 0.792693 0.221069C0.717642 0.221069 0.643326 0.235852 0.573989 0.264572C0.504651 0.293293 0.441649 0.335389 0.38858 0.388458C0.281403 0.495636 0.221191 0.640999 0.221191 0.792571C0.221191 0.944142 0.281403 1.08951 0.38858 1.19668L3.19193 4.00003L0.38858 6.80311C0.281403 6.91029 0.221191 7.05565 0.221191 7.20722C0.221191 7.35879 0.281403 7.50416 0.38858 7.61133C0.495758 7.71851 0.641121 7.77872 0.792693 7.77872C0.944264 7.77872 1.08963 7.71851 1.19681 7.61133L4.00016 4.80826L6.80323 7.61161C6.91041 7.71879 7.05577 7.779 7.20734 7.779C7.35891 7.779 7.50428 7.71879 7.61146 7.61161C7.71863 7.50443 7.77884 7.35907 7.77884 7.2075C7.77884 7.05592 7.71863 6.91056 7.61146 6.80338L4.80838 4.00003L7.61173 1.19668C7.71645 1.08938 7.77506 0.945389 7.77506 0.795458C7.77506 0.645527 7.71645 0.501537 7.61173 0.394233Z" fill="#2679FF"/>
</svg>
