<svg width="10" height="10" viewBox="0 0 10 10" fill="none" xmlns="http://www.w3.org/2000/svg">
<path d="M5.00003 1.75537C5.28053 1.75537 5.55953 1.93237 5.77203 2.28637L8.72802 7.21337C9.15352 7.92087 8.82502 8.49987 8.00002 8.49987H2.00003C1.17503 8.49987 0.846526 7.92037 1.27203 7.21337L4.22803 2.28637C4.44053 1.93237 4.71953 1.75537 5.00003 1.75537ZM5.00003 0.755371C4.35203 0.755371 3.75903 1.12537 3.37053 1.77087L0.414526 6.69887C0.021526 7.35337 -0.021474 8.05137 0.297026 8.61387C0.615526 9.17637 1.23653 9.49987 2.00003 9.49987H8.00002C8.76353 9.49987 9.38503 9.17687 9.70302 8.61437C10.021 8.05187 9.97852 7.35387 9.58552 6.69937L6.62952 1.77237C6.24102 1.12537 5.64803 0.755371 5.00003 0.755371Z" fill="#000000"/>
<path d="M4.99998 7.64985C5.35896 7.64985 5.64998 7.35884 5.64998 6.99985C5.64998 6.64087 5.35896 6.34985 4.99998 6.34985C4.64099 6.34985 4.34998 6.64087 4.34998 6.99985C4.34998 7.35884 4.64099 7.64985 4.99998 7.64985Z" fill="#000000"/>
<path d="M5.75 4C5.75 3.585 5.4145 3.25 5 3.25C4.5855 3.25 4.25 3.585 4.25 4C4.25 4.0995 4.2705 4.1945 4.3055 4.281C4.5825 4.969 5 6 5 6C5 6 5.4175 4.969 5.6955 4.281C5.7295 4.1945 5.75 4.0995 5.75 4Z" fill="#000000"/>
</svg>
