<svg width="84" height="94" viewBox="0 0 84 94" fill="none" xmlns="http://www.w3.org/2000/svg">
<path d="M42 1C48.2639 6.9627 64.3025 12.9866 83 25.7638C83 25.7638 81.8329 68.938 42 92.5394V1Z" fill="black" stroke="black" stroke-linecap="round" stroke-linejoin="round"/>
<path d="M42.0006 4.67529C34.4378 10.0356 21.3312 15.1465 4.00781 26.9825C4.00781 26.9825 5.09023 66.9847 42.0006 88.8636C78.9109 66.9942 79.9933 26.9825 79.9933 26.9825C62.6653 15.1512 49.6198 10.0356 42.0006 4.67529Z" fill="black" stroke="black" stroke-linecap="round" stroke-linejoin="round"/>
<path d="M73.5173 22.7329C47.0875 30.7334 26.9264 53.9582 17.7588 66.2083C24.0649 75.4595 32.3441 83.1971 42.0002 88.8638C78.9105 66.9943 79.9929 26.9826 79.9929 26.9826C77.7622 25.464 75.6037 24.0475 73.5173 22.7329Z" fill="#5546FF" stroke="black" stroke-linecap="round" stroke-linejoin="round"/>
<path d="M56.3919 45.0119H28.0562C27.4321 45.0119 26.8336 44.7639 26.3923 44.3227C25.951 43.8814 25.7031 43.2829 25.7031 42.6588V29.3215C25.7762 24.9907 27.548 20.8619 30.6366 17.8251C33.7251 14.7882 37.8832 13.0864 42.2147 13.0864C46.5461 13.0864 50.7042 14.7882 53.7928 17.8251C56.8813 20.8619 58.6531 24.9907 58.7262 29.3215V42.6588C58.7262 43.2796 58.4809 43.8753 58.0437 44.316C57.6064 44.7568 57.0127 45.0069 56.3919 45.0119ZM30.4281 40.3057H54.0389V29.3215C53.9772 26.2314 52.7063 23.2886 50.4991 21.125C48.2918 18.9614 45.3243 17.7495 42.2335 17.7495C39.1427 17.7495 36.1751 18.9614 33.9679 21.125C31.7607 23.2886 30.4898 26.2314 30.4281 29.3215V40.3057Z" fill="white" stroke="black" stroke-linecap="round" stroke-linejoin="round"/>
<path d="M60.0247 38.5835H23.9756V69.0464H60.0247V38.5835Z" fill="white" stroke="black" stroke-linecap="round" stroke-linejoin="round"/>
<path d="M45.7463 51.2335C45.7463 50.5397 45.5624 49.8583 45.2134 49.2588C44.8643 48.6592 44.3626 48.1629 43.7593 47.8204C43.156 47.4778 42.4727 47.3013 41.7789 47.3088C41.0852 47.3163 40.4059 47.5076 39.8101 47.8631C39.2144 48.2186 38.7235 48.7257 38.3875 49.3327C38.0515 49.9396 37.8824 50.6248 37.8974 51.3184C37.9124 52.012 38.111 52.6893 38.4729 53.2811C38.8349 53.873 39.3472 54.3584 39.9578 54.6878L39.2989 61.6058H44.3439L43.6851 54.6878C44.309 54.3523 44.8302 53.8539 45.1932 53.2456C45.5562 52.6373 45.7474 51.9419 45.7463 51.2335Z" fill="black" stroke="black" stroke-linecap="round" stroke-linejoin="round"/>
<path d="M42 1C35.7314 6.9627 19.6975 12.9866 1 25.7638C1 25.7638 2.16713 68.938 42 92.5394V1Z" fill="url(#paint0_linear_20_5199)" stroke="black" stroke-linecap="round" stroke-linejoin="round"/>
<path d="M42 1C48.2639 6.9627 64.3025 12.9866 83 25.7638C83 25.7638 81.8329 68.938 42 92.5394V1Z" fill="black" stroke="black" stroke-linecap="round" stroke-linejoin="round"/>
<path d="M42.0006 4.67529C34.4378 10.0356 21.3312 15.1465 4.00781 26.9825C4.00781 26.9825 5.09023 66.9847 42.0006 88.8636C78.9109 66.9942 79.9933 26.9825 79.9933 26.9825C62.6653 15.1512 49.6198 10.0356 42.0006 4.67529Z" fill="black" stroke="black" stroke-linecap="round" stroke-linejoin="round"/>
<path d="M73.5173 22.7329C47.0875 30.7334 26.9264 53.9582 17.7588 66.2083C24.0649 75.4595 32.3441 83.1971 42.0002 88.8638C78.9105 66.9943 79.9929 26.9826 79.9929 26.9826C77.7622 25.464 75.6037 24.0475 73.5173 22.7329Z" fill="url(#paint1_linear_20_5199)" stroke="black" stroke-linecap="round" stroke-linejoin="round"/>
<path d="M56.3919 45.0119H28.0562C27.4321 45.0119 26.8336 44.7639 26.3923 44.3227C25.951 43.8814 25.7031 43.2829 25.7031 42.6588V29.3215C25.7762 24.9907 27.548 20.8619 30.6366 17.8251C33.7251 14.7882 37.8832 13.0864 42.2147 13.0864C46.5461 13.0864 50.7042 14.7882 53.7928 17.8251C56.8813 20.8619 58.6531 24.9907 58.7262 29.3215V42.6588C58.7262 43.2796 58.4809 43.8753 58.0437 44.316C57.6064 44.7568 57.0127 45.0069 56.3919 45.0119ZM30.4281 40.3057H54.0389V29.3215C53.9772 26.2314 52.7063 23.2886 50.4991 21.125C48.2918 18.9614 45.3243 17.7495 42.2335 17.7495C39.1427 17.7495 36.1751 18.9614 33.9679 21.125C31.7607 23.2886 30.4898 26.2314 30.4281 29.3215V40.3057Z" fill="white" stroke="black" stroke-linecap="round" stroke-linejoin="round"/>
<path d="M60.0247 38.5835H23.9756V69.0464H60.0247V38.5835Z" fill="white" stroke="black" stroke-linecap="round" stroke-linejoin="round"/>
<path d="M45.7463 51.2335C45.7463 50.5397 45.5624 49.8583 45.2134 49.2588C44.8643 48.6592 44.3626 48.1629 43.7593 47.8204C43.156 47.4778 42.4727 47.3013 41.7789 47.3088C41.0852 47.3163 40.4059 47.5076 39.8101 47.8631C39.2144 48.2186 38.7235 48.7257 38.3875 49.3327C38.0515 49.9396 37.8824 50.6248 37.8974 51.3184C37.9124 52.012 38.111 52.6893 38.4729 53.2811C38.8349 53.873 39.3472 54.3584 39.9578 54.6878L39.2989 61.6058H44.3439L43.6851 54.6878C44.309 54.3523 44.8302 53.8539 45.1932 53.2456C45.5562 52.6373 45.7474 51.9419 45.7463 51.2335Z" fill="black" stroke="black" stroke-linecap="round" stroke-linejoin="round"/>
<path d="M42 1C48.2639 6.9627 64.3025 12.9866 83 25.7638C83 25.7638 81.8329 68.938 42 92.5394V1Z" fill="#2A2D3C" stroke="black" stroke-linecap="round" stroke-linejoin="round"/>
<path d="M42.0006 4.67529C34.4378 10.0356 21.3312 15.1465 4.00781 26.9825C4.00781 26.9825 5.09023 66.9847 42.0006 88.8636C78.9109 66.9942 79.9933 26.9825 79.9933 26.9825C62.6653 15.1512 49.6198 10.0356 42.0006 4.67529Z" fill="#2A2D3C" stroke="black" stroke-linecap="round" stroke-linejoin="round"/>
<path d="M52.4022 45.0479H31.9458C31.4953 45.0479 31.0632 44.8689 30.7446 44.5503C30.426 44.2318 30.2471 43.7997 30.2471 43.3491V33.7206C30.2999 30.594 31.5789 27.6134 33.8087 25.421C36.0384 23.2286 39.0402 22 42.1672 22C45.2942 22 48.2961 23.2286 50.5258 25.421C52.7555 27.6134 54.0346 30.594 54.0874 33.7206V43.3491C54.0874 43.7973 53.9103 44.2274 53.5946 44.5456C53.279 44.8637 52.8504 45.0443 52.4022 45.0479ZM33.6582 41.6504H50.7035V33.7206C50.6589 31.4897 49.7414 29.3652 48.148 27.8033C46.5545 26.2413 44.4121 25.3664 42.1808 25.3664C39.9495 25.3664 37.8071 26.2413 36.2137 27.8033C34.6202 29.3652 33.7027 31.4897 33.6582 33.7206V41.6504Z" fill="url(#paint2_linear_20_5199)" stroke="black" stroke-linecap="round" stroke-linejoin="round"/>
<path d="M55.0249 40.4072H29V62.3993H55.0249V40.4072Z" fill="url(#paint3_linear_20_5199)" stroke="black" stroke-linecap="round" stroke-linejoin="round"/>
<path d="M44.7173 49.5395C44.7173 49.0387 44.5846 48.5468 44.3326 48.114C44.0806 47.6811 43.7184 47.3228 43.2828 47.0755C42.8473 46.8282 42.354 46.7008 41.8531 46.7062C41.3523 46.7116 40.8619 46.8497 40.4318 47.1064C40.0017 47.363 39.6473 47.7291 39.4048 48.1673C39.1622 48.6055 39.0401 49.1001 39.051 49.6009C39.0618 50.1016 39.2052 50.5905 39.4664 51.0178C39.7277 51.4451 40.0976 51.7955 40.5384 52.0333L40.0627 57.0276H43.7049L43.2292 52.0333C43.6797 51.7911 44.0559 51.4313 44.318 50.9921C44.5801 50.553 44.7181 50.0509 44.7173 49.5395Z" fill="black" stroke="black" stroke-linecap="round" stroke-linejoin="round"/>
<defs>
<linearGradient id="paint0_linear_20_5199" x1="21.5" y1="1" x2="21.5" y2="92.5394" gradientUnits="userSpaceOnUse">
<stop stop-color="#8CDCFF"/>
<stop offset="0.270833" stop-color="#5EEF77"/>
<stop offset="0.786458" stop-color="#FEBF32"/>
<stop offset="1" stop-color="#FFB76A"/>
</linearGradient>
<linearGradient id="paint1_linear_20_5199" x1="48.8759" y1="22.7329" x2="48.8759" y2="88.8638" gradientUnits="userSpaceOnUse">
<stop stop-color="#8CDCFF"/>
<stop offset="0.270833" stop-color="#5EEF77"/>
<stop offset="0.786458" stop-color="#FEBF32"/>
<stop offset="1" stop-color="#FFB76A"/>
</linearGradient>
<linearGradient id="paint2_linear_20_5199" x1="34.2094" y1="35.1975" x2="50.125" y2="35.1975" gradientUnits="userSpaceOnUse">
<stop stop-color="#8CDCFF"/>
<stop offset="0.270833" stop-color="#5EEF77"/>
<stop offset="0.786458" stop-color="#FEBF32"/>
<stop offset="1" stop-color="#FFB76A"/>
</linearGradient>
<linearGradient id="paint3_linear_20_5199" x1="33.3255" y1="53.0001" x2="50.6994" y2="53.0001" gradientUnits="userSpaceOnUse">
<stop stop-color="#8CDCFF"/>
<stop offset="0.270833" stop-color="#5EEF77"/>
<stop offset="0.786458" stop-color="#FEBF32"/>
<stop offset="1" stop-color="#FFB76A"/>
</linearGradient>
</defs>
</svg>
