<svg width="84" height="94" viewBox="0 0 84 94" fill="none" xmlns="http://www.w3.org/2000/svg">
<path d="M42 1C35.7314 6.9627 19.6975 12.9866 1 25.7638C1 25.7638 2.16713 68.938 42 92.5394V1Z" fill="#5546FF" stroke="black" stroke-linecap="round" stroke-linejoin="round"/>
<path d="M42 1C48.2639 6.9627 64.3025 12.9866 83 25.7638C83 25.7638 81.8329 68.938 42 92.5394V1Z" fill="black" stroke="black" stroke-linecap="round" stroke-linejoin="round"/>
<path d="M42.0001 4.67554C34.4373 10.0358 21.3307 15.1467 4.00732 26.9827C4.00732 26.9827 5.08974 66.985 42.0001 88.8639C78.9104 66.9944 79.9929 26.9827 79.9929 26.9827C62.6648 15.1514 49.6194 10.0358 42.0001 4.67554Z" fill="black" stroke="black" stroke-linecap="round" stroke-linejoin="round"/>
<path d="M73.5173 22.7332C47.0875 30.7336 26.9263 53.9585 17.7588 66.2086C24.0649 75.4598 32.3441 83.1973 42.0002 88.864C78.9105 66.9945 79.9929 26.9828 79.9929 26.9828C77.7622 25.4643 75.6037 24.0477 73.5173 22.7332Z" fill="#5546FF" stroke="black" stroke-linecap="round" stroke-linejoin="round"/>
<path d="M56.3915 45.0119H28.0558C27.4317 45.0119 26.8332 44.7639 26.3919 44.3227C25.9506 43.8814 25.7027 43.2829 25.7027 42.6588V29.3215C25.7758 24.9907 27.5476 20.8619 30.6361 17.8251C33.7247 14.7882 37.8828 13.0864 42.2142 13.0864C46.5457 13.0864 50.7038 14.7882 53.7923 17.8251C56.8809 20.8619 58.6527 24.9907 58.7258 29.3215V42.6588C58.7258 43.2796 58.4805 43.8753 58.0432 44.316C57.606 44.7568 57.0123 45.0069 56.3915 45.0119ZM30.4277 40.3057H54.0384V29.3215C53.9767 26.2314 52.7058 23.2886 50.4986 21.125C48.2914 18.9614 45.3238 17.7495 42.2331 17.7495C39.1423 17.7495 36.1747 18.9614 33.9675 21.125C31.7603 23.2886 30.4894 26.2314 30.4277 29.3215V40.3057Z" fill="white" stroke="black" stroke-linecap="round" stroke-linejoin="round"/>
<path d="M60.0245 38.5833H23.9753V69.0462H60.0245V38.5833Z" fill="white" stroke="black" stroke-linecap="round" stroke-linejoin="round"/>
<path d="M45.7461 51.2335C45.7461 50.5397 45.5622 49.8583 45.2132 49.2588C44.8641 48.6592 44.3624 48.1629 43.7591 47.8204C43.1558 47.4778 42.4724 47.3013 41.7787 47.3088C41.085 47.3163 40.4056 47.5076 39.8099 47.8631C39.2141 48.2186 38.7233 48.7257 38.3873 49.3327C38.0513 49.9396 37.8822 50.6248 37.8972 51.3184C37.9122 52.012 38.1108 52.6893 38.4727 53.2811C38.8346 53.873 39.347 54.3584 39.9575 54.6878L39.2987 61.6058H44.3437L43.6848 54.6878C44.3087 54.3523 44.83 53.8539 45.193 53.2456C45.556 52.6373 45.7471 51.9419 45.7461 51.2335Z" fill="black" stroke="black" stroke-linecap="round" stroke-linejoin="round"/>
</svg>
