<svg width="84" height="94" viewBox="0 0 84 94" fill="none" xmlns="http://www.w3.org/2000/svg">
<path d="M42 1C35.7314 6.9627 19.6975 12.9866 1 25.7638C1 25.7638 2.16713 68.938 42 92.5394V1Z" fill="#5546FF" stroke="black" stroke-linecap="round" stroke-linejoin="round"/>
<path d="M42 1C48.2639 6.9627 64.3025 12.9866 83 25.7638C83 25.7638 81.8329 68.938 42 92.5394V1Z" fill="black" stroke="black" stroke-linecap="round" stroke-linejoin="round"/>
<path d="M42.0001 4.67554C34.4373 10.0358 21.3307 15.1467 4.00732 26.9827C4.00732 26.9827 5.08974 66.985 42.0001 88.8639C78.9104 66.9944 79.9929 26.9827 79.9929 26.9827C62.6648 15.1514 49.6194 10.0358 42.0001 4.67554Z" fill="black" stroke="black" stroke-linecap="round" stroke-linejoin="round"/>
<path d="M73.5173 22.7332C47.0875 30.7336 26.9264 53.9585 17.7588 66.2086C24.0649 75.4598 32.3441 83.1973 42.0002 88.864C78.9105 66.9945 79.9929 26.9828 79.9929 26.9828C77.7622 25.4643 75.6037 24.0477 73.5173 22.7332Z" fill="#5546FF" stroke="black" stroke-linecap="round" stroke-linejoin="round"/>
<path d="M56.3915 45.0119H28.0557C27.4316 45.0119 26.8331 44.7639 26.3918 44.3227C25.9505 43.8814 25.7026 43.2829 25.7026 42.6588V29.3215C25.7758 24.9907 27.5475 20.8619 30.6361 17.8251C33.7246 14.7882 37.8827 13.0864 42.2142 13.0864C46.5456 13.0864 50.7037 14.7882 53.7923 17.8251C56.8808 20.8619 58.6526 24.9907 58.7257 29.3215V42.6588C58.7257 43.2796 58.4804 43.8753 58.0432 44.316C57.6059 44.7568 57.0123 45.0069 56.3915 45.0119ZM30.4276 40.3057H54.0384V29.3215C53.9767 26.2314 52.7058 23.2886 50.4986 21.125C48.2913 18.9614 45.3238 17.7495 42.233 17.7495C39.1422 17.7495 36.1746 18.9614 33.9674 21.125C31.7602 23.2886 30.4893 26.2314 30.4276 29.3215V40.3057Z" fill="white" stroke="black" stroke-linecap="round" stroke-linejoin="round"/>
<path d="M60.0245 38.5833H23.9753V69.0462H60.0245V38.5833Z" fill="white" stroke="black" stroke-linecap="round" stroke-linejoin="round"/>
<path d="M45.7461 51.2335C45.7461 50.5397 45.5622 49.8583 45.2131 49.2588C44.8641 48.6592 44.3624 48.1629 43.759 47.8204C43.1557 47.4778 42.4724 47.3013 41.7787 47.3088C41.085 47.3163 40.4056 47.5076 39.8099 47.8631C39.2141 48.2186 38.7232 48.7257 38.3872 49.3327C38.0513 49.9396 37.8822 50.6248 37.8972 51.3184C37.9122 52.012 38.1107 52.6893 38.4727 53.2811C38.8346 53.873 39.347 54.3584 39.9575 54.6878L39.2987 61.6058H44.3437L43.6848 54.6878C44.3087 54.3523 44.83 53.8539 45.193 53.2456C45.556 52.6373 45.7471 51.9419 45.7461 51.2335Z" fill="black" stroke="black" stroke-linecap="round" stroke-linejoin="round"/>
<path d="M42 1C35.7314 6.9627 19.6975 12.9866 1 25.7638C1 25.7638 2.16713 68.938 42 92.5394V1Z" fill="#5546FF" stroke="black" stroke-linecap="round" stroke-linejoin="round"/>
<path d="M42 1C48.2639 6.9627 64.3025 12.9866 83 25.7638C83 25.7638 81.8329 68.938 42 92.5394V1Z" fill="black" stroke="black" stroke-linecap="round" stroke-linejoin="round"/>
<path d="M42.0001 4.67554C34.4373 10.0358 21.3307 15.1467 4.00732 26.9827C4.00732 26.9827 5.08974 66.985 42.0001 88.8639C78.9104 66.9944 79.9929 26.9827 79.9929 26.9827C62.6648 15.1514 49.6194 10.0358 42.0001 4.67554Z" fill="black" stroke="black" stroke-linecap="round" stroke-linejoin="round"/>
<path d="M73.5173 22.7332C47.0875 30.7336 26.9264 53.9585 17.7588 66.2086C24.0649 75.4598 32.3441 83.1973 42.0002 88.864C78.9105 66.9945 79.9929 26.9828 79.9929 26.9828C77.7622 25.4643 75.6037 24.0477 73.5173 22.7332Z" fill="#5546FF" stroke="black" stroke-linecap="round" stroke-linejoin="round"/>
<path d="M56.3915 45.0119H28.0557C27.4316 45.0119 26.8331 44.7639 26.3918 44.3227C25.9505 43.8814 25.7026 43.2829 25.7026 42.6588V29.3215C25.7758 24.9907 27.5475 20.8619 30.6361 17.8251C33.7246 14.7882 37.8827 13.0864 42.2142 13.0864C46.5456 13.0864 50.7037 14.7882 53.7923 17.8251C56.8808 20.8619 58.6526 24.9907 58.7257 29.3215V42.6588C58.7257 43.2796 58.4804 43.8753 58.0432 44.316C57.6059 44.7568 57.0123 45.0069 56.3915 45.0119ZM30.4276 40.3057H54.0384V29.3215C53.9767 26.2314 52.7058 23.2886 50.4986 21.125C48.2913 18.9614 45.3238 17.7495 42.233 17.7495C39.1422 17.7495 36.1746 18.9614 33.9674 21.125C31.7602 23.2886 30.4893 26.2314 30.4276 29.3215V40.3057Z" fill="white" stroke="black" stroke-linecap="round" stroke-linejoin="round"/>
<path d="M60.0245 38.5833H23.9753V69.0462H60.0245V38.5833Z" fill="white" stroke="black" stroke-linecap="round" stroke-linejoin="round"/>
<path d="M45.7461 51.2335C45.7461 50.5397 45.5622 49.8583 45.2131 49.2588C44.8641 48.6592 44.3624 48.1629 43.759 47.8204C43.1557 47.4778 42.4724 47.3013 41.7787 47.3088C41.085 47.3163 40.4056 47.5076 39.8099 47.8631C39.2141 48.2186 38.7232 48.7257 38.3872 49.3327C38.0513 49.9396 37.8822 50.6248 37.8972 51.3184C37.9122 52.012 38.1107 52.6893 38.4727 53.2811C38.8346 53.873 39.347 54.3584 39.9575 54.6878L39.2987 61.6058H44.3437L43.6848 54.6878C44.3087 54.3523 44.83 53.8539 45.193 53.2456C45.556 52.6373 45.7471 51.9419 45.7461 51.2335Z" fill="black" stroke="black" stroke-linecap="round" stroke-linejoin="round"/>
<path d="M42 1C35.7314 6.9627 19.6975 12.9866 1 25.7638C1 25.7638 2.16713 68.938 42 92.5394V1Z" fill="#5546FF" stroke="black" stroke-linecap="round" stroke-linejoin="round"/>
<path d="M42 1C48.2639 6.9627 64.3025 12.9866 83 25.7638C83 25.7638 81.8329 68.938 42 92.5394V1Z" fill="black" stroke="black" stroke-linecap="round" stroke-linejoin="round"/>
<path d="M42.0001 4.67554C34.4373 10.0358 21.3307 15.1467 4.00732 26.9827C4.00732 26.9827 5.08974 66.985 42.0001 88.8639C78.9104 66.9944 79.9929 26.9827 79.9929 26.9827C62.6648 15.1514 49.6194 10.0358 42.0001 4.67554Z" fill="black" stroke="black" stroke-linecap="round" stroke-linejoin="round"/>
<path d="M73.5173 22.7332C47.0875 30.7336 26.9264 53.9585 17.7588 66.2086C24.0649 75.4598 32.3441 83.1973 42.0002 88.864C78.9105 66.9945 79.9929 26.9828 79.9929 26.9828C77.7622 25.4643 75.6037 24.0477 73.5173 22.7332Z" fill="#5546FF" stroke="black" stroke-linecap="round" stroke-linejoin="round"/>
<path d="M20.249 54.124H62.7495V58.3745H20.249V54.124ZM22.6922 45.5177L24.4995 42.3733L26.3052 45.5177L29.0672 43.924L27.2615 40.7795H30.8745V37.592H27.2615L29.0688 34.4683L26.3052 32.8745L24.4995 35.9983L22.6938 32.8745L19.9302 34.4683L21.7375 37.592H18.1245V40.7795H21.7375L19.9302 43.924L22.6922 45.5177ZM36.9292 43.924L39.6911 45.5177L41.4969 42.3733L43.3058 45.5177L46.0677 43.924L44.262 40.7795H47.875V37.592H44.262L46.0677 34.4683L43.3058 32.8745L41.5 35.9983L39.6927 32.8745L36.9308 34.4683L38.7365 37.592H35.125V40.7795H38.7381L36.9292 43.924ZM64.874 37.592H61.2625L63.0683 34.4683L60.3063 32.8745L58.499 35.9983L56.6933 32.8745L53.9313 34.4683L55.737 37.592H52.124V40.7795H55.737L53.9313 43.924L56.6933 45.5177L58.499 42.3733L60.3047 45.5177L63.0667 43.924L61.2625 40.7795H64.8756L64.874 37.592Z" fill="white"/>
</svg>
