<svg width="84" height="94" viewBox="0 0 84 94" fill="none" xmlns="http://www.w3.org/2000/svg">
<path d="M42 1C48.2639 6.9627 64.3025 12.9866 83 25.7638C83 25.7638 81.8329 68.938 42 92.5394V1Z" fill="black" stroke="black" stroke-linecap="round" stroke-linejoin="round"/>
<path d="M42.0006 4.67529C34.4378 10.0356 21.3312 15.1465 4.00781 26.9825C4.00781 26.9825 5.09023 66.9847 42.0006 88.8636C78.9109 66.9942 79.9933 26.9825 79.9933 26.9825C62.6653 15.1512 49.6198 10.0356 42.0006 4.67529Z" fill="black" stroke="black" stroke-linecap="round" stroke-linejoin="round"/>
<path d="M73.5173 22.7329C47.0875 30.7334 26.9264 53.9582 17.7588 66.2083C24.0649 75.4595 32.3441 83.1971 42.0002 88.8638C78.9105 66.9943 79.9929 26.9826 79.9929 26.9826C77.7622 25.464 75.6037 24.0475 73.5173 22.7329Z" fill="#5546FF" stroke="black" stroke-linecap="round" stroke-linejoin="round"/>
<path d="M56.3919 45.0119H28.0562C27.4321 45.0119 26.8336 44.7639 26.3923 44.3227C25.951 43.8814 25.7031 43.2829 25.7031 42.6588V29.3215C25.7762 24.9907 27.548 20.8619 30.6366 17.8251C33.7251 14.7882 37.8832 13.0864 42.2147 13.0864C46.5461 13.0864 50.7042 14.7882 53.7928 17.8251C56.8813 20.8619 58.6531 24.9907 58.7262 29.3215V42.6588C58.7262 43.2796 58.4809 43.8753 58.0437 44.316C57.6064 44.7568 57.0127 45.0069 56.3919 45.0119ZM30.4281 40.3057H54.0389V29.3215C53.9772 26.2314 52.7063 23.2886 50.4991 21.125C48.2918 18.9614 45.3243 17.7495 42.2335 17.7495C39.1427 17.7495 36.1751 18.9614 33.9679 21.125C31.7607 23.2886 30.4898 26.2314 30.4281 29.3215V40.3057Z" fill="white" stroke="black" stroke-linecap="round" stroke-linejoin="round"/>
<path d="M60.0247 38.5835H23.9756V69.0464H60.0247V38.5835Z" fill="white" stroke="black" stroke-linecap="round" stroke-linejoin="round"/>
<path d="M45.7463 51.2335C45.7463 50.5397 45.5624 49.8583 45.2134 49.2588C44.8643 48.6592 44.3626 48.1629 43.7593 47.8204C43.156 47.4778 42.4727 47.3013 41.7789 47.3088C41.0852 47.3163 40.4059 47.5076 39.8101 47.8631C39.2144 48.2186 38.7235 48.7257 38.3875 49.3327C38.0515 49.9396 37.8824 50.6248 37.8974 51.3184C37.9124 52.012 38.111 52.6893 38.4729 53.2811C38.8349 53.873 39.3472 54.3584 39.9578 54.6878L39.2989 61.6058H44.3439L43.6851 54.6878C44.309 54.3523 44.8302 53.8539 45.1932 53.2456C45.5562 52.6373 45.7474 51.9419 45.7463 51.2335Z" fill="black" stroke="black" stroke-linecap="round" stroke-linejoin="round"/>
<path d="M42 1C35.7314 6.9627 19.6975 12.9866 1 25.7638C1 25.7638 2.16713 68.938 42 92.5394V1Z" fill="url(#paint0_linear_17_21302)" stroke="black" stroke-linecap="round" stroke-linejoin="round"/>
<path d="M42 1C48.2639 6.9627 64.3025 12.9866 83 25.7638C83 25.7638 81.8329 68.938 42 92.5394V1Z" fill="black" stroke="black" stroke-linecap="round" stroke-linejoin="round"/>
<path d="M42.0006 4.67529C34.4378 10.0356 21.3312 15.1465 4.00781 26.9825C4.00781 26.9825 5.09023 66.9847 42.0006 88.8636C78.9109 66.9942 79.9933 26.9825 79.9933 26.9825C62.6653 15.1512 49.6198 10.0356 42.0006 4.67529Z" fill="black" stroke="black" stroke-linecap="round" stroke-linejoin="round"/>
<path d="M73.5173 22.7329C47.0875 30.7334 26.9264 53.9582 17.7588 66.2083C24.0649 75.4595 32.3441 83.1971 42.0002 88.8638C78.9105 66.9943 79.9929 26.9826 79.9929 26.9826C77.7622 25.464 75.6037 24.0475 73.5173 22.7329Z" fill="url(#paint1_linear_17_21302)" stroke="black" stroke-linecap="round" stroke-linejoin="round"/>
<path d="M56.3919 45.0119H28.0562C27.4321 45.0119 26.8336 44.7639 26.3923 44.3227C25.951 43.8814 25.7031 43.2829 25.7031 42.6588V29.3215C25.7762 24.9907 27.548 20.8619 30.6366 17.8251C33.7251 14.7882 37.8832 13.0864 42.2147 13.0864C46.5461 13.0864 50.7042 14.7882 53.7928 17.8251C56.8813 20.8619 58.6531 24.9907 58.7262 29.3215V42.6588C58.7262 43.2796 58.4809 43.8753 58.0437 44.316C57.6064 44.7568 57.0127 45.0069 56.3919 45.0119ZM30.4281 40.3057H54.0389V29.3215C53.9772 26.2314 52.7063 23.2886 50.4991 21.125C48.2918 18.9614 45.3243 17.7495 42.2335 17.7495C39.1427 17.7495 36.1751 18.9614 33.9679 21.125C31.7607 23.2886 30.4898 26.2314 30.4281 29.3215V40.3057Z" fill="white" stroke="black" stroke-linecap="round" stroke-linejoin="round"/>
<path d="M60.0247 38.5835H23.9756V69.0464H60.0247V38.5835Z" fill="white" stroke="black" stroke-linecap="round" stroke-linejoin="round"/>
<path d="M45.7463 51.2335C45.7463 50.5397 45.5624 49.8583 45.2134 49.2588C44.8643 48.6592 44.3626 48.1629 43.7593 47.8204C43.156 47.4778 42.4727 47.3013 41.7789 47.3088C41.0852 47.3163 40.4059 47.5076 39.8101 47.8631C39.2144 48.2186 38.7235 48.7257 38.3875 49.3327C38.0515 49.9396 37.8824 50.6248 37.8974 51.3184C37.9124 52.012 38.111 52.6893 38.4729 53.2811C38.8349 53.873 39.3472 54.3584 39.9578 54.6878L39.2989 61.6058H44.3439L43.6851 54.6878C44.309 54.3523 44.8302 53.8539 45.1932 53.2456C45.5562 52.6373 45.7474 51.9419 45.7463 51.2335Z" fill="black" stroke="black" stroke-linecap="round" stroke-linejoin="round"/>
<path d="M42 1C48.2639 6.9627 64.3025 12.9866 83 25.7638C83 25.7638 81.8329 68.938 42 92.5394V1Z" fill="#2A2D3C" stroke="black" stroke-linecap="round" stroke-linejoin="round"/>
<path d="M42.0006 4.67529C34.4378 10.0356 21.3312 15.1465 4.00781 26.9825C4.00781 26.9825 5.09023 66.9847 42.0006 88.8636C78.9109 66.9942 79.9933 26.9825 79.9933 26.9825C62.6653 15.1512 49.6198 10.0356 42.0006 4.67529Z" fill="#2A2D3C" stroke="black" stroke-linecap="round" stroke-linejoin="round"/>
<path d="M20.2495 54.124H62.75V58.3745H20.2495V54.124ZM22.6927 45.5177L24.5 42.3733L26.3057 45.5177L29.0677 43.924L27.262 40.7795H30.875V37.592H27.262L29.0693 34.4683L26.3057 32.8745L24.5 35.9983L22.6943 32.8745L19.9307 34.4683L21.738 37.592H18.125V40.7795H21.738L19.9307 43.924L22.6927 45.5177ZM36.9297 43.924L39.6916 45.5177L41.4973 42.3733L43.3062 45.5177L46.0682 43.924L44.2625 40.7795H47.8755V37.592H44.2625L46.0682 34.4683L43.3062 32.8745L41.5005 35.9983L39.6932 32.8745L36.9312 34.4683L38.737 37.592H35.1255V40.7795H38.7386L36.9297 43.924ZM64.8745 37.592H61.263L63.0688 34.4683L60.3068 32.8745L58.4995 35.9983L56.6938 32.8745L53.9318 34.4683L55.7375 37.592H52.1245V40.7795H55.7375L53.9318 43.924L56.6938 45.5177L58.4995 42.3733L60.3052 45.5177L63.0672 43.924L61.263 40.7795H64.8761L64.8745 37.592Z" fill="url(#paint2_linear_17_21302)"/>
<defs>
<linearGradient id="paint0_linear_17_21302" x1="21.5" y1="1" x2="21.5" y2="92.5394" gradientUnits="userSpaceOnUse">
<stop stop-color="#8CDCFF"/>
<stop offset="0.270833" stop-color="#5EEF77"/>
<stop offset="0.786458" stop-color="#FEBF32"/>
<stop offset="1" stop-color="#FFB76A"/>
</linearGradient>
<linearGradient id="paint1_linear_17_21302" x1="48.8759" y1="22.7329" x2="48.8759" y2="88.8638" gradientUnits="userSpaceOnUse">
<stop stop-color="#8CDCFF"/>
<stop offset="0.270833" stop-color="#5EEF77"/>
<stop offset="0.786458" stop-color="#FEBF32"/>
<stop offset="1" stop-color="#FFB76A"/>
</linearGradient>
<linearGradient id="paint2_linear_17_21302" x1="25.8953" y1="47.4761" x2="57.1058" y2="47.4761" gradientUnits="userSpaceOnUse">
<stop stop-color="#8CDCFF"/>
<stop offset="0.270833" stop-color="#5EEF77"/>
<stop offset="0.786458" stop-color="#FEBF32"/>
<stop offset="1" stop-color="#FFB76A"/>
</linearGradient>
</defs>
</svg>
