<svg width="20" height="22" viewBox="0 0 20 22" fill="none" xmlns="http://www.w3.org/2000/svg">
<path d="M0.375 4.12512H1.77028C1.85452 4.88134 2.21459 5.57996 2.78163 6.08733C3.34867 6.59471 4.08285 6.87523 4.84375 6.87523C5.60465 6.87523 6.33883 6.59471 6.90587 6.08733C7.47291 5.57996 7.83298 4.88134 7.91722 4.12512H19.625C19.7162 4.12512 19.8036 4.0889 19.8681 4.02444C19.9325 3.95997 19.9688 3.87254 19.9688 3.78137C19.9688 3.6902 19.9325 3.60277 19.8681 3.5383C19.8036 3.47383 19.7162 3.43762 19.625 3.43762H7.91722C7.83298 2.6814 7.47291 1.98278 6.90587 1.4754C6.33883 0.96802 5.60465 0.6875 4.84375 0.6875C4.08285 0.6875 3.34867 0.96802 2.78163 1.4754C2.21459 1.98278 1.85452 2.6814 1.77028 3.43762H0.375C0.283832 3.43762 0.196398 3.47383 0.131932 3.5383C0.0674664 3.60277 0.03125 3.6902 0.03125 3.78137C0.03125 3.87254 0.0674664 3.95997 0.131932 4.02444C0.196398 4.0889 0.283832 4.12512 0.375 4.12512ZM4.84375 1.37512C5.31966 1.37512 5.78489 1.51624 6.18059 1.78064C6.5763 2.04505 6.88471 2.42085 7.06684 2.86054C7.24896 3.30022 7.29661 3.78404 7.20376 4.2508C7.11092 4.71757 6.88175 5.14632 6.54523 5.48284C6.20871 5.81936 5.77995 6.04854 5.31319 6.14138C4.84642 6.23423 4.3626 6.18658 3.92292 6.00445C3.48323 5.82233 3.10743 5.51391 2.84303 5.11821C2.57862 4.7225 2.4375 4.25728 2.4375 3.78137C2.43827 3.14343 2.69204 2.53184 3.14313 2.08075C3.59422 1.62965 4.20581 1.37589 4.84375 1.37512Z" fill="#5546FF"/>
<path d="M19.625 10.6564H18.2297C18.1455 9.90015 17.7854 9.20153 17.2184 8.69415C16.6513 8.18677 15.9171 7.90625 15.1562 7.90625C14.3954 7.90625 13.6612 8.18677 13.0941 8.69415C12.5271 9.20153 12.167 9.90015 12.0828 10.6564H0.375C0.283832 10.6564 0.196398 10.6926 0.131932 10.757C0.0674664 10.8215 0.03125 10.9089 0.03125 11.0001C0.03125 11.0913 0.0674664 11.1787 0.131932 11.2432C0.196398 11.3077 0.283832 11.3439 0.375 11.3439H12.0828C12.167 12.1001 12.5271 12.7987 13.0941 13.3061C13.6612 13.8135 14.3954 14.094 15.1562 14.094C15.9171 14.094 16.6513 13.8135 17.2184 13.3061C17.7854 12.7987 18.1455 12.1001 18.2297 11.3439H19.625C19.7162 11.3439 19.8036 11.3077 19.8681 11.2432C19.9325 11.1787 19.9688 11.0913 19.9688 11.0001C19.9688 10.9089 19.9325 10.8215 19.8681 10.757C19.8036 10.6926 19.7162 10.6564 19.625 10.6564ZM15.1562 13.4064C14.6803 13.4064 14.2151 13.2652 13.8194 13.0008C13.4237 12.7364 13.1153 12.3606 12.9332 11.9209C12.751 11.4813 12.7034 10.9974 12.7962 10.5307C12.8891 10.0639 13.1183 9.63516 13.4548 9.29864C13.7913 8.96212 14.22 8.73295 14.6868 8.6401C15.1536 8.54726 15.6374 8.59491 16.0771 8.77703C16.5168 8.95916 16.8926 9.26757 17.157 9.66328C17.4214 10.059 17.5625 10.5242 17.5625 11.0001C17.5617 11.6381 17.308 12.2496 16.8569 12.7007C16.4058 13.1518 15.7942 13.4056 15.1562 13.4064Z" fill="#5546FF"/>
<path d="M19.625 17.8746H10.6672C10.583 17.1184 10.2229 16.4198 9.65587 15.9124C9.08883 15.405 8.35465 15.1245 7.59375 15.1245C6.83285 15.1245 6.09867 15.405 5.53163 15.9124C4.96459 16.4198 4.60452 17.1184 4.52028 17.8746H0.375C0.283832 17.8746 0.196398 17.9108 0.131932 17.9753C0.0674664 18.0398 0.03125 18.1272 0.03125 18.2184C0.03125 18.3095 0.0674664 18.397 0.131932 18.4614C0.196398 18.5259 0.283832 18.5621 0.375 18.5621H4.52028C4.60452 19.3183 4.96459 20.017 5.53163 20.5243C6.09867 21.0317 6.83285 21.3122 7.59375 21.3122C8.35465 21.3122 9.08883 21.0317 9.65587 20.5243C10.2229 20.017 10.583 19.3183 10.6672 18.5621H19.625C19.7162 18.5621 19.8036 18.5259 19.8681 18.4614C19.9325 18.397 19.9688 18.3095 19.9688 18.2184C19.9688 18.1272 19.9325 18.0398 19.8681 17.9753C19.8036 17.9108 19.7162 17.8746 19.625 17.8746ZM7.59375 20.6246C7.11784 20.6246 6.65261 20.4835 6.25691 20.2191C5.8612 19.9547 5.55279 19.5789 5.37066 19.1392C5.18854 18.6995 5.14089 18.2157 5.23374 17.7489C5.32658 17.2822 5.55575 16.8534 5.89227 16.5169C6.22879 16.1804 6.65755 15.9512 7.12431 15.8584C7.59108 15.7655 8.0749 15.8132 8.51458 15.9953C8.95427 16.1774 9.33007 16.4858 9.59447 16.8815C9.85888 17.2772 10 17.7425 10 18.2184C9.99923 18.8563 9.74546 19.4679 9.29437 19.919C8.84328 20.3701 8.23169 20.6239 7.59375 20.6246Z" fill="#5546FF"/>
</svg>
