<svg width="24" height="25" viewBox="0 0 24 25" fill="none" xmlns="http://www.w3.org/2000/svg">
<path d="M12 7.85352C13.3261 7.85352 14.5979 8.3803 15.5355 9.31798C16.4732 10.2557 17 11.5274 17 12.8535C16.9994 13.4811 16.8772 14.1025 16.64 14.6835L19.56 17.6035C21.0839 16.3332 22.2635 14.6997 22.99 12.8535C22.1213 10.6436 20.6074 8.74638 18.6455 7.40872C16.6836 6.07107 14.3645 5.35493 11.99 5.35352C10.6327 5.35311 9.28573 5.59001 8.01 6.05352L10.17 8.21352C10.751 7.97633 11.3725 7.85407 12 7.85352ZM2 5.12352L4.28 7.40352L4.74 7.86352C3.06842 9.16138 1.77664 10.8849 1 12.8535C1.56938 14.3031 2.41958 15.6259 3.50174 16.7459C4.58389 17.8659 5.87669 18.7611 7.30585 19.3799C8.73501 19.9988 10.2724 20.3292 11.8296 20.3521C13.3868 20.375 14.9332 20.0901 16.38 19.5135L16.8 19.9335L19.73 22.8535L21 21.5835L3.27 3.85352L2 5.12352ZM7.53 10.6535L9.08 12.2035C9.02819 12.4163 9.00134 12.6345 9 12.8535C9 13.6492 9.31607 14.4122 9.87868 14.9748C10.4413 15.5374 11.2044 15.8535 12 15.8535C12.219 15.8522 12.4372 15.8253 12.65 15.7735L14.2 17.3235C13.2668 17.7933 12.2092 17.9569 11.1776 17.791C10.1461 17.625 9.1931 17.138 8.45431 16.3992C7.71551 15.6604 7.2285 14.7075 7.06256 13.6759C6.89661 12.6444 7.06018 11.5867 7.53 10.6535ZM11.84 9.87352L14.99 13.0235L15.01 12.8635C15.01 12.0679 14.6939 11.3048 14.1313 10.7422C13.5687 10.1796 12.8056 9.86352 12.01 9.86352L11.84 9.87352Z" fill="black"/>
</svg>
