<svg width="91" height="87" viewBox="0 0 91 87" fill="none" xmlns="http://www.w3.org/2000/svg">
<g clip-path="url(#clip0_17_9395)">
<path d="M12.0807 2.41663C10.7764 3.69806 9.24127 4.74528 8.16936 6.27583C4.15756 11.9968 4.09759 18.1488 6.91904 24.1756C9.65204 30.0114 14.6428 33.2053 21.1942 33.2724C32.2761 33.3873 43.364 33.4111 54.4429 33.1903C63.1681 33.0158 71.8904 33.068 80.6126 32.9964C86.4623 32.9487 90.69 37.1465 90.7365 42.942C90.8249 54.0676 90.9374 65.1918 91.0004 76.3174C91.0378 82.82 86.9601 86.9269 80.4402 86.9477C67.4003 86.9895 54.362 86.9925 41.3221 87.0014C38.7121 87.0029 37.1364 85.638 37.081 83.3854C37.0255 81.1194 38.4917 79.6038 41.1228 79.5128C44.5289 79.3964 47.9425 79.4501 51.3516 79.4456C60.9299 79.4307 70.5096 79.4262 80.0878 79.4128C82.8119 79.4083 83.4535 78.7684 83.452 76.0623C83.4505 73.1176 83.3575 70.1713 83.464 67.231C83.521 65.6691 82.9363 65.2589 81.4611 65.3037C78.3548 65.4006 75.241 65.2679 72.1347 65.3708C67.0375 65.5394 65.5233 60.2302 67.4213 57.1288C68.3268 55.6489 69.5891 54.8314 71.3686 54.8344C74.8287 54.8404 78.2903 54.7792 81.7489 54.8404C82.9153 54.8613 83.398 54.4913 83.368 53.3277C83.2751 49.7385 83.2601 46.1478 83.1342 42.5601C83.0862 41.1638 82.2122 40.5298 80.5166 40.5298C73.2951 40.5313 66.0705 40.4553 58.852 40.597C46.4673 40.8401 34.0841 40.8043 21.6994 40.8133C10.9563 40.8207 2.78581 34.0675 0.817396 23.5908C-0.753741 15.2115 4.4544 5.29872 12.0807 2.41663Z" fill="url(#paint0_linear_17_9395)"/>
<path d="M8.37 21.2085C5.78692 15.7068 7.79731 8.14506 12.6187 4.30226C16.3501 1.32917 20.7067 0.105916 25.3647 0.0805556C41.7132 -0.00895062 58.0617 0.00745885 74.4102 0C76.587 0 78.2751 1.50818 78.4025 3.46687C78.5314 5.45689 77.0817 7.19331 74.8914 7.38575C70.6413 7.75869 66.3731 7.52449 62.1125 7.54985C49.8267 7.62145 37.5395 7.59907 25.2537 7.63637C21.1325 7.6483 17.3306 8.78055 13.9544 11.154C10.2159 13.7825 9.32359 17.2415 8.3685 21.21L8.37 21.2085Z" fill="url(#paint1_linear_17_9395)"/>
<path d="M4.80192 36.6692C4.41813 37.7313 3.96688 38.7741 3.66105 39.8571C2.53667 43.8342 3.67454 47.1369 6.98772 49.6222C10.061 51.927 13.6381 53.0503 17.3215 53.8738C21.8281 54.8807 26.3976 55.4028 31.0195 55.4729C31.8696 55.4864 32.7256 55.5177 33.5651 55.637C35.5006 55.9115 36.7794 57.278 36.8918 59.1069C37.0072 60.9806 35.8214 62.5797 33.9579 63.1227C33.1184 63.3674 32.2668 63.3241 31.4213 63.3003C23.4472 63.075 15.6545 61.9741 8.39695 58.4192C6.27411 57.3794 4.33418 56.0652 2.75105 54.2736C-0.0134308 51.1468 -0.6161 47.5994 0.592236 43.673C1.40929 41.0192 2.835 38.7114 4.80192 36.6692Z" fill="url(#paint2_linear_17_9395)"/>
<path d="M4.37346 60.6823C4.04664 62.3605 3.43347 63.9209 3.36751 65.6498C3.23858 69.0332 4.72127 71.5006 7.41678 73.3474C10.7105 75.6059 14.4824 76.5994 18.3518 77.2722C22.2047 77.9435 26.092 78.2255 30.0094 78.2344C32.9687 78.2404 34.7977 80.9629 33.8383 83.7569C33.387 85.0712 32.492 85.9185 31.1038 85.9648C23.9032 86.2034 16.7686 85.9155 10.0508 82.8783C7.98797 81.9459 6.08402 80.7749 4.44242 79.1862C1.00181 75.861 -0.0581094 71.878 1.06927 67.2953C1.66894 64.8592 2.80532 62.6618 4.37495 60.6837L4.37346 60.6823Z" fill="url(#paint3_linear_17_9395)"/>
<path d="M90.9818 3.65748C90.9668 5.61169 89.3013 7.30038 87.3793 7.31231C85.3644 7.32425 83.6644 5.63556 83.6539 3.60974C83.6434 1.58392 85.3509 -0.0495701 87.4273 0.00115003C89.4467 0.0503784 90.9983 1.64508 90.9818 3.65748Z" fill="url(#paint4_linear_17_9395)"/>
</g>
<defs>
<linearGradient id="paint0_linear_17_9395" x1="45.7689" y1="2.41663" x2="45.7689" y2="87.0014" gradientUnits="userSpaceOnUse">
<stop stop-color="#8CDCFF"/>
<stop offset="0.270833" stop-color="#5EEF77"/>
<stop offset="0.786458" stop-color="#F6C604"/>
<stop offset="1" stop-color="#FFB76A"/>
</linearGradient>
<linearGradient id="paint1_linear_17_9395" x1="42.8239" y1="0" x2="42.8239" y2="21.21" gradientUnits="userSpaceOnUse">
<stop stop-color="#8CDCFF"/>
<stop offset="0.270833" stop-color="#5EEF77"/>
<stop offset="0.786458" stop-color="#F6C604"/>
<stop offset="1" stop-color="#FFB76A"/>
</linearGradient>
<linearGradient id="paint2_linear_17_9395" x1="18.4498" y1="36.6692" x2="18.4498" y2="63.3193" gradientUnits="userSpaceOnUse">
<stop stop-color="#8CDCFF"/>
<stop offset="0.270833" stop-color="#5EEF77"/>
<stop offset="0.786458" stop-color="#F6C604"/>
<stop offset="1" stop-color="#FFB76A"/>
</linearGradient>
<linearGradient id="paint3_linear_17_9395" x1="17.3659" y1="60.6823" x2="17.3659" y2="86.0299" gradientUnits="userSpaceOnUse">
<stop stop-color="#8CDCFF"/>
<stop offset="0.270833" stop-color="#5EEF77"/>
<stop offset="0.786458" stop-color="#F6C604"/>
<stop offset="1" stop-color="#FFB76A"/>
</linearGradient>
<linearGradient id="paint4_linear_17_9395" x1="87.3179" y1="0" x2="87.3179" y2="7.31238" gradientUnits="userSpaceOnUse">
<stop stop-color="#8CDCFF"/>
<stop offset="0.270833" stop-color="#5EEF77"/>
<stop offset="0.786458" stop-color="#F6C604"/>
<stop offset="1" stop-color="#FFB76A"/>
</linearGradient>
<clipPath id="clip0_17_9395">
<rect width="91" height="87" fill="white"/>
</clipPath>
</defs>
</svg>
