<svg width="152" height="38" viewBox="0 0 152 38" fill="none" xmlns="http://www.w3.org/2000/svg">
<path d="M8.15424 31.1228L0 8.71423H4.35723L9.77264 23.4977L15.1881 8.71423H19.2029L24.6183 23.4977L30.0026 8.71423H34.391L26.2367 31.1228H22.9999L17.1799 15.2501L11.391 31.1228H8.15424Z" fill="white"/>
<path d="M40.0807 31.1228C39.2922 31.1228 38.566 30.9257 37.9021 30.5315C37.2588 30.1373 36.7401 29.6186 36.3459 28.9753C35.9724 28.3321 35.7857 27.6163 35.7857 26.8279V20.043H50.0401V17.5221C50.0401 17.4183 49.9986 17.3353 49.9156 17.2731C49.8533 17.1901 49.7703 17.1486 49.6666 17.1486H35.7857V13.0715H49.8222C50.6106 13.0715 51.3265 13.2686 51.9697 13.6628C52.6336 14.057 53.1524 14.5757 53.5258 15.2189C53.9201 15.8622 54.1172 16.578 54.1172 17.3664V31.1228H40.0807ZM40.2363 27.0457H50.0401V23.7155H39.8628V26.6722C39.8628 26.776 39.8939 26.8694 39.9562 26.9523C40.0392 27.0146 40.1325 27.0457 40.2363 27.0457Z" fill="white"/>
<path d="M60.9915 31.1228C60.203 31.1228 59.4872 30.9257 58.844 30.5315C58.2008 30.1373 57.6821 29.6186 57.2878 28.9753C56.8936 28.3321 56.6965 27.6163 56.6965 26.8279V7.12695H60.8047V26.6722C60.8047 26.776 60.8359 26.8694 60.8981 26.9523C60.9811 27.0146 61.0745 27.0457 61.1782 27.0457H64.6329V31.1228H60.9915Z" fill="white"/>
<path d="M71.3557 31.1228C70.5673 31.1228 69.8514 30.9257 69.2082 30.5315C68.565 30.1373 68.0463 29.6186 67.6521 28.9753C67.2578 28.3321 67.0607 27.6163 67.0607 26.8279V7.12695H71.169V26.6722C71.169 26.776 71.2001 26.8694 71.2623 26.9523C71.3453 27.0146 71.4387 27.0457 71.5424 27.0457H74.9971V31.1228H71.3557Z" fill="white"/>
<path d="M81.5368 31.1228C80.7484 31.1228 80.0326 30.9257 79.3893 30.5315C78.7461 30.1373 78.2274 29.6186 77.8332 28.9753C77.439 28.3321 77.2419 27.6163 77.2419 26.8279V17.3664C77.2419 16.578 77.439 15.8622 77.8332 15.2189C78.2274 14.5757 78.7461 14.057 79.3893 13.6628C80.0326 13.2686 80.7484 13.0715 81.5368 13.0715H91.2784C92.0668 13.0715 92.7826 13.2686 93.4258 13.6628C94.0898 14.057 94.6085 14.5757 94.982 15.2189C95.3762 15.8622 95.5733 16.578 95.5733 17.3664V24.1513H81.319V26.6722C81.319 26.776 81.3501 26.8694 81.4123 26.9523C81.4953 27.0146 81.5887 27.0457 81.6924 27.0457H95.5733V31.1228H81.5368ZM81.319 20.4788H91.4962V17.5221C91.4962 17.4183 91.4547 17.3353 91.3717 17.2731C91.3095 17.1901 91.2265 17.1486 91.1227 17.1486H81.6924C81.5887 17.1486 81.4953 17.1901 81.4123 17.2731C81.3501 17.3353 81.319 17.4183 81.319 17.5221V20.4788Z" fill="white"/>
<path d="M103.148 31.1228C102.36 31.1228 101.644 30.9257 101.001 30.5315C100.357 30.1373 99.8387 29.6186 99.4445 28.9753C99.0503 28.3321 98.8532 27.6163 98.8532 26.8279V7.53155H102.93V13.0715H109.964V17.1486H102.93V26.6722C102.93 26.776 102.961 26.8694 103.024 26.9523C103.107 27.0146 103.2 27.0457 103.304 27.0457H109.964V31.1228H103.148Z" fill="white"/>
<path d="M113.639 31.123V8.71436H117.716V31.123H113.639Z" fill="url(#paint0_linear_17_21266)"/>
<path d="M120.638 31.123V11.4532C120.638 10.6647 120.835 9.9489 121.229 9.30569C121.623 8.66248 122.142 8.14377 122.785 7.74954C123.428 7.35532 124.144 7.1582 124.933 7.1582H131.749V11.2664H125.088C124.985 11.2664 124.891 11.3079 124.808 11.3909C124.746 11.4532 124.715 11.5362 124.715 11.6399V13.0716H131.749V17.1487H124.715V31.123H120.638Z" fill="url(#paint1_linear_17_21266)"/>
<path d="M136.687 37.8144V33.7062H147.549C147.653 33.7062 147.736 33.6647 147.798 33.5817C147.881 33.5194 147.923 33.4364 147.923 33.3327V31.123H137.964C137.196 31.123 136.48 30.9259 135.816 30.5316C135.173 30.1374 134.654 29.6187 134.26 28.9755C133.866 28.3323 133.669 27.6164 133.669 26.828V13.1338H137.746V26.6724C137.746 26.7761 137.777 26.8695 137.839 26.9525C137.922 27.0147 138.015 27.0458 138.119 27.0458H147.549C147.653 27.0458 147.736 27.0147 147.798 26.9525C147.881 26.8695 147.923 26.7761 147.923 26.6724V13.1338H152V33.5194C152 34.3079 151.813 35.0237 151.44 35.6669C151.066 36.3309 150.548 36.8496 149.884 37.2231C149.24 37.6173 148.525 37.8144 147.736 37.8144H136.687Z" fill="url(#paint2_linear_17_21266)"/>
<path d="M118.708 3.04699C118.708 4.72966 117.343 6.09375 115.661 6.09375C113.978 6.09375 112.614 4.72966 112.614 3.04699C112.614 1.36433 113.978 0.000233173 115.661 0.000233173C117.343 0.000233173 118.708 1.36433 118.708 3.04699Z" fill="url(#paint3_linear_17_21266)"/>
<defs>
<linearGradient id="paint0_linear_17_21266" x1="133" y1="-28.0109" x2="133" y2="66.292" gradientUnits="userSpaceOnUse">
<stop offset="0.320724" stop-color="#8CDCFF"/>
<stop offset="0.504763" stop-color="#5EEF77"/>
<stop offset="0.640792" stop-color="#F6C604"/>
<stop offset="0.940856" stop-color="#FFB76A"/>
</linearGradient>
<linearGradient id="paint1_linear_17_21266" x1="133" y1="-28.0109" x2="133" y2="66.292" gradientUnits="userSpaceOnUse">
<stop offset="0.320724" stop-color="#8CDCFF"/>
<stop offset="0.504763" stop-color="#5EEF77"/>
<stop offset="0.640792" stop-color="#F6C604"/>
<stop offset="0.940856" stop-color="#FFB76A"/>
</linearGradient>
<linearGradient id="paint2_linear_17_21266" x1="133" y1="-28.0109" x2="133" y2="66.292" gradientUnits="userSpaceOnUse">
<stop offset="0.320724" stop-color="#8CDCFF"/>
<stop offset="0.504763" stop-color="#5EEF77"/>
<stop offset="0.640792" stop-color="#F6C604"/>
<stop offset="0.940856" stop-color="#FFB76A"/>
</linearGradient>
<linearGradient id="paint3_linear_17_21266" x1="115.661" y1="6.09375" x2="115.661" y2="0.000233173" gradientUnits="userSpaceOnUse">
<stop stop-color="#8CDCFF"/>
<stop offset="0.270833" stop-color="#5EEF77"/>
<stop offset="0.786458" stop-color="#F6C604"/>
<stop offset="1" stop-color="#FFB76A"/>
</linearGradient>
</defs>
</svg>
