<svg width="16" height="16" viewBox="0 0 16 16" fill="none" xmlns="http://www.w3.org/2000/svg">
<circle cx="8" cy="8" r="7.25" fill="#5546FF" stroke="#F5F5F5" stroke-width="1.5"/>
<path d="M8.49812 5.71976C8.63887 4.89526 9.48604 4.39426 10.2764 4.66814L10.5228 4.75354C10.6859 4.81005 10.8639 4.72366 10.9204 4.56059C10.9769 4.39751 10.8905 4.21951 10.7275 4.16299L10.481 4.07759C9.32596 3.67731 8.08779 4.40953 7.88204 5.61457L7.5815 7.37492H5.81264C5.64005 7.37492 5.50014 7.51483 5.50014 7.68742C5.50014 7.86 5.64005 7.99992 5.81264 7.99992H7.47479L7.14872 9.90971C6.99201 10.8276 5.97715 11.3171 5.16127 10.8684L5.12991 10.8511C4.97868 10.768 4.78866 10.8231 4.70549 10.9743C4.62231 11.1255 4.67748 11.3156 4.82871 11.3988L4.86008 11.416C6.05251 12.0718 7.53579 11.3564 7.76479 10.0149L8.10883 7.99992H9.77096C9.94354 7.99992 10.0835 7.86 10.0835 7.68742C10.0835 7.51483 9.94354 7.37492 9.77096 7.37492H8.21554L8.49812 5.71976Z" fill="white"/>
</svg>
