<svg width="15" height="19" viewBox="0 0 15 19" fill="none" xmlns="http://www.w3.org/2000/svg">
<path d="M9.18946 4.91059L8.94261 4.87104L9.18946 4.91058C9.45912 3.22715 11.0679 2.23779 12.5424 2.78231L12.629 2.54779L12.5424 2.78232L13.0533 2.97097C13.0533 2.97098 13.0533 2.97098 13.0533 2.97098C13.536 3.14927 14.0448 2.87072 14.2019 2.38749C14.357 1.91027 14.125 1.37246 13.6507 1.1973C13.6507 1.1973 13.6507 1.1973 13.6507 1.1973L13.1399 1.00864L13.1399 1.00864C10.5814 0.0638037 7.86723 1.79887 7.41859 4.59911L6.82927 8.27764H3.37547C2.86488 8.27764 2.47765 8.7139 2.47765 9.21802C2.47765 9.72214 2.86488 10.1584 3.37547 10.1584H6.52795L5.89839 14.088C5.59815 15.9621 3.67412 16.9221 2.15158 16.0297L2.08656 15.9916L1.96103 16.2058L2.08656 15.9916C1.64196 15.7311 1.0923 15.9112 0.858158 16.3649C0.628221 16.8103 0.774877 17.3782 1.20934 17.6328L1.20935 17.6328L1.27436 17.6709C3.91515 19.2188 7.16988 17.5167 7.66923 14.3995L8.34872 10.1584H11.5812C12.0918 10.1584 12.4791 9.72214 12.4791 9.21802C12.4791 8.7139 12.0918 8.27764 11.5812 8.27764H8.65004L9.18946 4.91059Z" fill="#5546FF" stroke="#5546FF" stroke-width="0.5"/>
</svg>
