<svg width="27" height="27" viewBox="0 0 27 27" fill="none" xmlns="http://www.w3.org/2000/svg">
<circle cx="13.0312" cy="13.0312" r="12.2812" fill="#5546FF" stroke="#F5F5F5" stroke-width="1.5"/>
<path d="M9.42351 17.6093C9.44491 17.6181 9.46898 17.6247 9.48489 17.6291C9.48877 17.6302 9.49216 17.6311 9.49491 17.6319L9.49502 17.6319C9.49531 17.632 9.49625 17.6323 9.4977 17.6328C9.5061 17.6355 9.53166 17.6439 9.54849 17.6473L9.54856 17.6473C9.59235 17.6563 9.637 17.6608 9.68171 17.6608L9.68171 17.5608L9.68171 17.6608L15.4208 17.6607C15.7929 17.6607 16.0947 17.359 16.0948 16.9869L16.0948 16.9869C16.0948 16.6146 15.793 16.3129 15.4208 16.3128H15.4208L11.3083 16.3129L17.4631 10.1581C17.7263 9.89491 17.7263 9.46815 17.4631 9.20497C17.1999 8.94179 16.7731 8.94178 16.51 9.20497L10.3551 15.3599L10.3551 11.2473C10.3551 10.8751 10.0533 10.5733 9.6813 10.5733C9.3091 10.5733 9.00723 10.8752 9.00723 11.2474L9.00733 16.9869C9.00733 17.0316 9.01202 17.0757 9.02049 17.1186L9.02058 17.119C9.02412 17.1365 9.03253 17.1624 9.03577 17.1724C9.03643 17.1744 9.03687 17.1758 9.037 17.1763L9.03746 17.1778C9.03798 17.1795 9.03876 17.1823 9.03975 17.1859C9.04351 17.1995 9.05039 17.2243 9.05852 17.2439M9.42351 17.6093L9.46154 17.5168L9.42361 17.6093C9.42358 17.6093 9.42354 17.6093 9.42351 17.6093ZM9.42351 17.6093C9.40316 17.6009 9.38136 17.5885 9.36853 17.5811C9.36536 17.5793 9.36274 17.5778 9.36082 17.5767L9.40878 17.489L9.36109 17.5769C9.36046 17.5766 9.35896 17.5758 9.3568 17.5747C9.34682 17.5697 9.32289 17.5577 9.30734 17.5473C9.27243 17.5241 9.23974 17.4975 9.20988 17.4684M9.20988 17.4684L9.21286 17.4708L9.21387 17.4716L9.27637 17.3935L9.26776 17.4022L9.20593 17.4645C9.20724 17.4658 9.20856 17.4671 9.20988 17.4684ZM9.20988 17.4684L9.20421 17.4638L9.20464 17.4634C9.1731 17.4319 9.14511 17.3974 9.12052 17.3605L9.12042 17.3604C9.11033 17.3452 9.09833 17.3212 9.0939 17.3123C9.09305 17.3106 9.09248 17.3095 9.09225 17.309L9.18018 17.2614L9.09277 17.31C9.09153 17.3077 9.08996 17.305 9.08815 17.3019C9.08013 17.2879 9.06745 17.2659 9.05852 17.2439M9.05852 17.2439C9.05871 17.2443 9.0589 17.2448 9.05909 17.2452L9.15116 17.2062L9.05852 17.2439Z" fill="white" stroke="white" stroke-width="0.2"/>
</svg>
