<svg width="16" height="16" viewBox="0 0 16 16" fill="none" xmlns="http://www.w3.org/2000/svg">
<circle cx="8" cy="8" r="7.25" fill="#5546FF" stroke="#F5F5F5" stroke-width="1.5"/>
<g clip-path="url(#clip0_2794_12477)">
<path d="M7.58325 4.24992L7.58325 10.7441L5.34824 8.50909C5.18554 8.34638 4.92168 8.34638 4.75908 8.50898C4.59637 8.67169 4.59637 8.93565 4.75908 9.09836L7.70533 12.0445C7.7247 12.0639 7.74606 12.0812 7.76877 12.0964C7.77929 12.1034 7.79064 12.1083 7.80158 12.1143C7.8145 12.1212 7.82679 12.1291 7.84043 12.1346C7.8545 12.1405 7.86908 12.1439 7.88366 12.148C7.89522 12.1515 7.90627 12.156 7.91814 12.1584C7.94522 12.1638 7.97252 12.1666 7.99991 12.1666C8.00022 12.1666 8.00054 12.1665 8.00085 12.1665C8.02783 12.1664 8.05491 12.1637 8.08148 12.1584C8.09398 12.1559 8.10554 12.1512 8.11783 12.1475C8.13168 12.1435 8.14575 12.1403 8.15918 12.1347C8.17366 12.1287 8.18679 12.1205 8.20043 12.113C8.21064 12.1074 8.22106 12.1029 8.23085 12.0965C8.25387 12.0813 8.27533 12.0638 8.29481 12.0443L11.2407 9.09825C11.4035 8.93554 11.4035 8.67169 11.2409 8.50898C11.0781 8.34627 10.8143 8.34627 10.6515 8.50898L8.41658 10.744L8.41658 4.24992C8.41658 4.01981 8.23002 3.83325 7.99991 3.83325C7.76981 3.83325 7.58325 4.01981 7.58325 4.24992Z" fill="white"/>
</g>
<defs>
<clipPath id="clip0_2794_12477">
<rect width="10" height="10" fill="white" transform="translate(13 3) rotate(90)"/>
</clipPath>
</defs>
</svg>
