<svg width="67" height="67" viewBox="0 0 67 67" fill="none" xmlns="http://www.w3.org/2000/svg">
<path d="M66.9877 23.4501C66.8772 21.5395 64.6048 20.0465 60.0599 18.9075C60.2129 18.5725 60.2989 18.2241 60.3 17.8623V10.0501H60.281C59.8813 3.54216 33.213 3.3501 30.15 3.3501C27.087 3.3501 0.41875 3.54216 0.0189833 10.0501H0V10.1953V17.8656C0.00558333 19.9873 2.74365 21.6478 6.81725 22.8839C6.76142 23.0693 6.72792 23.258 6.71675 23.4501H6.7V23.5953V31.2522C2.3115 32.3823 0.119483 33.8541 0.0111667 35.7334H0V35.8786V43.549C0.00335 45.0263 1.33553 46.2792 3.51527 47.3233C3.43263 47.55 3.38127 47.7811 3.36675 48.0179H3.35V48.163V55.8334C3.35893 59.5475 11.7217 61.8534 21.0134 62.9298C21.0816 62.9432 21.1441 62.9712 21.2167 62.9712C21.2379 62.9712 21.2558 62.96 21.277 62.9589C23.0681 63.161 24.8883 63.3185 26.6894 63.4312C26.7274 63.4357 26.7609 63.4536 26.8 63.4536C26.8212 63.4536 26.838 63.4424 26.8581 63.4413C29.145 63.5797 31.3951 63.6501 33.5 63.6501C35.6049 63.6501 37.855 63.5798 40.1419 63.4402C40.162 63.4413 40.1799 63.4524 40.2 63.4524C40.2391 63.4524 40.2726 63.4335 40.3106 63.4301C42.1117 63.3173 43.9319 63.161 45.723 62.9578C45.7443 62.9578 45.7621 62.9689 45.7833 62.9689C45.8559 62.9689 45.9184 62.941 45.9866 62.9276C55.2784 61.8512 63.6399 59.5441 63.65 55.829V48.0168H63.6321C63.554 46.6477 62.3871 45.5054 60.0823 44.5506C60.2229 44.2279 60.3 43.8929 60.3 43.5456V36.2471C64.3088 35.0143 66.9944 33.365 67 31.2623V23.4501H66.9877ZM57.9461 43.9085L57.5653 44.2424C56.979 44.7594 56.0019 45.2809 54.7167 45.7834V40.4592C56.0444 39.9969 57.1744 39.4843 58.0667 38.9226V43.5434C58.0667 43.6584 58.0242 43.7812 57.9461 43.9085ZM32.9707 49.0977C32.8077 49.1022 32.6435 49.1044 32.4794 49.1077C32.0807 49.1156 31.672 49.1178 31.2678 49.1211V43.5434C31.5749 43.54 31.882 43.5356 32.189 43.53C32.2482 43.5289 32.3074 43.5278 32.3666 43.5266C33.4911 43.5054 34.6156 43.4708 35.7345 43.4194V48.995C35.4955 49.0072 35.2554 49.0184 35.0131 49.0285C34.3409 49.0586 33.6619 49.0809 32.9707 49.0977ZM28.0942 49.1133C27.5828 49.1044 27.0736 49.0921 26.5677 49.0765C26.5052 49.0742 26.4427 49.072 26.3801 49.0698C25.7716 49.0497 25.1674 49.024 24.5678 48.995V43.4206C25.6867 43.473 26.8112 43.5077 27.9356 43.5278C27.9948 43.5289 28.054 43.53 28.1121 43.5311C28.4192 43.5367 28.7262 43.5412 29.0333 43.5445V49.1256C28.8167 49.1234 28.6001 49.1234 28.3846 49.12C28.2863 49.1178 28.1914 49.1144 28.0942 49.1133ZM7.92498 46.5673C7.88813 46.5562 7.85352 46.5461 7.81667 46.5361V41.1414C8.85963 41.4228 9.98077 41.6797 11.1667 41.9131V47.3635C10.1416 47.1458 9.19575 46.9168 8.3348 46.6824C8.19857 46.6433 8.05787 46.6064 7.92498 46.5673ZM31.4621 55.8144C31.7692 55.82 32.0763 55.8245 32.3833 55.8278V61.4101C30.8401 61.3955 29.3505 61.3509 27.9167 61.2805V55.705C29.0356 55.7575 30.1601 55.7921 31.2845 55.8122C31.3437 55.8122 31.4029 55.8133 31.4621 55.8144ZM35.7155 55.8111C36.84 55.7899 37.9644 55.7553 39.0833 55.7039V61.2794C37.6495 61.3498 36.1599 61.3944 34.6167 61.4089V55.8267C34.9238 55.8234 35.2308 55.8189 35.5379 55.8133C35.5971 55.8133 35.6563 55.8122 35.7155 55.8111ZM44.6667 55.3064V60.8517C43.5936 60.9645 42.4769 61.0639 41.3167 61.1454V55.5766C42.449 55.5029 43.5679 55.4124 44.6667 55.3064ZM46.9 55.0652C48.0513 54.9267 49.1691 54.7692 50.25 54.5939V60.0768C49.1981 60.2621 48.0803 60.433 46.9 60.5882V55.0652ZM52.4833 54.1953C53.6692 53.9619 54.7904 53.7051 55.8333 53.4237V58.8183C54.8384 59.1053 53.7184 59.3833 52.4833 59.6457V54.1953ZM14.5167 54.1953V59.6457C13.2816 59.3833 12.1616 59.1053 11.1667 58.8183V53.4237C12.2096 53.7051 13.3308 53.963 14.5167 54.1953ZM16.75 54.595C17.8309 54.7704 18.9487 54.9278 20.1 55.0663V60.5893C18.9197 60.4341 17.8019 60.2632 16.75 60.0779V54.595ZM22.3333 55.3064C23.4321 55.4124 24.551 55.5029 25.6833 55.5777V61.1465C24.5231 61.065 23.4065 60.9656 22.3333 60.8528V55.3064ZM19.5629 48.6287C19.449 48.6175 19.3362 48.6052 19.2234 48.5941C19.143 48.5863 19.0637 48.5762 18.9833 48.5684V43.0241C20.0821 43.1302 21.201 43.2207 22.3333 43.2955V48.8598C21.3953 48.7929 20.4685 48.7169 19.5629 48.6287ZM16.75 42.7818V48.3049C15.5697 48.1496 14.4519 47.9788 13.4 47.7934V42.3106C14.4809 42.4859 15.5987 42.6445 16.75 42.7818ZM38.7104 48.8074C38.4647 48.8263 38.2168 48.8453 37.9667 48.8632V43.2944C39.099 43.2196 40.2179 43.1302 41.3167 43.023V48.5684C40.6266 48.641 39.9208 48.7091 39.1961 48.7683C39.0342 48.7828 38.8723 48.7951 38.7104 48.8074ZM43.55 48.3049V42.7818C44.7013 42.6434 45.8191 42.4859 46.9 42.3106V47.7934C45.8481 47.9788 44.7303 48.1508 43.55 48.3049ZM49.1333 41.9119C50.3192 41.6786 51.4404 41.4217 52.4833 41.1403V46.5349C51.4884 46.8219 50.3684 47.1 49.1333 47.3624V41.9119ZM33.8629 36.811C33.0232 36.7898 32.2024 36.7574 31.3962 36.7183C31.3526 36.7161 31.3091 36.7139 31.2667 36.7127V31.1372C32.3856 31.1897 33.5101 31.2243 34.6345 31.2444C34.6937 31.2455 34.7529 31.2467 34.811 31.2478C35.118 31.2534 35.4251 31.2578 35.7322 31.2612V36.8367C35.1884 36.8311 34.6401 36.8289 34.1097 36.8166C34.0282 36.8144 33.9444 36.8132 33.8629 36.811ZM7.81667 20.8527V15.4581C8.85963 15.7395 9.98077 15.9963 11.1667 16.2297V21.6802C11.0293 21.6511 10.8875 21.6221 10.7535 21.5931C10.1594 21.4624 9.57988 21.3262 9.02602 21.1821C8.60392 21.0738 8.20303 20.9633 7.81667 20.8527ZM28.1121 17.8478C28.4192 17.8534 28.7262 17.8578 29.0333 17.8612V23.4367C27.5303 23.4222 26.0362 23.3831 24.5667 23.3094V17.7383C25.6856 17.7908 26.8101 17.8254 27.9345 17.8455C27.9937 17.8455 28.0529 17.8467 28.1121 17.8478ZM32.3655 17.8444C33.4899 17.8232 34.6144 17.7886 35.7333 17.7372V23.3083C35.5435 23.3172 35.3615 23.3306 35.1705 23.3395C35.1549 23.3407 35.1393 23.3407 35.1225 23.3418C34.3732 23.3753 33.6094 23.3998 32.8356 23.4177C32.715 23.4211 32.5944 23.4222 32.4738 23.4255C32.0762 23.4333 31.6698 23.4345 31.2667 23.4389V17.8612C31.5737 17.8578 31.8808 17.8534 32.1879 17.8478C32.2471 17.8467 32.3063 17.8455 32.3655 17.8444ZM57.811 18.405L57.7797 18.3983L57.3732 18.7143C56.7836 19.1733 55.878 19.6378 54.7167 20.0867V14.7747C56.0444 14.3124 57.1744 13.7999 58.0667 13.2382V17.8589C58.0667 18.0287 57.9773 18.2118 57.811 18.405ZM43.55 22.6148V17.0985C44.7013 16.96 45.8191 16.8026 46.9 16.6273V22.1012C45.8414 22.2888 44.727 22.4607 43.55 22.6148ZM49.1333 21.6712V16.2297C50.3192 15.9963 51.4404 15.7395 52.4833 15.4581V20.8404C51.4828 21.1319 50.3561 21.4099 49.1333 21.6712ZM41.3167 17.3397V22.8784C40.238 22.9923 39.1213 23.0916 37.9667 23.1743V17.611C39.099 17.5362 40.2179 17.4458 41.3167 17.3397ZM18.9833 22.8806V17.3397C20.0821 17.4458 21.201 17.5362 22.3333 17.611V23.1698C21.1966 23.0883 20.0754 22.9956 18.9833 22.8806ZM16.75 17.0985V22.6159C16.5289 22.5869 16.2989 22.5635 16.08 22.5333C15.9371 22.5132 15.8008 22.492 15.6601 22.4719C15.0147 22.3792 14.3838 22.2798 13.7652 22.176C13.6412 22.1548 13.5217 22.1324 13.4 22.1112V16.6284C14.4809 16.8026 15.5987 16.9611 16.75 17.0985ZM28.7564 36.5586C28.6057 36.5475 28.4538 36.5363 28.3041 36.5251C27.5895 36.4693 26.8916 36.4079 26.2104 36.3398C26.0641 36.3253 25.9178 36.3096 25.7727 36.2951C25.7425 36.2918 25.7135 36.2873 25.6833 36.2851V30.7397C26.7821 30.8458 27.901 30.9362 29.0333 31.011V36.5765C28.9429 36.5698 28.8469 36.5653 28.7564 36.5586ZM21.3786 35.7245C20.9364 35.6541 20.521 35.5782 20.1 35.5045V30.0284C21.1809 30.2037 22.2987 30.3611 23.45 30.4996V36.0226C22.7666 35.9322 22.0977 35.8384 21.4556 35.7379C21.43 35.7323 21.4043 35.7278 21.3786 35.7245ZM17.8667 29.6286V35.0701C16.6327 34.8055 15.5139 34.5241 14.5167 34.2315V28.857C15.5596 29.1384 16.6808 29.3963 17.8667 29.6286ZM12.2833 28.1747V33.48C10.5279 32.8022 9.39563 32.1098 9.02713 31.4934L8.95232 31.3684C8.94562 31.3338 8.93445 31.2969 8.93333 31.2623V26.6382C9.82555 27.1999 10.9556 27.7124 12.2833 28.1747ZM39.0655 31.2444C40.19 31.2232 41.3144 31.1886 42.4333 31.1372V36.7072C40.966 36.7798 39.4742 36.8199 37.9667 36.8356V31.2612C38.2738 31.2578 38.5808 31.2534 38.8879 31.2478C38.9471 31.2467 39.0063 31.2455 39.0655 31.2444ZM53.4962 35.5291C53.0059 35.6139 52.5112 35.6977 52.0032 35.7747C51.7117 35.8194 51.4136 35.8618 51.1143 35.9043C50.8318 35.9445 50.5381 35.9791 50.2511 36.0159V30.4985C51.4024 30.36 52.5202 30.2026 53.6011 30.0273V35.5101C53.5654 35.5168 53.5308 35.5235 53.4962 35.5291ZM45.9352 36.4827C45.5187 36.5173 45.0888 36.5397 44.6667 36.5698V31.011C45.799 30.9362 46.9179 30.8469 48.0167 30.7397V36.2795C47.3679 36.3476 46.7202 36.4157 46.0536 36.4715C46.0134 36.4749 45.9754 36.4794 45.9352 36.4827ZM58.6965 34.389C58.1404 34.5442 57.5519 34.6893 56.9511 34.8312C56.6731 34.8959 56.3894 34.9607 56.0991 35.0232C56.0131 35.0422 55.9216 35.059 55.8344 35.0779V29.6297C57.0204 29.3963 58.1415 29.1395 59.1844 28.8581V34.2527C59.0237 34.2974 58.8617 34.3432 58.6965 34.389ZM64.7544 23.5227C64.6516 24.2809 62.9331 25.2892 59.8656 26.2373C55.9149 27.4578 49.733 28.5756 41.8984 28.9218C41.4976 28.9385 41.0978 28.9553 40.6891 28.9687C40.3552 28.9798 40.0202 28.9899 39.6796 28.9988C38.755 29.0189 37.817 29.0334 36.85 29.0334C35.883 29.0334 34.945 29.0189 34.0204 28.9977C33.6809 28.9899 33.3459 28.9787 33.0109 28.9675C32.6011 28.9553 32.2013 28.9374 31.8015 28.9206C23.967 28.5745 17.784 27.4567 13.8344 26.2362C10.7915 25.2959 9.07627 24.2954 8.94897 23.5405C8.95455 23.5193 8.95455 23.5015 8.96795 23.4747C9.04388 23.4936 9.12875 23.5093 9.2058 23.5283C9.64242 23.6321 10.0902 23.7326 10.5458 23.8286C12.7646 24.3066 15.2235 24.6985 17.8432 24.9978C17.8521 24.9978 17.8589 25.0023 17.8667 25.0023C17.8689 25.0023 17.8711 25.0011 17.8722 25.0011C19.6567 25.2044 21.5081 25.3641 23.4087 25.4768C23.4232 25.4768 23.4355 25.4847 23.45 25.4847C23.4578 25.4847 23.4634 25.4802 23.4712 25.4802C24.8391 25.5606 26.2249 25.6198 27.6274 25.651C28.4862 25.6723 29.3293 25.6834 30.15 25.6834C30.7362 25.6834 31.337 25.6767 31.9434 25.6656C40.0571 25.5405 47.5767 24.5757 52.8094 23.0805C53.0506 23.0124 53.2862 22.942 53.5185 22.8717C53.6603 22.8281 53.8055 22.7857 53.9428 22.7421C54.347 22.6126 54.7345 22.4797 55.1086 22.3412C55.1734 22.3167 55.2348 22.2921 55.2996 22.2675C55.6156 22.1481 55.9193 22.0241 56.2097 21.8979C56.2934 21.8611 56.3794 21.8253 56.4609 21.7885C56.7702 21.6489 57.0695 21.506 57.3464 21.3575C57.4715 21.2916 57.5798 21.2235 57.697 21.1565C57.8311 21.0794 57.965 21.0012 58.089 20.922C58.1594 20.8773 58.2431 20.8349 58.3101 20.7902C63.3094 21.8745 64.6271 23.0604 64.7544 23.5227ZM30.15 5.58343C48.5627 5.58343 57.8757 8.4823 58.0499 10.1461C57.9148 10.901 56.2007 11.8982 53.1656 12.8362C49.2149 14.0567 43.033 15.1745 35.1985 15.5206C34.7976 15.5374 34.3978 15.5541 33.9891 15.5675C33.6552 15.5787 33.3202 15.5888 32.9796 15.5977C32.055 15.6189 31.117 15.6334 30.15 15.6334C29.183 15.6334 28.245 15.6189 27.3204 15.5977C26.9809 15.5899 26.6459 15.5787 26.3109 15.5675C25.9011 15.5553 25.5013 15.5374 25.1016 15.5206C17.267 15.1745 11.084 14.0567 7.13438 12.8362C4.09817 11.8982 2.3852 10.901 2.25008 10.1461C2.42428 8.4823 11.7373 5.58343 30.15 5.58343ZM2.23333 17.8623V13.2382C3.12555 13.7999 4.25562 14.3124 5.58333 14.7747V20.1213C3.41142 19.3073 2.23557 18.491 2.23333 17.8623ZM7.64247 33.3158C7.65922 33.3337 7.6849 33.3493 7.70165 33.3672C9.23037 34.9104 12.3961 36.1231 16.3368 37.0276C16.4273 37.0489 16.5233 37.069 16.6149 37.0902C16.9041 37.1549 17.1978 37.2186 17.4948 37.28C21.1139 38.0505 25.4343 38.6077 30.1411 38.8835C30.1444 38.8835 30.1467 38.8847 30.1489 38.8847C30.1511 38.8847 30.1522 38.8835 30.1534 38.8835C31.6653 38.9718 33.2119 39.0332 34.7909 39.06C35.4899 39.0745 36.1778 39.0834 36.85 39.0834C37.6205 39.0834 38.4111 39.0745 39.2151 39.0555C40.6757 39.0254 42.1151 38.9651 43.5344 38.8824C43.54 38.8824 43.5444 38.8858 43.55 38.8858C43.5601 38.8858 43.5679 38.8802 43.5779 38.8802C48.297 38.6021 52.7245 38.0393 56.4687 37.2298C55.658 37.6541 54.548 38.0929 53.1656 38.5206C48.9949 39.8093 42.334 40.9829 33.8685 41.2553C33.6172 41.2632 33.3694 41.2721 33.1147 41.2788C32.8412 41.2855 32.5631 41.29 32.2851 41.2955C31.5827 41.3067 30.8758 41.3168 30.15 41.3168C29.183 41.3168 28.245 41.3022 27.3204 41.281C26.9809 41.2732 26.6459 41.2621 26.3109 41.2509C25.9011 41.2386 25.5013 41.2207 25.1016 41.204C17.267 40.8578 11.084 39.74 7.13438 38.5195C4.06355 37.5703 2.345 36.5609 2.24562 35.8027C2.36957 35.3828 3.49852 34.332 7.64247 33.3158ZM2.23333 43.5456V38.9215C3.12555 39.4832 4.25562 39.9957 5.58333 40.458V45.7834L4.94572 45.5355L4.93232 45.5489C3.17915 44.822 2.23557 44.1084 2.23333 43.5456ZM5.58333 55.829V51.2048C6.47555 51.7665 7.60562 52.2791 8.93333 52.7414V58.088C6.76142 57.2739 5.58557 56.4576 5.58333 55.829ZM58.0667 58.088V52.7425C59.3944 52.2802 60.5245 51.7676 61.4167 51.206V55.8267C61.4156 56.4554 60.2386 57.2728 58.0667 58.088ZM61.4021 48.1027C61.2804 48.8587 59.5652 49.8615 56.5156 50.804C52.5648 52.0245 46.383 53.1423 38.5485 53.4884C38.1476 53.5052 37.7478 53.5219 37.3391 53.5353C37.0052 53.5465 36.6702 53.5565 36.3296 53.5655C35.405 53.5856 34.467 53.6001 33.5 53.6001C32.533 53.6001 31.5939 53.5856 30.6681 53.5644C30.332 53.5565 30.0004 53.5454 29.6687 53.5342C29.2567 53.5208 28.8547 53.5041 28.4515 53.4873C20.617 53.1411 14.4352 52.0234 10.4844 50.8028C7.5308 49.8905 5.82453 48.9213 5.61013 48.1731C5.9429 48.2892 6.28795 48.402 6.64193 48.5126C6.67767 48.5237 6.7134 48.5349 6.74913 48.5449C7.05063 48.6376 7.35883 48.727 7.67485 48.8141C7.79433 48.8476 7.91493 48.8811 8.03665 48.9134C8.21532 48.9615 8.39845 49.0072 8.58158 49.0541C12.6485 50.096 17.8399 50.8341 23.4444 51.1658C23.4467 51.1658 23.4478 51.1669 23.45 51.1669C23.4511 51.1669 23.4522 51.1658 23.4534 51.1658C25.1842 51.2685 26.9519 51.3321 28.7385 51.3534C29.2142 51.3623 29.6866 51.3668 30.15 51.3668C30.7653 51.3668 31.3951 51.359 32.0327 51.3478C33.6619 51.321 35.2699 51.2607 36.8422 51.1669C36.8455 51.1669 36.8478 51.1691 36.8511 51.1691C36.8567 51.1691 36.8601 51.1658 36.8656 51.1658C38.7807 51.0507 40.6344 50.8866 42.4155 50.6823C42.4222 50.6823 42.4277 50.6856 42.4344 50.6856C42.459 50.6856 42.4791 50.6733 42.5037 50.6711C44.4869 50.4422 46.3673 50.1608 48.1127 49.8336C48.4723 49.7677 48.8263 49.6996 49.1769 49.6292C49.2551 49.6136 49.3332 49.598 49.4114 49.5812C52.7089 48.9045 55.5631 48.0279 57.5217 46.9414C57.6289 46.8833 57.7294 46.823 57.8311 46.7639C57.955 46.6902 58.0734 46.6153 58.1884 46.5394C58.2956 46.4702 58.4195 46.4032 58.5178 46.3328C60.7221 47.119 61.3296 47.8225 61.4021 48.1027ZM61.4167 33.5213V28.1758C62.7444 27.7135 63.8745 27.201 64.7667 26.6393V31.2601C64.7655 31.8887 63.5886 32.7061 61.4167 33.5213Z" fill="#000000"/>
</svg>
