<svg width="27" height="27" viewBox="0 0 27 27" fill="none" xmlns="http://www.w3.org/2000/svg">
<circle cx="13.0312" cy="13.0312" r="12.2812" fill="#5546FF" stroke="#F5F5F5" stroke-width="1.5"/>
<path d="M17.0541 9.21498L17.0542 9.21541C17.0627 9.25826 17.0674 9.30241 17.0674 9.34713L17.0675 15.0866L16.9675 15.0866L17.0675 15.0866C17.0675 15.4588 16.7656 15.7607 16.3934 15.7607C16.0214 15.7607 15.7196 15.4589 15.7196 15.0867L15.7196 10.9741L9.56474 17.129C9.30156 17.3922 8.8748 17.3922 8.61162 17.129C8.34843 16.8658 8.34843 16.4391 8.61162 16.1759L14.7664 10.0211L10.654 10.0212H10.6539C10.2817 10.0211 9.97988 9.71934 9.97988 9.34713L9.97988 9.3471C9.97999 8.97502 10.2818 8.67325 10.6539 8.67325L16.393 8.67315L16.393 8.77315L16.393 8.67315C16.4377 8.67315 16.4824 8.6777 16.5261 8.68665L16.5262 8.68666C16.543 8.69011 16.5686 8.69845 16.577 8.70119C16.5785 8.70167 16.5794 8.70197 16.5797 8.70206L16.5798 8.70209C16.5825 8.70289 16.5859 8.70382 16.5898 8.70489C16.6057 8.70927 16.6298 8.7159 16.6512 8.7247L17.0541 9.21498ZM17.0541 9.21498C17.0506 9.19746 17.0422 9.17158 17.0389 9.16161C17.0383 9.15957 17.0378 9.1582 17.0377 9.15769L17.0372 9.1562M17.0541 9.21498L17.0372 9.1562M17.0372 9.1562C17.0367 9.15448 17.036 9.15169 17.035 9.14813C17.0312 9.13454 17.0243 9.1097 17.0162 9.09013C17.0073 9.06814 16.9946 9.04608 16.9866 9.03213C16.9848 9.02898 16.9832 9.02624 16.9819 9.02401L16.8945 9.07257L16.9825 9.02495C16.9822 9.02453 16.9817 9.02339 16.9808 9.02169C16.9764 9.01283 16.9644 8.98882 16.9543 8.97362L16.9542 8.97347M17.0372 9.1562L16.9542 8.97347M16.9542 8.97347C16.9296 8.93658 16.9016 8.90211 16.8701 8.87057C16.8685 8.86903 16.8671 8.86767 16.8657 8.86647M16.9542 8.97347L16.8657 8.86647M16.86 8.86177C16.8618 8.86318 16.8648 8.86557 16.8681 8.86887L16.8657 8.86647M16.86 8.86177L16.8605 8.86215C16.8618 8.86317 16.8636 8.86461 16.8657 8.86647M16.86 8.86177C16.8582 8.86037 16.8566 8.85926 16.857 8.85953L16.8573 8.85972L16.858 8.86021L16.86 8.86177ZM16.8657 8.86647C16.8356 8.83697 16.8026 8.81015 16.7674 8.78664L16.7119 8.86985L16.7674 8.78664C16.7518 8.77627 16.7279 8.76427 16.7179 8.75927C16.7157 8.75819 16.7142 8.75743 16.7136 8.75709L16.8657 8.86647Z" fill="white" stroke="white" stroke-width="0.2"/>
</svg>
