<svg width="16" height="16" viewBox="0 0 16 16" fill="none" xmlns="http://www.w3.org/2000/svg">
<circle cx="8" cy="8" r="7.25" fill="#5546FF" stroke="#F5F5F5" stroke-width="1.5"/>
<g clip-path="url(#clip0_2794_12492)">
<path d="M8.41675 11.7501L8.41675 5.25591L10.6518 7.49091C10.8145 7.65362 11.0783 7.65362 11.2409 7.49102C11.4036 7.32831 11.4036 7.06435 11.2409 6.90164L8.29467 3.9555C8.2753 3.93612 8.25394 3.91883 8.23123 3.90362C8.22071 3.89664 8.20936 3.89175 8.19842 3.88571C8.1855 3.87883 8.17321 3.87091 8.15957 3.86539C8.1455 3.85946 8.13092 3.85612 8.11634 3.85196C8.10478 3.84852 8.09373 3.84404 8.08186 3.84164C8.05478 3.83623 8.02748 3.83341 8.00009 3.83341C7.99978 3.83341 7.99946 3.83352 7.99915 3.83352C7.97217 3.83362 7.94509 3.83633 7.91852 3.84164C7.90602 3.84414 7.89446 3.84883 7.88217 3.85248C7.86832 3.85654 7.85425 3.85966 7.84082 3.86529C7.82634 3.87133 7.81321 3.87946 7.79957 3.88696C7.78936 3.89258 7.77894 3.89706 7.76915 3.90352C7.74613 3.91873 7.72467 3.93623 7.70519 3.95571L4.75925 6.90175C4.59654 7.06446 4.59654 7.32831 4.75915 7.49102C4.92186 7.65373 5.18571 7.65373 5.34852 7.49102L7.58342 5.25602L7.58342 11.7501C7.58342 11.9802 7.76998 12.1667 8.00009 12.1667C8.23019 12.1667 8.41675 11.9802 8.41675 11.7501Z" fill="white"/>
</g>
<defs>
<clipPath id="clip0_2794_12492">
<rect width="10" height="10" fill="white" transform="translate(3 13) rotate(-90)"/>
</clipPath>
</defs>
</svg>
