<svg width="22" height="22" viewBox="0 0 22 22" fill="#000000" xmlns="http://www.w3.org/2000/svg">
<path d="M17.7117 12.1205L20.5391 14.9479L17.7117 17.7752L16.7943 16.8583L18.1328 15.5181C14.474 15.1219 12.2671 13.2837 10.1247 11.4984C7.7825 9.545 5.56875 7.70035 1.46094 7.70035V6.40227C6.0384 6.40227 8.53875 8.48582 10.957 10.5006C12.9598 12.17 14.8672 13.7594 17.9446 14.1865L16.7948 13.0371L17.7117 12.1205ZM12.2517 10.437C13.9631 9.09898 15.6462 8.12531 17.9463 7.80992L16.7943 8.96191L17.7117 9.8793L20.5391 7.05195L17.7117 4.22461L16.7943 5.14156L18.1354 6.48305C15.183 6.80445 13.1785 8.06602 11.4525 9.41523L12.2517 10.437ZM1.46094 14.2995V15.5976C5.29805 15.5976 7.72106 14.0937 9.76766 12.4725L8.96199 11.4558C6.80883 13.1621 4.70937 14.2995 1.46094 14.2995Z" fill="#000000"/>
</svg>
