<svg width="14" height="14" viewBox="0 0 14 14" fill="none" xmlns="http://www.w3.org/2000/svg">
<path d="M7 13C10.3137 13 13 10.3137 13 7C13 3.68629 10.3137 1 7 1C3.68629 1 1 3.68629 1 7C1 10.3137 3.68629 13 7 13Z" fill="#06B400"/>
<path d="M7 12.625C10.1066 12.625 12.625 10.1066 12.625 7C12.625 3.8934 10.1066 1.375 7 1.375C3.8934 1.375 1.375 3.8934 1.375 7C1.375 10.1066 3.8934 12.625 7 12.625Z" stroke="#06B400"/>
<path d="M5.95762 8.37157L4.78177 7.19572C4.71842 7.13236 4.63249 7.09677 4.5429 7.09677C4.4533 7.09677 4.36738 7.13236 4.30402 7.19572C4.24067 7.25907 4.20508 7.345 4.20508 7.43459C4.20508 7.52419 4.24067 7.61011 4.30402 7.67347L5.72047 9.08992C5.75182 9.12133 5.78906 9.14624 5.83004 9.16324C5.87103 9.18024 5.91497 9.189 5.95935 9.189C6.00372 9.189 6.04766 9.18024 6.08865 9.16324C6.12964 9.14624 6.16688 9.12133 6.19822 9.08992L9.78322 5.50492C9.84658 5.44156 9.88217 5.35564 9.88217 5.26604C9.88217 5.17645 9.84658 5.09052 9.78322 5.02717C9.71987 4.96381 9.63394 4.92822 9.54435 4.92822C9.45475 4.92822 9.36883 4.96381 9.30547 5.02717L5.95762 8.37157Z" fill="white"/>
</svg>
