<svg width="12" height="12" viewBox="0 0 12 12" fill="none" xmlns="http://www.w3.org/2000/svg">
<rect width="12" height="12" rx="6" fill="#FF0101"/>
<path d="M7.91155 4.09165C7.88349 4.06352 7.85015 4.04121 7.81345 4.02598C7.77675 4.01076 7.7374 4.00292 7.69767 4.00292C7.65794 4.00292 7.61859 4.01076 7.58189 4.02598C7.54519 4.04121 7.51185 4.06352 7.48379 4.09165L6.00007 5.57225L4.51636 4.08859C4.48827 4.0605 4.45493 4.03822 4.41823 4.02302C4.38153 4.00782 4.3422 4 4.30248 4C4.26275 4 4.22342 4.00782 4.18672 4.02302C4.15003 4.03822 4.11668 4.0605 4.08859 4.08859C4.03187 4.14531 4 4.22225 4 4.30246C4 4.38268 4.03187 4.45962 4.08859 4.51634L5.57231 6L4.08859 7.48352C4.03187 7.54024 4 7.61717 4 7.69739C4 7.77761 4.03187 7.85454 4.08859 7.91126C4.14532 7.96799 4.22225 7.99985 4.30248 7.99985C4.3827 7.99985 4.45963 7.96799 4.51636 7.91126L6.00007 6.42775L7.48364 7.91141C7.54037 7.96813 7.6173 8 7.69752 8C7.77775 8 7.85468 7.96813 7.91141 7.91141C7.96813 7.85469 8 7.77775 8 7.69754C8 7.61732 7.96813 7.54038 7.91141 7.48366L6.42784 6L7.91155 4.51634C7.96697 4.45955 7.998 4.38334 7.998 4.30399C7.998 4.22464 7.96697 4.14844 7.91155 4.09165Z" fill="white"/>
</svg>
